<svg width="37" height="58" viewBox="0 0 37 58" fill="none" xmlns="http://www.w3.org/2000/svg">
<path d="M17.0125 5.26657C17.0125 5.26657 16.2246 12.7884 13.9365 15.9644C13.9365 15.9644 18.1305 19.3953 18.1305 20.6909C18.1305 20.6909 17.5454 21.4538 18.3086 21.5044L22.7574 20.6402L22.9355 20.6141C22.9355 20.6141 23.5626 20.0047 22.5373 19.776C22.5373 19.776 23.063 15.8124 24.7153 13.8292C24.7153 13.8292 21.538 11.694 17.6728 5.26512L19.3252 14.1332C19.3252 14.1332 20.9008 14.388 20.113 15.8862C20.113 15.8862 19.3252 16.9285 18.4099 15.5808C18.4099 15.5808 18.2072 14.692 18.9443 14.2345L17.0125 5.26367V5.26657Z" fill="#ED5C6D"/>
<path d="M22.7915 19.3703L17.9117 20.4419C17.6023 20.5099 17.4067 20.8156 17.4746 21.1248L17.5066 21.2705C17.5746 21.5797 17.8804 21.7753 18.1898 21.7074L23.0696 20.6358C23.379 20.5679 23.5747 20.2621 23.5067 19.9529L23.4747 19.8073C23.4068 19.498 23.1009 19.3024 22.7915 19.3703Z" fill="#ED5C6D"/>
<path d="M24.2823 21.7566L18.1987 23.0925C17.9487 23.1474 17.7906 23.3945 17.8455 23.6443L17.8716 23.7631C17.9265 24.013 18.1737 24.1711 18.4237 24.1162L24.5072 22.7802C24.7572 22.7253 24.9153 22.4783 24.8604 22.2284L24.8343 22.1096C24.7794 21.8598 24.5323 21.7017 24.2823 21.7566Z" fill="#ED5C6D"/>
<path d="M23.3632 20.7076L18.2485 21.8308C17.9985 21.8857 17.8404 22.1327 17.8953 22.3826L17.9214 22.5014C17.9763 22.7513 18.2235 22.9093 18.4735 22.8544L23.5881 21.7313C23.8381 21.6764 23.9963 21.4293 23.9413 21.1794L23.9152 21.0607C23.8603 20.8108 23.6132 20.6527 23.3632 20.7076Z" fill="#ED5C6D"/>
<path d="M24.6638 22.9613L18.6255 24.2873C18.3755 24.3422 18.2174 24.5893 18.2723 24.8392L18.2984 24.9579C18.3533 25.2078 18.6005 25.3659 18.8504 25.311L24.8887 23.985C25.1387 23.9301 25.2968 23.683 25.2419 23.4332L25.2158 23.3144C25.1609 23.0645 24.9137 22.9065 24.6638 22.9613Z" fill="#ED5C6D"/>
<path d="M21.2834 23.7048L18.5551 24.32C18.5551 24.32 18.3147 24.4344 18.2712 24.7138C18.2712 24.7138 18.2669 24.8744 18.3103 25.0424L18.4363 25.8501L18.5971 26.9112L18.794 28.2575L18.9953 29.7008L19.1981 31.2555L19.3979 32.9724C19.3979 32.9724 19.6253 35.1293 19.5949 35.3146C19.5949 35.3146 19.6817 36.3207 19.5775 36.7058C19.5775 36.7058 19.4732 37.3702 18.8027 37.9276C18.8027 37.9276 15.3749 41.7044 15.0027 42.2588C14.4871 43.0246 12.3612 45.2626 11.5575 47.7858C11.5575 47.7858 10.6118 50.2583 10.787 52.6773C10.787 52.6773 10.5973 57.1113 15.3314 57.9668C15.3314 57.9668 19.4298 58.6733 23.3818 53.4286C27.3354 48.1839 27.528 42.6641 27.528 42.6641C27.528 42.6641 27.9986 38.0882 27.8973 36.9852C27.7959 35.8821 28.617 35.3349 28.617 35.3349C28.617 35.3349 32.4677 31.6 32.795 30.7937C32.795 30.7937 34.3011 28.5601 34.892 27.0632C34.892 27.0632 36.8977 23.2285 36.653 18.2227C36.4082 13.2168 34.4344 10.0856 34.4344 10.0856C34.4344 10.0856 31.0862 3.13132 23.7193 0.932401C16.3509 -1.26652 11.1607 1.10756 11.1607 1.10756C11.1607 1.10756 4.22098 3.19936 0.690318 10.0885L0.170422 11.1974C-0.103284 11.7808 -0.0497013 12.4771 0.348548 12.9823C0.58605 13.2834 0.949543 13.5339 1.5042 13.5744C2.33111 13.6337 3.10878 13.1633 3.47951 12.4221C4.36145 10.6647 6.85812 6.55782 11.6472 4.74975C11.6472 4.74975 19.6369 1.03808 26.7141 6.6577C33.7914 12.2773 32.9862 19.0362 32.9862 19.0362C32.9862 19.0362 33.1049 25.2363 29.2919 29.2766C29.2919 29.2766 27.7061 31.1773 27.1225 31.4133L20.8678 42.0069C20.8678 42.0069 20.4493 48.679 19.1213 51.1153C19.1213 51.1153 18.2003 55.0861 15.4791 54.7097C12.758 54.3333 14.603 49.798 14.603 49.798C14.603 49.798 16.7014 44.9644 20.1539 42.5585L20.6491 42.1951L27.0805 31.1643L26.3752 28.8916L25.5932 25.6258L25.2283 23.3733C25.2283 23.3733 25.1906 22.8883 24.5621 22.9824L21.2834 23.7033V23.7048Z" fill="#ED5C6D"/>
<path d="M27.0803 31.167C27.0803 31.167 27.0238 31.2148 27.1223 31.416L27.0643 32.5451L26.4069 34.4386L25.1861 36.4971L20.8676 42.011L20.6475 42.1978L20.7242 41.1092L21.932 37.6914L22.5373 35.0104L25.7451 31.2365L27.0803 31.167Z" fill="#ED5C6D"/>
</svg>
