<svg width="24" height="17" viewBox="0 0 24 17" fill="none" xmlns="http://www.w3.org/2000/svg">
<path d="M1.5 7H22.5C23.3284 7 24 7.67158 24 8.5C24 9.32842 23.3284 10 22.5 10H1.5C0.671577 10 0 9.32842 0 8.5C0 7.67158 0.671577 7 1.5 7Z" fill="white"/>
<path d="M22.5 3H1.5C0.671577 3 0 2.32842 0 1.5C0 0.671578 0.671577 0 1.5 0H22.5C23.3284 0 24 0.671578 24 1.5C24 2.32842 23.3284 3 22.5 3Z" fill="white"/>
<path d="M1.5 14H22.5C23.3284 14 24 14.6716 24 15.5C24 16.3284 23.3284 17 22.5 17H1.5C0.671577 17 0 16.3284 0 15.5C0 14.6716 0.671577 14 1.5 14Z" fill="white"/>
</svg>
