<svg width="693" height="391" viewBox="0 0 693 391" fill="none" xmlns="http://www.w3.org/2000/svg">
<g opacity="0.1">
<ellipse cx="3.98607" cy="4.11182" rx="3.98607" ry="3.5083" fill="white"/>
<ellipse cx="3.98607" cy="223.185" rx="3.98607" ry="3.5083" fill="white"/>
<ellipse cx="3.98607" cy="113.649" rx="3.98607" ry="3.5083" fill="white"/>
<ellipse cx="3.98607" cy="332.723" rx="3.98607" ry="3.5083" fill="white"/>
<ellipse cx="3.98607" cy="58.8804" rx="3.98607" ry="3.5083" fill="white"/>
<ellipse cx="3.98607" cy="277.954" rx="3.98607" ry="3.5083" fill="white"/>
<ellipse cx="3.98607" cy="168.417" rx="3.98607" ry="3.5083" fill="white"/>
<ellipse cx="3.98607" cy="387.491" rx="3.98607" ry="3.5083" fill="white"/>
<ellipse cx="377.349" cy="4.11182" rx="3.98607" ry="3.5083" fill="white"/>
<ellipse cx="377.349" cy="223.185" rx="3.98607" ry="3.5083" fill="white"/>
<ellipse cx="377.349" cy="113.649" rx="3.98607" ry="3.5083" fill="white"/>
<ellipse cx="377.349" cy="332.723" rx="3.98607" ry="3.5083" fill="white"/>
<ellipse cx="377.349" cy="58.8804" rx="3.98607" ry="3.5083" fill="white"/>
<ellipse cx="377.349" cy="277.954" rx="3.98607" ry="3.5083" fill="white"/>
<ellipse cx="377.349" cy="168.417" rx="3.98607" ry="3.5083" fill="white"/>
<ellipse cx="377.349" cy="387.491" rx="3.98607" ry="3.5083" fill="white"/>
<ellipse cx="190.668" cy="4.11182" rx="3.98607" ry="3.5083" fill="white"/>
<ellipse cx="190.668" cy="223.185" rx="3.98607" ry="3.5083" fill="white"/>
<ellipse cx="190.668" cy="113.649" rx="3.98607" ry="3.5083" fill="white"/>
<ellipse cx="190.668" cy="332.723" rx="3.98607" ry="3.5083" fill="white"/>
<ellipse cx="190.668" cy="58.8804" rx="3.98607" ry="3.5083" fill="white"/>
<ellipse cx="190.668" cy="277.954" rx="3.98607" ry="3.5083" fill="white"/>
<ellipse cx="190.668" cy="168.417" rx="3.98607" ry="3.5083" fill="white"/>
<ellipse cx="190.668" cy="387.491" rx="3.98607" ry="3.5083" fill="white"/>
<ellipse cx="564.03" cy="4.11182" rx="3.98607" ry="3.5083" fill="white"/>
<ellipse cx="564.03" cy="223.185" rx="3.98607" ry="3.5083" fill="white"/>
<ellipse cx="564.03" cy="113.649" rx="3.98607" ry="3.5083" fill="white"/>
<ellipse cx="564.03" cy="332.723" rx="3.98607" ry="3.5083" fill="white"/>
<ellipse cx="564.03" cy="58.8804" rx="3.98607" ry="3.5083" fill="white"/>
<ellipse cx="564.03" cy="277.954" rx="3.98607" ry="3.5083" fill="white"/>
<ellipse cx="564.03" cy="168.417" rx="3.98607" ry="3.5083" fill="white"/>
<ellipse cx="564.03" cy="387.491" rx="3.98607" ry="3.5083" fill="white"/>
<ellipse cx="66.2136" cy="4.11182" rx="3.98607" ry="3.5083" fill="white"/>
<ellipse cx="66.2136" cy="223.185" rx="3.98607" ry="3.5083" fill="white"/>
<ellipse cx="66.2136" cy="113.649" rx="3.98607" ry="3.5083" fill="white"/>
<ellipse cx="66.2136" cy="332.723" rx="3.98607" ry="3.5083" fill="white"/>
<ellipse cx="66.2136" cy="58.8804" rx="3.98607" ry="3.5083" fill="white"/>
<ellipse cx="66.2136" cy="277.954" rx="3.98607" ry="3.5083" fill="white"/>
<ellipse cx="66.2136" cy="168.417" rx="3.98607" ry="3.5083" fill="white"/>
<ellipse cx="66.2136" cy="387.491" rx="3.98607" ry="3.5083" fill="white"/>
<ellipse cx="439.575" cy="4.11182" rx="3.98607" ry="3.5083" fill="white"/>
<ellipse cx="439.575" cy="223.185" rx="3.98607" ry="3.5083" fill="white"/>
<ellipse cx="439.575" cy="113.649" rx="3.98607" ry="3.5083" fill="white"/>
<ellipse cx="439.575" cy="332.723" rx="3.98607" ry="3.5083" fill="white"/>
<ellipse cx="439.575" cy="58.8804" rx="3.98607" ry="3.5083" fill="white"/>
<ellipse cx="439.575" cy="277.954" rx="3.98607" ry="3.5083" fill="white"/>
<ellipse cx="439.575" cy="168.417" rx="3.98607" ry="3.5083" fill="white"/>
<ellipse cx="439.575" cy="387.491" rx="3.98607" ry="3.5083" fill="white"/>
<ellipse cx="252.893" cy="4.11182" rx="3.98607" ry="3.5083" fill="white"/>
<ellipse cx="252.893" cy="223.185" rx="3.98607" ry="3.5083" fill="white"/>
<ellipse cx="252.893" cy="113.649" rx="3.98607" ry="3.5083" fill="white"/>
<ellipse cx="252.893" cy="332.723" rx="3.98607" ry="3.5083" fill="white"/>
<ellipse cx="252.893" cy="58.8804" rx="3.98607" ry="3.5083" fill="white"/>
<ellipse cx="252.893" cy="277.954" rx="3.98607" ry="3.5083" fill="white"/>
<ellipse cx="252.893" cy="168.417" rx="3.98607" ry="3.5083" fill="white"/>
<ellipse cx="252.893" cy="387.491" rx="3.98607" ry="3.5083" fill="white"/>
<ellipse cx="626.257" cy="4.11182" rx="3.98607" ry="3.5083" fill="white"/>
<ellipse cx="626.257" cy="223.185" rx="3.98607" ry="3.5083" fill="white"/>
<ellipse cx="626.257" cy="113.649" rx="3.98607" ry="3.5083" fill="white"/>
<ellipse cx="626.257" cy="332.723" rx="3.98607" ry="3.5083" fill="white"/>
<ellipse cx="626.257" cy="58.8804" rx="3.98607" ry="3.5083" fill="white"/>
<ellipse cx="626.257" cy="277.954" rx="3.98607" ry="3.5083" fill="white"/>
<ellipse cx="626.257" cy="168.417" rx="3.98607" ry="3.5083" fill="white"/>
<ellipse cx="626.257" cy="387.491" rx="3.98607" ry="3.5083" fill="white"/>
<ellipse cx="128.44" cy="4.11182" rx="3.98607" ry="3.5083" fill="white"/>
<ellipse cx="128.44" cy="223.185" rx="3.98607" ry="3.5083" fill="white"/>
<ellipse cx="128.44" cy="113.649" rx="3.98607" ry="3.5083" fill="white"/>
<ellipse cx="128.44" cy="332.723" rx="3.98607" ry="3.5083" fill="white"/>
<ellipse cx="128.44" cy="58.8804" rx="3.98607" ry="3.5083" fill="white"/>
<ellipse cx="128.44" cy="277.954" rx="3.98607" ry="3.5083" fill="white"/>
<ellipse cx="128.44" cy="168.417" rx="3.98607" ry="3.5083" fill="white"/>
<ellipse cx="128.44" cy="387.491" rx="3.98607" ry="3.5083" fill="white"/>
<ellipse cx="501.802" cy="4.11182" rx="3.98607" ry="3.5083" fill="white"/>
<ellipse cx="501.802" cy="223.185" rx="3.98607" ry="3.5083" fill="white"/>
<ellipse cx="501.802" cy="113.649" rx="3.98607" ry="3.5083" fill="white"/>
<ellipse cx="501.802" cy="332.723" rx="3.98607" ry="3.5083" fill="white"/>
<ellipse cx="501.802" cy="58.8804" rx="3.98607" ry="3.5083" fill="white"/>
<ellipse cx="501.802" cy="277.954" rx="3.98607" ry="3.5083" fill="white"/>
<ellipse cx="501.802" cy="168.417" rx="3.98607" ry="3.5083" fill="white"/>
<ellipse cx="501.802" cy="387.491" rx="3.98607" ry="3.5083" fill="white"/>
<ellipse cx="315.121" cy="4.11182" rx="3.98607" ry="3.5083" fill="white"/>
<ellipse cx="315.121" cy="223.185" rx="3.98607" ry="3.5083" fill="white"/>
<ellipse cx="315.121" cy="113.649" rx="3.98607" ry="3.5083" fill="white"/>
<ellipse cx="315.121" cy="332.723" rx="3.98607" ry="3.5083" fill="white"/>
<ellipse cx="315.121" cy="58.8804" rx="3.98607" ry="3.5083" fill="white"/>
<ellipse cx="315.121" cy="277.954" rx="3.98607" ry="3.5083" fill="white"/>
<ellipse cx="315.121" cy="168.417" rx="3.98607" ry="3.5083" fill="white"/>
<ellipse cx="315.121" cy="387.491" rx="3.98607" ry="3.5083" fill="white"/>
<ellipse cx="688.484" cy="4.11182" rx="3.98607" ry="3.5083" fill="white"/>
<ellipse cx="688.484" cy="223.185" rx="3.98607" ry="3.5083" fill="white"/>
<ellipse cx="688.484" cy="113.649" rx="3.98607" ry="3.5083" fill="white"/>
<ellipse cx="688.484" cy="332.723" rx="3.98607" ry="3.5083" fill="white"/>
<ellipse cx="688.484" cy="58.8804" rx="3.98607" ry="3.5083" fill="white"/>
<ellipse cx="688.484" cy="277.954" rx="3.98607" ry="3.5083" fill="white"/>
<ellipse cx="688.484" cy="168.417" rx="3.98607" ry="3.5083" fill="white"/>
<ellipse cx="688.484" cy="387.491" rx="3.98607" ry="3.5083" fill="white"/>
</g>
</svg>
