<svg width="28" height="38" viewBox="0 0 28 38" fill="none" xmlns="http://www.w3.org/2000/svg">
<path d="M20.3151 12.5667C20.3151 16.085 17.4629 18.9372 13.9447 18.9372C10.4264 18.9372 7.57422 16.085 7.57422 12.5667C7.57422 9.04843 10.4264 6.19629 13.9447 6.19629C17.4629 6.19629 20.3151 9.04843 20.3151 12.5667Z" fill="#FCACB4" stroke="#EA4054" stroke-width="1.5"/>
<path d="M26.0723 12.6193C26.0723 13.8141 23.7261 14.6198 23.3762 15.697C23.0144 16.8134 24.4257 18.8441 23.7502 19.7734C23.0686 20.7118 20.6952 19.9937 19.7573 20.6756C18.8285 21.3515 18.7833 23.8348 17.6674 24.1968C16.5908 24.5469 15.101 22.5765 13.9068 22.5765C12.7125 22.5765 11.2227 24.5469 10.1461 24.1968C9.03029 23.8348 8.98506 21.3515 8.05621 20.6756C7.11831 19.9937 4.7449 20.7118 4.06334 19.7734C3.38781 18.8441 4.79919 16.8134 4.4373 15.697C4.08747 14.6198 1.74121 13.8111 1.74121 12.6193C1.74121 11.4274 4.08747 10.6187 4.4373 9.54155C4.79919 8.42513 3.38781 6.39445 4.06334 5.46511C4.7449 4.52671 7.11831 5.24484 8.05621 4.56292C8.98506 3.88703 9.03029 1.40375 10.1461 1.04166C11.2227 0.691651 12.7125 2.66198 13.9068 2.66198C15.101 2.66198 16.5908 0.691651 17.6674 1.04166C18.7833 1.40375 18.8285 3.88703 19.7573 4.56292C20.6952 5.24484 23.0686 4.52671 23.7502 5.46511C24.4257 6.39445 23.0144 8.42513 23.3762 9.54155C23.7231 10.6157 26.0723 11.4244 26.0723 12.6193Z" stroke="#EA4054" stroke-width="1.5" stroke-miterlimit="10"/>
<path d="M13.7158 24.7066L18.8155 36.3627C19.1562 37.1412 20.2118 37.2287 20.4741 36.5015L21.3155 33.7044C21.4784 33.2488 22.0031 33.0707 22.4736 33.3121L25.2209 34.8661C25.9719 35.2493 26.6836 34.5704 26.3458 33.7949L20.4198 20.25" stroke="#EA4054" stroke-width="1.5" stroke-miterlimit="10"/>
<path d="M14.5668 22.7635L8.61667 36.3627C8.27588 37.1412 7.22037 37.2287 6.958 36.5015L6.1166 33.7044C5.95375 33.2488 5.42901 33.0707 4.95855 33.3121L2.2112 34.8661C1.46028 35.2493 0.748557 34.5704 1.08632 33.7949L7.0153 20.25" stroke="#EA4054" stroke-width="1.5" stroke-miterlimit="10"/>
</svg>
