<svg width="360" height="228" viewBox="0 0 360 228" fill="none" xmlns="http://www.w3.org/2000/svg">
<path d="M97.1293 22.2535H95.456C94.3405 22.2535 93.5039 21.414 93.5039 20.2948C93.5039 19.1754 94.3405 18.3359 95.456 18.3359H97.1293C98.2448 18.3359 99.0813 19.1754 99.0813 20.2948C99.0813 21.414 98.2448 22.2535 97.1293 22.2535Z" fill="#242B37"/>
<path d="M97.1293 31.2068H95.456C94.3405 31.2068 93.5039 30.3673 93.5039 29.2479C93.5039 28.1286 94.3405 27.2891 95.456 27.2891H97.1293C98.2448 27.2891 99.0813 28.1286 99.0813 29.2479C99.0813 30.3673 98.2448 31.2068 97.1293 31.2068Z" fill="#242B37"/>
<path d="M97.1293 39.8826H95.456C94.3405 39.8826 93.5039 39.043 93.5039 37.9237C93.5039 36.8044 94.3405 35.9648 95.456 35.9648H97.1293C98.2448 35.9648 99.0813 36.8044 99.0813 37.9237C99.0813 39.3229 98.2448 39.8826 97.1293 39.8826Z" fill="#242B37"/>
<path d="M97.1293 48.8337H95.456C94.3405 48.8337 93.5039 47.9942 93.5039 46.8749C93.5039 45.7555 94.3405 44.916 95.456 44.916H97.1293C98.2448 44.916 99.0813 45.7555 99.0813 46.8749C99.0813 47.9942 98.2448 48.8337 97.1293 48.8337Z" fill="#242B37"/>
<path d="M97.1293 57.7906H95.456C94.3405 57.7906 93.5039 56.9511 93.5039 55.8317C93.5039 54.7126 94.3405 53.873 95.456 53.873H97.1293C98.2448 53.873 99.0813 54.7126 99.0813 55.8317C99.0813 56.9511 98.2448 57.7906 97.1293 57.7906Z" fill="#242B37"/>
<path d="M97.1293 66.7439H95.456C94.3405 66.7439 93.5039 65.9044 93.5039 64.785C93.5039 63.6657 94.3405 62.8262 95.456 62.8262H97.1293C98.2448 62.8262 99.0813 63.6657 99.0813 64.785C99.0813 65.9044 98.2448 66.7439 97.1293 66.7439Z" fill="#242B37"/>
<path d="M97.1293 75.7047H95.456C94.3405 75.7047 93.5039 74.8652 93.5039 73.746C93.5039 72.6266 94.3405 71.7871 95.456 71.7871H97.1293C98.2448 71.7871 99.0813 72.6266 99.0813 73.746C99.0813 74.8652 98.2448 75.7047 97.1293 75.7047Z" fill="#242B37"/>
<path d="M97.1293 84.6519H95.456C94.3405 84.6519 93.5039 83.8126 93.5039 82.6932C93.5039 81.5739 94.3405 80.7344 95.456 80.7344H97.1293C98.2448 80.7344 99.0813 81.5739 99.0813 82.6932C99.0813 83.8126 98.2448 84.6519 97.1293 84.6519Z" fill="#242B37"/>
<path d="M97.1293 93.6091H95.456C94.3405 93.6091 93.5039 92.7696 93.5039 91.6503C93.5039 90.5309 94.3405 89.6914 95.456 89.6914H97.1293C98.2448 89.6914 99.0813 90.5309 99.0813 91.6503C99.0813 92.7696 98.2448 93.6091 97.1293 93.6091Z" fill="#242B37"/>
<path d="M97.1293 102.564H95.456C94.3405 102.564 93.5039 101.724 93.5039 100.605C93.5039 99.4862 94.3405 98.6465 95.456 98.6465H97.1293C98.2448 98.6465 99.0813 99.4862 99.0813 100.605C99.0813 101.724 98.2448 102.564 97.1293 102.564Z" fill="#242B37"/>
<path d="M97.1293 111.517H95.456C94.3405 111.517 93.5039 110.677 93.5039 109.558C93.5039 108.439 94.3405 107.6 95.456 107.6H97.1293C98.2448 107.6 99.0813 108.439 99.0813 109.558C99.0813 110.677 98.2448 111.517 97.1293 111.517Z" fill="#242B37"/>
<path d="M97.1293 120.474H95.456C94.3405 120.474 93.5039 119.634 93.5039 118.515C93.5039 117.396 94.3405 116.557 95.456 116.557H97.1293C98.2448 116.557 99.0813 117.396 99.0813 118.515C99.0813 119.634 98.2448 120.474 97.1293 120.474Z" fill="#242B37"/>
<path d="M97.1293 129.15H95.456C94.3405 129.15 93.5039 128.31 93.5039 127.191C93.5039 126.072 94.3405 125.232 95.456 125.232H97.1293C98.2448 125.232 99.0813 126.072 99.0813 127.191C99.0813 128.31 98.2448 129.15 97.1293 129.15Z" fill="#242B37"/>
<path d="M169.079 48.5562H126.132C125.016 48.5562 124.18 47.7167 124.18 46.5973C124.18 45.478 125.016 44.6385 126.132 44.6385H169.079C170.194 44.6385 171.031 45.478 171.031 46.5973C171.031 47.7167 170.194 48.5562 169.079 48.5562Z" fill="#242B37"/>
<path d="M157.645 57.5134H126.132C125.016 57.5134 124.18 56.6739 124.18 55.5546C124.18 54.4352 125.016 53.5957 126.132 53.5957H157.645C158.76 53.5957 159.597 54.4352 159.597 55.5546C159.597 56.6739 158.76 57.5134 157.645 57.5134Z" fill="#242B37"/>
<path d="M241.029 57.5134H166.568C165.453 57.5134 164.616 56.6739 164.616 55.5546C164.616 54.4352 165.453 53.5957 166.568 53.5957H241.029C242.143 53.5957 242.98 54.4352 242.98 55.5546C242.98 56.6739 242.143 57.5134 241.029 57.5134Z" fill="#242B37"/>
<path d="M181.072 21.9743H141.192C140.077 21.9743 139.24 21.1348 139.24 20.0154C139.24 18.8961 140.077 18.0565 141.192 18.0565H181.351C182.466 18.0565 183.303 18.8961 183.303 20.0154C183.024 21.1348 182.187 21.9743 181.072 21.9743Z" fill="#242B37"/>
<path d="M203.658 21.9744H187.205C186.09 21.9744 185.253 21.1348 185.253 20.0155C185.253 18.8962 186.09 18.0566 187.205 18.0566H203.658C204.774 18.0566 205.611 18.8962 205.611 20.0155C205.611 21.1348 204.774 21.9744 203.658 21.9744Z" fill="#242B37"/>
<path d="M251.906 30.9255H141.192C140.077 30.9255 139.24 30.0861 139.24 28.9668C139.24 27.8474 140.077 27.0079 141.192 27.0079H251.906C253.022 27.0079 253.859 27.8474 253.859 28.9668C253.859 30.0861 252.743 30.9255 251.906 30.9255Z" fill="#242B37"/>
<path d="M271.426 30.9254H261.107C259.993 30.9254 259.156 30.086 259.156 28.9667C259.156 27.8473 259.993 27.0078 261.107 27.0078H271.426C272.542 27.0078 273.378 27.8473 273.378 28.9667C273.378 30.086 272.542 30.9254 271.426 30.9254Z" fill="#242B37"/>
<path d="M217.326 39.8824H141.192C140.077 39.8824 139.24 39.0429 139.24 37.9236C139.24 36.8042 140.077 35.9647 141.192 35.9647H217.326C218.441 35.9647 219.278 36.8042 219.278 37.9236C218.999 39.0429 218.162 39.8824 217.326 39.8824Z" fill="#242B37"/>
<path d="M183.86 75.4215H154.299C153.183 75.4215 152.347 74.582 152.347 73.4628C152.347 72.3434 153.183 71.5039 154.299 71.5039H183.86C184.975 71.5039 185.812 72.3434 185.812 73.4628C185.812 74.582 184.975 75.4215 183.86 75.4215Z" fill="#242B37"/>
<path d="M222.066 75.4215H190.552C189.436 75.4215 188.6 74.582 188.6 73.4626C188.6 72.3434 189.436 71.5039 190.552 71.5039H222.066C223.18 71.5039 224.017 72.3434 224.017 73.4626C224.017 74.582 223.18 75.4215 222.066 75.4215Z" fill="#242B37"/>
<path d="M250.79 75.4215H228.48C227.364 75.4215 226.527 74.582 226.527 73.4626C226.527 72.3434 227.364 71.5039 228.48 71.5039H250.79C251.906 71.5039 252.742 72.3434 252.742 73.4626C252.742 74.582 251.626 75.4215 250.79 75.4215Z" fill="#242B37"/>
<path d="M270.591 75.4215H259.157C258.041 75.4215 257.204 74.582 257.204 73.4626C257.204 72.3434 258.041 71.5039 259.157 71.5039H270.591C271.707 71.5039 272.543 72.3434 272.543 73.4626C272.543 74.582 271.707 75.4215 270.591 75.4215Z" fill="#242B37"/>
<path d="M183.86 102.005H154.299C153.183 102.005 152.347 101.166 152.347 100.047C152.347 98.9277 153.183 98.088 154.299 98.088H183.86C184.975 98.088 185.812 98.9277 185.812 100.047C185.812 101.166 184.975 102.005 183.86 102.005Z" fill="#242B37"/>
<path d="M250.512 128.869H154.299C153.183 128.869 152.347 128.029 152.347 126.91C152.347 125.791 153.183 124.951 154.299 124.951H250.512C251.626 124.951 252.462 125.791 252.462 126.91C252.462 128.029 251.626 128.869 250.512 128.869Z" fill="#242B37"/>
<path d="M197.247 84.0953H167.406C166.291 84.0953 165.454 83.2558 165.454 82.1364C165.454 81.0172 166.291 80.1777 167.406 80.1777H197.247C198.361 80.1777 199.198 81.0172 199.198 82.1364C199.198 83.2558 198.083 84.0953 197.247 84.0953Z" fill="#242B37"/>
<path d="M245.489 84.0953H203.379C202.263 84.0953 201.427 83.2558 201.427 82.1366C201.427 81.0173 202.263 80.1777 203.379 80.1777H245.489C246.605 80.1777 247.442 81.0173 247.442 82.1366C247.442 83.2558 246.327 84.0953 245.489 84.0953Z" fill="#242B37"/>
<path d="M273.1 84.0953H251.626C250.51 84.0953 249.674 83.2558 249.674 82.1366C249.674 81.0173 250.51 80.1777 251.626 80.1777H273.1C274.216 80.1777 275.052 81.0173 275.052 82.1366C275.052 83.2558 274.216 84.0953 273.1 84.0953Z" fill="#242B37"/>
<path d="M203.937 93.0486H167.684C166.568 93.0486 165.731 92.2091 165.731 91.0897C165.731 89.9704 166.568 89.1309 167.684 89.1309H203.937C205.053 89.1309 205.89 89.9704 205.89 91.0897C205.89 92.2091 205.053 93.0486 203.937 93.0486Z" fill="#242B37"/>
<path d="M220.949 93.0486H210.911C209.795 93.0486 208.958 92.2091 208.958 91.0897C208.958 89.9704 209.795 89.1309 210.911 89.1309H220.949C222.065 89.1309 222.902 89.9704 222.902 91.0897C222.902 92.2091 221.786 93.0486 220.949 93.0486Z" fill="#242B37"/>
<path d="M183.861 66.4664H141.192C140.077 66.4664 139.24 65.6269 139.24 64.5077C139.24 63.3883 140.077 62.5488 141.192 62.5488H184.139C185.255 62.5488 186.092 63.3883 186.092 64.5077C186.092 65.6269 184.976 66.4664 183.861 66.4664Z" fill="#242B37"/>
<path d="M201.986 66.4664H190.831C189.716 66.4664 188.88 65.6269 188.88 64.5077C188.88 63.3883 189.716 62.5488 190.831 62.5488H201.986C203.102 62.5488 203.938 63.3883 203.938 64.5077C203.938 65.6269 203.102 66.4664 201.986 66.4664Z" fill="#242B37"/>
<path d="M183.861 110.962H141.192C140.077 110.962 139.24 110.123 139.24 109.003C139.24 107.884 140.077 107.045 141.192 107.045H184.139C185.255 107.045 186.092 107.884 186.092 109.003C185.813 110.123 184.976 110.962 183.861 110.962Z" fill="#242B37"/>
<path d="M217.605 119.636H141.192C140.077 119.636 139.24 118.796 139.24 117.677C139.24 116.558 140.077 115.719 141.192 115.719H217.883C218.999 115.719 219.835 116.558 219.835 117.677C219.557 118.796 218.721 119.636 217.605 119.636Z" fill="#242B37"/>
<path d="M250.789 119.636H223.737C222.623 119.636 221.786 118.796 221.786 117.677C221.786 116.558 222.623 115.719 223.737 115.719H250.789C251.904 115.719 252.741 116.558 252.741 117.677C252.741 118.796 251.904 119.636 250.789 119.636Z" fill="#242B37"/>
<path d="M268.359 119.636H257.204C256.089 119.636 255.252 118.796 255.252 117.677C255.252 116.558 256.089 115.719 257.204 115.719H268.359C269.475 115.719 270.312 116.558 270.312 117.677C270.312 118.796 269.475 119.636 268.359 119.636Z" fill="#242B37"/>
<path d="M280.909 19.1755V178.959C280.909 182.318 278.121 185.116 274.774 185.116H56.1353C52.7888 185.116 50 182.318 50 178.959V19.1755C50 15.8177 52.7888 13.0193 56.1353 13.0193H274.774C278.121 12.7395 280.909 15.5378 280.909 19.1755Z" fill="#464D5F"/>
<path d="M67.5692 24.7735V185.117H56.1353C52.7888 185.117 50 182.319 50 178.96V24.7735H67.5692Z" fill="#394050"/>
<path d="M280.909 19.1755V27.011H50V19.1755C50 15.8177 52.7888 13.0193 56.1353 13.0193H274.774C278.121 12.7395 280.909 15.5378 280.909 19.1755Z" fill="#2C313D"/>
<path d="M56.9736 22.2535C58.0517 22.2535 58.9258 21.3765 58.9258 20.2948C58.9258 19.213 58.0517 18.3359 56.9736 18.3359C55.8954 18.3359 55.0215 19.213 55.0215 20.2948C55.0215 21.3765 55.8954 22.2535 56.9736 22.2535Z" fill="white"/>
<path d="M62.5507 22.2535C63.6288 22.2535 64.5029 21.3765 64.5029 20.2948C64.5029 19.213 63.6288 18.3359 62.5507 18.3359C61.4726 18.3359 60.5986 19.213 60.5986 20.2948C60.5986 21.3765 61.4726 22.2535 62.5507 22.2535Z" fill="white"/>
<path d="M68.1269 22.2535C69.205 22.2535 70.0791 21.3765 70.0791 20.2948C70.0791 19.213 69.205 18.3359 68.1269 18.3359C67.0487 18.3359 66.1748 19.213 66.1748 20.2948C66.1748 21.3765 67.0487 22.2535 68.1269 22.2535Z" fill="white"/>
<path d="M118.046 41.0017H75.0987C73.9832 41.0017 73.1465 40.1622 73.1465 39.0428C73.1465 37.9235 73.9832 37.084 75.0987 37.084H118.046C119.161 37.084 119.998 37.9235 119.998 39.0428C119.998 40.1622 118.882 41.0017 118.046 41.0017Z" fill="#242B37"/>
<path d="M58.9232 41.001H57.2499C56.1344 41.001 55.2979 40.1616 55.2979 39.0423C55.2979 37.9229 56.4133 37.3633 57.2499 37.3633H58.9232C60.0387 37.3633 60.8753 38.2028 60.8753 39.3221C60.8753 40.4415 60.0387 41.001 58.9232 41.001Z" fill="#242B37"/>
<path d="M58.9232 49.9548H57.2499C56.1344 49.9548 55.2979 49.1153 55.2979 47.996C55.2979 46.8766 56.1344 46.0371 57.2499 46.0371H58.9232C60.0387 46.0371 60.8753 46.8766 60.8753 47.996C60.8753 49.1153 60.0387 49.9548 58.9232 49.9548Z" fill="#242B37"/>
<path d="M58.9232 58.9117H57.2499C56.1344 58.9117 55.2979 58.0722 55.2979 56.9529C55.2979 55.8335 56.1344 54.9941 57.2499 54.9941H58.9232C60.0387 54.9941 60.8753 55.8335 60.8753 56.9529C60.8753 58.0722 60.0387 58.9117 58.9232 58.9117Z" fill="#242B37"/>
<path d="M58.9232 67.8687H57.2499C56.1344 67.8687 55.2979 67.0294 55.2979 65.91C55.2979 64.7907 56.1344 63.9512 57.2499 63.9512H58.9232C60.0387 63.9512 60.8753 64.7907 60.8753 65.91C60.8753 67.0294 60.0387 67.8687 58.9232 67.8687Z" fill="#242B37"/>
<path d="M58.9232 76.8218H57.2499C56.1344 76.8218 55.2979 75.9823 55.2979 74.8631C55.2979 73.7438 56.1344 72.9043 57.2499 72.9043H58.9232C60.0387 72.9043 60.8753 73.7438 60.8753 74.8631C60.8753 75.9823 60.0387 76.8218 58.9232 76.8218Z" fill="#242B37"/>
<path d="M58.9232 85.7744H57.2499C56.1344 85.7744 55.2979 84.9351 55.2979 83.8157C55.2979 82.6964 56.4133 82.1367 57.2499 82.1367H58.9232C60.0387 82.1367 60.8753 82.9762 60.8753 84.0956C60.8753 85.2149 60.0387 85.7744 58.9232 85.7744Z" fill="#242B37"/>
<path d="M58.9232 94.7307H57.2499C56.1344 94.7307 55.2979 93.891 55.2979 92.7714C55.2979 91.652 56.1344 90.8125 57.2499 90.8125H58.9232C60.0387 90.8125 60.8753 91.652 60.8753 92.7714C60.8753 93.891 60.0387 94.7307 58.9232 94.7307Z" fill="#242B37"/>
<path d="M58.9232 103.685H57.2499C56.1344 103.685 55.2979 102.845 55.2979 101.726C55.2979 100.607 56.1344 99.7676 57.2499 99.7676H58.9232C60.0387 99.7676 60.8753 100.607 60.8753 101.726C60.8753 102.845 60.0387 103.685 58.9232 103.685Z" fill="#242B37"/>
<path d="M58.9232 112.642H57.2499C56.1344 112.642 55.2979 111.802 55.2979 110.683C55.2979 109.563 56.1344 108.725 57.2499 108.725H58.9232C60.0387 108.725 60.8753 109.563 60.8753 110.683C60.8753 111.802 60.0387 112.642 58.9232 112.642Z" fill="#242B37"/>
<path d="M58.9232 121.316H57.2499C56.1344 121.316 55.2979 120.476 55.2979 119.357C55.2979 118.238 56.1344 117.398 57.2499 117.398H58.9232C60.0387 117.398 60.8753 118.238 60.8753 119.357C60.8753 120.476 60.0387 121.316 58.9232 121.316Z" fill="#242B37"/>
<path d="M58.9232 130.271H57.2499C56.1344 130.271 55.2979 129.431 55.2979 128.31C55.2979 127.191 56.1344 126.352 57.2499 126.352H58.9232C60.0387 126.352 60.8753 127.191 60.8753 128.31C60.8753 129.431 60.0387 130.271 58.9232 130.271Z" fill="#242B37"/>
<path d="M58.9232 139.226H57.2499C56.1344 139.226 55.2979 138.386 55.2979 137.267C55.2979 136.148 56.1344 135.309 57.2499 135.309H58.9232C60.0387 135.309 60.8753 136.148 60.8753 137.267C60.8753 138.386 60.0387 139.226 58.9232 139.226Z" fill="#242B37"/>
<path d="M58.9232 148.179H57.2499C56.1344 148.179 55.2979 147.339 55.2979 146.22C55.2979 145.1 56.1344 144.26 57.2499 144.26H58.9232C60.0387 144.26 60.8753 145.1 60.8753 146.22C60.8753 147.339 60.0387 148.179 58.9232 148.179Z" fill="#242B37"/>
<path d="M58.9232 157.134H57.2499C56.1344 157.134 55.2979 156.294 55.2979 155.175C55.2979 154.056 56.1344 153.217 57.2499 153.217H58.9232C60.0387 153.217 60.8753 154.056 60.8753 155.175C60.8753 156.294 60.0387 157.134 58.9232 157.134Z" fill="#242B37"/>
<path d="M58.9232 166.087H57.2499C56.1344 166.087 55.2979 165.247 55.2979 164.128C55.2979 163.008 56.1344 162.168 57.2499 162.168H58.9232C60.0387 162.168 60.8753 163.008 60.8753 164.128C60.8753 165.247 60.0387 166.087 58.9232 166.087Z" fill="#242B37"/>
<path d="M58.9232 175.04H57.2499C56.1344 175.04 55.2979 174.202 55.2979 173.082C55.2979 171.963 56.1344 171.123 57.2499 171.123H58.9232C60.0387 171.123 60.8753 171.963 60.8753 173.082C60.8753 174.202 60.0387 175.04 58.9232 175.04Z" fill="#242B37"/>
<path d="M109.122 49.9548H75.0987C73.9832 49.9548 73.1465 49.1153 73.1465 47.996C73.1465 46.8766 73.9832 46.0371 75.0987 46.0371H109.122C110.237 46.0371 111.074 46.8766 111.074 47.996C110.795 49.1153 109.958 49.9548 109.122 49.9548Z" fill="#242B37"/>
<path d="M200.313 49.9548H115.813C114.697 49.9548 113.86 49.1153 113.86 47.996C113.86 46.8766 114.697 46.0371 115.813 46.0371H200.313C201.427 46.0371 202.264 46.8766 202.264 47.996C202.264 49.1153 201.427 49.9548 200.313 49.9548Z" fill="#242B37"/>
<path d="M236.846 49.9548H212.306C211.19 49.9548 210.354 49.1153 210.354 47.996C210.354 46.8766 211.19 46.0371 212.306 46.0371H236.846C237.962 46.0371 238.799 46.8766 238.799 47.996C238.799 49.1153 237.962 49.9548 236.846 49.9548Z" fill="white"/>
<path d="M257.204 49.9548H248.838C247.722 49.9548 246.886 49.1153 246.886 47.996C246.886 46.8766 247.722 46.0371 248.838 46.0371H257.204C258.32 46.0371 259.157 46.8766 259.157 47.996C259.157 49.1153 258.32 49.9548 257.204 49.9548Z" fill="url(#paint0_linear_34_4929)"/>
<path d="M130.875 58.9117H87.9278C86.8123 58.9117 85.9756 58.0722 85.9756 56.9529C85.9756 55.8335 86.8123 54.9941 87.9278 54.9941H130.875C131.99 54.9941 132.827 55.8335 132.827 56.9529C132.548 58.0722 131.711 58.9117 130.875 58.9117Z" fill="#EA4054"/>
<path d="M130.875 94.4469H87.9278C86.8123 94.4469 85.9756 93.6073 85.9756 92.4881C85.9756 91.3688 86.8123 90.5293 87.9278 90.5293H130.875C131.99 90.5293 132.827 91.3688 132.827 92.4881C132.548 93.6073 131.711 94.4469 130.875 94.4469Z" fill="#EA4054"/>
<path d="M119.441 103.404H87.9278C86.8123 103.404 85.9756 102.564 85.9756 101.445C85.9756 100.326 86.8123 99.4863 87.9278 99.4863H119.441C120.556 99.4863 121.393 100.326 121.393 101.445C121.393 102.564 120.556 103.404 119.441 103.404Z" fill="#242B37"/>
<path d="M202.824 103.404H128.085C126.969 103.404 126.133 102.564 126.133 101.445C126.133 100.326 126.969 99.4863 128.085 99.4863H202.824C203.939 99.4863 204.777 100.326 204.777 101.445C204.777 102.564 203.661 103.404 202.824 103.404Z" fill="#242B37"/>
<path d="M142.867 67.8687H102.709C101.593 67.8687 100.757 67.0294 100.757 65.91C100.757 64.7907 101.593 63.9512 102.709 63.9512H142.867C143.983 63.9512 144.819 64.7907 144.819 65.91C144.819 67.0294 143.983 67.8687 142.867 67.8687Z" fill="#242B37"/>
<path d="M165.454 67.8687H149C147.884 67.8687 147.048 67.0294 147.048 65.91C147.048 64.7907 147.884 63.9512 149 63.9512H165.454C166.569 63.9512 167.406 64.7907 167.406 65.91C167.406 67.0294 166.569 67.8687 165.454 67.8687Z" fill="url(#paint1_linear_34_4929)"/>
<path d="M213.422 76.5426H102.709C101.593 76.5426 100.757 75.7031 100.757 74.5837C100.757 73.4644 101.593 72.625 102.709 72.625H213.422C214.538 72.625 215.375 73.4644 215.375 74.5837C215.375 75.7031 214.538 76.5426 213.422 76.5426Z" fill="#242B37"/>
<path d="M233.222 76.5426H222.904C221.788 76.5426 220.951 75.7031 220.951 74.5837C220.951 73.4644 221.788 72.625 222.904 72.625H233.222C234.336 72.625 235.175 73.4644 235.175 74.5837C234.895 75.7031 234.336 76.5426 233.222 76.5426Z" fill="url(#paint2_linear_34_4929)"/>
<path d="M272.823 76.5426H241.03C239.916 76.5426 239.079 75.7031 239.079 74.5837C239.079 73.4644 239.916 72.625 241.03 72.625H272.823C273.938 72.625 274.774 73.4644 274.774 74.5837C274.774 75.7031 273.938 76.5426 272.823 76.5426Z" fill="#242B37"/>
<path d="M178.842 85.4996H102.709C101.593 85.4996 100.757 84.6601 100.757 83.5409C100.757 82.4215 101.593 81.582 102.709 81.582H178.842C179.958 81.582 180.794 82.4215 180.794 83.5409C180.794 84.6601 179.958 85.4996 178.842 85.4996Z" fill="#242B37"/>
<path d="M145.654 121.316H116.093C114.977 121.316 114.141 120.476 114.141 119.357C114.141 118.238 114.977 117.398 116.093 117.398H145.654C146.769 117.398 147.606 118.238 147.606 119.357C147.606 120.476 146.769 121.316 145.654 121.316Z" fill="#242B37"/>
<path d="M183.861 121.316H152.348C151.232 121.316 150.396 120.476 150.396 119.357C150.396 118.238 151.232 117.398 152.348 117.398H183.861C184.976 117.398 185.813 118.238 185.813 119.357C185.813 120.476 184.697 121.316 183.861 121.316Z" fill="#242B37"/>
<path d="M212.306 121.316H189.996C188.881 121.316 188.044 120.476 188.044 119.357C188.044 118.238 188.881 117.398 189.996 117.398H212.306C213.422 117.398 214.259 118.238 214.259 119.357C214.259 120.476 213.422 121.316 212.306 121.316Z" fill="white"/>
<path d="M232.383 121.316H220.951C219.835 121.316 218.998 120.476 218.998 119.357C218.998 118.238 219.835 117.398 220.951 117.398H232.383C233.499 117.398 234.336 118.238 234.336 119.357C234.336 120.476 233.22 121.316 232.383 121.316Z" fill="white"/>
<path d="M145.654 147.898H116.093C114.977 147.898 114.141 147.058 114.141 145.939C114.141 144.82 114.977 143.98 116.093 143.98H145.654C146.769 143.98 147.606 144.82 147.606 145.939C147.606 147.058 146.769 147.898 145.654 147.898Z" fill="white"/>
<path d="M212.305 174.485H116.093C114.977 174.485 114.141 173.646 114.141 172.527C114.141 171.406 114.977 170.566 116.093 170.566H212.305C213.421 170.566 214.257 171.406 214.257 172.527C214.257 173.646 213.141 174.485 212.305 174.485Z" fill="#EA4054"/>
<path d="M158.761 129.992H129.2C128.085 129.992 127.248 129.152 127.248 128.033C127.248 126.914 128.085 126.074 129.2 126.074H158.761C159.877 126.074 160.713 126.914 160.713 128.033C160.713 129.152 159.877 129.992 158.761 129.992Z" fill="#EA4054"/>
<path d="M207.285 129.992H164.896C163.78 129.992 162.943 129.152 162.943 128.033C162.943 126.914 163.78 126.074 164.896 126.074H207.006C208.122 126.074 208.958 126.914 208.958 128.033C208.958 129.152 208.122 129.992 207.285 129.992Z" fill="#242B37"/>
<path d="M234.895 129.992H213.422C212.306 129.992 211.47 129.152 211.47 128.033C211.47 126.914 212.306 126.074 213.422 126.074H234.895C236.011 126.074 236.848 126.914 236.848 128.033C236.569 129.152 235.732 129.992 234.895 129.992Z" fill="#242B37"/>
<path d="M248.281 129.992H241.03C239.916 129.992 239.079 129.152 239.079 128.033C239.079 126.914 239.916 126.074 241.03 126.074H248.281C249.397 126.074 250.234 126.914 250.234 128.033C250.234 129.152 249.397 129.992 248.281 129.992Z" fill="url(#paint3_linear_34_4929)"/>
<path d="M165.733 138.665H129.479C128.364 138.665 127.527 137.826 127.527 136.707C127.527 135.588 128.364 134.748 129.479 134.748H165.733C166.849 134.748 167.686 135.588 167.686 136.707C167.686 137.826 166.57 138.665 165.733 138.665Z" fill="#242B37"/>
<path d="M182.466 138.665H172.427C171.311 138.665 170.475 137.826 170.475 136.707C170.475 135.588 171.311 134.748 172.427 134.748H182.466C183.582 134.748 184.418 135.588 184.418 136.707C184.418 137.826 183.582 138.665 182.466 138.665Z" fill="#EA4054"/>
<path d="M264.735 138.665H189.439C188.323 138.665 187.486 137.826 187.486 136.707C187.486 135.588 188.323 134.748 189.439 134.748H264.456C265.572 134.748 266.409 135.588 266.409 136.707C266.409 137.826 265.572 138.665 264.735 138.665Z" fill="#242B37"/>
<path d="M145.656 112.081H102.709C101.593 112.081 100.757 111.242 100.757 110.123C100.757 109.004 101.593 108.164 102.709 108.164H145.656C146.771 108.164 147.608 109.004 147.608 110.123C147.608 111.242 146.771 112.081 145.656 112.081Z" fill="#242B37"/>
<path d="M163.781 112.081H152.626C151.511 112.081 150.674 111.242 150.674 110.123C150.674 109.004 151.511 108.164 152.626 108.164H163.781C164.897 108.164 165.733 109.004 165.733 110.123C165.733 111.242 164.618 112.081 163.781 112.081Z" fill="url(#paint4_linear_34_4929)"/>
<path d="M145.656 156.574H102.709C101.593 156.574 100.757 155.734 100.757 154.615C100.757 153.496 101.593 152.656 102.709 152.656H145.656C146.771 152.656 147.608 153.496 147.608 154.615C147.608 155.734 146.771 156.574 145.656 156.574Z" fill="#242B37"/>
<path d="M179.4 165.527H102.709C101.593 165.527 100.757 164.687 100.757 163.568C100.757 162.449 101.593 161.609 102.709 161.609H179.4C180.515 161.609 181.352 162.449 181.352 163.568C181.352 164.687 180.515 165.527 179.4 165.527Z" fill="#242B37"/>
<path d="M212.585 165.527H185.534C184.419 165.527 183.582 164.687 183.582 163.568C183.582 162.449 184.419 161.609 185.534 161.609H212.585C213.701 161.609 214.538 162.449 214.538 163.568C214.538 164.687 213.422 165.527 212.585 165.527Z" fill="white"/>
<path d="M230.154 165.527H218.999C217.883 165.527 217.047 164.687 217.047 163.568C217.047 162.449 217.883 161.609 218.999 161.609H230.154C231.27 161.609 232.107 162.449 232.107 163.568C232.107 164.687 231.27 165.527 230.154 165.527Z" fill="url(#paint5_linear_34_4929)"/>
<path d="M267.406 146.451C267.149 147.994 266.893 149.537 266.38 151.08C263.304 161.623 255.098 169.594 244.842 172.422C240.996 173.451 236.894 173.708 232.791 173.194C215.869 171.137 204.074 155.708 206.125 138.737C208.176 121.766 223.561 109.681 240.483 111.995C257.406 114.309 269.457 129.48 267.406 146.451Z" fill="#EA4054"/>
<path d="M85.5008 48.1862C84.9835 47.624 84.1216 47.0618 83.2598 47.0618C83.087 46.3122 83.2598 44.4383 84.2944 43.5013C84.6389 43.3139 84.6389 42.7518 84.4662 42.5644C84.1216 42.1896 83.7771 42.1896 83.4316 42.377C82.0524 43.5013 81.7079 45.75 81.8797 47.0618C80.8451 47.2492 80.155 47.9988 79.6377 48.9357C78.4313 48.3736 76.3616 48.1862 74.982 49.3105C74.6371 49.4979 74.6371 50.0601 74.8096 50.2475C74.982 50.6223 75.4993 50.6223 75.6718 50.4349C76.7065 49.4979 78.4313 49.8727 79.1204 50.2475C78.9486 51.1844 79.1204 52.1214 79.6377 52.871C79.8104 53.0584 79.9832 53.0584 80.155 53.0584L80.3277 52.871C81.1906 50.6223 83.087 49.1231 85.1562 48.7483C85.329 48.7483 85.5008 48.5609 85.5008 48.3736V48.1862Z" fill="url(#paint6_linear_34_4929)"/>
<path d="M99.3914 125.362C98.8741 124.8 98.0123 124.238 97.1504 124.238C96.9777 123.488 97.1504 121.614 98.185 120.677C98.5296 120.49 98.5296 119.928 98.3568 119.74C98.0123 119.365 97.6677 119.365 97.3222 119.553C95.943 120.677 95.5985 122.926 95.7703 124.238C94.7357 124.425 94.0456 125.175 93.5283 126.111C92.3219 125.549 90.2522 125.362 88.8727 126.486C88.5277 126.674 88.5277 127.236 88.7002 127.423C88.8727 127.798 89.39 127.798 89.5624 127.611C90.5971 126.674 92.3219 127.048 93.011 127.423C92.8392 128.36 93.011 129.297 93.5283 130.047C93.7011 130.234 93.8738 130.234 94.0456 130.234L94.2184 130.047C95.0812 127.798 96.9777 126.299 99.0469 125.924C99.2196 125.924 99.3914 125.737 99.3914 125.549V125.362Z" fill="url(#paint7_linear_34_4929)"/>
<path d="M242.937 51.2742C242.42 50.7121 241.558 50.1499 240.696 50.1499C240.524 49.4003 240.696 47.5263 241.731 46.5893C242.075 46.4019 242.075 45.8398 241.903 45.6524C241.558 45.2776 241.214 45.2776 240.868 45.465C239.489 46.5893 239.144 48.8381 239.316 50.1499C238.282 50.3373 237.592 51.0868 237.074 52.0237C235.868 51.4616 233.798 51.2742 232.419 52.3985C232.074 52.5859 232.074 53.1481 232.246 53.3355C232.419 53.7103 232.936 53.7103 233.108 53.5229C234.143 52.5859 235.868 52.9607 236.557 53.3355C236.385 54.2725 236.557 55.2095 237.074 55.9591C237.247 56.1465 237.42 56.1465 237.592 56.1465L237.764 55.9591C238.627 53.7103 240.524 52.2111 242.593 51.8363C242.766 51.8363 242.937 51.6489 242.937 51.4616V51.2742Z" fill="url(#paint8_linear_34_4929)"/>
<path d="M81.3553 52.0351C80.3235 53.8909 80.1522 55.9156 81.0117 57.7716L78.9481 58.6151L77.2281 56.928C76.8845 56.7592 76.54 56.7592 76.3683 56.928C76.1963 57.2654 76.1963 57.6029 76.3683 57.7716L78.4322 59.6275C78.6036 59.7962 78.9481 59.7962 79.1195 59.7962L81.6999 58.6151C81.6999 58.7838 81.8712 58.7838 81.8712 58.9526C82.7317 59.9649 83.5912 60.8085 84.7953 61.4834L83.0753 63.6767C82.903 63.8455 82.903 64.1829 83.0753 64.3516L84.1071 66.545C84.2794 66.8825 84.623 67.0512 84.9666 66.8825C84.9666 66.8825 84.9666 66.8825 85.1389 66.8825C85.3112 66.7138 85.4835 66.3763 85.3112 66.0389L84.4507 64.3516L85.9994 62.327C87.5471 63.1706 89.2661 63.508 90.9861 63.508C91.3307 63.508 91.6743 63.1706 91.6743 62.8332C91.6743 62.6645 91.6743 62.6645 91.502 62.4958L83.0753 51.8663C82.7317 51.5289 82.2158 51.3602 81.6999 51.6976C81.3553 51.8663 81.3553 52.0351 81.3553 52.0351Z" fill="url(#paint9_linear_34_4929)"/>
<path d="M95.2479 129.213C94.2161 131.069 94.0448 133.093 94.9043 134.949L92.8407 135.793L91.1207 134.106C90.7771 133.937 90.4325 133.937 90.2608 134.106C90.0888 134.443 90.0888 134.781 90.2608 134.949L92.3248 136.805C92.4961 136.974 92.8407 136.974 93.012 136.974L95.5925 135.793C95.5925 135.962 95.7638 135.962 95.7638 136.13C96.6243 137.143 97.4838 137.986 98.6879 138.661L96.9679 140.854C96.7956 141.023 96.7956 141.361 96.9679 141.529L97.9997 143.723C98.172 144.06 98.5156 144.229 98.8592 144.06C98.8592 144.06 98.8592 144.06 99.0315 144.06C99.2038 143.892 99.3761 143.554 99.2038 143.217L98.3433 141.529L99.892 139.505C101.44 140.348 103.159 140.686 104.879 140.686C105.223 140.686 105.567 140.348 105.567 140.011C105.567 139.842 105.567 139.842 105.395 139.674L96.9679 129.044C96.6243 128.707 96.1084 128.538 95.5925 128.875C95.2479 129.044 95.2479 129.213 95.2479 129.213Z" fill="url(#paint10_linear_34_4929)"/>
<path d="M238.793 55.1249C237.761 56.9808 237.59 59.0055 238.449 60.8614L236.386 61.7049L234.666 60.0178C234.322 59.8491 233.977 59.8491 233.806 60.0178C233.634 60.3553 233.634 60.6927 233.806 60.8614L235.87 62.7173C236.041 62.886 236.386 62.886 236.557 62.886L239.137 61.7049C239.137 61.8737 239.309 61.8737 239.309 62.0424C240.169 63.0547 241.029 63.8984 242.233 64.5733L240.513 66.7666C240.341 66.9353 240.341 67.2727 240.513 67.4415L241.545 69.6349C241.717 69.9723 242.061 70.1411 242.404 69.9723C242.404 69.9723 242.404 69.9723 242.576 69.9723C242.749 69.8036 242.921 69.4662 242.749 69.1287L241.888 67.4415L243.437 65.4169C244.985 66.2604 246.704 66.5979 248.424 66.5979C248.768 66.5979 249.112 66.2604 249.112 65.923C249.112 65.7543 249.112 65.7543 248.939 65.5856L240.513 54.9562C240.169 54.6187 239.653 54.45 239.137 54.7875C238.793 54.9562 238.793 55.1249 238.793 55.1249Z" fill="url(#paint11_linear_34_4929)"/>
<path d="M90.6198 46.9501C90.2971 47.1124 90.1353 47.4371 90.2971 47.7618L91.427 49.8724L90.1353 51.4959C88.52 50.3594 86.5821 49.8724 84.6441 50.3594C84.1596 50.5218 83.8369 51.0089 83.9978 51.4959C83.9978 51.6583 84.1596 51.8206 84.1596 51.8206L92.0732 62.0488C92.235 62.3735 92.7195 62.3735 92.8813 62.2112C93.0422 62.2112 93.0422 62.0488 93.0422 61.8865C93.5267 60.2629 93.5267 58.6394 93.204 57.0159L95.4647 56.0418L96.9181 57.1783C97.2417 57.3406 97.5644 57.3406 97.7262 57.1783C97.888 56.8535 97.888 56.5288 97.7262 56.3665L95.9492 54.9053C95.7883 54.7429 95.4647 54.7429 95.3038 54.7429L92.8813 55.8794C92.5577 54.7429 91.9115 53.6065 91.1043 52.6324C91.1043 52.47 90.9425 52.47 90.9425 52.3077L92.5577 50.1971C92.7195 50.0347 92.7195 49.71 92.5577 49.5477L91.2661 47.1124C91.2661 46.9501 90.9425 46.7877 90.6198 46.9501Z" fill="url(#paint12_linear_34_4929)"/>
<path d="M104.512 124.128C104.19 124.29 104.028 124.615 104.19 124.94L105.32 127.05L104.028 128.674C102.413 127.537 100.475 127.05 98.5367 127.537C98.0522 127.7 97.7295 128.187 97.8904 128.674C97.8904 128.836 98.0522 128.999 98.0522 128.999L105.966 139.227C106.128 139.551 106.612 139.551 106.774 139.389C106.935 139.389 106.935 139.227 106.935 139.064C107.419 137.441 107.419 135.817 107.097 134.194L109.357 133.22L110.811 134.356C111.134 134.519 111.457 134.519 111.619 134.356C111.781 134.031 111.781 133.707 111.619 133.544L109.842 132.083C109.681 131.921 109.357 131.921 109.196 131.921L106.774 133.057C106.45 131.921 105.804 130.784 104.997 129.81C104.997 129.648 104.835 129.648 104.835 129.486L106.45 127.375C106.612 127.213 106.612 126.888 106.45 126.726L105.159 124.29C105.159 124.128 104.835 123.966 104.512 124.128Z" fill="url(#paint13_linear_34_4929)"/>
<path d="M248.058 50.0399C247.736 50.2023 247.574 50.527 247.736 50.8517L248.865 52.9622L247.574 54.5858C245.959 53.4493 244.021 52.9622 242.083 53.4493C241.598 53.6116 241.275 54.0987 241.436 54.5858C241.436 54.7481 241.598 54.9105 241.598 54.9105L249.512 65.1387C249.674 65.4634 250.158 65.4634 250.32 65.301C250.481 65.301 250.481 65.1387 250.481 64.9763C250.965 63.3528 250.965 61.7292 250.642 60.1058L252.903 59.1316L254.357 60.2681C254.68 60.4305 255.003 60.4305 255.165 60.2681C255.326 59.9434 255.326 59.6187 255.165 59.4563L253.388 57.9951C253.227 57.8328 252.903 57.8328 252.742 57.8328L250.32 58.9693C249.996 57.8328 249.35 56.6964 248.543 55.7222C248.543 55.5599 248.381 55.5599 248.381 55.3975L249.996 53.2869C250.158 53.1246 250.158 52.7999 249.996 52.6375L248.705 50.2023C248.705 50.0399 248.381 49.8776 248.058 50.0399Z" fill="url(#paint14_linear_34_4929)"/>
<path d="M295.129 192.35L286.937 200.53L263.188 177.085L271.377 168.906L295.129 192.35Z" fill="#526DFF"/>
<path d="M205.312 111.11C187.567 128.829 187.567 157.453 205.312 175.174C223.057 192.894 251.722 192.894 269.467 175.174C287.213 157.453 287.213 128.829 269.467 111.11C251.722 93.3905 223.057 93.3905 205.312 111.11ZM262.096 167.813C248.446 181.444 226.333 181.444 212.41 167.813C198.76 154.183 198.76 132.101 212.41 118.198C226.06 104.567 248.173 104.567 262.096 118.198C275.746 132.101 275.746 154.183 262.096 167.813Z" fill="url(#paint15_linear_34_4929)"/>
<path d="M307.959 213.343C304.411 216.887 298.405 216.887 294.583 213.343L270.558 189.625C269.194 188.262 269.194 185.808 270.558 184.172L278.475 176.266C279.841 174.903 282.297 174.903 283.663 176.266L307.959 199.984C311.782 203.801 311.782 209.797 307.959 213.343Z" fill="url(#paint16_linear_34_4929)"/>
<g clip-path="url(#clip0_34_4929)">
<path fill-rule="evenodd" clip-rule="evenodd" d="M234.954 128.849C235.54 128.629 236.178 128.601 236.777 128.766L237.031 128.849L247.385 132.731C248.463 133.136 249.201 134.124 249.295 135.257L249.305 135.501V143.434C249.305 148.328 246.621 152.814 242.34 155.136L241.946 155.341L236.985 157.822C236.429 158.099 235.787 158.13 235.212 157.914L235 157.822L230.039 155.341C225.661 153.152 222.849 148.746 222.687 143.878L222.68 143.434V135.501C222.68 134.35 223.346 133.312 224.374 132.827L224.599 132.731L234.954 128.849ZM241.07 138.365L234.269 145.167L231.654 142.552C231.076 141.974 230.14 141.974 229.562 142.552C228.984 143.129 228.984 144.066 229.562 144.644L233.118 148.2C233.754 148.835 234.784 148.835 235.419 148.2L243.162 140.457C243.74 139.879 243.74 138.943 243.162 138.365C242.585 137.788 241.648 137.788 241.07 138.365Z" fill="url(#paint17_linear_34_4929)"/>
</g>
<defs>
<linearGradient id="paint0_linear_34_4929" x1="247.159" y1="48.1753" x2="259.061" y2="48.1753" gradientUnits="userSpaceOnUse">
<stop stop-color="#83A6FF"/>
<stop offset="1" stop-color="#5A78FF"/>
</linearGradient>
<linearGradient id="paint1_linear_34_4929" x1="147.241" y1="65.8892" x2="167.314" y2="65.8892" gradientUnits="userSpaceOnUse">
<stop stop-color="#83A6FF"/>
<stop offset="1" stop-color="#5A78FF"/>
</linearGradient>
<linearGradient id="paint2_linear_34_4929" x1="220.933" y1="74.8094" x2="235.02" y2="74.8094" gradientUnits="userSpaceOnUse">
<stop stop-color="#83A6FF"/>
<stop offset="1" stop-color="#5A78FF"/>
</linearGradient>
<linearGradient id="paint3_linear_34_4929" x1="239.258" y1="128.085" x2="250.101" y2="128.085" gradientUnits="userSpaceOnUse">
<stop stop-color="#83A6FF"/>
<stop offset="1" stop-color="#5A78FF"/>
</linearGradient>
<linearGradient id="paint4_linear_34_4929" x1="150.717" y1="110.334" x2="165.557" y2="110.334" gradientUnits="userSpaceOnUse">
<stop stop-color="#83A6FF"/>
<stop offset="1" stop-color="#5A78FF"/>
</linearGradient>
<linearGradient id="paint5_linear_34_4929" x1="217.258" y1="163.596" x2="231.982" y2="163.596" gradientUnits="userSpaceOnUse">
<stop stop-color="#83A6FF"/>
<stop offset="1" stop-color="#5A78FF"/>
</linearGradient>
<linearGradient id="paint6_linear_34_4929" x1="93.038" y1="60.9692" x2="78.4584" y2="47.5535" gradientUnits="userSpaceOnUse">
<stop offset="0.0113208" stop-color="#FFC9E3"/>
<stop offset="1" stop-color="white"/>
</linearGradient>
<linearGradient id="paint7_linear_34_4929" x1="106.929" y1="138.145" x2="92.349" y2="124.729" gradientUnits="userSpaceOnUse">
<stop offset="0.0113208" stop-color="#FFC9E3"/>
<stop offset="1" stop-color="white"/>
</linearGradient>
<linearGradient id="paint8_linear_34_4929" x1="250.475" y1="64.0572" x2="235.895" y2="50.6416" gradientUnits="userSpaceOnUse">
<stop offset="0.0113208" stop-color="#FFC9E3"/>
<stop offset="1" stop-color="white"/>
</linearGradient>
<linearGradient id="paint9_linear_34_4929" x1="88.0477" y1="64.0154" x2="74.8784" y2="50.5923" gradientUnits="userSpaceOnUse">
<stop offset="0.0113208" stop-color="#FFC9E3"/>
<stop offset="1" stop-color="white"/>
</linearGradient>
<linearGradient id="paint10_linear_34_4929" x1="101.94" y1="141.193" x2="88.771" y2="127.77" gradientUnits="userSpaceOnUse">
<stop offset="0.0113208" stop-color="#FFC9E3"/>
<stop offset="1" stop-color="white"/>
</linearGradient>
<linearGradient id="paint11_linear_34_4929" x1="245.485" y1="67.1052" x2="232.316" y2="53.6821" gradientUnits="userSpaceOnUse">
<stop offset="0.0113208" stop-color="#FFC9E3"/>
<stop offset="1" stop-color="white"/>
</linearGradient>
<linearGradient id="paint12_linear_34_4929" x1="94.5806" y1="57.5666" x2="81.9066" y2="44.9586" gradientUnits="userSpaceOnUse">
<stop offset="0.0113208" stop-color="#FFC9E3"/>
<stop offset="1" stop-color="white"/>
</linearGradient>
<linearGradient id="paint13_linear_34_4929" x1="108.473" y1="134.744" x2="95.7992" y2="122.137" gradientUnits="userSpaceOnUse">
<stop offset="0.0113208" stop-color="#FFC9E3"/>
<stop offset="1" stop-color="white"/>
</linearGradient>
<linearGradient id="paint14_linear_34_4929" x1="252.019" y1="60.6564" x2="239.345" y2="48.0484" gradientUnits="userSpaceOnUse">
<stop offset="0.0113208" stop-color="#FFC9E3"/>
<stop offset="1" stop-color="white"/>
</linearGradient>
<linearGradient id="paint15_linear_34_4929" x1="192.047" y1="143.11" x2="282.657" y2="143.11" gradientUnits="userSpaceOnUse">
<stop stop-color="#83A6FF"/>
<stop offset="1" stop-color="#5A78FF"/>
</linearGradient>
<linearGradient id="paint16_linear_34_4929" x1="269.523" y1="195.679" x2="310.808" y2="195.679" gradientUnits="userSpaceOnUse">
<stop stop-color="#83A6FF"/>
<stop offset="1" stop-color="#5A78FF"/>
</linearGradient>
<linearGradient id="paint17_linear_34_4929" x1="235.992" y1="128.66" x2="235.992" y2="158.056" gradientUnits="userSpaceOnUse">
<stop stop-color="#FFC9E3"/>
<stop offset="1" stop-color="white"/>
</linearGradient>
<clipPath id="clip0_34_4929">
<rect width="35.5005" height="35.5005" fill="white" transform="translate(218.242 125.602)"/>
</clipPath>
</defs>
</svg>
