<svg width="631" height="201" viewBox="0 0 631 201" fill="none" xmlns="http://www.w3.org/2000/svg">
<path d="M135.813 0H10.6099C4.75022 0 0 4.75022 0 10.6099V171.642C0 177.502 4.75022 182.252 10.6099 182.252H135.813C141.673 182.252 146.423 177.502 146.423 171.642V10.6099C146.423 4.75022 141.673 0 135.813 0Z" fill="#474E61"/>
<path d="M115.795 76.3725L19.5902 76.37C18.5956 76.4508 17.9341 75.7037 17.8532 74.7093C17.7722 73.7149 18.5194 73.0537 19.5139 72.9729L115.513 72.893C116.506 72.8122 117.169 73.5594 117.25 74.5538C117.33 75.5476 116.584 76.2091 115.795 76.3725Z" fill="#2C313D"/>
<path d="M115.652 85.69L19.6525 85.7708C18.6579 85.8516 17.9965 85.1046 17.9155 84.1101C17.8346 83.1157 18.5816 82.4545 19.5762 82.3737L115.575 82.2936C116.569 82.2126 117.231 82.96 117.312 83.9537C117.393 84.9481 116.646 85.6091 115.652 85.69Z" fill="#2C313D"/>
<path d="M115.802 94.8872L19.72 95.1748C18.7254 95.2556 18.064 94.5085 17.983 93.5141C17.9021 92.5197 18.6491 91.8585 19.6437 91.7777L115.643 91.6978C116.637 91.6169 117.299 92.3641 117.379 93.3579C117.543 94.1454 116.713 95.0133 115.802 94.8872Z" fill="#2C313D"/>
<path d="M55.9139 104.444L19.7845 104.573C18.7899 104.654 18.1284 103.907 18.0475 102.913C17.9666 101.918 18.7137 101.257 19.7083 101.176L55.8372 101.048C56.8318 100.968 57.4933 101.715 57.5742 102.709C57.4482 103.62 56.908 104.365 55.9139 104.444Z" fill="#2C313D"/>
<path opacity="0.3" d="M118.324 119.702L118.267 127.612C118.181 129.02 117.184 130.302 115.776 130.216L20.6884 130.423C19.2804 130.336 17.9974 129.34 18.083 127.932L18.2226 119.814C18.3083 118.406 19.3049 117.124 20.7134 117.21L115.718 117.21C117.126 117.296 118.119 118.416 118.324 119.702Z" fill="url(#paint0_linear_213_851)"/>
<path opacity="0.3" d="M118.413 138.007L118.357 145.918C118.272 147.326 117.275 148.608 115.867 148.522L20.7784 148.729C19.3699 148.643 18.0873 147.646 18.1729 146.238L18.1055 138.037C18.1911 136.628 19.1878 135.347 20.5964 135.433L115.6 135.433C117.009 135.519 118.208 136.723 118.413 138.007Z" fill="url(#paint1_linear_213_851)"/>
<path opacity="0.3" d="M118.296 156.234L118.24 164.144C118.155 165.553 117.158 166.834 115.749 166.748L20.6616 166.956C19.2535 166.869 17.9705 165.873 18.0562 164.465L18.1128 156.553C18.1979 155.146 19.195 153.863 20.6036 153.949L115.608 153.949C117.099 153.829 118.299 155.032 118.296 156.234Z" fill="url(#paint2_linear_213_851)"/>
<path d="M30.532 117.313L30.507 130.526L20.6879 130.421C19.2794 130.335 17.9968 129.338 18.082 127.931L18.2216 119.813C18.3072 118.405 19.3038 117.124 20.7124 117.209L30.532 117.313Z" fill="url(#paint3_linear_213_851)"/>
<path d="M20.804 135.519L49.724 135.375L49.6991 148.588L20.779 148.733C19.3705 148.647 18.088 147.65 18.1735 146.241L18.1062 138.04C18.1082 136.839 19.3118 135.641 20.804 135.519Z" fill="url(#paint4_linear_213_851)"/>
<path d="M20.6857 153.741L24.7875 153.709L24.7625 166.922L20.6607 166.954C19.2522 166.868 17.9696 165.871 18.0553 164.463L18.1114 156.552C18.197 155.144 19.1936 153.862 20.6857 153.741Z" fill="url(#paint5_linear_213_851)"/>
<path d="M64.8043 47.6824C69.1761 36.2189 63.6072 23.1598 52.0149 18.4955L51.8079 18.4122C40.2156 13.748 27.0708 19.518 22.4087 31.1051C17.9534 42.7755 23.7293 55.9179 35.3216 60.5821C41.7388 63.1641 48.4935 62.5162 54.1749 59.7535C58.9855 57.3617 62.7634 53.3523 64.9279 47.9726C64.721 47.8893 64.721 47.8893 64.8043 47.6824ZM37.9857 53.9609C30.1195 50.796 26.2832 41.7996 29.4468 33.9369C32.6103 26.0742 41.6084 22.242 49.4745 25.407L49.6816 25.4903C57.5477 28.6552 61.2603 37.3614 58.387 45.1004C58.3038 45.3073 58.3038 45.3073 58.2205 45.5142C56.8052 49.0318 54.2312 51.8426 50.9551 53.4094C46.8082 55.347 42.3328 55.71 37.9857 53.9609Z" fill="#2C313D"/>
<path d="M64.8049 47.681L57.9738 44.9324C61.0541 37.2767 57.1346 28.4873 49.4753 25.4056L49.2683 25.3223L52.0156 18.4941L52.2227 18.5774C63.6079 23.1584 69.1768 36.2175 64.8049 47.681Z" fill="#EA4054"/>
<path d="M129.258 122.419L120.539 132.134L107.344 120.093C106.269 119.18 106.231 117.482 107.145 116.407L112.459 110.371C113.373 109.296 115.071 109.258 116.147 110.172L129.258 122.419Z" fill="#2C313D"/>
<path d="M221.662 0H167.033C161.173 0 156.423 4.75022 156.423 10.6099V171.642C156.423 177.502 161.173 182.252 167.033 182.252H221.662C227.522 182.252 232.272 177.502 232.272 171.642V10.6099C232.272 4.75022 227.522 0 221.662 0Z" fill="#474E61"/>
<path d="M194.347 22.5333C198.499 22.5333 201.866 19.1518 201.866 14.9805C201.866 10.8092 198.499 7.42773 194.347 7.42773C190.196 7.42773 186.83 10.8092 186.83 14.9805C186.83 19.1518 190.196 22.5333 194.347 22.5333Z" fill="#333849"/>
<path d="M218.045 37.8907H170.327C169.672 37.8907 169.019 37.2339 169.019 36.5772C169.019 35.9204 169.672 35.2637 170.327 35.2637H218.045C218.699 35.2637 219.352 35.9204 219.352 36.5772C219.352 37.2339 218.699 37.8907 218.045 37.8907Z" fill="#333849"/>
<path d="M218.045 47.9454H170.327C169.672 47.9454 169.019 47.2886 169.019 46.6319C169.019 45.9751 169.672 45.3184 170.327 45.3184H218.045C218.699 45.3184 219.352 45.9751 219.352 46.6319C219.352 47.2886 218.699 47.9454 218.045 47.9454Z" fill="#333849"/>
<path d="M218.045 63.6331H170.327C169.672 63.6331 169.019 62.9764 169.019 62.3196C169.019 61.3345 169.346 60.6777 170.327 60.6777H218.045C218.699 60.6777 219.352 61.3345 219.352 61.9912C219.352 62.9764 218.699 63.6331 218.045 63.6331Z" fill="#333849"/>
<path d="M187.976 74.014H169.999C169.672 74.014 169.019 73.6856 169.019 73.0289V72.0437C169.019 71.7154 169.346 71.0586 169.999 71.0586H187.649C187.976 71.0586 188.629 71.387 188.629 72.0437V73.0289C188.629 73.6856 188.302 74.014 187.976 74.014Z" fill="#333849"/>
<path d="M218.045 89.3731H170.327C169.672 89.3731 169.019 88.7164 169.019 88.0596C169.019 87.4028 169.672 86.7461 170.327 86.7461H218.045C218.699 86.7461 219.352 87.4028 219.352 88.0596C219.352 88.7164 218.699 89.3731 218.045 89.3731Z" fill="#333849"/>
<path d="M187.976 99.7567H169.999C169.672 99.7567 169.019 99.4278 169.019 98.771V97.7864C169.019 97.4575 169.346 96.8008 169.999 96.8008H187.649C187.976 96.8008 188.629 97.1297 188.629 97.7864V98.771C188.629 99.4278 188.302 99.7567 187.976 99.7567Z" fill="#333849"/>
<path d="M218.045 115.115H170.327C169.672 115.115 169.019 114.459 169.019 113.802C169.019 113.145 169.672 112.488 170.327 112.488H218.045C218.699 112.488 219.352 113.145 219.352 113.802C219.352 114.786 218.699 115.115 218.045 115.115Z" fill="#333849"/>
<path d="M193.918 124.982H169.84C169.293 124.982 169.019 124.372 169.019 123.762C169.019 122.949 169.429 122.543 169.84 122.543H193.781C194.329 122.543 194.601 123.153 194.601 123.762C194.738 124.372 194.329 124.982 193.918 124.982Z" fill="#EA4054"/>
<path d="M378.085 0.125908H252.882C247.022 0.125908 242.272 4.87613 242.272 10.7358V171.768C242.272 177.627 247.022 182.378 252.882 182.378H378.085C383.945 182.378 388.695 177.627 388.695 171.768V10.7358C388.695 4.87613 383.945 0.125908 378.085 0.125908Z" fill="#474E61"/>
<path opacity="0.4" d="M315.341 54.4058L305.513 54.2456L305.391 32.0044L315.14 31.9432L315.341 54.4058Z" fill="#5C7AFF"/>
<path d="M328.585 54.3136L318.535 54.2346L318.372 20.2392L328.2 20.3992L328.585 54.3136Z" fill="#5C7AFF"/>
<path d="M275.311 54.2824L265.261 54.2033L265.098 20.2079L274.926 20.368L275.311 54.2824Z" fill="#5C7AFF"/>
<path d="M354.773 53.9964L345.026 54.0569L344.702 9.35304L354.671 9.2112L354.773 53.9964Z" fill="#5C7AFF"/>
<path d="M301.5 53.9651L291.752 54.0257L291.428 9.32179L301.397 9.17995L301.5 53.9651Z" fill="#5C7AFF"/>
<path opacity="0.4" d="M367.273 53.927L357.524 53.9881L357.322 41.7923L367.372 41.8714L367.273 53.927Z" fill="#5C7AFF"/>
<path opacity="0.4" d="M341.98 53.927L332.231 53.9881L332.029 41.7923L342.079 41.8714L341.98 53.927Z" fill="#5C7AFF"/>
<path opacity="0.4" d="M287.707 53.9211L277.958 53.9823L277.756 41.7865L287.806 41.8655L287.707 53.9211Z" fill="#5C7AFF"/>
<path d="M365.987 72.3449L264.607 71.8766C263.642 71.9795 262.797 71.0365 262.694 70.0726C262.592 69.1085 263.535 68.2626 264.5 68.1597L365.88 68.628C366.845 68.5253 367.69 69.4681 367.793 70.4322C367.674 71.4773 366.952 72.2422 365.987 72.3449Z" fill="#2C313D"/>
<path d="M365.824 82.1693L264.442 81.7008C263.478 81.8032 262.632 80.8607 262.529 79.8967C262.428 78.9322 263.371 78.0863 264.335 77.984L365.715 78.4528C366.68 78.3494 367.526 79.2914 367.628 80.2561C367.731 81.2203 366.868 82.2866 365.824 82.1693Z" fill="#2C313D"/>
<path d="M365.882 91.9086L264.501 91.4411C263.537 91.5435 262.691 90.601 262.588 89.637C262.486 88.6725 263.43 87.8266 264.394 87.7242L365.773 88.1922C366.739 88.0902 367.585 89.0322 367.686 89.9968C367.649 91.2619 366.927 92.0273 365.882 91.9086Z" fill="#2C313D"/>
<path d="M302.749 101.486L264.641 101.406C263.677 101.508 262.831 100.566 262.728 99.6019C262.627 98.6373 263.57 97.7914 264.534 97.6891L302.642 97.7691C303.607 97.6663 304.452 98.6092 304.555 99.5733C304.436 100.619 303.714 101.384 302.749 101.486Z" fill="#2C313D"/>
<path opacity="0.3" d="M368.421 118.023L368.518 126.501C368.56 127.989 367.255 129.217 365.768 129.26L344.181 129.145L265.353 128.69C263.866 128.733 262.637 127.43 262.595 125.943L262.498 117.464C262.455 115.977 263.759 114.749 265.247 114.706L343.553 115.102L365.361 115.137C367.231 115.453 368.378 116.536 368.421 118.023Z" fill="#EA4054"/>
<path opacity="0.3" d="M368.239 137.375L368.335 145.853C368.378 147.34 367.073 148.568 365.586 148.613L358.291 148.526L265.473 148.182C263.986 148.225 262.756 146.921 262.714 145.435L262.619 136.956C262.575 135.47 263.88 134.242 265.366 134.197L358.486 134.684L365.562 134.849C367.049 134.806 368.196 135.889 368.239 137.375Z" fill="#EA4054"/>
<path opacity="0.3" d="M368.271 156.645L368.367 165.124C368.409 166.609 367.106 167.838 365.618 167.882L328.475 167.699L265.505 167.451C264.018 167.494 262.789 166.191 262.745 164.704L262.65 156.225C262.606 154.739 263.911 153.511 265.398 153.467L329.856 153.672L365.513 153.898C367 153.855 368.228 155.158 368.271 156.645Z" fill="#EA4054"/>
<path d="M265.398 153.465L329.856 153.671L328.394 167.476L265.423 167.228C263.936 167.271 262.708 165.968 262.664 164.482L262.569 156.003C262.606 154.738 263.911 153.509 265.398 153.465Z" fill="#EA4054"/>
<path d="M262.678 126.169L262.581 117.691C262.538 116.203 263.842 114.975 265.33 114.932L343.636 115.329L343.661 129.091L265.355 128.695C263.868 128.738 262.72 127.655 262.678 126.169Z" fill="#EA4054"/>
<path d="M358.486 134.684L358.291 148.526L265.473 148.182C263.986 148.225 262.756 146.921 262.714 145.435L262.619 136.956C262.575 135.47 263.88 134.242 265.366 134.197L358.486 134.684Z" fill="#EA4054"/>
<path d="M265.366 134.196L284.199 134.316L284.225 148.08L265.392 147.959C263.905 148.002 262.675 146.7 262.633 145.213L262.538 136.733C262.796 135.387 263.879 134.239 265.366 134.196Z" fill="#2C313D"/>
<path d="M265.398 153.465L284.231 153.587L284.257 167.349L265.423 167.228C263.936 167.271 262.708 165.968 262.664 164.482L262.569 156.003C262.606 154.738 263.911 153.509 265.398 153.465Z" fill="#2C313D"/>
<path d="M463.511 0H408.882C403.022 0 398.272 4.75022 398.272 10.6099V171.642C398.272 177.502 403.022 182.252 408.882 182.252H463.511C469.371 182.252 474.121 177.502 474.121 171.642V10.6099C474.121 4.75022 469.371 0 463.511 0Z" fill="#474E61"/>
<path d="M436.197 22.5333C440.348 22.5333 443.715 19.1518 443.715 14.9805C443.715 10.8092 440.348 7.42773 436.197 7.42773C432.045 7.42773 428.679 10.8092 428.679 14.9805C428.679 19.1518 432.045 22.5333 436.197 22.5333Z" fill="#333849"/>
<path d="M459.894 37.8907H412.176C411.521 37.8907 410.868 37.2339 410.868 36.5772C410.868 35.9204 411.521 35.2637 412.176 35.2637H459.894C460.548 35.2637 461.201 35.9204 461.201 36.5772C461.201 37.2339 460.548 37.8907 459.894 37.8907Z" fill="#333849"/>
<path d="M459.894 47.9454H412.176C411.521 47.9454 410.868 47.2886 410.868 46.6319C410.868 45.9751 411.521 45.3184 412.176 45.3184H459.894C460.548 45.3184 461.201 45.9751 461.201 46.6319C461.201 47.2886 460.548 47.9454 459.894 47.9454Z" fill="#333849"/>
<path d="M459.894 63.6331H412.176C411.521 63.6331 410.868 62.9764 410.868 62.3196C410.868 61.3345 411.195 60.6777 412.176 60.6777H459.894C460.548 60.6777 461.201 61.3345 461.201 61.9912C461.201 62.9764 460.548 63.6331 459.894 63.6331Z" fill="#333849"/>
<path d="M429.825 74.014H411.848C411.521 74.014 410.868 73.6856 410.868 73.0289V72.0437C410.868 71.7154 411.195 71.0586 411.848 71.0586H429.498C429.825 71.0586 430.478 71.387 430.478 72.0437V73.0289C430.478 73.6856 430.151 74.014 429.825 74.014Z" fill="#333849"/>
<path d="M459.894 89.3731H412.176C411.521 89.3731 410.868 88.7164 410.868 88.0596C410.868 87.4028 411.521 86.7461 412.176 86.7461H459.894C460.548 86.7461 461.201 87.4028 461.201 88.0596C461.201 88.7164 460.548 89.3731 459.894 89.3731Z" fill="#333849"/>
<path d="M429.825 99.7567H411.848C411.521 99.7567 410.868 99.4278 410.868 98.771V97.7864C410.868 97.4575 411.195 96.8008 411.848 96.8008H429.498C429.825 96.8008 430.478 97.1297 430.478 97.7864V98.771C430.478 99.4278 430.151 99.7567 429.825 99.7567Z" fill="#333849"/>
<path d="M459.894 115.115H412.176C411.521 115.115 410.868 114.459 410.868 113.802C410.868 113.145 411.521 112.488 412.176 112.488H459.894C460.548 112.488 461.201 113.145 461.201 113.802C461.201 114.786 460.548 115.115 459.894 115.115Z" fill="#333849"/>
<path d="M435.767 124.982H411.689C411.142 124.982 410.868 124.372 410.868 123.762C410.868 122.949 411.279 122.543 411.689 122.543H435.63C436.178 122.543 436.451 123.153 436.451 123.762C436.587 124.372 436.178 124.982 435.767 124.982Z" fill="#EA4054"/>
<path d="M619.935 0H494.731C488.872 0 484.121 4.75022 484.121 10.6099V171.642C484.121 177.502 488.872 182.252 494.731 182.252H619.935C625.794 182.252 630.545 177.502 630.545 171.642V10.6099C630.545 4.75022 625.794 0 619.935 0Z" fill="#474E61"/>
<path d="M613.941 18.5519H499.875C498.568 18.5519 497.914 17.5667 497.914 16.5816C497.914 15.2681 498.895 14.6113 499.875 14.6113H613.615C614.923 14.6113 615.576 15.5965 615.576 16.5816C615.903 17.5667 614.923 18.5519 613.941 18.5519Z" fill="#333849"/>
<path d="M613.941 30.9796H499.875C498.568 30.9796 497.914 29.9945 497.914 29.0093C497.914 27.6958 498.895 27.0391 499.875 27.0391H613.615C614.923 27.0391 615.576 28.0242 615.576 29.0093C615.903 29.9945 614.923 30.9796 613.941 30.9796Z" fill="#333849"/>
<path d="M557.399 43.4094H499.875C498.568 43.4094 497.914 42.4242 497.914 41.439C497.914 40.1255 498.895 39.4688 499.875 39.4688H557.072C558.379 39.4688 559.033 40.4539 559.033 41.439C559.36 42.4242 558.379 43.4094 557.399 43.4094Z" fill="#EA4054"/>
<path d="M610.347 136.418H502.49C499.875 136.418 497.914 134.448 497.914 131.821V62.8609C497.914 60.2339 499.875 58.2637 502.49 58.2637H610.02C612.634 58.2637 614.596 60.2339 614.596 62.8609V131.821C614.923 134.448 612.961 136.418 610.347 136.418Z" fill="#333849"/>
<path d="M581.912 155.21H499.875C498.568 155.21 497.914 154.225 497.914 153.24C497.914 151.926 498.895 151.27 499.875 151.27H581.912C583.219 151.27 583.873 152.255 583.873 153.24C583.873 154.225 582.893 155.21 581.912 155.21Z" fill="#333849"/>
<path d="M614.075 155.068H589.998C589.451 155.068 589.177 154.154 589.177 153.239C589.177 152.02 589.588 151.41 589.998 151.41H613.938C614.486 151.41 614.76 152.325 614.76 153.239C614.896 154.154 614.486 155.068 614.075 155.068Z" fill="#EA4054"/>
<path d="M613.941 167.64H499.875C498.568 167.64 497.914 166.655 497.914 165.669C497.914 164.356 498.895 163.699 499.875 163.699H613.615C614.923 163.699 615.576 164.685 615.576 165.669C615.903 166.655 614.923 167.64 613.941 167.64Z" fill="#333849"/>
<defs>
<linearGradient id="paint0_linear_213_851" x1="23.5416" y1="105.863" x2="112.825" y2="141.786" gradientUnits="userSpaceOnUse">
<stop stop-color="#83A6FF"/>
<stop offset="1" stop-color="#5A78FF"/>
</linearGradient>
<linearGradient id="paint1_linear_213_851" x1="23.5649" y1="124.138" x2="112.849" y2="160.061" gradientUnits="userSpaceOnUse">
<stop stop-color="#83A6FF"/>
<stop offset="1" stop-color="#5A78FF"/>
</linearGradient>
<linearGradient id="paint2_linear_213_851" x1="23.5888" y1="142.415" x2="112.873" y2="178.339" gradientUnits="userSpaceOnUse">
<stop stop-color="#83A6FF"/>
<stop offset="1" stop-color="#5A78FF"/>
</linearGradient>
<linearGradient id="paint3_linear_213_851" x1="17.5507" y1="120.749" x2="32.1159" y2="126.61" gradientUnits="userSpaceOnUse">
<stop stop-color="#83A6FF"/>
<stop offset="1" stop-color="#5A78FF"/>
</linearGradient>
<linearGradient id="paint4_linear_213_851" x1="18.9314" y1="135.659" x2="49.7437" y2="148.056" gradientUnits="userSpaceOnUse">
<stop stop-color="#83A6FF"/>
<stop offset="1" stop-color="#5A78FF"/>
</linearGradient>
<linearGradient id="paint5_linear_213_851" x1="17.1944" y1="158.303" x2="26.7324" y2="162.141" gradientUnits="userSpaceOnUse">
<stop stop-color="#83A6FF"/>
<stop offset="1" stop-color="#5A78FF"/>
</linearGradient>
</defs>
</svg>
