<svg width="360" height="198" viewBox="0 0 360 198" fill="none" xmlns="http://www.w3.org/2000/svg">
<path d="M129.798 159.804C129.495 155.223 130.101 152.169 127.078 151.863C124.962 151.558 123.452 151.863 122.545 150.031C121.638 148.198 120.429 146.671 121.638 145.144C124.66 140.563 123.753 140.869 118.617 135.982C115.293 132.928 113.781 139.342 110.457 137.815C108.644 136.899 106.83 136.899 106.226 134.761C105.017 129.569 105.017 130.18 97.7639 130.485C95.045 130.485 95.045 132.928 95.045 135.372C94.7424 137.509 93.2308 137.815 91.1156 138.731C87.7915 140.563 85.6762 134.455 82.6539 137.815C81.143 139.342 79.9342 140.869 78.7253 142.701C77.8187 145.144 79.9341 145.755 81.143 147.893C81.143 147.893 81.143 147.893 81.143 148.198C81.4451 148.809 81.143 149.42 81.143 150.031C81.143 150.336 80.8407 150.947 80.8407 151.252C80.2364 152.779 80.2364 154.001 78.4231 154.306C73.2856 155.223 73.8901 155.528 74.1922 162.858C74.4945 167.439 79.9341 164.079 81.4452 167.439C82.0496 168.66 83.2584 170.493 82.6539 171.714C82.3518 172.936 81.143 173.852 80.8407 175.074C79.3298 177.822 82.0496 179.349 84.7699 181.792C88.0941 184.846 89.6041 178.433 92.9282 179.96C96.8576 181.487 96.555 180.571 97.4613 185.152C98.0665 188.206 101.693 187.29 105.621 186.984C110.154 186.679 106.83 181.182 110.154 179.654C110.759 179.349 111.666 179.044 112.269 178.738C114.084 177.822 115.293 179.044 117.105 179.96C119.826 181.792 121.336 179.044 124.359 175.379C126.171 173.241 124.359 171.714 122.847 169.882C121.638 168.355 122.545 166.828 123.15 164.69C124.359 161.636 130.101 164.385 129.798 159.804ZM108.945 165.606C105.32 169.576 99.2755 170.187 95.045 166.522C91.1156 162.858 90.5119 156.75 94.1371 152.474C97.7639 148.504 103.809 147.893 108.039 151.558C111.968 155.223 112.572 161.331 108.945 165.606Z" fill="#5C6479"/>
<path d="M273.129 41.9702V160.713C273.129 163.209 271.057 165.289 268.569 165.289H106.089C103.602 165.289 101.529 163.209 101.529 160.713V41.9702C101.529 39.4748 103.602 37.3952 106.089 37.3952H268.569C271.057 37.1872 273.129 39.2668 273.129 41.9702Z" fill="#464D5F"/>
<path d="M113.439 46.1289V165.288H104.942C102.455 165.288 100.383 163.208 100.383 160.712V46.1289H113.439Z" fill="#2C3341"/>
<path d="M150.95 58.1888H119.034C118.205 58.1888 117.583 57.5649 117.583 56.7331C117.583 55.9012 118.205 55.2773 119.034 55.2773H150.95C151.779 55.2773 152.4 55.9012 152.4 56.7331C152.4 57.5649 151.571 58.1888 150.95 58.1888Z" fill="#242B37"/>
<path d="M107.014 58.1897H105.77C104.941 58.1897 104.319 57.5659 104.319 56.7341C104.319 55.9022 105.148 55.4863 105.77 55.4863H107.014C107.843 55.4863 108.464 56.1102 108.464 56.9421C108.464 57.7739 107.843 58.1897 107.014 58.1897Z" fill="#242B37"/>
<path d="M107.014 64.8431H105.77C104.941 64.8431 104.319 64.2192 104.319 63.3874C104.319 62.5555 104.941 61.9316 105.77 61.9316H107.014C107.843 61.9316 108.464 62.5555 108.464 63.3874C108.464 64.2192 107.843 64.8431 107.014 64.8431Z" fill="#242B37"/>
<path d="M107.014 71.4992H105.77C104.941 71.4992 104.319 70.8753 104.319 70.0435C104.319 69.2117 104.941 68.5879 105.77 68.5879H107.014C107.843 68.5879 108.464 69.2117 108.464 70.0435C108.464 70.8753 107.843 71.4992 107.014 71.4992Z" fill="#242B37"/>
<path d="M107.014 78.1535H105.77C104.941 78.1535 104.319 77.5297 104.319 76.6979C104.319 75.8661 104.941 75.2422 105.77 75.2422H107.014C107.843 75.2422 108.464 75.8661 108.464 76.6979C108.464 77.5297 107.843 78.1535 107.014 78.1535Z" fill="#242B37"/>
<path d="M107.014 84.8078H105.77C104.941 84.8078 104.319 84.1839 104.319 83.3522C104.319 82.5204 104.941 81.8965 105.77 81.8965H107.014C107.843 81.8965 108.464 82.5204 108.464 83.3522C108.464 84.1839 107.843 84.8078 107.014 84.8078Z" fill="#242B37"/>
<path d="M107.014 91.4631H105.77C104.941 91.4631 104.319 90.8394 104.319 90.0075C104.319 89.1757 105.148 88.7598 105.77 88.7598H107.014C107.843 88.7598 108.464 89.3837 108.464 90.2155C108.464 91.0473 107.843 91.4631 107.014 91.4631Z" fill="#242B37"/>
<path d="M107.014 98.1188H105.77C104.941 98.1188 104.319 97.4948 104.319 96.6627C104.319 95.8309 104.941 95.207 105.77 95.207H107.014C107.843 95.207 108.464 95.8309 108.464 96.6627C108.464 97.4948 107.843 98.1188 107.014 98.1188Z" fill="#242B37"/>
<path d="M107.014 104.773H105.77C104.941 104.773 104.319 104.149 104.319 103.317C104.319 102.485 104.941 101.861 105.77 101.861H107.014C107.843 101.861 108.464 102.485 108.464 103.317C108.464 104.149 107.843 104.773 107.014 104.773Z" fill="#242B37"/>
<path d="M107.014 111.427H105.77C104.941 111.427 104.319 110.803 104.319 109.971C104.319 109.138 104.941 108.516 105.77 108.516H107.014C107.843 108.516 108.464 109.138 108.464 109.971C108.464 110.803 107.843 111.427 107.014 111.427Z" fill="#242B37"/>
<path d="M107.014 117.872H105.77C104.941 117.872 104.319 117.248 104.319 116.417C104.319 115.585 104.941 114.961 105.77 114.961H107.014C107.843 114.961 108.464 115.585 108.464 116.417C108.464 117.248 107.843 117.872 107.014 117.872Z" fill="#242B37"/>
<path d="M107.014 124.53H105.77C104.941 124.53 104.319 123.906 104.319 123.073C104.319 122.241 104.941 121.617 105.77 121.617H107.014C107.843 121.617 108.464 122.241 108.464 123.073C108.464 123.906 107.843 124.53 107.014 124.53Z" fill="#242B37"/>
<path d="M107.014 131.183H105.77C104.941 131.183 104.319 130.559 104.319 129.727C104.319 128.895 104.941 128.271 105.77 128.271H107.014C107.843 128.271 108.464 128.895 108.464 129.727C108.464 130.559 107.843 131.183 107.014 131.183Z" fill="#242B37"/>
<path d="M107.014 137.836H105.77C104.941 137.836 104.319 137.212 104.319 136.381C104.319 135.548 104.941 134.924 105.77 134.924H107.014C107.843 134.924 108.464 135.548 108.464 136.381C108.464 137.212 107.843 137.836 107.014 137.836Z" fill="#242B37"/>
<path d="M107.014 144.493H105.77C104.941 144.493 104.319 143.869 104.319 143.038C104.319 142.206 104.941 141.582 105.77 141.582H107.014C107.843 141.582 108.464 142.206 108.464 143.038C108.464 143.869 107.843 144.493 107.014 144.493Z" fill="#242B37"/>
<path d="M107.014 151.145H105.77C104.941 151.145 104.319 150.521 104.319 149.689C104.319 148.856 104.941 148.232 105.77 148.232H107.014C107.843 148.232 108.464 148.856 108.464 149.689C108.464 150.521 107.843 151.145 107.014 151.145Z" fill="#242B37"/>
<path d="M107.014 157.798H105.77C104.941 157.798 104.319 157.175 104.319 156.342C104.319 155.511 104.941 154.887 105.77 154.887H107.014C107.843 154.887 108.464 155.511 108.464 156.342C108.464 157.175 107.843 157.798 107.014 157.798Z" fill="#242B37"/>
<path d="M144.318 64.8431H119.034C118.205 64.8431 117.583 64.2192 117.583 63.3874C117.583 62.5555 118.205 61.9316 119.034 61.9316H144.318C145.147 61.9316 145.769 62.5555 145.769 63.3874C145.561 64.2192 144.94 64.8431 144.318 64.8431Z" fill="#242B37"/>
<path d="M212.088 64.8431H149.292C148.463 64.8431 147.841 64.2192 147.841 63.3874C147.841 62.5555 148.463 61.9316 149.292 61.9316H212.088C212.916 61.9316 213.538 62.5555 213.538 63.3874C213.538 64.2192 212.916 64.8431 212.088 64.8431Z" fill="#242B37"/>
<path d="M239.237 64.8431H221C220.171 64.8431 219.549 64.2192 219.549 63.3874C219.549 62.5555 220.171 61.9316 221 61.9316H239.237C240.066 61.9316 240.688 62.5555 240.688 63.3874C240.688 64.2192 240.066 64.8431 239.237 64.8431Z" fill="white"/>
<path d="M254.365 64.8431H248.148C247.319 64.8431 246.697 64.2192 246.697 63.3874C246.697 62.5555 247.319 61.9316 248.148 61.9316H254.365C255.195 61.9316 255.816 62.5555 255.816 63.3874C255.816 64.2192 255.195 64.8431 254.365 64.8431Z" fill="url(#paint0_linear_34_5124)"/>
<path d="M160.484 71.4992H128.568C127.739 71.4992 127.117 70.8753 127.117 70.0435C127.117 69.2117 127.739 68.5879 128.568 68.5879H160.484C161.313 68.5879 161.935 69.2117 161.935 70.0435C161.727 70.8753 161.106 71.4992 160.484 71.4992Z" fill="#EA4054"/>
<path d="M151.987 104.562H128.568C127.739 104.562 127.117 103.938 127.117 103.106C127.117 102.274 127.739 101.65 128.568 101.65H151.987C152.816 101.65 153.438 102.274 153.438 103.106C153.438 103.938 152.816 104.562 151.987 104.562Z" fill="#242B37"/>
<path d="M242.251 104.562H218.832C218.003 104.562 217.381 103.938 217.381 103.106C217.381 102.274 218.003 101.65 218.832 101.65H242.251C243.079 101.65 243.701 102.274 243.701 103.106C243.701 103.938 243.079 104.562 242.251 104.562Z" fill="#242B37"/>
<path d="M169.396 78.1535H139.552C138.723 78.1535 138.102 77.5297 138.102 76.6979C138.102 75.8661 138.723 75.2422 139.552 75.2422H169.396C170.225 75.2422 170.847 75.8661 170.847 76.6979C170.847 77.5297 170.225 78.1535 169.396 78.1535Z" fill="#242B37"/>
<path d="M186.181 78.1535H173.954C173.125 78.1535 172.503 77.5297 172.503 76.6979C172.503 75.8661 173.125 75.2422 173.954 75.2422H186.181C187.01 75.2422 187.632 75.8661 187.632 76.6979C187.632 77.5297 187.01 78.1535 186.181 78.1535Z" fill="url(#paint1_linear_34_5124)"/>
<path d="M236.542 84.5988H228.874C228.045 84.5988 227.423 83.975 227.423 83.1431C227.423 82.3113 228.045 81.6875 228.874 81.6875H236.542C237.37 81.6875 237.993 82.3113 237.993 83.1431C237.785 83.975 237.37 84.5988 236.542 84.5988Z" fill="url(#paint2_linear_34_5124)"/>
<path d="M262.059 90.7609H254.39C253.561 90.7609 252.939 90.1371 252.939 89.3052C252.939 88.4734 253.561 87.8496 254.39 87.8496H262.059C262.887 87.8496 263.51 88.4734 263.51 89.3052C263.302 90.1371 262.887 90.7609 262.059 90.7609Z" fill="url(#paint3_linear_34_5124)"/>
<path d="M254.03 104.527H246.362C245.533 104.527 244.911 103.903 244.911 103.071C244.911 102.239 245.533 101.615 246.362 101.615H254.03C254.858 101.615 255.481 102.239 255.481 103.071C255.274 103.903 254.858 104.527 254.03 104.527Z" fill="url(#paint4_linear_34_5124)"/>
<path d="M224.206 84.5988H216.538C215.709 84.5988 215.087 83.975 215.087 83.1431C215.087 82.3113 215.709 81.6875 216.538 81.6875H224.206C225.034 81.6875 225.657 82.3113 225.657 83.1431C225.449 83.975 225.034 84.5988 224.206 84.5988Z" fill="#242B37"/>
<path d="M147.354 84.5988H139.686C138.857 84.5988 138.235 83.975 138.235 83.1431C138.235 82.3113 138.857 81.6875 139.686 81.6875H147.354C148.183 81.6875 148.805 82.3113 148.805 83.1431C148.598 83.975 148.183 84.5988 147.354 84.5988Z" fill="#242B37"/>
<path d="M147.354 90.7609H139.686C138.857 90.7609 138.235 90.1371 138.235 89.3052C138.235 88.4734 138.857 87.8496 139.686 87.8496H147.354C148.183 87.8496 148.805 88.4734 148.805 89.3052C148.598 90.1371 148.183 90.7609 147.354 90.7609Z" fill="#242B37"/>
<path d="M147.354 111.407H139.686C138.857 111.407 138.235 110.784 138.235 109.952C138.235 109.12 138.857 108.496 139.686 108.496H147.354C148.183 108.496 148.805 109.12 148.805 109.952C148.598 110.784 148.183 111.407 147.354 111.407Z" fill="#242B37"/>
<path d="M147.354 118.288H139.686C138.857 118.288 138.235 117.664 138.235 116.833C138.235 116.001 138.857 115.377 139.686 115.377H147.354C148.183 115.377 148.805 116.001 148.805 116.833C148.598 117.664 148.183 118.288 147.354 118.288Z" fill="#242B37"/>
<path d="M226.5 90.7609H218.832C218.003 90.7609 217.381 90.1371 217.381 89.3052C217.381 88.4734 218.003 87.8496 218.832 87.8496H226.5C227.328 87.8496 227.951 88.4734 227.951 89.3052C227.743 90.1371 227.328 90.7609 226.5 90.7609Z" fill="#242B37"/>
<path d="M135.883 98.7883H128.215C127.385 98.7883 126.764 98.1644 126.764 97.3326C126.764 96.5007 127.385 95.877 128.215 95.877H135.883C136.711 95.877 137.334 96.5007 137.334 97.3326C137.126 98.1644 136.711 98.7883 135.883 98.7883Z" fill="#EA4054"/>
<path d="M151.941 84.5988H144.273C143.444 84.5988 142.822 83.975 142.822 83.1431C142.822 82.3113 143.444 81.6875 144.273 81.6875H151.941C152.769 81.6875 153.392 82.3113 153.392 83.1431C153.185 83.975 152.769 84.5988 151.941 84.5988Z" fill="#242B37"/>
<path d="M151.941 90.7609H144.273C143.444 90.7609 142.822 90.1371 142.822 89.3052C142.822 88.4734 143.444 87.8496 144.273 87.8496H151.941C152.769 87.8496 153.392 88.4734 153.392 89.3052C153.185 90.1371 152.769 90.7609 151.941 90.7609Z" fill="#242B37"/>
<path d="M154.236 111.407H146.568C145.739 111.407 145.117 110.784 145.117 109.952C145.117 109.12 145.739 108.496 146.568 108.496H154.236C155.064 108.496 155.687 109.12 155.687 109.952C155.48 110.784 155.064 111.407 154.236 111.407Z" fill="#242B37"/>
<path d="M155.383 118.288H147.715C146.885 118.288 146.264 117.664 146.264 116.833C146.264 116.001 146.885 115.377 147.715 115.377H155.383C156.211 115.377 156.834 116.001 156.834 116.833C156.626 117.664 156.211 118.288 155.383 118.288Z" fill="#242B37"/>
<path d="M159.972 118.288H152.304C151.474 118.288 150.853 117.664 150.853 116.833C150.853 116.001 151.474 115.377 152.304 115.377H159.972C160.8 115.377 161.423 116.001 161.423 116.833C161.215 117.664 160.8 118.288 159.972 118.288Z" fill="#242B37"/>
<path d="M234.53 90.7609H226.862C226.033 90.7609 225.411 90.1371 225.411 89.3052C225.411 88.4734 226.033 87.8496 226.862 87.8496H234.53C235.358 87.8496 235.981 88.4734 235.981 89.3052C235.774 90.1371 235.358 90.7609 234.53 90.7609Z" fill="#242B37"/>
<path d="M143.913 98.7883H136.245C135.416 98.7883 134.794 98.1644 134.794 97.3326C134.794 96.5007 135.416 95.877 136.245 95.877H143.913C144.741 95.877 145.364 96.5007 145.364 97.3326C145.156 98.1644 144.741 98.7883 143.913 98.7883Z" fill="#EA4054"/>
<path d="M242.559 90.7609H234.89C234.061 90.7609 233.439 90.1371 233.439 89.3052C233.439 88.4734 234.061 87.8496 234.89 87.8496H242.559C243.387 87.8496 244.01 88.4734 244.01 89.3052C243.802 90.1371 243.387 90.7609 242.559 90.7609Z" fill="#242B37"/>
<path d="M249.441 90.7609H241.773C240.944 90.7609 240.322 90.1371 240.322 89.3052C240.322 88.4734 240.944 87.8496 241.773 87.8496H249.441C250.269 87.8496 250.892 88.4734 250.892 89.3052C250.685 90.1371 250.269 90.7609 249.441 90.7609Z" fill="#242B37"/>
<path d="M151.941 98.7883H144.273C143.444 98.7883 142.822 98.1644 142.822 97.3326C142.822 96.5007 143.444 95.877 144.273 95.877H151.941C152.769 95.877 153.392 96.5007 153.392 97.3326C153.185 98.1644 152.769 98.7883 151.941 98.7883Z" fill="#EA4054"/>
<path d="M265.973 84.5988H242.346C241.518 84.5988 240.896 83.975 240.896 83.1431C240.896 82.3113 241.518 81.6875 242.346 81.6875H265.973C266.801 81.6875 267.423 82.3113 267.423 83.1431C267.423 83.975 266.801 84.5988 265.973 84.5988Z" fill="#242B37"/>
<path d="M228.53 117.872H211.95C211.121 117.872 210.499 117.248 210.499 116.417C210.499 115.585 211.121 114.961 211.95 114.961H228.53C229.359 114.961 229.981 115.585 229.981 116.417C229.981 117.248 229.359 117.872 228.53 117.872Z" fill="white"/>
<path d="M243.45 117.872H234.954C234.125 117.872 233.503 117.248 233.503 116.417C233.503 115.585 234.125 114.961 234.954 114.961H243.45C244.279 114.961 244.901 115.585 244.901 116.417C244.901 117.248 244.072 117.872 243.45 117.872Z" fill="white"/>
<path d="M239.946 137.788H231.45C230.621 137.788 229.999 137.164 229.999 136.333C229.999 135.501 230.621 134.877 231.45 134.877H239.946C240.776 134.877 241.397 135.501 241.397 136.333C241.397 137.164 240.568 137.788 239.946 137.788Z" fill="white"/>
<path d="M167.389 137.628H145.421C144.592 137.628 143.97 137.004 143.97 136.172C143.97 135.341 144.592 134.717 145.421 134.717H167.389C168.218 134.717 168.839 135.341 168.839 136.172C168.839 137.004 168.218 137.628 167.389 137.628Z" fill="white"/>
<path d="M167.389 150.407H145.421C144.592 150.407 143.97 149.783 143.97 148.952C143.97 148.12 144.592 147.496 145.421 147.496H167.389C168.218 147.496 168.839 148.12 168.839 148.952C168.839 149.783 168.218 150.407 167.389 150.407Z" fill="#242B37"/>
<path d="M227.035 137.788H205.067C204.238 137.788 203.616 137.164 203.616 136.333C203.616 135.501 204.238 134.877 205.067 134.877H227.035C227.864 134.877 228.486 135.501 228.486 136.333C228.486 137.164 227.864 137.788 227.035 137.788Z" fill="#242B37"/>
<path d="M220.999 157.387H149.5C148.671 157.387 148.049 156.763 148.049 155.931C148.049 155.099 148.671 154.475 149.5 154.475H220.999C221.829 154.475 222.45 155.099 222.45 155.931C222.45 156.763 221.621 157.387 220.999 157.387Z" fill="#EA4054"/>
<path d="M167.389 124.321H145.421C144.592 124.321 143.97 123.697 143.97 122.866C143.97 122.034 144.592 121.41 145.421 121.41H167.389C168.218 121.41 168.839 122.034 168.839 122.866C168.839 123.697 168.218 124.321 167.389 124.321Z" fill="#EA4054"/>
<path d="M236.569 124.321H205.067C204.238 124.321 203.616 123.697 203.616 122.866C203.616 122.034 204.238 121.41 205.067 121.41H236.361C237.19 121.41 237.812 122.034 237.812 122.866C237.812 123.697 237.19 124.321 236.569 124.321Z" fill="#242B37"/>
<path d="M247.735 124.321H242.346C241.518 124.321 240.896 123.697 240.896 122.866C240.896 122.034 241.518 121.41 242.346 121.41H247.735C248.565 121.41 249.186 122.034 249.186 122.866C249.186 123.697 248.565 124.321 247.735 124.321Z" fill="url(#paint5_linear_34_5124)"/>
<path d="M172.362 130.767H145.42C144.591 130.767 143.97 130.143 143.97 129.311C143.97 128.479 144.591 127.855 145.42 127.855H172.362C173.191 127.855 173.813 128.479 173.813 129.311C173.813 130.143 172.984 130.767 172.362 130.767Z" fill="#242B37"/>
<path d="M168.161 143.525H136.245C135.416 143.525 134.794 142.901 134.794 142.069C134.794 141.237 135.416 140.613 136.245 140.613H168.161C168.99 140.613 169.611 141.237 169.611 142.069C169.611 142.901 168.99 143.525 168.161 143.525Z" fill="#242B37"/>
<path d="M221.207 150.73H201.104C200.275 150.73 199.653 150.106 199.653 149.274C199.653 148.442 200.275 147.818 201.104 147.818H221.207C222.036 147.818 222.658 148.442 222.658 149.274C222.658 150.106 221.829 150.73 221.207 150.73Z" fill="white"/>
<path d="M234.263 150.73H225.973C225.144 150.73 224.522 150.106 224.522 149.274C224.522 148.442 225.144 147.818 225.973 147.818H234.263C235.093 147.818 235.714 148.442 235.714 149.274C235.714 150.106 235.093 150.73 234.263 150.73Z" fill="url(#paint6_linear_34_5124)"/>
<path d="M272.44 41.4185V46.5573H100.383V41.4185C100.383 39.2162 102.458 37.3809 104.949 37.3809H267.667C270.366 37.3809 272.44 39.2162 272.44 41.4185Z" fill="url(#paint7_linear_34_5124)"/>
<path d="M105.564 44.257C106.365 44.257 107.015 43.6053 107.015 42.8014C107.015 41.9975 106.365 41.3457 105.564 41.3457C104.763 41.3457 104.113 41.9975 104.113 42.8014C104.113 43.6053 104.763 44.257 105.564 44.257Z" fill="white"/>
<path d="M109.708 44.257C110.51 44.257 111.159 43.6053 111.159 42.8014C111.159 41.9975 110.51 41.3457 109.708 41.3457C108.907 41.3457 108.258 41.9975 108.258 42.8014C108.258 43.6053 108.907 44.257 109.708 44.257Z" fill="white"/>
<path d="M113.853 44.257C114.654 44.257 115.304 43.6053 115.304 42.8014C115.304 41.9975 114.654 41.3457 113.853 41.3457C113.052 41.3457 112.402 41.9975 112.402 42.8014C112.402 43.6053 113.052 44.257 113.853 44.257Z" fill="white"/>
<path d="M186.394 58.0803C185.957 55.4066 185.907 52.6839 186.247 49.9961C186.687 52.6695 186.736 55.3926 186.394 58.0803Z" fill="#263238"/>
<path d="M167.937 63.2283C166.223 61.1315 164.822 58.7982 163.775 56.3007C165.49 58.3974 166.894 60.7307 167.942 63.2283H167.937Z" fill="#263238"/>
<path d="M154.528 76.9193C151.992 75.9634 149.609 74.6438 147.453 73.002C149.988 73.9601 152.371 75.2795 154.528 76.9193Z" fill="#263238"/>
<path d="M149.761 95.4762C147.088 95.9162 144.364 95.9659 141.677 95.6235C144.35 95.1863 147.073 95.1367 149.761 95.4762Z" fill="#263238"/>
<path d="M154.914 113.934C152.817 115.649 150.484 117.052 147.986 118.1C150.081 116.383 152.415 114.979 154.914 113.934Z" fill="#263238"/>
<path d="M219.02 113.252C221.554 114.208 223.937 115.526 226.095 117.164C223.56 116.209 221.176 114.891 219.02 113.252Z" fill="#263238"/>
<path d="M223.794 94.7129C226.465 94.2709 229.186 94.2193 231.872 94.5598C229.201 94.9989 226.48 95.0505 223.794 94.7129Z" fill="#263238"/>
<path d="M218.641 76.2584C220.736 74.5405 223.07 73.135 225.568 72.0859C223.473 73.8039 221.139 75.2093 218.641 76.2584Z" fill="#263238"/>
<path d="M204.956 62.8485C205.912 60.314 207.23 57.931 208.868 55.7734C207.908 58.3063 206.591 60.6889 204.956 62.8485Z" fill="#263238"/>
<g opacity="0.5">
<path d="M218.199 96.9794C216.64 116.493 200.386 122.371 200.386 122.371C199.196 125.336 197.637 132.882 197.637 132.882H175.93C175.93 132.882 174.371 125.336 173.174 122.371C173.174 122.371 156.921 116.493 155.368 96.9794C154.285 83.4246 163.934 63.3672 186.661 63.3672H186.894C209.616 63.3672 219.27 83.4246 218.199 96.9794Z" fill="#EA4054"/>
</g>
<g opacity="0.7">
<path d="M215.505 97.08C214.082 114.921 199.218 120.323 199.218 120.323C198.124 123.033 196.695 132.903 196.695 132.903H176.853C176.853 132.903 175.43 123.033 174.336 120.323C174.336 120.323 159.471 114.943 158.049 97.08C157.056 84.6816 165.883 66.3533 186.666 66.3477H186.882C207.665 66.3533 216.497 84.6816 215.505 97.08Z" fill="#EA4054"/>
</g>
<path d="M175.968 100.381L174.296 100.693L180.677 134.854L182.348 134.542L175.968 100.381Z" fill="#263238"/>
<path d="M197.596 100.399L191.228 134.562L192.899 134.874L199.268 100.711L197.596 100.399Z" fill="#263238"/>
<path d="M186.78 111.923C184.841 111.923 183.061 110.143 181.802 107.847C181.582 108.132 181.304 108.367 180.986 108.537C180.669 108.707 180.319 108.808 179.96 108.833C176.734 108.833 175.425 102.195 175.391 101.917L175.958 101.809C175.958 101.872 177.216 108.267 179.971 108.267C180.285 108.226 180.585 108.118 180.853 107.951C181.121 107.783 181.35 107.561 181.525 107.297C180.561 105.414 180.02 103.344 179.937 101.231C179.937 99.366 180.64 98.2945 181.865 98.2945C183.288 98.2945 184.104 99.4284 184.104 101.413C184.046 103.541 183.385 105.609 182.199 107.376C183.367 109.599 185.034 111.345 186.791 111.345C188.118 111.345 189.456 110.296 190.556 108.397C190.646 108.238 190.737 108.074 190.822 107.904C189.51 106.281 188.813 104.247 188.855 102.161C188.855 99.7685 189.756 98.2832 191.208 98.2832C191.49 98.2835 191.766 98.362 192.007 98.5102C192.247 98.6583 192.441 98.8702 192.568 99.1222C193.521 100.772 192.999 104.712 191.502 107.819C192.077 108.377 192.844 108.692 193.645 108.697C195.607 108.697 197.341 104.003 197.846 102.195L198.413 102.348C198.334 102.631 196.463 109.264 193.668 109.264C192.779 109.254 191.924 108.919 191.264 108.323C191.202 108.442 191.134 108.561 191.066 108.68C190.181 110.166 188.753 111.923 186.78 111.923ZM191.196 98.8841C189.875 98.8841 189.41 100.67 189.41 102.195C189.398 104.064 189.979 105.888 191.071 107.405C192.409 104.519 192.903 100.891 192.064 99.4397C191.99 99.2703 191.869 99.1257 191.715 99.0232C191.561 98.9207 191.381 98.8645 191.196 98.8614V98.8841ZM181.853 98.8841C180.669 98.8841 180.493 100.369 180.493 101.254C180.573 103.179 181.049 105.066 181.893 106.798C182.899 105.185 183.463 103.335 183.526 101.435C183.526 100.25 183.237 98.8614 181.853 98.8614V98.8841Z" fill="#263238"/>
<path d="M200.365 132.902H173.188V147.863H200.365V132.902Z" fill="#C7C7C7"/>
<path d="M197.285 147.863C195.686 150.698 192.619 153.232 186.774 153.232C180.93 153.232 177.868 150.698 176.27 147.863H197.285Z" fill="#C7C7C7"/>
<path d="M197.286 147.862C196.811 148.699 196.217 149.463 195.523 150.13L176.815 148.696C176.607 148.421 176.418 148.133 176.248 147.834L197.286 147.862Z" fill="#A6A6A6"/>
<path d="M201.162 135.753L172.392 138.418V137.114L201.162 134.449V135.753Z" fill="#A6A6A6"/>
<path d="M201.162 139.706L172.392 142.365V141.061L201.162 138.402V139.706Z" fill="#A6A6A6"/>
<path d="M201.162 143.657L172.392 146.316V145.012L201.162 142.347V143.657Z" fill="#A6A6A6"/>
<g opacity="0.5">
<path d="M162.21 92.4156C163.208 92.5857 164.478 87.4438 170.028 81.4912C172.482 78.8438 181.802 75.5386 181.133 72.483C180.465 69.4273 172.148 72.5737 167.964 77.4151C161.235 85.2158 161.297 92.2739 162.21 92.4156Z" fill="white"/>
<path d="M211.242 93.4869C213.079 93.4869 213.079 90.6523 211.242 90.6523C209.405 90.6523 209.405 93.4869 211.242 93.4869Z" fill="white"/>
<path d="M202.273 114.909C203.277 115.675 208.141 111.185 210.335 105.839C212.154 101.394 212.466 95.7705 211.242 95.4474C210.017 95.1242 209.224 102.817 207.755 105.652C205.896 109.246 201.19 114.093 202.273 114.909Z" fill="white"/>
</g>
<path d="M235.352 12.6515L240.122 17.7164C240.676 18.3188 240.868 19.2604 240.602 20.0702L238.724 26.089C238.458 26.8988 237.733 27.5768 236.918 27.6673L230.83 29.1068C230.01 29.3142 229.094 29.0506 228.54 28.448L223.771 23.3833C223.438 23.0217 222.744 22.9992 222.382 23.3383C222.261 23.4513 222.135 23.6809 222.125 23.9145C221.47 28.453 222.902 32.9422 225.894 36.1957C229.777 40.2966 235.62 41.8888 241.019 40.3099L272.491 74.4163C275.266 77.3122 279.776 77.5752 282.793 74.75C285.69 72.0379 285.883 67.4845 283.218 64.7091L251.414 30.2413C253.02 25.149 251.748 19.6128 248.087 15.7529C244.984 12.3788 240.534 10.7147 236.116 11.0394C235.537 11.0206 235.165 11.5931 235.146 12.0602C235.136 12.2936 235.246 12.4142 235.352 12.6515ZM278.794 70.6454C277.708 71.6625 275.972 71.6062 274.975 70.5217C273.977 69.4371 274.047 67.8025 275.133 66.7855C276.219 65.7684 277.955 65.8247 278.952 66.9092C279.95 67.9938 279.881 69.6283 278.794 70.6454C278.91 70.6491 278.91 70.6491 278.794 70.6454Z" fill="#242B37"/>
<path opacity="0.4" d="M247.488 40.4944L270.365 65.6777" stroke="#464D5F" stroke-miterlimit="10"/>
<path opacity="0.4" d="M251.718 36.4623L274.588 61.7617" stroke="#464D5F" stroke-miterlimit="10"/>
<defs>
<linearGradient id="paint0_linear_34_5124" x1="246.9" y1="63.5207" x2="255.745" y2="63.5207" gradientUnits="userSpaceOnUse">
<stop stop-color="#83A6FF"/>
<stop offset="1" stop-color="#5A78FF"/>
</linearGradient>
<linearGradient id="paint1_linear_34_5124" x1="172.646" y1="76.6824" x2="187.564" y2="76.6824" gradientUnits="userSpaceOnUse">
<stop stop-color="#83A6FF"/>
<stop offset="1" stop-color="#5A78FF"/>
</linearGradient>
<linearGradient id="paint2_linear_34_5124" x1="227.409" y1="83.3108" x2="237.878" y2="83.3108" gradientUnits="userSpaceOnUse">
<stop stop-color="#83A6FF"/>
<stop offset="1" stop-color="#5A78FF"/>
</linearGradient>
<linearGradient id="paint3_linear_34_5124" x1="252.926" y1="89.4729" x2="263.395" y2="89.4729" gradientUnits="userSpaceOnUse">
<stop stop-color="#83A6FF"/>
<stop offset="1" stop-color="#5A78FF"/>
</linearGradient>
<linearGradient id="paint4_linear_34_5124" x1="244.897" y1="103.239" x2="255.366" y2="103.239" gradientUnits="userSpaceOnUse">
<stop stop-color="#83A6FF"/>
<stop offset="1" stop-color="#5A78FF"/>
</linearGradient>
<linearGradient id="paint5_linear_34_5124" x1="241.03" y1="122.905" x2="249.088" y2="122.905" gradientUnits="userSpaceOnUse">
<stop stop-color="#83A6FF"/>
<stop offset="1" stop-color="#5A78FF"/>
</linearGradient>
<linearGradient id="paint6_linear_34_5124" x1="224.68" y1="149.295" x2="235.621" y2="149.295" gradientUnits="userSpaceOnUse">
<stop stop-color="#83A6FF"/>
<stop offset="1" stop-color="#5A78FF"/>
</linearGradient>
<linearGradient id="paint7_linear_34_5124" x1="100.368" y1="42.0181" x2="272.393" y2="42.0181" gradientUnits="userSpaceOnUse">
<stop stop-color="#6F88FF"/>
<stop offset="1" stop-color="#6E88FF" stop-opacity="0"/>
</linearGradient>
</defs>
</svg>
