<svg width="212" height="177" viewBox="0 0 212 177" fill="none" xmlns="http://www.w3.org/2000/svg">
<path d="M55.7981 148.804C55.4955 144.223 56.1007 141.169 53.0776 140.863C50.9624 140.558 49.4524 140.863 48.5445 139.031C47.6382 137.198 46.4293 135.671 47.6382 134.144C50.6598 129.563 49.7535 129.869 44.6167 124.982C41.2925 121.928 39.781 128.342 36.4568 126.815C34.6442 125.899 32.8301 125.899 32.2264 123.761C31.0175 118.569 31.0175 119.18 23.7639 119.485C21.045 119.485 21.045 121.928 21.045 124.372C20.7424 126.509 19.2308 126.815 17.1156 127.731C13.7915 129.563 11.6762 123.455 8.65392 126.815C7.143 128.342 5.93423 129.869 4.7253 131.701C3.81869 134.144 5.93407 134.755 7.143 136.893C7.143 136.893 7.143 136.893 7.143 137.198C7.44515 137.809 7.143 138.42 7.143 139.031C7.143 139.336 6.84069 139.947 6.84069 140.252C6.23638 141.779 6.23638 143.001 4.42315 143.306C-0.714391 144.223 -0.109922 144.528 0.192232 151.858C0.49454 156.439 5.93408 153.079 7.44515 156.439C8.04961 157.66 9.25838 159.493 8.65392 160.714C8.35177 161.936 7.14299 162.852 6.84069 164.074C5.32976 166.822 8.04962 168.349 10.7699 170.792C14.0941 173.846 15.6041 167.433 18.9282 168.96C22.8576 170.487 22.555 169.571 23.4613 174.152C24.0665 177.206 27.6933 176.29 31.6211 175.984C36.1542 175.679 32.8301 170.182 36.1542 168.654C36.7595 168.349 37.6658 168.044 38.2694 167.738C40.0836 166.822 41.2925 168.044 43.1052 168.96C45.8256 170.792 47.3356 168.044 50.3587 164.379C52.1713 162.241 50.3587 160.714 48.8471 158.882C47.6382 157.355 48.5445 155.828 49.1498 153.69C50.3587 150.636 56.1007 153.385 55.7981 148.804ZM34.9453 154.606C31.3201 158.576 25.2755 159.187 21.045 155.522C17.1156 151.858 16.5119 145.75 20.1371 141.474C23.7639 137.504 29.8085 136.893 34.039 140.558C37.9684 144.223 38.5721 150.331 34.9453 154.606Z" fill="#5C6479"/>
<path d="M199.129 30.9702V149.713C199.129 152.209 197.057 154.289 194.569 154.289H32.0887C29.6018 154.289 27.5293 152.209 27.5293 149.713V30.9702C27.5293 28.4748 29.6018 26.3952 32.0887 26.3952H194.569C197.057 26.1872 199.129 28.2668 199.129 30.9702Z" fill="#464D5F"/>
<path d="M39.4393 35.1289V154.288H30.9422C28.4553 154.288 26.3828 152.208 26.3828 149.712V35.1289H39.4393Z" fill="#2C3341"/>
<path d="M76.9497 47.1888H45.0338C44.2048 47.1888 43.583 46.5649 43.583 45.7331C43.583 44.9012 44.2048 44.2773 45.0338 44.2773H76.9497C77.7788 44.2773 78.4005 44.9012 78.4005 45.7331C78.4005 46.5649 77.5715 47.1888 76.9497 47.1888Z" fill="#242B37"/>
<path d="M33.0135 47.1897H31.77C30.941 47.1897 30.3193 46.5659 30.3193 45.7341C30.3193 44.9022 31.1483 44.4863 31.77 44.4863H33.0135C33.8425 44.4863 34.4642 45.1102 34.4642 45.9421C34.4642 46.7739 33.8425 47.1897 33.0135 47.1897Z" fill="#242B37"/>
<path d="M33.0135 53.8431H31.77C30.941 53.8431 30.3193 53.2192 30.3193 52.3874C30.3193 51.5555 30.941 50.9316 31.77 50.9316H33.0135C33.8425 50.9316 34.4642 51.5555 34.4642 52.3874C34.4642 53.2192 33.8425 53.8431 33.0135 53.8431Z" fill="#242B37"/>
<path d="M33.0135 60.4992H31.77C30.941 60.4992 30.3193 59.8753 30.3193 59.0435C30.3193 58.2117 30.941 57.5879 31.77 57.5879H33.0135C33.8425 57.5879 34.4642 58.2117 34.4642 59.0435C34.4642 59.8753 33.8425 60.4992 33.0135 60.4992Z" fill="#242B37"/>
<path d="M33.0135 67.1535H31.77C30.941 67.1535 30.3193 66.5297 30.3193 65.6979C30.3193 64.8661 30.941 64.2422 31.77 64.2422H33.0135C33.8425 64.2422 34.4642 64.8661 34.4642 65.6979C34.4642 66.5297 33.8425 67.1535 33.0135 67.1535Z" fill="#242B37"/>
<path d="M33.0135 73.8078H31.77C30.941 73.8078 30.3193 73.1839 30.3193 72.3522C30.3193 71.5204 30.941 70.8965 31.77 70.8965H33.0135C33.8425 70.8965 34.4642 71.5204 34.4642 72.3522C34.4642 73.1839 33.8425 73.8078 33.0135 73.8078Z" fill="#242B37"/>
<path d="M33.0135 80.4631H31.77C30.941 80.4631 30.3193 79.8394 30.3193 79.0075C30.3193 78.1757 31.1483 77.7598 31.77 77.7598H33.0135C33.8425 77.7598 34.4642 78.3837 34.4642 79.2155C34.4642 80.0473 33.8425 80.4631 33.0135 80.4631Z" fill="#242B37"/>
<path d="M33.0135 87.1188H31.77C30.941 87.1188 30.3193 86.4948 30.3193 85.6627C30.3193 84.8309 30.941 84.207 31.77 84.207H33.0135C33.8425 84.207 34.4642 84.8309 34.4642 85.6627C34.4642 86.4948 33.8425 87.1188 33.0135 87.1188Z" fill="#242B37"/>
<path d="M33.0135 93.7725H31.77C30.941 93.7725 30.3193 93.1485 30.3193 92.3169C30.3193 91.4853 30.941 90.8613 31.77 90.8613H33.0135C33.8425 90.8613 34.4642 91.4853 34.4642 92.3169C34.4642 93.1485 33.8425 93.7725 33.0135 93.7725Z" fill="#242B37"/>
<path d="M33.0135 100.427H31.77C30.941 100.427 30.3193 99.8028 30.3193 98.9712C30.3193 98.1385 30.941 97.5156 31.77 97.5156H33.0135C33.8425 97.5156 34.4642 98.1385 34.4642 98.9712C34.4642 99.8028 33.8425 100.427 33.0135 100.427Z" fill="#242B37"/>
<path d="M33.0135 106.872H31.77C30.941 106.872 30.3193 106.248 30.3193 105.417C30.3193 104.585 30.941 103.961 31.77 103.961H33.0135C33.8425 103.961 34.4642 104.585 34.4642 105.417C34.4642 106.248 33.8425 106.872 33.0135 106.872Z" fill="#242B37"/>
<path d="M33.0135 113.53H31.77C30.941 113.53 30.3193 112.906 30.3193 112.073C30.3193 111.241 30.941 110.617 31.77 110.617H33.0135C33.8425 110.617 34.4642 111.241 34.4642 112.073C34.4642 112.906 33.8425 113.53 33.0135 113.53Z" fill="#242B37"/>
<path d="M33.0135 120.183H31.77C30.941 120.183 30.3193 119.559 30.3193 118.727C30.3193 117.895 30.941 117.271 31.77 117.271H33.0135C33.8425 117.271 34.4642 117.895 34.4642 118.727C34.4642 119.559 33.8425 120.183 33.0135 120.183Z" fill="#242B37"/>
<path d="M33.0135 126.836H31.77C30.941 126.836 30.3193 126.212 30.3193 125.381C30.3193 124.548 30.941 123.924 31.77 123.924H33.0135C33.8425 123.924 34.4642 124.548 34.4642 125.381C34.4642 126.212 33.8425 126.836 33.0135 126.836Z" fill="#242B37"/>
<path d="M33.0135 133.493H31.77C30.941 133.493 30.3193 132.869 30.3193 132.038C30.3193 131.206 30.941 130.582 31.77 130.582H33.0135C33.8425 130.582 34.4642 131.206 34.4642 132.038C34.4642 132.869 33.8425 133.493 33.0135 133.493Z" fill="#242B37"/>
<path d="M33.0135 140.145H31.77C30.941 140.145 30.3193 139.521 30.3193 138.689C30.3193 137.856 30.941 137.232 31.77 137.232H33.0135C33.8425 137.232 34.4642 137.856 34.4642 138.689C34.4642 139.521 33.8425 140.145 33.0135 140.145Z" fill="#242B37"/>
<path d="M33.0135 146.798H31.77C30.941 146.798 30.3193 146.175 30.3193 145.342C30.3193 144.511 30.941 143.887 31.77 143.887H33.0135C33.8425 143.887 34.4642 144.511 34.4642 145.342C34.4642 146.175 33.8425 146.798 33.0135 146.798Z" fill="#242B37"/>
<path d="M70.3179 53.8431H45.0338C44.2048 53.8431 43.583 53.2192 43.583 52.3874C43.583 51.5555 44.2048 50.9316 45.0338 50.9316H70.3179C71.1469 50.9316 71.7686 51.5555 71.7686 52.3874C71.5613 53.2192 70.9396 53.8431 70.3179 53.8431Z" fill="#242B37"/>
<path d="M138.088 53.8431H75.2916C74.4626 53.8431 73.8408 53.2192 73.8408 52.3874C73.8408 51.5555 74.4626 50.9316 75.2916 50.9316H138.088C138.916 50.9316 139.538 51.5555 139.538 52.3874C139.538 53.2192 138.916 53.8431 138.088 53.8431Z" fill="#242B37"/>
<path d="M165.237 53.8431H147C146.171 53.8431 145.549 53.2192 145.549 52.3874C145.549 51.5555 146.171 50.9316 147 50.9316H165.237C166.066 50.9316 166.688 51.5555 166.688 52.3874C166.688 53.2192 166.066 53.8431 165.237 53.8431Z" fill="white"/>
<path d="M180.365 53.8431H174.148C173.319 53.8431 172.697 53.2192 172.697 52.3874C172.697 51.5555 173.319 50.9316 174.148 50.9316H180.365C181.195 50.9316 181.816 51.5555 181.816 52.3874C181.816 53.2192 181.195 53.8431 180.365 53.8431Z" fill="url(#paint0_linear_34_5125)"/>
<path d="M86.4839 60.4992H54.568C53.739 60.4992 53.1172 59.8753 53.1172 59.0435C53.1172 58.2117 53.739 57.5879 54.568 57.5879H86.4839C87.313 57.5879 87.9347 58.2117 87.9347 59.0435C87.7274 59.8753 87.1057 60.4992 86.4839 60.4992Z" fill="#EA4054"/>
<path d="M77.9869 93.5616H54.568C53.739 93.5616 53.1172 92.9376 53.1172 92.106C53.1172 91.2744 53.739 90.6504 54.568 90.6504H77.9869C78.8158 90.6504 79.4375 91.2744 79.4375 92.106C79.4375 92.9376 78.8158 93.5616 77.9869 93.5616Z" fill="#242B37"/>
<path d="M168.251 93.5616H144.832C144.003 93.5616 143.381 92.9376 143.381 92.106C143.381 91.2744 144.003 90.6504 144.832 90.6504H168.251C169.079 90.6504 169.701 91.2744 169.701 92.106C169.701 92.9376 169.079 93.5616 168.251 93.5616Z" fill="#242B37"/>
<path d="M95.3957 67.1535H65.5522C64.7233 67.1535 64.1016 66.5297 64.1016 65.6979C64.1016 64.8661 64.7233 64.2422 65.5522 64.2422H95.3957C96.2247 64.2422 96.8465 64.8661 96.8465 65.6979C96.8465 66.5297 96.2247 67.1535 95.3957 67.1535Z" fill="#242B37"/>
<path d="M112.181 67.1535H99.9536C99.1246 67.1535 98.5029 66.5297 98.5029 65.6979C98.5029 64.8661 99.1246 64.2422 99.9536 64.2422H112.181C113.01 64.2422 113.632 64.8661 113.632 65.6979C113.632 66.5297 113.01 67.1535 112.181 67.1535Z" fill="url(#paint1_linear_34_5125)"/>
<path d="M162.542 73.5988H154.874C154.045 73.5988 153.423 72.975 153.423 72.1431C153.423 71.3113 154.045 70.6875 154.874 70.6875H162.542C163.37 70.6875 163.993 71.3113 163.993 72.1431C163.785 72.975 163.37 73.5988 162.542 73.5988Z" fill="url(#paint2_linear_34_5125)"/>
<path d="M188.059 79.7609H180.39C179.561 79.7609 178.939 79.1371 178.939 78.3052C178.939 77.4734 179.561 76.8496 180.39 76.8496H188.059C188.887 76.8496 189.51 77.4734 189.51 78.3052C189.302 79.1371 188.887 79.7609 188.059 79.7609Z" fill="url(#paint3_linear_34_5125)"/>
<path d="M180.03 93.5266H172.362C171.533 93.5266 170.911 92.9027 170.911 92.0708C170.911 91.239 171.533 90.6152 172.362 90.6152H180.03C180.858 90.6152 181.481 91.239 181.481 92.0708C181.274 92.9027 180.858 93.5266 180.03 93.5266Z" fill="url(#paint4_linear_34_5125)"/>
<path d="M150.206 73.5988H142.538C141.709 73.5988 141.087 72.975 141.087 72.1431C141.087 71.3113 141.709 70.6875 142.538 70.6875H150.206C151.034 70.6875 151.657 71.3113 151.657 72.1431C151.449 72.975 151.034 73.5988 150.206 73.5988Z" fill="#242B37"/>
<path d="M73.3544 73.5988H65.6864C64.8571 73.5988 64.2354 72.975 64.2354 72.1431C64.2354 71.3113 64.8571 70.6875 65.6864 70.6875H73.3544C74.1826 70.6875 74.8054 71.3113 74.8054 72.1431C74.5978 72.975 74.1826 73.5988 73.3544 73.5988Z" fill="#242B37"/>
<path d="M73.3544 79.7609H65.6864C64.8571 79.7609 64.2354 79.1371 64.2354 78.3052C64.2354 77.4734 64.8571 76.8496 65.6864 76.8496H73.3544C74.1826 76.8496 74.8054 77.4734 74.8054 78.3052C74.5978 79.1371 74.1826 79.7609 73.3544 79.7609Z" fill="#242B37"/>
<path d="M73.3544 100.407H65.6864C64.8571 100.407 64.2354 99.7835 64.2354 98.9517C64.2354 98.1199 64.8571 97.4961 65.6864 97.4961H73.3544C74.1826 97.4961 74.8054 98.1199 74.8054 98.9517C74.5978 99.7835 74.1826 100.407 73.3544 100.407Z" fill="#242B37"/>
<path d="M73.3544 107.288H65.6864C64.8571 107.288 64.2354 106.664 64.2354 105.833C64.2354 105.001 64.8571 104.377 65.6864 104.377H73.3544C74.1826 104.377 74.8054 105.001 74.8054 105.833C74.5978 106.664 74.1826 107.288 73.3544 107.288Z" fill="#242B37"/>
<path d="M152.5 79.7609H144.832C144.003 79.7609 143.381 79.1371 143.381 78.3052C143.381 77.4734 144.003 76.8496 144.832 76.8496H152.5C153.328 76.8496 153.951 77.4734 153.951 78.3052C153.743 79.1371 153.328 79.7609 152.5 79.7609Z" fill="#242B37"/>
<path d="M61.8827 87.7883H54.2147C53.3854 87.7883 52.7637 87.1644 52.7637 86.3326C52.7637 85.5007 53.3854 84.877 54.2147 84.877H61.8827C62.7109 84.877 63.3337 85.5007 63.3337 86.3326C63.1261 87.1644 62.7109 87.7883 61.8827 87.7883Z" fill="#EA4054"/>
<path d="M77.9413 73.5988H70.2733C69.444 73.5988 68.8223 72.975 68.8223 72.1431C68.8223 71.3113 69.444 70.6875 70.2733 70.6875H77.9413C78.7695 70.6875 79.3923 71.3113 79.3923 72.1431C79.1847 72.975 78.7695 73.5988 77.9413 73.5988Z" fill="#242B37"/>
<path d="M77.9413 79.7609H70.2733C69.444 79.7609 68.8223 79.1371 68.8223 78.3052C68.8223 77.4734 69.444 76.8496 70.2733 76.8496H77.9413C78.7695 76.8496 79.3923 77.4734 79.3923 78.3052C79.1847 79.1371 78.7695 79.7609 77.9413 79.7609Z" fill="#242B37"/>
<path d="M80.2362 100.407H72.5682C71.7389 100.407 71.1172 99.7835 71.1172 98.9517C71.1172 98.1199 71.7389 97.4961 72.5682 97.4961H80.2362C81.0644 97.4961 81.6873 98.1199 81.6873 98.9517C81.4796 99.7835 81.0644 100.407 80.2362 100.407Z" fill="#242B37"/>
<path d="M81.3827 107.288H73.7147C72.8854 107.288 72.2637 106.664 72.2637 105.833C72.2637 105.001 72.8854 104.377 73.7147 104.377H81.3827C82.2109 104.377 82.8337 105.001 82.8337 105.833C82.6261 106.664 82.2109 107.288 81.3827 107.288Z" fill="#242B37"/>
<path d="M85.9716 107.288H78.3036C77.4742 107.288 76.8525 106.664 76.8525 105.833C76.8525 105.001 77.4742 104.377 78.3036 104.377H85.9716C86.7998 104.377 87.4226 105.001 87.4226 105.833C87.215 106.664 86.7998 107.288 85.9716 107.288Z" fill="#242B37"/>
<path d="M160.53 79.7609H152.862C152.033 79.7609 151.411 79.1371 151.411 78.3052C151.411 77.4734 152.033 76.8496 152.862 76.8496H160.53C161.358 76.8496 161.981 77.4734 161.981 78.3052C161.774 79.1371 161.358 79.7609 160.53 79.7609Z" fill="#242B37"/>
<path d="M69.913 87.7883H62.245C61.4156 87.7883 60.7939 87.1644 60.7939 86.3326C60.7939 85.5007 61.4156 84.877 62.245 84.877H69.913C70.7412 84.877 71.364 85.5007 71.364 86.3326C71.1564 87.1644 70.7412 87.7883 69.913 87.7883Z" fill="#EA4054"/>
<path d="M168.559 79.7609H160.89C160.061 79.7609 159.439 79.1371 159.439 78.3052C159.439 77.4734 160.061 76.8496 160.89 76.8496H168.559C169.387 76.8496 170.01 77.4734 170.01 78.3052C169.802 79.1371 169.387 79.7609 168.559 79.7609Z" fill="#242B37"/>
<path d="M175.441 79.7609H167.773C166.944 79.7609 166.322 79.1371 166.322 78.3052C166.322 77.4734 166.944 76.8496 167.773 76.8496H175.441C176.269 76.8496 176.892 77.4734 176.892 78.3052C176.685 79.1371 176.269 79.7609 175.441 79.7609Z" fill="#242B37"/>
<path d="M77.9413 87.7883H70.2733C69.444 87.7883 68.8223 87.1644 68.8223 86.3326C68.8223 85.5007 69.444 84.877 70.2733 84.877H77.9413C78.7695 84.877 79.3923 85.5007 79.3923 86.3326C79.1847 87.1644 78.7695 87.7883 77.9413 87.7883Z" fill="#EA4054"/>
<path d="M191.973 73.5988H168.346C167.518 73.5988 166.896 72.975 166.896 72.1431C166.896 71.3113 167.518 70.6875 168.346 70.6875H191.973C192.801 70.6875 193.423 71.3113 193.423 72.1431C193.423 72.975 192.801 73.5988 191.973 73.5988Z" fill="#242B37"/>
<path d="M154.53 106.872H137.95C137.121 106.872 136.499 106.248 136.499 105.417C136.499 104.585 137.121 103.961 137.95 103.961H154.53C155.359 103.961 155.981 104.585 155.981 105.417C155.981 106.248 155.359 106.872 154.53 106.872Z" fill="white"/>
<path d="M169.45 106.872H160.954C160.125 106.872 159.503 106.248 159.503 105.417C159.503 104.585 160.125 103.961 160.954 103.961H169.45C170.279 103.961 170.901 104.585 170.901 105.417C170.901 106.248 170.072 106.872 169.45 106.872Z" fill="white"/>
<path d="M165.946 126.788H157.45C156.621 126.788 155.999 126.164 155.999 125.333C155.999 124.501 156.621 123.877 157.45 123.877H165.946C166.776 123.877 167.397 124.501 167.397 125.333C167.397 126.164 166.568 126.788 165.946 126.788Z" fill="white"/>
<path d="M93.3886 126.628H71.4205C70.5915 126.628 69.9697 126.004 69.9697 125.172C69.9697 124.341 70.5915 123.717 71.4205 123.717H93.3886C94.2176 123.717 94.8394 124.341 94.8394 125.172C94.8394 126.004 94.2176 126.628 93.3886 126.628Z" fill="white"/>
<path d="M93.3886 139.407H71.4205C70.5915 139.407 69.9697 138.783 69.9697 137.952C69.9697 137.12 70.5915 136.496 71.4205 136.496H93.3886C94.2176 136.496 94.8394 137.12 94.8394 137.952C94.8394 138.783 94.2176 139.407 93.3886 139.407Z" fill="#242B37"/>
<path d="M153.035 126.788H131.067C130.238 126.788 129.616 126.164 129.616 125.333C129.616 124.501 130.238 123.877 131.067 123.877H153.035C153.864 123.877 154.486 124.501 154.486 125.333C154.486 126.164 153.864 126.788 153.035 126.788Z" fill="#242B37"/>
<path d="M146.999 146.387H75.4996C74.6706 146.387 74.0488 145.763 74.0488 144.931C74.0488 144.099 74.6706 143.475 75.4996 143.475H146.999C147.829 143.475 148.45 144.099 148.45 144.931C148.45 145.763 147.621 146.387 146.999 146.387Z" fill="#EA4054"/>
<path d="M93.3886 113.321H71.4205C70.5915 113.321 69.9697 112.697 69.9697 111.866C69.9697 111.034 70.5915 110.41 71.4205 110.41H93.3886C94.2176 110.41 94.8394 111.034 94.8394 111.866C94.8394 112.697 94.2176 113.321 93.3886 113.321Z" fill="#EA4054"/>
<path d="M162.569 113.321H131.067C130.238 113.321 129.616 112.697 129.616 111.866C129.616 111.034 130.238 110.41 131.067 110.41H162.361C163.19 110.41 163.812 111.034 163.812 111.866C163.812 112.697 163.19 113.321 162.569 113.321Z" fill="#242B37"/>
<path d="M173.735 113.321H168.346C167.518 113.321 166.896 112.697 166.896 111.866C166.896 111.034 167.518 110.41 168.346 110.41H173.735C174.565 110.41 175.186 111.034 175.186 111.866C175.186 112.697 174.565 113.321 173.735 113.321Z" fill="url(#paint5_linear_34_5125)"/>
<path d="M98.3624 119.767H71.4204C70.5914 119.767 69.9697 119.143 69.9697 118.311C69.9697 117.479 70.5914 116.855 71.4204 116.855H98.3624C99.1914 116.855 99.8132 117.479 99.8132 118.311C99.8132 119.143 98.9843 119.767 98.3624 119.767Z" fill="#242B37"/>
<path d="M94.1606 132.525H62.2446C61.4156 132.525 60.7939 131.901 60.7939 131.069C60.7939 130.237 61.4156 129.613 62.2446 129.613H94.1606C94.9896 129.613 95.6113 130.237 95.6113 131.069C95.6113 131.901 94.9896 132.525 94.1606 132.525Z" fill="#242B37"/>
<path d="M147.207 139.73H127.104C126.275 139.73 125.653 139.106 125.653 138.274C125.653 137.442 126.275 136.818 127.104 136.818H147.207C148.036 136.818 148.658 137.442 148.658 138.274C148.658 139.106 147.829 139.73 147.207 139.73Z" fill="white"/>
<path d="M160.263 139.73H151.973C151.144 139.73 150.522 139.106 150.522 138.274C150.522 137.442 151.144 136.818 151.973 136.818H160.263C161.093 136.818 161.714 137.442 161.714 138.274C161.714 139.106 161.093 139.73 160.263 139.73Z" fill="url(#paint6_linear_34_5125)"/>
<path d="M198.44 30.4185V35.5573H26.3828V30.4185C26.3828 28.2162 28.4583 26.3809 30.9489 26.3809H193.667C196.366 26.3809 198.44 28.2162 198.44 30.4185Z" fill="url(#paint7_linear_34_5125)"/>
<path d="M31.564 33.257C32.3652 33.257 33.0147 32.6053 33.0147 31.8014C33.0147 30.9975 32.3652 30.3457 31.564 30.3457C30.7627 30.3457 30.1133 30.9975 30.1133 31.8014C30.1133 32.6053 30.7627 33.257 31.564 33.257Z" fill="white"/>
<path d="M35.7085 33.257C36.5097 33.257 37.1593 32.6053 37.1593 31.8014C37.1593 30.9975 36.5097 30.3457 35.7085 30.3457C34.9073 30.3457 34.2578 30.9975 34.2578 31.8014C34.2578 32.6053 34.9073 33.257 35.7085 33.257Z" fill="white"/>
<path d="M39.853 33.257C40.6542 33.257 41.3038 32.6053 41.3038 31.8014C41.3038 30.9975 40.6542 30.3457 39.853 30.3457C39.0518 30.3457 38.4023 30.9975 38.4023 31.8014C38.4023 32.6053 39.0518 33.257 39.853 33.257Z" fill="white"/>
<path d="M112.394 47.0803C111.957 44.4066 111.907 41.6839 112.247 38.9961C112.687 41.6695 112.736 44.3926 112.394 47.0803Z" fill="#263238"/>
<path d="M93.9365 52.2283C92.2232 50.1315 90.8216 47.7982 89.7754 45.3007C91.4904 47.3974 92.8938 49.7307 93.9422 52.2283H93.9365Z" fill="#263238"/>
<path d="M80.5282 65.9193C77.9924 64.9634 75.6091 63.6438 73.4531 62.002C75.9879 62.9601 78.3709 64.2795 80.5282 65.9193Z" fill="#263238"/>
<path d="M75.7609 84.4762C73.0875 84.9162 70.3644 84.9659 67.6768 84.6235C70.3504 84.1863 73.0731 84.1367 75.7609 84.4762Z" fill="#263238"/>
<path d="M80.914 102.934C78.8173 104.649 76.484 106.052 73.9863 107.1C76.0814 105.383 78.415 103.979 80.914 102.934Z" fill="#263238"/>
<path d="M145.02 102.252C147.554 103.208 149.937 104.526 152.095 106.164C149.56 105.209 147.176 103.891 145.02 102.252Z" fill="#263238"/>
<path d="M149.794 83.7129C152.465 83.2709 155.186 83.2193 157.872 83.5598C155.201 83.9989 152.48 84.0505 149.794 83.7129Z" fill="#263238"/>
<path d="M144.641 65.2584C146.736 63.5405 149.07 62.135 151.568 61.0859C149.473 62.8039 147.139 64.2093 144.641 65.2584Z" fill="#263238"/>
<path d="M130.956 51.8485C131.912 49.314 133.23 46.931 134.868 44.7734C133.908 47.3063 132.591 49.6889 130.956 51.8485Z" fill="#263238"/>
<g opacity="0.5">
<path d="M144.199 85.9794C142.64 105.493 126.386 111.371 126.386 111.371C125.196 114.336 123.637 121.882 123.637 121.882H101.93C101.93 121.882 100.371 114.336 99.1745 111.371C99.1745 111.371 82.9211 105.493 81.3678 85.9794C80.285 72.4246 89.9338 52.3672 112.661 52.3672H112.894C135.616 52.3672 145.27 72.4246 144.199 85.9794Z" fill="#EA4054"/>
</g>
<g opacity="0.7">
<path d="M141.505 86.08C140.082 103.921 125.218 109.323 125.218 109.323C124.124 112.033 122.695 121.903 122.695 121.903H102.853C102.853 121.903 101.43 112.033 100.336 109.323C100.336 109.323 85.4715 103.943 84.0485 86.08C83.0564 73.6816 91.8833 55.3533 112.666 55.3477H112.882C133.665 55.3533 142.497 73.6816 141.505 86.08Z" fill="#EA4054"/>
</g>
<path d="M101.968 89.3811L100.296 89.6934L106.677 123.854L108.348 123.542L101.968 89.3811Z" fill="#263238"/>
<path d="M123.596 89.3993L117.228 123.562L118.899 123.874L125.268 89.711L123.596 89.3993Z" fill="#263238"/>
<path d="M112.78 100.923C110.841 100.923 109.061 99.143 107.802 96.847C107.582 97.1317 107.304 97.3666 106.986 97.5366C106.669 97.7066 106.319 97.8077 105.96 97.8334C102.734 97.8334 101.425 91.1949 101.391 90.9171L101.958 90.8094C101.958 90.8718 103.216 97.2665 105.971 97.2665C106.285 97.2256 106.585 97.1179 106.853 96.9507C107.121 96.7834 107.35 96.5605 107.525 96.2971C106.561 94.4144 106.02 92.3444 105.937 90.2311C105.937 88.366 106.64 87.2945 107.865 87.2945C109.288 87.2945 110.104 88.4284 110.104 90.4126C110.046 92.5406 109.385 94.6086 108.199 96.3765C109.367 98.5988 111.034 100.345 112.791 100.345C114.118 100.345 115.456 99.2961 116.556 97.3969C116.646 97.2382 116.737 97.0738 116.822 96.9037C115.51 95.2812 114.813 93.2472 114.855 91.1609C114.855 88.7685 115.756 87.2832 117.208 87.2832C117.49 87.2835 117.766 87.362 118.007 87.5102C118.247 87.6583 118.441 87.8702 118.568 88.1222C119.521 89.7719 118.999 93.712 117.502 96.8187C118.077 97.3768 118.844 97.6916 119.645 97.6974C121.607 97.6974 123.341 93.0033 123.846 91.1949L124.413 91.348C124.334 91.6314 122.463 98.2643 119.668 98.2643C118.779 98.2538 117.924 97.9192 117.264 97.3232C117.202 97.4423 117.134 97.5613 117.066 97.6804C116.181 99.1657 114.753 100.923 112.78 100.923ZM117.196 87.8841C115.875 87.8841 115.41 89.6699 115.41 91.1949C115.398 93.0637 115.979 94.8882 117.071 96.4048C118.409 93.5192 118.903 89.891 118.064 88.4397C117.99 88.2703 117.869 88.1257 117.715 88.0232C117.561 87.9207 117.381 87.8645 117.196 87.8614V87.8841ZM107.853 87.8841C106.669 87.8841 106.493 89.3694 106.493 90.2538C106.573 92.1787 107.049 94.0663 107.893 95.7982C108.899 94.1852 109.463 92.3354 109.526 90.4352C109.526 89.2504 109.237 87.8614 107.853 87.8614V87.8841Z" fill="#263238"/>
<path d="M126.365 121.902H99.1875V136.863H126.365V121.902Z" fill="#C7C7C7"/>
<path d="M123.285 136.863C121.686 139.698 118.619 142.232 112.774 142.232C106.93 142.232 103.868 139.698 102.27 136.863H123.285Z" fill="#C7C7C7"/>
<path d="M123.286 136.862C122.811 137.699 122.217 138.463 121.523 139.13L102.815 137.696C102.607 137.421 102.418 137.133 102.248 136.834L123.286 136.862Z" fill="#A6A6A6"/>
<path d="M127.162 124.753L98.3916 127.418V126.114L127.162 123.449V124.753Z" fill="#A6A6A6"/>
<path d="M127.162 128.706L98.3916 131.365V130.061L127.162 127.402V128.706Z" fill="#A6A6A6"/>
<path d="M127.162 132.657L98.3916 135.316V134.012L127.162 131.347V132.657Z" fill="#A6A6A6"/>
<g opacity="0.5">
<path d="M88.21 81.4156C89.2077 81.5857 90.4776 76.4438 96.0277 70.4912C98.4824 67.8438 107.802 64.5386 107.133 61.483C106.465 58.4273 98.1479 61.5737 93.9641 66.4151C87.2349 74.2158 87.2972 81.2739 88.21 81.4156Z" fill="white"/>
<path d="M137.242 82.4869C139.079 82.4869 139.079 79.6523 137.242 79.6523C135.405 79.6523 135.405 82.4869 137.242 82.4869Z" fill="white"/>
<path d="M128.273 103.909C129.277 104.675 134.141 100.185 136.335 94.8389C138.154 90.3943 138.466 84.7705 137.242 84.4474C136.017 84.1242 135.224 91.8172 133.755 94.6518C131.896 98.246 127.19 103.093 128.273 103.909Z" fill="white"/>
</g>
<path d="M161.352 1.65149L166.122 6.7164C166.676 7.31885 166.868 8.26038 166.602 9.07015L164.724 15.089C164.458 15.8988 163.733 16.5768 162.918 16.6673L156.83 18.1068C156.01 18.3142 155.094 18.0506 154.54 17.448L149.771 12.3833C149.438 12.0217 148.744 11.9992 148.382 12.3383C148.261 12.4513 148.135 12.6809 148.125 12.9145C147.47 17.453 148.902 21.9422 151.894 25.1957C155.777 29.2966 161.62 30.8888 167.019 29.3099L198.491 63.4163C201.266 66.3122 205.776 66.5752 208.793 63.75C211.69 61.0379 211.883 56.4845 209.218 53.7091L177.414 19.2413C179.02 14.149 177.748 8.61281 174.087 4.75294C170.984 1.37882 166.534 -0.285272 162.116 0.0393823C161.537 0.0206064 161.165 0.593093 161.146 1.06022C161.136 1.29362 161.246 1.41421 161.352 1.65149ZM204.794 59.6454C203.708 60.6625 201.972 60.6062 200.975 59.5217C199.977 58.4371 200.047 56.8025 201.133 55.7855C202.219 54.7684 203.955 54.8247 204.952 55.9092C205.95 56.9938 205.881 58.6283 204.794 59.6454C204.91 59.6491 204.91 59.6491 204.794 59.6454Z" fill="#242B37"/>
<path opacity="0.4" d="M173.488 29.4944L196.365 54.6777" stroke="#464D5F" stroke-miterlimit="10"/>
<path opacity="0.4" d="M177.718 25.4623L200.588 50.7617" stroke="#464D5F" stroke-miterlimit="10"/>
<defs>
<linearGradient id="paint0_linear_34_5125" x1="172.9" y1="52.5207" x2="181.745" y2="52.5207" gradientUnits="userSpaceOnUse">
<stop stop-color="#83A6FF"/>
<stop offset="1" stop-color="#5A78FF"/>
</linearGradient>
<linearGradient id="paint1_linear_34_5125" x1="98.6463" y1="65.6824" x2="113.564" y2="65.6824" gradientUnits="userSpaceOnUse">
<stop stop-color="#83A6FF"/>
<stop offset="1" stop-color="#5A78FF"/>
</linearGradient>
<linearGradient id="paint2_linear_34_5125" x1="153.409" y1="72.3108" x2="163.878" y2="72.3108" gradientUnits="userSpaceOnUse">
<stop stop-color="#83A6FF"/>
<stop offset="1" stop-color="#5A78FF"/>
</linearGradient>
<linearGradient id="paint3_linear_34_5125" x1="178.926" y1="78.4729" x2="189.395" y2="78.4729" gradientUnits="userSpaceOnUse">
<stop stop-color="#83A6FF"/>
<stop offset="1" stop-color="#5A78FF"/>
</linearGradient>
<linearGradient id="paint4_linear_34_5125" x1="170.897" y1="92.2385" x2="181.366" y2="92.2385" gradientUnits="userSpaceOnUse">
<stop stop-color="#83A6FF"/>
<stop offset="1" stop-color="#5A78FF"/>
</linearGradient>
<linearGradient id="paint5_linear_34_5125" x1="167.03" y1="111.905" x2="175.088" y2="111.905" gradientUnits="userSpaceOnUse">
<stop stop-color="#83A6FF"/>
<stop offset="1" stop-color="#5A78FF"/>
</linearGradient>
<linearGradient id="paint6_linear_34_5125" x1="150.68" y1="138.295" x2="161.621" y2="138.295" gradientUnits="userSpaceOnUse">
<stop stop-color="#83A6FF"/>
<stop offset="1" stop-color="#5A78FF"/>
</linearGradient>
<linearGradient id="paint7_linear_34_5125" x1="26.3675" y1="31.0181" x2="198.393" y2="31.0181" gradientUnits="userSpaceOnUse">
<stop stop-color="#6F88FF"/>
<stop offset="1" stop-color="#6E88FF" stop-opacity="0"/>
</linearGradient>
</defs>
</svg>
