<svg width="808" height="229" viewBox="0 0 808 229" fill="none" xmlns="http://www.w3.org/2000/svg">
<path d="M224.813 23H99.6099C93.7502 23 89 27.7502 89 33.6099V194.642C89 200.502 93.7502 205.252 99.6099 205.252H224.813C230.673 205.252 235.423 200.502 235.423 194.642V33.6099C235.423 27.7502 230.673 23 224.813 23Z" fill="#474E61"/>
<path d="M204.795 99.3725L108.59 99.37C107.596 99.4508 106.934 98.7037 106.853 97.7093C106.772 96.7149 107.519 96.0537 108.514 95.9729L204.513 95.893C205.506 95.8122 206.169 96.5594 206.25 97.5538C206.33 98.5476 205.584 99.2091 204.795 99.3725Z" fill="#2C313D"/>
<path d="M204.652 108.69L108.652 108.771C107.658 108.852 106.996 108.105 106.915 107.11C106.835 106.116 107.582 105.454 108.576 105.374L204.575 105.294C205.569 105.213 206.231 105.96 206.312 106.954C206.393 107.948 205.646 108.609 204.652 108.69Z" fill="#2C313D"/>
<path d="M204.802 117.887L108.72 118.175C107.725 118.256 107.064 117.509 106.983 116.514C106.902 115.52 107.649 114.858 108.644 114.778L204.643 114.698C205.637 114.617 206.299 115.364 206.379 116.358C206.543 117.145 205.713 118.013 204.802 117.887Z" fill="#2C313D"/>
<path d="M144.914 127.444L108.784 127.573C107.79 127.654 107.128 126.907 107.048 125.913C106.967 124.918 107.714 124.257 108.708 124.176L144.837 124.048C145.832 123.968 146.493 124.715 146.574 125.709C146.448 126.62 145.908 127.365 144.914 127.444Z" fill="#2C313D"/>
<path opacity="0.3" d="M207.324 142.702L207.267 150.612C207.181 152.02 206.184 153.302 204.776 153.216L109.688 153.423C108.28 153.336 106.997 152.34 107.083 150.932L107.223 142.814C107.308 141.406 108.305 140.124 109.713 140.21L204.718 140.21C206.126 140.296 207.119 141.416 207.324 142.702Z" fill="url(#paint0_linear_34_4848)"/>
<path opacity="0.3" d="M207.413 161.007L207.357 168.918C207.272 170.326 206.275 171.608 204.867 171.522L109.778 171.729C108.37 171.643 107.087 170.646 107.173 169.238L107.106 161.037C107.191 159.628 108.188 158.347 109.596 158.433L204.6 158.433C206.009 158.519 207.208 159.723 207.413 161.007Z" fill="url(#paint1_linear_34_4848)"/>
<path opacity="0.3" d="M207.296 179.234L207.24 187.144C207.155 188.553 206.158 189.834 204.749 189.748L109.662 189.956C108.254 189.869 106.971 188.873 107.056 187.465L107.113 179.553C107.198 178.146 108.195 176.863 109.604 176.949L204.608 176.949C206.099 176.829 207.299 178.032 207.296 179.234Z" fill="url(#paint2_linear_34_4848)"/>
<path d="M119.532 140.313L119.507 153.526L109.688 153.421C108.279 153.335 106.997 152.338 107.082 150.931L107.222 142.813C107.307 141.405 108.304 140.124 109.712 140.209L119.532 140.313Z" fill="url(#paint3_linear_34_4848)"/>
<path d="M109.804 158.519L138.724 158.375L138.699 171.588L109.779 171.733C108.37 171.647 107.088 170.65 107.173 169.241L107.106 161.04C107.108 159.839 108.312 158.641 109.804 158.519Z" fill="url(#paint4_linear_34_4848)"/>
<path d="M109.686 176.741L113.787 176.709L113.762 189.922L109.661 189.954C108.252 189.868 106.97 188.871 107.055 187.463L107.111 179.552C107.197 178.144 108.194 176.862 109.686 176.741Z" fill="url(#paint5_linear_34_4848)"/>
<path d="M153.804 70.6824C158.176 59.2189 152.607 46.1598 141.015 41.4955L140.808 41.4122C129.216 36.748 116.071 42.518 111.409 54.1051C106.953 65.7755 112.729 78.9179 124.322 83.5821C130.739 86.1641 137.494 85.5162 143.175 82.7535C147.986 80.3617 151.763 76.3523 153.928 70.9726C153.721 70.8893 153.721 70.8893 153.804 70.6824ZM126.986 76.9609C119.12 73.796 115.283 64.7996 118.447 56.9369C121.61 49.0742 130.608 45.242 138.475 48.407L138.682 48.4903C146.548 51.6552 150.26 60.3614 147.387 68.1004C147.304 68.3073 147.304 68.3073 147.221 68.5142C145.805 72.0318 143.231 74.8426 139.955 76.4094C135.808 78.347 131.333 78.71 126.986 76.9609Z" fill="#2C313D"/>
<path d="M153.805 70.681L146.974 67.9324C150.054 60.2767 146.135 51.4873 138.475 48.4056L138.268 48.3223L141.016 41.4941L141.223 41.5774C152.608 46.1584 158.177 59.2175 153.805 70.681Z" fill="#EA4054"/>
<path d="M218.258 145.419L209.539 155.134L196.344 143.093C195.269 142.18 195.231 140.482 196.145 139.407L201.459 133.371C202.373 132.296 204.071 132.258 205.147 133.172L218.258 145.419Z" fill="#2C313D"/>
<path d="M310.662 23H256.033C250.174 23 245.423 27.7502 245.423 33.6099V194.642C245.423 200.502 250.174 205.252 256.033 205.252H310.662C316.522 205.252 321.272 200.502 321.272 194.642V33.6099C321.272 27.7502 316.522 23 310.662 23Z" fill="#474E61"/>
<path d="M283.348 45.5333C287.499 45.5333 290.866 42.1518 290.866 37.9805C290.866 33.8092 287.499 30.4277 283.348 30.4277C279.196 30.4277 275.831 33.8092 275.831 37.9805C275.831 42.1518 279.196 45.5333 283.348 45.5333Z" fill="#333849"/>
<path d="M307.045 60.8907H259.327C258.673 60.8907 258.019 60.2339 258.019 59.5772C258.019 58.9204 258.673 58.2637 259.327 58.2637H307.045C307.699 58.2637 308.352 58.9204 308.352 59.5772C308.352 60.2339 307.699 60.8907 307.045 60.8907Z" fill="#333849"/>
<path d="M307.045 70.9454H259.327C258.673 70.9454 258.019 70.2886 258.019 69.6319C258.019 68.9751 258.673 68.3184 259.327 68.3184H307.045C307.699 68.3184 308.352 68.9751 308.352 69.6319C308.352 70.2886 307.699 70.9454 307.045 70.9454Z" fill="#333849"/>
<path d="M307.045 86.6331H259.327C258.673 86.6331 258.019 85.9764 258.019 85.3196C258.019 84.3345 258.346 83.6777 259.327 83.6777H307.045C307.699 83.6777 308.352 84.3345 308.352 84.9912C308.352 85.9764 307.699 86.6331 307.045 86.6331Z" fill="#333849"/>
<path d="M276.976 97.014H258.999C258.673 97.014 258.019 96.6856 258.019 96.0289V95.0437C258.019 94.7154 258.346 94.0586 258.999 94.0586H276.649C276.976 94.0586 277.629 94.387 277.629 95.0437V96.0289C277.629 96.6856 277.303 97.014 276.976 97.014Z" fill="#333849"/>
<path d="M307.045 112.373H259.327C258.673 112.373 258.019 111.716 258.019 111.06C258.019 110.403 258.673 109.746 259.327 109.746H307.045C307.699 109.746 308.352 110.403 308.352 111.06C308.352 111.716 307.699 112.373 307.045 112.373Z" fill="#333849"/>
<path d="M276.976 122.757H258.999C258.673 122.757 258.019 122.428 258.019 121.771V120.786C258.019 120.458 258.346 119.801 258.999 119.801H276.649C276.976 119.801 277.629 120.13 277.629 120.786V121.771C277.629 122.428 277.303 122.757 276.976 122.757Z" fill="#333849"/>
<path d="M307.045 138.115H259.327C258.673 138.115 258.019 137.459 258.019 136.802C258.019 136.145 258.673 135.488 259.327 135.488H307.045C307.699 135.488 308.352 136.145 308.352 136.802C308.352 137.786 307.699 138.115 307.045 138.115Z" fill="#333849"/>
<path d="M282.918 147.982H258.84C258.293 147.982 258.019 147.372 258.019 146.762C258.019 145.949 258.43 145.543 258.84 145.543H282.782C283.329 145.543 283.602 146.153 283.602 146.762C283.739 147.372 283.329 147.982 282.918 147.982Z" fill="#EA4054"/>
<path d="M467.086 23.1259H341.882C336.023 23.1259 331.272 27.8761 331.272 33.7358V194.768C331.272 200.628 336.023 205.378 341.882 205.378H467.086C472.945 205.378 477.696 200.628 477.696 194.768V33.7358C477.696 27.8761 472.945 23.1259 467.086 23.1259Z" fill="#474E61"/>
<path opacity="0.4" d="M404.342 77.4058L394.514 77.2456L394.391 55.0044L404.14 54.9432L404.342 77.4058Z" fill="#5C7AFF"/>
<path d="M417.585 77.3136L407.535 77.2346L407.372 43.2392L417.2 43.3992L417.585 77.3136Z" fill="#5C7AFF"/>
<path d="M364.311 77.2824L354.261 77.2033L354.098 43.2079L363.927 43.368L364.311 77.2824Z" fill="#5C7AFF"/>
<path d="M443.773 76.9964L434.026 77.0569L433.702 32.3531L443.671 32.2112L443.773 76.9964Z" fill="#5C7AFF"/>
<path d="M390.5 76.9651L380.752 77.0257L380.428 32.3218L390.398 32.18L390.5 76.9651Z" fill="#5C7AFF"/>
<path opacity="0.4" d="M456.273 76.927L446.525 76.9882L446.322 64.7924L456.372 64.8714L456.273 76.927Z" fill="#5C7AFF"/>
<path opacity="0.4" d="M430.98 76.927L421.232 76.9882L421.029 64.7924L431.079 64.8714L430.98 76.927Z" fill="#5C7AFF"/>
<path opacity="0.4" d="M376.707 76.9211L366.958 76.9823L366.756 64.7865L376.806 64.8656L376.707 76.9211Z" fill="#5C7AFF"/>
<path d="M454.987 95.3449L353.608 94.8766C352.642 94.9795 351.797 94.0365 351.695 93.0726C351.592 92.1085 352.535 91.2626 353.5 91.1597L454.88 91.628C455.846 91.5253 456.69 92.4681 456.793 93.4322C456.674 94.4773 455.953 95.2422 454.987 95.3449Z" fill="#2C313D"/>
<path d="M454.824 105.169L353.442 104.701C352.478 104.803 351.632 103.861 351.529 102.897C351.428 101.932 352.371 101.086 353.335 100.984L454.715 101.453C455.68 101.349 456.526 102.291 456.628 103.256C456.731 104.22 455.868 105.287 454.824 105.169Z" fill="#2C313D"/>
<path d="M454.882 114.909L353.501 114.441C352.537 114.543 351.691 113.601 351.588 112.637C351.487 111.672 352.43 110.827 353.394 110.724L454.774 111.192C455.739 111.09 456.585 112.032 456.687 112.997C456.65 114.262 455.927 115.027 454.882 114.909Z" fill="#2C313D"/>
<path d="M391.749 124.486L353.642 124.406C352.678 124.508 351.831 123.566 351.729 122.602C351.627 121.637 352.571 120.791 353.534 120.689L391.642 120.769C392.607 120.666 393.452 121.609 393.555 122.573C393.436 123.619 392.715 124.384 391.749 124.486Z" fill="#2C313D"/>
<path opacity="0.3" d="M457.421 141.023L457.518 149.501C457.56 150.989 456.255 152.217 454.769 152.26L433.182 152.145L354.353 151.69C352.866 151.733 351.638 150.43 351.595 148.943L351.498 140.464C351.456 138.977 352.759 137.749 354.248 137.706L432.554 138.102L454.361 138.137C456.231 138.453 457.378 139.536 457.421 141.023Z" fill="#EA4054"/>
<path opacity="0.3" d="M457.239 160.375L457.335 168.853C457.378 170.34 456.073 171.568 454.587 171.613L447.291 171.526L354.473 171.182C352.986 171.225 351.756 169.921 351.714 168.435L351.619 159.956C351.575 158.47 352.88 157.242 354.366 157.197L447.486 157.684L454.562 157.849C456.049 157.806 457.197 158.889 457.239 160.375Z" fill="#EA4054"/>
<path opacity="0.3" d="M457.271 179.645L457.367 188.124C457.41 189.609 456.106 190.838 454.618 190.882L417.476 190.699L354.505 190.451C353.018 190.494 351.79 189.191 351.746 187.704L351.65 179.225C351.606 177.739 352.911 176.511 354.398 176.467L418.856 176.672L454.513 176.898C456 176.855 457.228 178.158 457.271 179.645Z" fill="#EA4054"/>
<path d="M354.398 176.465L418.856 176.671L417.395 190.476L354.424 190.228C352.937 190.271 351.709 188.968 351.665 187.482L351.569 179.003C351.606 177.738 352.911 176.509 354.398 176.465Z" fill="#EA4054"/>
<path d="M351.678 149.169L351.581 140.691C351.539 139.203 352.842 137.975 354.331 137.932L432.637 138.329L432.661 152.091L354.355 151.695C352.868 151.738 351.72 150.655 351.678 149.169Z" fill="#EA4054"/>
<path d="M447.486 157.684L447.291 171.526L354.473 171.182C352.986 171.225 351.756 169.921 351.714 168.435L351.619 159.956C351.575 158.47 352.88 157.242 354.366 157.197L447.486 157.684Z" fill="#EA4054"/>
<path d="M354.366 157.196L373.2 157.316L373.226 171.08L354.392 170.959C352.905 171.002 351.676 169.7 351.633 168.213L351.538 159.733C351.797 158.387 352.879 157.239 354.366 157.196Z" fill="#2C313D"/>
<path d="M354.398 176.465L373.232 176.587L373.257 190.349L354.424 190.228C352.937 190.271 351.709 188.968 351.665 187.482L351.569 179.003C351.606 177.738 352.911 176.509 354.398 176.465Z" fill="#2C313D"/>
<path d="M552.512 23H497.882C492.023 23 487.272 27.7502 487.272 33.6099V194.642C487.272 200.502 492.023 205.252 497.882 205.252H552.512C558.371 205.252 563.122 200.502 563.122 194.642V33.6099C563.122 27.7502 558.371 23 552.512 23Z" fill="#474E61"/>
<path d="M525.197 45.5333C529.348 45.5333 532.715 42.1518 532.715 37.9805C532.715 33.8092 529.348 30.4277 525.197 30.4277C521.045 30.4277 517.68 33.8092 517.68 37.9805C517.68 42.1518 521.045 45.5333 525.197 45.5333Z" fill="#333849"/>
<path d="M548.894 60.8907H501.176C500.522 60.8907 499.868 60.2339 499.868 59.5772C499.868 58.9204 500.522 58.2637 501.176 58.2637H548.894C549.548 58.2637 550.202 58.9204 550.202 59.5772C550.202 60.2339 549.548 60.8907 548.894 60.8907Z" fill="#333849"/>
<path d="M548.894 70.9454H501.176C500.522 70.9454 499.868 70.2886 499.868 69.6319C499.868 68.9751 500.522 68.3184 501.176 68.3184H548.894C549.548 68.3184 550.202 68.9751 550.202 69.6319C550.202 70.2886 549.548 70.9454 548.894 70.9454Z" fill="#333849"/>
<path d="M548.894 86.6331H501.176C500.522 86.6331 499.868 85.9764 499.868 85.3196C499.868 84.3345 500.195 83.6777 501.176 83.6777H548.894C549.548 83.6777 550.202 84.3345 550.202 84.9912C550.202 85.9764 549.548 86.6331 548.894 86.6331Z" fill="#333849"/>
<path d="M518.825 97.014H500.848C500.522 97.014 499.868 96.6856 499.868 96.0289V95.0437C499.868 94.7154 500.195 94.0586 500.848 94.0586H518.498C518.825 94.0586 519.478 94.387 519.478 95.0437V96.0289C519.478 96.6856 519.152 97.014 518.825 97.014Z" fill="#333849"/>
<path d="M548.894 112.373H501.176C500.522 112.373 499.868 111.716 499.868 111.06C499.868 110.403 500.522 109.746 501.176 109.746H548.894C549.548 109.746 550.202 110.403 550.202 111.06C550.202 111.716 549.548 112.373 548.894 112.373Z" fill="#333849"/>
<path d="M518.825 122.757H500.848C500.522 122.757 499.868 122.428 499.868 121.771V120.786C499.868 120.458 500.195 119.801 500.848 119.801H518.498C518.825 119.801 519.478 120.13 519.478 120.786V121.771C519.478 122.428 519.152 122.757 518.825 122.757Z" fill="#333849"/>
<path d="M548.894 138.115H501.176C500.522 138.115 499.868 137.459 499.868 136.802C499.868 136.145 500.522 135.488 501.176 135.488H548.894C549.548 135.488 550.202 136.145 550.202 136.802C550.202 137.786 549.548 138.115 548.894 138.115Z" fill="#333849"/>
<path d="M524.767 147.982H500.689C500.142 147.982 499.868 147.372 499.868 146.762C499.868 145.949 500.279 145.543 500.689 145.543H524.631C525.178 145.543 525.451 146.153 525.451 146.762C525.588 147.372 525.178 147.982 524.767 147.982Z" fill="#EA4054"/>
<path d="M708.934 23H583.731C577.871 23 573.121 27.7502 573.121 33.6099V194.642C573.121 200.502 577.871 205.252 583.731 205.252H708.934C714.794 205.252 719.544 200.502 719.544 194.642V33.6099C719.544 27.7502 714.794 23 708.934 23Z" fill="#474E61"/>
<path d="M702.941 41.5519H588.875C587.568 41.5519 586.914 40.5667 586.914 39.5816C586.914 38.2681 587.895 37.6113 588.875 37.6113H702.614C703.923 37.6113 704.576 38.5965 704.576 39.5816C704.903 40.5667 703.923 41.5519 702.941 41.5519Z" fill="#333849"/>
<path d="M702.941 53.9796H588.875C587.568 53.9796 586.914 52.9945 586.914 52.0093C586.914 50.6958 587.895 50.0391 588.875 50.0391H702.614C703.923 50.0391 704.576 51.0242 704.576 52.0093C704.903 52.9945 703.923 53.9796 702.941 53.9796Z" fill="#333849"/>
<path d="M646.399 66.4094H588.875C587.568 66.4094 586.914 65.4242 586.914 64.439C586.914 63.1255 587.895 62.4688 588.875 62.4688H646.072C647.379 62.4688 648.033 63.4539 648.033 64.439C648.359 65.4242 647.379 66.4094 646.399 66.4094Z" fill="#EA4054"/>
<path d="M699.346 159.418H591.489C588.875 159.418 586.914 157.448 586.914 154.821V85.8609C586.914 83.2339 588.875 81.2637 591.489 81.2637H699.02C701.634 81.2637 703.596 83.2339 703.596 85.8609V154.821C703.923 157.448 701.961 159.418 699.346 159.418Z" fill="#333849"/>
<path d="M670.912 178.21H588.875C587.568 178.21 586.914 177.225 586.914 176.24C586.914 174.926 587.895 174.27 588.875 174.27H670.912C672.219 174.27 672.873 175.255 672.873 176.24C672.873 177.225 671.892 178.21 670.912 178.21Z" fill="#333849"/>
<path d="M703.075 178.068H678.998C678.45 178.068 678.177 177.154 678.177 176.239C678.177 175.02 678.587 174.41 678.998 174.41H702.938C703.486 174.41 703.759 175.325 703.759 176.239C703.896 177.154 703.486 178.068 703.075 178.068Z" fill="#EA4054"/>
<path d="M702.941 190.64H588.875C587.568 190.64 586.914 189.655 586.914 188.669C586.914 187.356 587.895 186.699 588.875 186.699H702.614C703.923 186.699 704.576 187.685 704.576 188.669C704.903 189.655 703.923 190.64 702.941 190.64Z" fill="#333849"/>
<defs>
<linearGradient id="paint0_linear_34_4848" x1="112.542" y1="128.863" x2="201.825" y2="164.786" gradientUnits="userSpaceOnUse">
<stop stop-color="#83A6FF"/>
<stop offset="1" stop-color="#5A78FF"/>
</linearGradient>
<linearGradient id="paint1_linear_34_4848" x1="112.565" y1="147.138" x2="201.849" y2="183.061" gradientUnits="userSpaceOnUse">
<stop stop-color="#83A6FF"/>
<stop offset="1" stop-color="#5A78FF"/>
</linearGradient>
<linearGradient id="paint2_linear_34_4848" x1="112.589" y1="165.415" x2="201.873" y2="201.339" gradientUnits="userSpaceOnUse">
<stop stop-color="#83A6FF"/>
<stop offset="1" stop-color="#5A78FF"/>
</linearGradient>
<linearGradient id="paint3_linear_34_4848" x1="106.551" y1="143.749" x2="121.116" y2="149.61" gradientUnits="userSpaceOnUse">
<stop stop-color="#83A6FF"/>
<stop offset="1" stop-color="#5A78FF"/>
</linearGradient>
<linearGradient id="paint4_linear_34_4848" x1="107.931" y1="158.659" x2="138.744" y2="171.056" gradientUnits="userSpaceOnUse">
<stop stop-color="#83A6FF"/>
<stop offset="1" stop-color="#5A78FF"/>
</linearGradient>
<linearGradient id="paint5_linear_34_4848" x1="106.194" y1="181.303" x2="115.732" y2="185.141" gradientUnits="userSpaceOnUse">
<stop stop-color="#83A6FF"/>
<stop offset="1" stop-color="#5A78FF"/>
</linearGradient>
</defs>
</svg>
