<svg width="360" height="196" viewBox="0 0 360 196" fill="none" xmlns="http://www.w3.org/2000/svg">
<path d="M121.253 88.6211C120.193 88.6211 119.557 87.9885 119.557 86.9329C119.557 85.8775 120.193 85.2444 121.253 85.2444C122.313 85.2444 122.949 85.8775 122.949 86.9329C122.949 87.9885 122.101 88.6211 121.253 88.6211Z" fill="#6A83FF"/>
<path d="M121.253 124.502C120.193 124.502 119.557 123.869 119.557 122.814C119.557 121.759 120.193 121.125 121.253 121.125C122.313 121.125 122.949 121.759 122.949 122.814C122.949 123.869 122.101 124.502 121.253 124.502Z" fill="#6A83FF"/>
<path d="M61.0251 33.3242H60.6009C59.7526 33.3242 58.9043 33.9574 58.9043 35.0127C58.9043 36.0681 59.5406 36.7012 60.6009 36.7012H61.0251C61.8733 36.7012 62.7216 36.0681 62.7216 35.0127C62.7216 33.9574 61.8733 33.3242 61.0251 33.3242Z" fill="url(#paint0_linear_34_5260)"/>
<path d="M54.2388 33.3242H53.8147C52.9664 33.3242 52.1182 33.9574 52.1182 35.0127C52.1182 36.0681 52.7543 36.7012 53.8147 36.7012H54.2388C55.0872 36.7012 55.9355 36.0681 55.9355 35.0127C55.9355 33.9574 55.0872 33.3242 54.2388 33.3242Z" fill="url(#paint1_linear_34_5260)"/>
<path d="M67.8112 33.3242H67.3871C66.5388 33.3242 65.6904 33.9574 65.6904 34.8016C65.6904 35.6459 66.3267 36.4902 67.1749 36.4902H67.5991C67.5991 36.4902 67.5991 36.4902 67.8112 36.4902C68.6594 36.4902 69.2957 35.857 69.2957 35.0127C69.2957 34.1685 68.6594 33.5352 67.8112 33.3242Z" fill="url(#paint2_linear_34_5260)"/>
<path d="M82.6558 54.0088C82.6558 53.1646 82.0196 52.3203 80.9593 52.3203C79.8989 52.3203 79.2627 52.9535 79.2627 54.0088V54.4309C79.2627 55.2752 79.8989 56.1194 80.9593 56.1194C82.0196 56.1194 82.6558 55.4863 82.6558 54.4309V54.0088Z" fill="url(#paint3_linear_34_5260)"/>
<path d="M79.8995 40.7104L79.6874 40.2883C79.2632 39.6551 78.2029 39.444 77.5666 39.8661C76.9305 40.2883 76.7184 41.3436 77.1425 41.9768L77.3546 42.3989C77.5666 42.821 78.2029 43.0321 78.627 43.0321C78.8391 43.0321 79.2632 43.0321 79.4754 42.821C80.3236 42.3989 80.5357 41.5547 79.8995 40.7104Z" fill="url(#paint4_linear_34_5260)"/>
<path d="M80.9593 59.0742C80.1109 59.0742 79.2627 59.7075 79.2627 60.7628V61.1849C79.2627 62.0292 79.8989 62.8734 80.9593 62.8734C82.0196 62.8734 82.6558 62.0292 82.6558 61.1849V60.7628C82.6558 59.7075 81.8076 59.0742 80.9593 59.0742Z" fill="url(#paint5_linear_34_5260)"/>
<path d="M47.6647 33.3242H47.2406C46.3923 33.3242 45.5439 33.9574 45.5439 35.0127C45.5439 36.0681 46.1802 36.7012 47.2406 36.7012H47.6647C48.513 36.7012 49.3613 36.0681 49.3613 35.0127C49.3613 33.9574 48.513 33.3242 47.6647 33.3242Z" fill="url(#paint6_linear_34_5260)"/>
<path d="M74.8097 35.6429L74.3856 35.4318C73.5372 35.0096 72.689 35.2207 72.2648 36.065C71.8407 36.9092 72.0527 37.7535 72.9011 38.1756L73.1131 38.3867C73.3252 38.5978 73.7493 38.5978 73.9614 38.5978C74.5976 38.5978 75.0217 38.3867 75.2338 37.7535C75.658 37.1203 75.4459 36.065 74.8097 35.6429Z" fill="url(#paint7_linear_34_5260)"/>
<path d="M84.5644 79.3351C84.1402 78.7019 83.0799 78.4909 82.4437 78.913C81.8074 79.3351 81.5954 80.3905 82.0195 81.0236L82.2316 81.4457C82.4437 81.8679 83.0799 82.079 83.504 82.079C83.7161 82.079 84.1402 82.079 84.3523 81.8679C84.9885 81.4457 85.2006 80.3905 84.7764 79.7572L84.5644 79.3351Z" fill="url(#paint8_linear_34_5260)"/>
<path d="M89.2302 83.5577L89.0181 83.3466C88.1699 82.9244 87.3215 83.1355 86.8974 83.7687C86.4733 84.6129 86.6853 85.4573 87.3215 85.8794L87.7456 86.0904C87.9578 86.3015 88.1699 86.3015 88.594 86.3015C89.2302 86.3015 89.6544 86.0904 90.0785 85.4573C90.2905 85.0351 89.8664 83.9798 89.2302 83.5577Z" fill="url(#paint9_linear_34_5260)"/>
<path d="M94.7447 85.2444H94.3206C93.4723 85.2444 92.624 85.8776 92.624 86.7219C92.624 87.5663 93.2602 88.4104 94.1085 88.4104H94.5326C94.5326 88.4104 94.5326 88.4104 94.7447 88.4104C95.593 88.4104 96.2292 87.7769 96.2292 86.9329C96.4413 86.0886 95.8051 85.4555 94.7447 85.2444Z" fill="url(#paint10_linear_34_5260)"/>
<path d="M80.9593 49.3633C82.0197 49.1522 82.6559 48.519 82.4438 47.6747V47.2526C82.2318 46.4084 81.5956 45.7751 80.5352 45.9862C79.6869 46.1973 79.0507 46.8305 79.2628 47.8858V48.308C79.4748 48.7301 80.1111 49.3633 80.9593 49.3633Z" fill="url(#paint11_linear_34_5260)"/>
<path d="M82.6557 74.0598V73.6376C82.6557 72.7933 81.8074 72.1602 80.9591 72.1602C80.1108 72.1602 79.4746 73.0044 79.4746 73.8487C79.4746 74.0598 79.4746 74.2708 79.4746 74.2708C79.6867 75.115 80.3228 75.5372 80.9591 75.5372H81.1712C82.2315 75.7483 82.8677 74.904 82.6557 74.0598Z" fill="url(#paint12_linear_34_5260)"/>
<path d="M80.9593 69.4163C81.8076 69.4163 82.6558 68.7832 82.6558 67.7278V67.3057C82.6558 66.4614 82.0196 65.6172 80.9593 65.6172C79.8989 65.6172 79.2627 66.2503 79.2627 67.3057V67.7278C79.4748 68.5721 80.1109 69.4163 80.9593 69.4163Z" fill="url(#paint13_linear_34_5260)"/>
<path d="M40.6653 33.3242C39.817 33.3242 38.9688 33.9574 38.9688 35.0127C38.9688 36.0681 39.605 36.7012 40.6653 36.7012H40.8774C41.7257 36.7012 42.3619 36.0681 42.3619 35.0127C42.3619 33.9574 41.5136 33.3242 40.6653 33.3242Z" fill="url(#paint14_linear_34_5260)"/>
<path d="M121.253 85.457H114.679H114.254H107.892H107.468H101.318H100.894C100.046 85.457 99.1973 86.0902 99.1973 87.1455C99.1973 88.2005 99.8335 88.834 100.894 88.834H101.318H107.468H108.104H114.466H114.891H121.465C122.313 88.834 123.162 88.2005 123.162 87.1455C123.162 86.0902 122.101 85.457 121.253 85.457Z" fill="url(#paint15_linear_34_5260)"/>
<path d="M121.253 105.93C120.193 105.93 119.557 105.298 119.557 104.242C119.557 103.186 120.193 102.553 121.253 102.553C122.313 102.553 122.949 103.186 122.949 104.242C122.949 105.298 122.101 105.93 121.253 105.93Z" fill="#EE4192"/>
<path d="M65.6901 102.764H65.2659C64.4177 102.764 63.5693 103.396 63.5693 104.452C63.5693 105.507 64.2056 106.14 65.2659 106.14H65.6901C66.5383 106.14 67.3867 105.507 67.3867 104.452C67.3867 103.396 66.5383 102.764 65.6901 102.764Z" fill="url(#paint16_linear_34_5260)"/>
<path d="M72.689 102.764H72.2649C71.4167 102.764 70.5684 103.396 70.5684 104.452C70.5684 105.507 71.2045 106.14 72.2649 106.14H72.689C73.5374 106.14 74.3857 105.507 74.3857 104.452C74.3857 103.396 73.5374 102.764 72.689 102.764Z" fill="url(#paint17_linear_34_5260)"/>
<path d="M58.6911 102.764H58.2669C57.4186 102.764 56.5703 103.396 56.5703 104.452C56.5703 105.507 57.2066 106.14 58.2669 106.14H58.6911C59.5393 106.14 60.3876 105.507 60.3876 104.452C60.3876 103.396 59.5393 102.764 58.6911 102.764Z" fill="url(#paint18_linear_34_5260)"/>
<path d="M51.694 102.764H51.2699C50.4216 102.764 49.5732 103.396 49.5732 104.452C49.5732 105.507 50.2095 106.14 51.2699 106.14H51.694C52.5422 106.14 53.3906 105.507 53.3906 104.452C53.3906 103.396 52.5422 102.764 51.694 102.764Z" fill="url(#paint19_linear_34_5260)"/>
<path d="M44.6949 102.764H44.2708C43.4225 102.764 42.5742 103.396 42.5742 104.452C42.5742 105.507 43.2104 106.14 44.2708 106.14H44.6949C45.5433 106.14 46.3915 105.507 46.3915 104.452C46.3915 103.396 45.7553 102.764 44.6949 102.764Z" fill="url(#paint20_linear_34_5260)"/>
<path d="M93.6842 102.764H93.2601C92.4118 102.764 91.5635 103.396 91.5635 104.452C91.5635 105.507 92.1997 106.14 93.2601 106.14H93.6842C94.5325 106.14 95.3808 105.507 95.3808 104.452C95.3808 103.396 94.5325 102.764 93.6842 102.764Z" fill="url(#paint21_linear_34_5260)"/>
<path d="M79.6871 102.764H79.263C78.4146 102.764 77.5664 103.396 77.5664 104.452C77.5664 105.507 78.2026 106.14 79.263 106.14H79.6871C80.5354 106.14 81.3837 105.507 81.3837 104.452C81.3837 103.396 80.5354 102.764 79.6871 102.764Z" fill="url(#paint22_linear_34_5260)"/>
<path d="M86.6851 102.764H86.261C85.4127 102.764 84.5645 103.396 84.5645 104.452C84.5645 105.507 85.2006 106.14 86.261 106.14H86.6851C87.5335 106.14 88.3817 105.507 88.3817 104.452C88.3817 103.396 87.5335 102.764 86.6851 102.764Z" fill="url(#paint23_linear_34_5260)"/>
<path d="M37.9086 102.764H37.6966C36.8483 102.764 36 103.396 36 104.452C36 105.507 36.6362 106.14 37.6966 106.14H37.9086C38.7569 106.14 39.6052 105.507 39.6052 104.452C39.6052 103.396 38.7569 102.764 37.9086 102.764Z" fill="url(#paint24_linear_34_5260)"/>
<path d="M121.253 102.764H114.467H114.043H107.469H107.044H101.106H100.894H100.682H100.258C99.4098 102.764 98.5615 103.396 98.5615 104.452C98.5615 105.507 99.1978 106.14 100.258 106.14H100.682H100.894H101.106H107.044H107.469H114.043H114.467H121.253C122.102 106.14 122.95 105.507 122.95 104.452C122.95 103.396 122.102 102.764 121.253 102.764Z" fill="url(#paint25_linear_34_5260)"/>
<path d="M73.1131 171.57L72.9011 171.782C72.0527 172.204 71.8407 173.259 72.2648 173.893C72.4769 174.315 73.1131 174.737 73.7493 174.737C73.9614 174.737 74.1735 174.737 74.5976 174.525L75.0217 174.315C75.8701 173.893 76.0821 172.837 75.4459 172.204C74.8097 171.36 73.7493 170.937 73.1131 171.57Z" fill="url(#paint26_linear_34_5260)"/>
<path d="M67.3871 173.26H66.963C66.1147 173.26 65.4785 174.104 65.4785 174.949C65.4785 175.793 66.3268 176.426 66.963 176.426H67.3871C68.2355 176.426 68.8716 175.581 68.8716 174.737C69.0837 173.893 68.2355 173.26 67.3871 173.26Z" fill="url(#paint27_linear_34_5260)"/>
<path d="M81.1713 160.384C80.3229 160.173 79.4747 160.806 79.4747 161.862V162.284C79.2626 163.128 79.8988 163.972 80.7471 164.184H80.9592C81.8074 164.184 82.4437 163.55 82.4437 162.917V162.495C82.6558 161.44 82.0196 160.595 81.1713 160.384Z" fill="url(#paint28_linear_34_5260)"/>
<path d="M61.0251 173.469H60.6009C59.7526 173.469 58.9043 174.102 58.9043 175.158C58.9043 176.212 59.5406 176.846 60.6009 176.846H61.0251C61.8733 176.846 62.7216 176.212 62.7216 175.158C62.7216 174.102 61.8733 173.469 61.0251 173.469Z" fill="url(#paint29_linear_34_5260)"/>
<path d="M80.9593 153.842C80.1109 153.842 79.2627 154.475 79.2627 155.53V155.953C79.2627 156.797 79.8989 157.641 80.9593 157.641C82.0196 157.641 82.6558 157.008 82.6558 155.953V155.53C82.6558 154.475 81.8076 153.842 80.9593 153.842Z" fill="url(#paint30_linear_34_5260)"/>
<path d="M47.6647 173.469H47.2406C46.3923 173.469 45.5439 174.102 45.5439 175.158C45.5439 176.212 46.1802 176.846 47.2406 176.846H47.6647C48.513 176.846 49.3613 176.212 49.3613 175.158C49.3613 174.102 48.513 173.469 47.6647 173.469Z" fill="url(#paint31_linear_34_5260)"/>
<path d="M54.2388 173.469H53.8147C52.9664 173.469 52.1182 174.102 52.1182 175.158C52.1182 176.212 52.7543 176.846 53.8147 176.846H54.2388C55.0872 176.846 55.9355 176.212 55.9355 175.158C55.9355 174.102 55.0872 173.469 54.2388 173.469Z" fill="url(#paint32_linear_34_5260)"/>
<path d="M79.4753 166.927C78.8391 166.505 77.7787 166.715 77.3546 167.349L77.1425 167.771C76.7184 168.404 76.9305 169.459 77.5666 169.882C77.7787 170.092 78.2029 170.092 78.415 170.092C78.8391 170.092 79.4753 169.882 79.6874 169.459L79.8995 169.037C80.5357 168.404 80.3236 167.349 79.4753 166.927Z" fill="url(#paint33_linear_34_5260)"/>
<path d="M87.5336 123.449L87.1095 123.66C86.2612 124.083 86.0491 125.137 86.6854 125.771C86.8975 126.193 87.5336 126.615 87.9578 126.615C88.1699 126.615 88.594 126.615 88.8061 126.404L89.0181 126.193C89.8665 125.771 90.0785 124.715 89.6544 124.083C89.2302 123.449 88.382 123.027 87.5336 123.449Z" fill="url(#paint34_linear_34_5260)"/>
<path d="M94.5326 121.336H94.1085C93.2602 121.336 92.624 122.18 92.624 123.024C92.624 123.868 93.4723 124.502 94.1085 124.502H94.3206H94.7447C95.593 124.502 96.2292 123.658 96.2292 122.813C96.2292 121.969 95.381 121.336 94.5326 121.336Z" fill="url(#paint35_linear_34_5260)"/>
<path d="M82.2326 128.512L82.0205 128.934C81.5963 129.568 81.8084 130.623 82.4446 131.045C82.6567 131.256 83.0808 131.256 83.2929 131.256C83.7171 131.256 84.3533 131.045 84.5653 130.623L84.7774 130.412C85.2016 129.778 84.9895 128.724 84.3533 128.302C83.7171 127.457 82.6567 127.668 82.2326 128.512Z" fill="url(#paint36_linear_34_5260)"/>
<path d="M80.9593 147.086C80.1109 147.086 79.2627 147.719 79.2627 148.774V149.196C79.2627 150.041 79.8989 150.885 80.9593 150.885C82.0196 150.885 82.6558 150.252 82.6558 149.196V148.774C82.6558 147.93 81.8076 147.086 80.9593 147.086Z" fill="url(#paint37_linear_34_5260)"/>
<path d="M80.9593 140.543C80.1109 140.543 79.2627 141.176 79.2627 142.232V142.654C79.2627 143.498 79.8989 144.342 80.9593 144.342C82.0196 144.342 82.6558 143.71 82.6558 142.654V142.232C82.6558 141.176 81.8076 140.543 80.9593 140.543Z" fill="url(#paint38_linear_34_5260)"/>
<path d="M81.3833 134.002C80.535 133.791 79.6868 134.424 79.4746 135.268C79.4746 135.48 79.4746 135.69 79.4746 135.69C79.4746 136.535 80.1109 137.379 80.9591 137.379H81.1713C82.0195 137.379 82.6558 136.746 82.6558 135.902V135.48C82.8678 134.846 82.2316 134.002 81.3833 134.002Z" fill="url(#paint39_linear_34_5260)"/>
<path d="M40.6663 173.469C39.818 173.469 38.9697 174.102 38.9697 175.158C38.9697 176.212 39.6059 176.846 40.6663 176.846H40.8784C41.7267 176.846 42.3629 176.212 42.3629 175.158C42.3629 174.102 41.5146 173.469 40.6663 173.469Z" fill="url(#paint40_linear_34_5260)"/>
<path d="M121.253 121.336H114.679H114.254H107.892H107.468H101.106H100.894H100.682C99.8336 121.336 98.9854 121.969 98.9854 123.024C98.9854 124.08 99.6215 124.712 100.682 124.712H100.894H101.106H107.468H108.104H114.467H114.891H121.465C122.313 124.712 123.162 124.08 123.162 123.024C123.162 121.969 122.101 121.336 121.253 121.336Z" fill="url(#paint41_linear_34_5260)"/>
<path d="M239.65 88.6211C238.801 88.6211 237.953 87.9885 237.953 86.9329C237.953 85.8775 238.589 85.2444 239.437 85.2444H239.65C240.498 85.2444 241.346 85.8775 241.346 86.9329C241.346 87.9885 240.498 88.6211 239.65 88.6211Z" fill="#EE4192"/>
<path d="M239.65 124.502C238.801 124.502 237.953 123.869 237.953 122.814C237.953 121.759 238.589 121.125 239.437 121.125H239.65C240.498 121.125 241.346 121.759 241.346 122.814C241.346 123.869 240.498 124.502 239.65 124.502Z" fill="#6A83FF"/>
<path d="M279.731 52.5293C278.883 52.5293 278.035 53.1625 278.035 54.2179V54.64C278.035 55.4843 278.671 56.3285 279.731 56.3285C280.792 56.3285 281.428 55.6953 281.428 54.64V54.2179C281.428 53.1625 280.579 52.5293 279.731 52.5293Z" fill="url(#paint42_linear_34_5260)"/>
<path d="M279.731 59.0742C278.883 59.0742 278.035 59.7075 278.035 60.7628V61.1849C278.035 62.0292 278.671 62.8734 279.731 62.8734C280.792 62.8734 281.428 62.2403 281.428 61.1849V60.7628C281.428 59.7075 280.579 59.0742 279.731 59.0742Z" fill="url(#paint43_linear_34_5260)"/>
<path d="M279.731 72.3691C278.883 72.3691 278.035 73.0024 278.035 73.8466V74.2687C277.823 75.113 278.46 75.9573 279.308 76.1683H279.519C280.368 76.1683 281.004 75.5352 281.004 74.902C281.004 74.6909 281.004 74.4798 281.004 74.4798C281.428 73.2135 280.792 72.3691 279.731 72.3691Z" fill="url(#paint44_linear_34_5260)"/>
<path d="M278.247 78.913C277.611 78.4909 276.55 78.7019 276.126 79.3351L275.914 79.5461C275.49 80.1794 275.702 81.2347 276.338 81.6568C276.55 81.8678 276.974 81.8679 277.186 81.8679C277.611 81.8679 278.247 81.6568 278.459 81.2347L278.671 80.8126C279.307 80.1794 279.095 79.3351 278.247 78.913Z" fill="url(#paint45_linear_34_5260)"/>
<path d="M266.158 85.2441H265.734C264.886 85.2441 264.25 86.0884 264.25 86.9326C264.25 87.7766 265.098 88.4101 265.734 88.4101C265.734 88.4101 265.734 88.4101 265.946 88.4101H266.371C267.219 88.4101 267.855 87.566 267.855 86.7216C267.855 85.8774 267.219 85.2441 266.158 85.2441Z" fill="url(#paint46_linear_34_5260)"/>
<path d="M271.884 83.3458L271.673 83.5569C270.825 83.979 270.612 85.0343 271.036 85.6676C271.248 86.0897 271.884 86.5118 272.521 86.5118C272.733 86.5118 273.157 86.5118 273.37 86.3007L273.793 86.0897C274.641 85.6676 274.854 84.6122 274.218 83.979C273.581 83.1347 272.521 82.9237 271.884 83.3458Z" fill="url(#paint47_linear_34_5260)"/>
<path d="M259.797 85.457H259.373H253.223H252.798H246.436H246.012H239.437C238.589 85.457 237.741 86.0902 237.741 87.1455C237.741 88.2005 238.377 88.834 239.437 88.834H246.012H246.436H252.798H253.223H259.373H259.797C260.645 88.834 261.493 88.2005 261.493 87.1455C261.493 86.0902 260.645 85.457 259.797 85.457Z" fill="url(#paint48_linear_34_5260)"/>
<path d="M279.731 65.828C278.883 65.828 278.035 66.4612 278.035 67.5166V67.9387C278.035 68.783 278.671 69.6272 279.731 69.6272C280.792 69.6272 281.428 68.994 281.428 67.9387V67.5166C281.428 66.4612 280.579 65.828 279.731 65.828Z" fill="url(#paint49_linear_34_5260)"/>
<path d="M306.876 33.3242H306.453C305.604 33.3242 304.756 33.9574 304.756 35.0127C304.756 36.0681 305.392 36.7012 306.453 36.7012H306.876C307.725 36.7012 308.573 36.0681 308.573 35.0127C308.573 33.9574 307.725 33.3242 306.876 33.3242Z" fill="url(#paint50_linear_34_5260)"/>
<path d="M313.664 33.3242H313.24C312.391 33.3242 311.543 33.9574 311.543 35.0127C311.543 36.0681 312.179 36.7012 313.24 36.7012H313.664C314.512 36.7012 315.361 36.0681 315.361 35.0127C315.361 33.9574 314.512 33.3242 313.664 33.3242Z" fill="url(#paint51_linear_34_5260)"/>
<path d="M300.302 33.3242H299.878C299.03 33.3242 298.182 33.9574 298.182 35.0127C298.182 36.0681 298.818 36.7012 299.878 36.7012H300.302C301.15 36.7012 301.999 36.0681 301.999 35.0127C301.999 33.9574 301.15 33.3242 300.302 33.3242Z" fill="url(#paint52_linear_34_5260)"/>
<path d="M280.156 45.7772C279.307 45.5662 278.459 46.1993 278.247 47.0436V47.4658C278.247 48.3101 278.672 49.1543 279.731 49.1543H279.943C280.792 49.1543 281.428 48.5211 281.428 47.6768V47.2547C281.64 46.8326 281.004 45.9883 280.156 45.7772Z" fill="url(#paint53_linear_34_5260)"/>
<path d="M281.004 40.2883L280.792 40.7104C280.368 41.3436 280.58 42.3989 281.216 42.821C281.428 43.0321 281.852 43.0321 282.065 43.0321C282.488 43.0321 283.124 42.821 283.337 42.3989L283.549 41.9768C283.973 41.3436 283.761 40.2883 283.124 39.8661C282.488 39.444 281.64 39.6551 281.004 40.2883Z" fill="url(#paint54_linear_34_5260)"/>
<path d="M286.517 35.4318L286.093 35.6429C285.244 36.065 285.033 37.1203 285.669 37.7535C285.881 38.1756 286.517 38.5978 286.941 38.5978C287.153 38.5978 287.578 38.5978 287.789 38.3867L288.001 38.1756C288.85 37.7535 289.062 36.6982 288.638 36.065C288.214 35.2207 287.153 35.0096 286.517 35.4318Z" fill="url(#paint55_linear_34_5260)"/>
<path d="M293.516 33.3242H293.093C292.245 33.3242 291.608 34.1685 291.608 35.0127C291.608 35.857 292.456 36.4902 293.093 36.4902C293.093 36.4902 293.093 36.4902 293.305 36.4902H293.729C294.577 36.4902 295.213 35.6459 295.213 34.8016C295.002 33.9574 294.365 33.3242 293.516 33.3242Z" fill="url(#paint56_linear_34_5260)"/>
<path d="M320.237 33.3242C319.177 33.3242 318.541 33.9574 318.541 35.0127C318.541 36.0681 319.389 36.7012 320.237 36.7012C321.085 36.7012 321.934 36.0681 321.934 35.0127C321.934 33.9574 321.085 33.3242 320.237 33.3242Z" fill="url(#paint57_linear_34_5260)"/>
<path d="M239.65 105.93C238.801 105.93 237.953 105.298 237.953 104.242C237.953 103.186 238.589 102.553 239.437 102.553H239.65C240.498 102.553 241.346 103.186 241.346 104.242C241.346 105.298 240.498 105.93 239.65 105.93Z" fill="#6A83FF"/>
<path d="M274.642 102.764H274.218C273.37 102.764 272.521 103.396 272.521 104.452C272.521 105.507 273.158 106.14 274.218 106.14H274.642C275.49 106.14 276.338 105.507 276.338 104.452C276.338 103.396 275.49 102.764 274.642 102.764Z" fill="url(#paint58_linear_34_5260)"/>
<path d="M281.64 102.764H281.217C280.368 102.764 279.52 103.396 279.52 104.452C279.52 105.507 280.156 106.14 281.217 106.14H281.64C282.489 106.14 283.337 105.507 283.337 104.452C283.337 103.396 282.489 102.764 281.64 102.764Z" fill="url(#paint59_linear_34_5260)"/>
<path d="M267.643 102.764H267.219C266.371 102.764 265.522 103.396 265.522 104.452C265.522 105.507 266.159 106.14 267.219 106.14H267.643C268.492 106.14 269.34 105.507 269.34 104.452C269.34 103.396 268.492 102.764 267.643 102.764Z" fill="url(#paint60_linear_34_5260)"/>
<path d="M260.645 102.764H260.221H260.009H259.797H253.859H253.434H246.86H246.436H239.65C238.801 102.764 237.953 103.396 237.953 104.452C237.953 105.507 238.589 106.14 239.65 106.14H246.436H246.86H253.434H253.859H259.797H260.009H260.221H260.645C261.493 106.14 262.341 105.507 262.341 104.452C262.341 103.396 261.493 102.764 260.645 102.764Z" fill="url(#paint61_linear_34_5260)"/>
<path d="M288.427 102.764H288.004C287.156 102.764 286.307 103.396 286.307 104.452C286.307 105.507 286.943 106.14 288.004 106.14H288.427C289.276 106.14 290.124 105.507 290.124 104.452C290.124 103.396 289.488 102.764 288.427 102.764Z" fill="url(#paint62_linear_34_5260)"/>
<path d="M309.421 102.764H308.997C308.149 102.764 307.301 103.396 307.301 104.452C307.301 105.507 307.937 106.14 308.997 106.14H309.421C310.269 106.14 311.118 105.507 311.118 104.452C311.118 103.396 310.269 102.764 309.421 102.764Z" fill="url(#paint63_linear_34_5260)"/>
<path d="M316.42 102.764H315.996C315.148 102.764 314.299 103.396 314.299 104.452C314.299 105.507 314.935 106.14 315.996 106.14H316.42C317.268 106.14 318.116 105.507 318.116 104.452C318.116 103.396 317.268 102.764 316.42 102.764Z" fill="url(#paint64_linear_34_5260)"/>
<path d="M302.423 102.764H302C301.151 102.764 300.303 103.396 300.303 104.452C300.303 105.507 300.939 106.14 302 106.14H302.423C303.272 106.14 304.12 105.507 304.12 104.452C304.12 103.396 303.272 102.764 302.423 102.764Z" fill="url(#paint65_linear_34_5260)"/>
<path d="M295.424 102.764H295C294.152 102.764 293.304 103.396 293.304 104.452C293.304 105.507 293.939 106.14 295 106.14H295.424C296.272 106.14 297.12 105.507 297.12 104.452C297.12 103.396 296.272 102.764 295.424 102.764Z" fill="url(#paint66_linear_34_5260)"/>
<path d="M323.207 102.764C322.146 102.764 321.51 103.396 321.51 104.452C321.51 105.507 322.358 106.14 323.207 106.14C324.055 106.14 324.903 105.507 324.903 104.452C324.903 103.396 324.055 102.764 323.207 102.764Z" fill="url(#paint67_linear_34_5260)"/>
<path d="M273.581 123.659L273.157 123.447C272.308 123.025 271.46 123.237 271.037 124.081C270.612 124.925 270.824 125.769 271.673 126.191L271.885 126.402C272.096 126.614 272.521 126.614 272.733 126.614C273.369 126.614 273.793 126.402 274.005 125.769C274.43 125.136 274.217 124.291 273.581 123.659Z" fill="url(#paint68_linear_34_5260)"/>
<path d="M278.672 128.935L278.46 128.513C278.036 127.88 276.976 127.668 276.34 128.091C275.703 128.513 275.491 129.568 275.915 130.201L276.127 130.413C276.34 130.835 276.976 131.045 277.399 131.045C277.611 131.045 278.036 131.045 278.247 130.835C279.096 130.623 279.308 129.568 278.672 128.935Z" fill="url(#paint69_linear_34_5260)"/>
<path d="M279.732 137.379C280.792 137.379 281.428 136.535 281.216 135.69C281.216 135.48 281.216 135.268 281.216 135.268C281.005 134.424 280.157 133.791 279.308 134.002C278.46 134.213 277.823 134.846 278.035 135.902V136.324C278.248 136.957 278.884 137.379 279.732 137.379Z" fill="url(#paint70_linear_34_5260)"/>
<path d="M259.798 121.336H259.585H259.373H253.011H252.587H246.224H245.801H239.226C238.378 121.336 237.529 121.969 237.529 123.024C237.529 124.08 238.166 124.712 239.226 124.712H245.801H246.224H252.587H253.011H259.373H259.585H259.798C260.646 124.712 261.494 124.08 261.494 123.024C261.494 121.969 260.646 121.336 259.798 121.336Z" fill="url(#paint71_linear_34_5260)"/>
<path d="M279.731 147.086C278.883 147.086 278.034 147.719 278.034 148.774V149.196C278.034 150.041 278.67 150.885 279.731 150.885C280.792 150.885 281.427 150.252 281.427 149.196V148.774C281.427 147.93 280.579 147.086 279.731 147.086Z" fill="url(#paint72_linear_34_5260)"/>
<path d="M281.427 142.023C281.427 141.178 280.792 140.334 279.731 140.334C278.67 140.334 278.034 140.967 278.034 142.023V142.445C278.034 143.289 278.67 144.133 279.731 144.133C280.792 144.133 281.427 143.501 281.427 142.445V142.023Z" fill="url(#paint73_linear_34_5260)"/>
<path d="M279.731 157.428C280.579 157.428 281.427 156.795 281.427 155.739V155.317C281.427 154.473 280.792 153.629 279.731 153.629C278.67 153.629 278.034 154.262 278.034 155.317V155.739C278.247 156.795 278.883 157.428 279.731 157.428Z" fill="url(#paint74_linear_34_5260)"/>
<path d="M266.583 121.336H266.158C265.31 121.336 264.462 121.969 264.462 122.813C264.462 123.658 265.098 124.502 265.946 124.502H266.37H266.583C267.431 124.502 268.067 123.868 268.067 123.024C268.067 122.18 267.431 121.547 266.583 121.336Z" fill="url(#paint75_linear_34_5260)"/>
<path d="M283.549 167.349C283.124 166.715 282.064 166.505 281.428 166.927C280.792 167.349 280.58 168.404 281.004 169.037L281.215 169.459C281.428 169.882 282.064 170.092 282.488 170.092C282.701 170.092 283.124 170.092 283.337 169.882C283.973 169.459 284.185 168.404 283.76 167.771L283.549 167.349Z" fill="url(#paint76_linear_34_5260)"/>
<path d="M281.428 162.284V161.862C281.428 161.018 280.579 160.385 279.731 160.385C278.883 160.385 278.247 161.229 278.247 162.073V162.496C278.459 163.34 279.095 163.762 279.731 163.762H279.943C281.004 163.973 281.64 163.128 281.428 162.284Z" fill="url(#paint77_linear_34_5260)"/>
<path d="M313.664 173.469H313.24C312.391 173.469 311.543 174.102 311.543 175.158C311.543 176.212 312.179 176.846 313.24 176.846H313.664C314.512 176.846 315.361 176.212 315.361 175.158C315.361 174.102 314.512 173.469 313.664 173.469Z" fill="url(#paint78_linear_34_5260)"/>
<path d="M300.303 173.469H299.879C299.031 173.469 298.183 174.102 298.183 175.158C298.183 176.212 298.819 176.846 299.879 176.846H300.303C301.151 176.846 301.999 176.212 301.999 175.158C301.999 174.102 301.151 173.469 300.303 173.469Z" fill="url(#paint79_linear_34_5260)"/>
<path d="M306.876 173.469H306.452C305.604 173.469 304.756 174.102 304.756 175.158C304.756 176.212 305.392 176.846 306.452 176.846H306.876C307.725 176.846 308.573 176.212 308.573 175.158C308.573 174.102 307.725 173.469 306.876 173.469Z" fill="url(#paint80_linear_34_5260)"/>
<path d="M293.729 173.26H293.305C292.456 173.26 291.608 173.893 291.608 174.737C291.608 175.581 292.244 176.426 293.093 176.426H293.516C294.365 176.426 295.002 175.793 295.002 174.949C295.213 174.104 294.577 173.471 293.729 173.26Z" fill="url(#paint81_linear_34_5260)"/>
<path d="M288.003 171.572L287.791 171.36C286.943 170.938 286.094 171.149 285.67 171.782C285.246 172.626 285.458 173.471 286.094 173.893L286.518 174.104C286.73 174.315 286.943 174.315 287.366 174.315C288.003 174.315 288.427 174.104 288.851 173.471C289.063 173.048 288.851 171.994 288.003 171.572Z" fill="url(#paint82_linear_34_5260)"/>
<path d="M320.237 173.469C319.176 173.469 318.54 174.102 318.54 175.158C318.54 176.212 319.389 176.846 320.237 176.846C321.085 176.846 321.934 176.212 321.934 175.158C321.934 174.102 321.085 173.469 320.237 173.469Z" fill="url(#paint83_linear_34_5260)"/>
<path d="M234.908 23.4314L233.423 36.7285L223.88 38.206L217.306 28.2859L233 20.6875L234.908 23.4314Z" fill="url(#paint84_linear_34_5260)"/>
<path d="M233.422 36.7296L227.272 27.2316L231.725 19.2111L232.15 19L238.3 28.498L233.422 36.7296Z" fill="url(#paint85_linear_34_5260)"/>
<path d="M232.151 19L227.698 26.8095L227.273 27.2316V27.4427L221.76 27.8648H221.548L217.306 28.2869L220.275 23.2213L220.487 22.7992L222.184 20.0553L224.728 19.8443L224.941 19.6332H225.364H226.637L229.394 19.2111H230.03L232.151 19Z" fill="#89A7FF"/>
<g opacity="0.3">
<path opacity="0.3" d="M223.244 22.3781C223.457 22.3781 223.457 22.3781 223.457 22.167V20.6896C223.457 20.4785 223.457 20.4785 223.244 20.4785C223.032 20.4785 223.032 20.4785 223.032 20.6896V22.167C223.032 22.3781 223.032 22.3781 223.244 22.3781Z" fill="white"/>
<path opacity="0.3" d="M227.273 20.2658L226 21.11C226 21.11 225.789 21.3211 226 21.3211H226.213C226.213 21.3211 226.213 21.3211 226.425 21.3211L227.697 20.2658C227.697 20.2658 227.909 20.0547 227.697 20.0547C227.485 20.2658 227.485 20.0547 227.273 20.2658Z" fill="white"/>
<path opacity="0.3" d="M224.092 23.8535L222.396 24.6978C222.184 24.6978 222.184 24.9089 222.184 24.9089L222.396 25.1199L224.092 24.2756C224.304 24.2756 224.304 24.0646 224.304 24.0646C224.304 23.8535 224.092 23.8535 224.092 23.8535Z" fill="white"/>
<path opacity="0.3" d="M226.638 24.0646C226.638 23.8535 226.425 23.8535 226.425 24.0646C226.214 24.0646 226.214 24.2756 226.425 24.2756L226.85 25.1199L227.062 25.331C227.062 25.331 227.062 25.331 227.274 25.331C227.486 25.331 227.486 25.1199 227.274 25.1199L226.638 24.0646Z" fill="white"/>
<path opacity="0.3" d="M220.275 25.7536C220.063 25.7536 220.063 25.9646 220.063 25.9646V27.02C220.063 27.231 220.275 27.231 220.275 27.231C220.487 27.231 220.487 27.02 220.487 27.02V25.9646C220.487 25.7536 220.275 25.5425 220.275 25.7536Z" fill="white"/>
<path opacity="0.3" d="M229.393 20.2658C229.393 20.0547 229.181 20.0547 229.181 20.0547C228.969 20.0547 228.969 20.2658 228.969 20.2658L229.181 21.7432C229.181 21.9543 229.393 21.9543 229.393 21.9543C229.605 21.9543 229.605 21.7432 229.605 21.7432L229.393 20.2658Z" fill="white"/>
</g>
<path d="M116.8 44.7218L111.498 35.4348L117.012 29.9471L125.919 33.5352L119.133 45.5661L116.8 44.7218Z" fill="url(#paint86_linear_34_5260)"/>
<path d="M111.498 35.4355L119.981 38.8126L120.617 45.9889L120.405 46.411L112.134 43.034L111.498 35.4355Z" fill="url(#paint87_linear_34_5260)"/>
<path d="M120.406 46.4122L119.77 39.2359V38.6027L123.163 35.8588L123.374 35.6478L125.919 33.5371L126.344 38.1806V38.3917L126.556 41.1355L125.071 42.4019L124.86 42.613L124.647 42.824L123.799 43.4572L122.103 44.9347L121.89 45.1457L120.406 46.4122Z" fill="#F665AA"/>
<g opacity="0.3">
<path opacity="0.3" d="M124.858 39.8671V40.0781L125.495 41.1334H125.706V40.9224L125.07 39.8671H124.858Z" fill="white"/>
<path opacity="0.3" d="M123.163 43.2431L123.586 41.9766C123.586 41.9766 123.586 41.7656 123.375 41.7656H123.163L122.738 43.032C122.738 43.032 122.738 43.2431 122.95 43.2431C122.95 43.4541 123.163 43.4541 123.163 43.2431Z" fill="white"/>
<path opacity="0.3" d="M123.586 39.4463L124.222 38.1799V37.9689H124.01L123.374 39.2352V39.4463H123.586Z" fill="white"/>
<path opacity="0.3" d="M121.89 40.5022H122.102V40.2905L121.254 39.8671H121.041V40.0788L121.89 40.5022Z" fill="white"/>
<path opacity="0.3" d="M125.283 36.4934V36.2817L124.858 35.6465H124.646V35.8582L125.07 36.4934C125.07 36.4934 125.07 36.4934 125.283 36.4934Z" fill="white"/>
<path opacity="0.3" d="M121.89 44.0885H122.102V43.8775L121.254 43.0332H121.041V43.2442L121.89 44.0885Z" fill="white"/>
</g>
<path d="M249.017 48.268H249.038L249.059 48.2663C250.84 48.1179 252.389 49.6028 252.389 51.6402V152.142C252.389 153.978 250.854 155.515 249.017 155.515H111.039C109.203 155.515 107.667 153.978 107.667 152.142V51.6402C107.667 49.8042 109.203 48.268 111.039 48.268H249.017Z" fill="#23293A" stroke="#2E3446"/>
<path d="M252.042 51.4772V56.2136H107.167V51.4772C107.167 49.4474 108.915 47.7559 111.012 47.7559H248.023C250.295 47.7559 252.042 49.4474 252.042 51.4772Z" fill="url(#paint88_linear_34_5260)"/>
<path d="M111.034 53.894C111.713 53.894 112.263 53.3427 112.263 52.6628C112.263 51.9829 111.713 51.4316 111.034 51.4316C110.355 51.4316 109.805 51.9829 109.805 52.6628C109.805 53.3427 110.355 53.894 111.034 53.894Z" fill="white"/>
<path d="M114.545 53.894C115.224 53.894 115.775 53.3427 115.775 52.6628C115.775 51.9829 115.224 51.4316 114.545 51.4316C113.867 51.4316 113.316 51.9829 113.316 52.6628C113.316 53.3427 113.867 53.894 114.545 53.894Z" fill="white"/>
<path d="M118.056 53.894C118.735 53.894 119.285 53.3427 119.285 52.6628C119.285 51.9829 118.735 51.4316 118.056 51.4316C117.377 51.4316 116.827 51.9829 116.827 52.6628C116.827 53.3427 117.377 53.894 118.056 53.894Z" fill="white"/>
<path d="M206.168 79.8744C204.684 79.8744 201.502 78.6081 200.443 78.1859C194.716 75.6531 185.173 68.0547 180.083 68.0547C174.994 68.0547 165.451 75.6531 159.724 78.1859C158.664 78.6081 155.483 79.8744 153.999 79.8744C151.878 79.8744 150.181 81.774 150.393 84.0958C151.029 89.1613 152.302 98.2372 155.907 109.846C160.36 124.198 173.297 132.852 178.175 135.596C179.448 136.229 180.932 136.229 181.992 135.596C186.87 132.852 199.806 124.198 204.259 109.846C207.865 98.2372 209.349 89.1613 209.773 84.0958C209.986 81.774 208.289 79.8744 206.168 79.8744Z" fill="#2D3344"/>
<path d="M185.349 98.3255V93.4709C185.349 91.1492 183.44 88.8274 181.319 88.4053C179.623 88.1943 177.926 88.6164 176.866 89.8828C176.018 90.7271 175.381 91.9935 175.381 93.4709V98.5366C174.109 99.3808 172.837 100.647 171.988 101.914C171.14 103.18 170.716 104.657 170.716 106.346C170.504 111.623 174.745 116.055 180.047 116.266C185.561 116.478 190.014 112.045 190.014 106.768C190.014 103.18 188.106 100.014 185.349 98.3255ZM181.531 107.612V110.145C181.531 110.567 181.319 110.779 180.895 110.779H179.835C179.411 110.779 179.199 110.567 179.199 110.145V108.456V107.402C178.138 107.19 177.715 106.135 177.926 105.08C178.138 104.235 178.774 103.391 179.835 103.18C181.319 102.758 182.804 104.024 182.804 105.502C182.592 106.346 182.168 107.19 181.531 107.612ZM183.228 97.4812C182.38 97.2701 181.319 97.0591 180.26 97.0591C179.411 97.0591 178.351 97.2701 177.502 97.4812V93.682C177.502 92.8378 177.926 92.2045 178.351 91.7824C178.987 91.1492 180.26 90.7271 181.531 91.1492C182.592 91.5713 183.228 92.6267 183.228 93.893V97.4812Z" fill="url(#paint89_linear_34_5260)"/>
<path d="M230.229 156.008L241.258 153.475L245.074 160.44L238.924 168.249L228.745 157.907L230.229 156.008Z" fill="url(#paint90_linear_34_5260)"/>
<path d="M241.257 153.474L235.319 160.861L227.896 159.384L227.685 159.173L233.41 151.785L241.257 153.474Z" fill="url(#paint91_linear_34_5260)"/>
<path d="M227.473 159.174L234.895 160.651H235.531L237.44 164.873V165.084L238.925 168.25L234.259 167.406L233.835 167.194L231.078 166.772L230.23 164.873L230.018 164.661V164.239L229.593 163.395L228.533 161.073L228.321 160.651L227.473 159.174Z" fill="#F665AA"/>
<g opacity="0.3">
<path opacity="0.3" d="M232.774 165.297L232.562 165.086L231.29 165.51L231.078 165.721L231.29 165.933L232.562 165.51C232.774 165.51 232.774 165.297 232.774 165.297Z" fill="white"/>
<path opacity="0.3" d="M229.806 162.553L230.866 163.188H231.078V162.977L230.018 162.342H229.806C229.806 162.553 229.806 162.553 229.806 162.553Z" fill="white"/>
<path opacity="0.3" d="M233.622 164.241L234.682 165.296H234.895V165.085L233.834 164.029H233.622C233.622 164.029 233.622 164.029 233.622 164.241Z" fill="white"/>
<path opacity="0.3" d="M232.986 162.133V162.345H233.199L233.835 161.709V161.498H233.623L232.986 162.133Z" fill="white"/>
<path opacity="0.3" d="M236.168 166.773C236.168 166.773 236.38 166.985 236.38 166.773L237.016 166.562C237.016 166.562 237.228 166.35 237.016 166.35C237.016 166.35 236.804 166.138 236.804 166.35L236.168 166.562C236.168 166.562 235.955 166.562 236.168 166.773Z" fill="white"/>
<path opacity="0.3" d="M229.382 161.075C229.382 161.075 229.169 161.286 229.382 161.286C229.382 161.286 229.593 161.497 229.593 161.286L230.654 160.653C230.654 160.653 230.866 160.441 230.654 160.441C230.654 160.441 230.441 160.231 230.441 160.441L229.382 161.075Z" fill="white"/>
</g>
<defs>
<linearGradient id="paint0_linear_34_5260" x1="35.3505" y1="34.8747" x2="121.336" y2="34.8747" gradientUnits="userSpaceOnUse">
<stop stop-color="#83A6FF" stop-opacity="0"/>
<stop offset="1" stop-color="#5A78FF"/>
</linearGradient>
<linearGradient id="paint1_linear_34_5260" x1="35.3507" y1="34.8747" x2="121.335" y2="34.8747" gradientUnits="userSpaceOnUse">
<stop stop-color="#83A6FF" stop-opacity="0"/>
<stop offset="1" stop-color="#5A78FF"/>
</linearGradient>
<linearGradient id="paint2_linear_34_5260" x1="35.3504" y1="34.9232" x2="121.335" y2="34.9232" gradientUnits="userSpaceOnUse">
<stop stop-color="#83A6FF" stop-opacity="0"/>
<stop offset="1" stop-color="#5A78FF"/>
</linearGradient>
<linearGradient id="paint3_linear_34_5260" x1="35.35" y1="54.2319" x2="121.334" y2="54.2319" gradientUnits="userSpaceOnUse">
<stop stop-color="#83A6FF" stop-opacity="0"/>
<stop offset="1" stop-color="#5A78FF"/>
</linearGradient>
<linearGradient id="paint4_linear_34_5260" x1="35.3505" y1="41.4309" x2="121.335" y2="41.4309" gradientUnits="userSpaceOnUse">
<stop stop-color="#83A6FF" stop-opacity="0"/>
<stop offset="1" stop-color="#5A78FF"/>
</linearGradient>
<linearGradient id="paint5_linear_34_5260" x1="35.35" y1="60.8772" x2="121.334" y2="60.8772" gradientUnits="userSpaceOnUse">
<stop stop-color="#83A6FF" stop-opacity="0"/>
<stop offset="1" stop-color="#5A78FF"/>
</linearGradient>
<linearGradient id="paint6_linear_34_5260" x1="35.3507" y1="34.8747" x2="121.336" y2="34.8747" gradientUnits="userSpaceOnUse">
<stop stop-color="#83A6FF" stop-opacity="0"/>
<stop offset="1" stop-color="#5A78FF"/>
</linearGradient>
<linearGradient id="paint7_linear_34_5260" x1="35.3505" y1="36.9037" x2="121.335" y2="36.9037" gradientUnits="userSpaceOnUse">
<stop stop-color="#83A6FF" stop-opacity="0"/>
<stop offset="1" stop-color="#5A78FF"/>
</linearGradient>
<linearGradient id="paint8_linear_34_5260" x1="35.3499" y1="80.3302" x2="121.334" y2="80.3302" gradientUnits="userSpaceOnUse">
<stop stop-color="#83A6FF" stop-opacity="0"/>
<stop offset="1" stop-color="#5A78FF"/>
</linearGradient>
<linearGradient id="paint9_linear_34_5260" x1="35.3501" y1="84.8772" x2="121.335" y2="84.8772" gradientUnits="userSpaceOnUse">
<stop stop-color="#83A6FF" stop-opacity="0"/>
<stop offset="1" stop-color="#5A78FF"/>
</linearGradient>
<linearGradient id="paint10_linear_34_5260" x1="35.3509" y1="86.8839" x2="121.336" y2="86.8839" gradientUnits="userSpaceOnUse">
<stop stop-color="#83A6FF" stop-opacity="0"/>
<stop offset="1" stop-color="#5A78FF"/>
</linearGradient>
<linearGradient id="paint11_linear_34_5260" x1="35.3501" y1="47.5912" x2="121.335" y2="47.5912" gradientUnits="userSpaceOnUse">
<stop stop-color="#83A6FF" stop-opacity="0"/>
<stop offset="1" stop-color="#5A78FF"/>
</linearGradient>
<linearGradient id="paint12_linear_34_5260" x1="35.3498" y1="74.1632" x2="121.335" y2="74.1632" gradientUnits="userSpaceOnUse">
<stop stop-color="#83A6FF" stop-opacity="0"/>
<stop offset="1" stop-color="#5A78FF"/>
</linearGradient>
<linearGradient id="paint13_linear_34_5260" x1="35.35" y1="67.5233" x2="121.334" y2="67.5233" gradientUnits="userSpaceOnUse">
<stop stop-color="#83A6FF" stop-opacity="0"/>
<stop offset="1" stop-color="#5A78FF"/>
</linearGradient>
<linearGradient id="paint14_linear_34_5260" x1="35.3497" y1="34.8747" x2="121.335" y2="34.8747" gradientUnits="userSpaceOnUse">
<stop stop-color="#83A6FF" stop-opacity="0"/>
<stop offset="1" stop-color="#5A78FF"/>
</linearGradient>
<linearGradient id="paint15_linear_34_5260" x1="35.3499" y1="86.9379" x2="121.334" y2="86.9379" gradientUnits="userSpaceOnUse">
<stop stop-color="#83A6FF" stop-opacity="0"/>
<stop offset="1" stop-color="#5A78FF"/>
</linearGradient>
<linearGradient id="paint16_linear_34_5260" x1="36.8373" y1="104.447" x2="121.987" y2="104.447" gradientUnits="userSpaceOnUse">
<stop stop-color="#FF66A9" stop-opacity="0"/>
<stop offset="1" stop-color="#F53689"/>
</linearGradient>
<linearGradient id="paint17_linear_34_5260" x1="36.8379" y1="104.447" x2="121.988" y2="104.447" gradientUnits="userSpaceOnUse">
<stop stop-color="#FF66A9" stop-opacity="0"/>
<stop offset="1" stop-color="#F53689"/>
</linearGradient>
<linearGradient id="paint18_linear_34_5260" x1="36.8366" y1="104.447" x2="121.986" y2="104.447" gradientUnits="userSpaceOnUse">
<stop stop-color="#FF66A9" stop-opacity="0"/>
<stop offset="1" stop-color="#F53689"/>
</linearGradient>
<linearGradient id="paint19_linear_34_5260" x1="36.8379" y1="104.447" x2="121.988" y2="104.447" gradientUnits="userSpaceOnUse">
<stop stop-color="#FF66A9" stop-opacity="0"/>
<stop offset="1" stop-color="#F53689"/>
</linearGradient>
<linearGradient id="paint20_linear_34_5260" x1="36.8372" y1="104.447" x2="121.987" y2="104.447" gradientUnits="userSpaceOnUse">
<stop stop-color="#FF66A9" stop-opacity="0"/>
<stop offset="1" stop-color="#F53689"/>
</linearGradient>
<linearGradient id="paint21_linear_34_5260" x1="36.8379" y1="104.447" x2="121.988" y2="104.447" gradientUnits="userSpaceOnUse">
<stop stop-color="#FF66A9" stop-opacity="0"/>
<stop offset="1" stop-color="#F53689"/>
</linearGradient>
<linearGradient id="paint22_linear_34_5260" x1="36.8375" y1="104.447" x2="121.987" y2="104.447" gradientUnits="userSpaceOnUse">
<stop stop-color="#FF66A9" stop-opacity="0"/>
<stop offset="1" stop-color="#F53689"/>
</linearGradient>
<linearGradient id="paint23_linear_34_5260" x1="36.8372" y1="104.447" x2="121.987" y2="104.447" gradientUnits="userSpaceOnUse">
<stop stop-color="#FF66A9" stop-opacity="0"/>
<stop offset="1" stop-color="#F53689"/>
</linearGradient>
<linearGradient id="paint24_linear_34_5260" x1="36.8373" y1="104.447" x2="121.987" y2="104.447" gradientUnits="userSpaceOnUse">
<stop stop-color="#FF66A9" stop-opacity="0"/>
<stop offset="1" stop-color="#F53689"/>
</linearGradient>
<linearGradient id="paint25_linear_34_5260" x1="36.8376" y1="104.447" x2="121.987" y2="104.447" gradientUnits="userSpaceOnUse">
<stop stop-color="#FF66A9" stop-opacity="0"/>
<stop offset="1" stop-color="#F53689"/>
</linearGradient>
<linearGradient id="paint26_linear_34_5260" x1="35.3505" y1="172.945" x2="121.335" y2="172.945" gradientUnits="userSpaceOnUse">
<stop stop-color="#83A6FF" stop-opacity="0"/>
<stop offset="1" stop-color="#5A78FF"/>
</linearGradient>
<linearGradient id="paint27_linear_34_5260" x1="35.3505" y1="174.928" x2="121.336" y2="174.928" gradientUnits="userSpaceOnUse">
<stop stop-color="#83A6FF" stop-opacity="0"/>
<stop offset="1" stop-color="#5A78FF"/>
</linearGradient>
<linearGradient id="paint28_linear_34_5260" x1="35.3499" y1="162.258" x2="121.335" y2="162.258" gradientUnits="userSpaceOnUse">
<stop stop-color="#83A6FF" stop-opacity="0"/>
<stop offset="1" stop-color="#5A78FF"/>
</linearGradient>
<linearGradient id="paint29_linear_34_5260" x1="35.3505" y1="174.975" x2="121.336" y2="174.975" gradientUnits="userSpaceOnUse">
<stop stop-color="#83A6FF" stop-opacity="0"/>
<stop offset="1" stop-color="#5A78FF"/>
</linearGradient>
<linearGradient id="paint30_linear_34_5260" x1="35.35" y1="155.62" x2="121.334" y2="155.62" gradientUnits="userSpaceOnUse">
<stop stop-color="#83A6FF" stop-opacity="0"/>
<stop offset="1" stop-color="#5A78FF"/>
</linearGradient>
<linearGradient id="paint31_linear_34_5260" x1="35.3507" y1="174.975" x2="121.336" y2="174.975" gradientUnits="userSpaceOnUse">
<stop stop-color="#83A6FF" stop-opacity="0"/>
<stop offset="1" stop-color="#5A78FF"/>
</linearGradient>
<linearGradient id="paint32_linear_34_5260" x1="35.3507" y1="174.975" x2="121.335" y2="174.975" gradientUnits="userSpaceOnUse">
<stop stop-color="#83A6FF" stop-opacity="0"/>
<stop offset="1" stop-color="#5A78FF"/>
</linearGradient>
<linearGradient id="paint33_linear_34_5260" x1="35.3505" y1="168.418" x2="121.336" y2="168.418" gradientUnits="userSpaceOnUse">
<stop stop-color="#83A6FF" stop-opacity="0"/>
<stop offset="1" stop-color="#5A78FF"/>
</linearGradient>
<linearGradient id="paint34_linear_34_5260" x1="35.3502" y1="124.974" x2="121.335" y2="124.974" gradientUnits="userSpaceOnUse">
<stop stop-color="#83A6FF" stop-opacity="0"/>
<stop offset="1" stop-color="#5A78FF"/>
</linearGradient>
<linearGradient id="paint35_linear_34_5260" x1="35.3509" y1="122.965" x2="121.336" y2="122.965" gradientUnits="userSpaceOnUse">
<stop stop-color="#83A6FF" stop-opacity="0"/>
<stop offset="1" stop-color="#5A78FF"/>
</linearGradient>
<linearGradient id="paint36_linear_34_5260" x1="35.3509" y1="129.518" x2="121.336" y2="129.518" gradientUnits="userSpaceOnUse">
<stop stop-color="#83A6FF" stop-opacity="0"/>
<stop offset="1" stop-color="#5A78FF"/>
</linearGradient>
<linearGradient id="paint37_linear_34_5260" x1="35.35" y1="148.973" x2="121.334" y2="148.973" gradientUnits="userSpaceOnUse">
<stop stop-color="#83A6FF" stop-opacity="0"/>
<stop offset="1" stop-color="#5A78FF"/>
</linearGradient>
<linearGradient id="paint38_linear_34_5260" x1="35.35" y1="142.327" x2="121.334" y2="142.327" gradientUnits="userSpaceOnUse">
<stop stop-color="#83A6FF" stop-opacity="0"/>
<stop offset="1" stop-color="#5A78FF"/>
</linearGradient>
<linearGradient id="paint39_linear_34_5260" x1="35.3499" y1="135.689" x2="121.335" y2="135.689" gradientUnits="userSpaceOnUse">
<stop stop-color="#83A6FF" stop-opacity="0"/>
<stop offset="1" stop-color="#5A78FF"/>
</linearGradient>
<linearGradient id="paint40_linear_34_5260" x1="35.3507" y1="174.975" x2="121.336" y2="174.975" gradientUnits="userSpaceOnUse">
<stop stop-color="#83A6FF" stop-opacity="0"/>
<stop offset="1" stop-color="#5A78FF"/>
</linearGradient>
<linearGradient id="paint41_linear_34_5260" x1="35.35" y1="122.911" x2="121.334" y2="122.911" gradientUnits="userSpaceOnUse">
<stop stop-color="#83A6FF" stop-opacity="0"/>
<stop offset="1" stop-color="#5A78FF"/>
</linearGradient>
<linearGradient id="paint42_linear_34_5260" x1="325.935" y1="54.2299" x2="250.725" y2="54.2299" gradientUnits="userSpaceOnUse">
<stop stop-color="#FF66A9" stop-opacity="0"/>
<stop offset="1" stop-color="#F53689"/>
</linearGradient>
<linearGradient id="paint43_linear_34_5260" x1="325.935" y1="60.8783" x2="250.725" y2="60.8783" gradientUnits="userSpaceOnUse">
<stop stop-color="#FF66A9" stop-opacity="0"/>
<stop offset="1" stop-color="#F53689"/>
</linearGradient>
<linearGradient id="paint44_linear_34_5260" x1="325.935" y1="74.1622" x2="250.725" y2="74.1622" gradientUnits="userSpaceOnUse">
<stop stop-color="#FF66A9" stop-opacity="0"/>
<stop offset="1" stop-color="#F53689"/>
</linearGradient>
<linearGradient id="paint45_linear_34_5260" x1="325.935" y1="80.3313" x2="250.725" y2="80.3313" gradientUnits="userSpaceOnUse">
<stop stop-color="#FF66A9" stop-opacity="0"/>
<stop offset="1" stop-color="#F53689"/>
</linearGradient>
<linearGradient id="paint46_linear_34_5260" x1="325.935" y1="86.8837" x2="250.724" y2="86.8837" gradientUnits="userSpaceOnUse">
<stop stop-color="#FF66A9" stop-opacity="0"/>
<stop offset="1" stop-color="#F53689"/>
</linearGradient>
<linearGradient id="paint47_linear_34_5260" x1="325.935" y1="84.8764" x2="250.725" y2="84.8764" gradientUnits="userSpaceOnUse">
<stop stop-color="#FF66A9" stop-opacity="0"/>
<stop offset="1" stop-color="#F53689"/>
</linearGradient>
<linearGradient id="paint48_linear_34_5260" x1="325.935" y1="86.9379" x2="250.725" y2="86.9379" gradientUnits="userSpaceOnUse">
<stop stop-color="#FF66A9" stop-opacity="0"/>
<stop offset="1" stop-color="#F53689"/>
</linearGradient>
<linearGradient id="paint49_linear_34_5260" x1="325.935" y1="67.5231" x2="250.725" y2="67.5231" gradientUnits="userSpaceOnUse">
<stop stop-color="#FF66A9" stop-opacity="0"/>
<stop offset="1" stop-color="#F53689"/>
</linearGradient>
<linearGradient id="paint50_linear_34_5260" x1="325.936" y1="34.8747" x2="250.725" y2="34.8747" gradientUnits="userSpaceOnUse">
<stop stop-color="#FF66A9" stop-opacity="0"/>
<stop offset="1" stop-color="#F53689"/>
</linearGradient>
<linearGradient id="paint51_linear_34_5260" x1="325.936" y1="34.8747" x2="250.726" y2="34.8747" gradientUnits="userSpaceOnUse">
<stop stop-color="#FF66A9" stop-opacity="0"/>
<stop offset="1" stop-color="#F53689"/>
</linearGradient>
<linearGradient id="paint52_linear_34_5260" x1="325.935" y1="34.8747" x2="250.724" y2="34.8747" gradientUnits="userSpaceOnUse">
<stop stop-color="#FF66A9" stop-opacity="0"/>
<stop offset="1" stop-color="#F53689"/>
</linearGradient>
<linearGradient id="paint53_linear_34_5260" x1="325.936" y1="47.5934" x2="250.725" y2="47.5934" gradientUnits="userSpaceOnUse">
<stop stop-color="#FF66A9" stop-opacity="0"/>
<stop offset="1" stop-color="#F53689"/>
</linearGradient>
<linearGradient id="paint54_linear_34_5260" x1="325.935" y1="41.4309" x2="250.725" y2="41.4309" gradientUnits="userSpaceOnUse">
<stop stop-color="#FF66A9" stop-opacity="0"/>
<stop offset="1" stop-color="#F53689"/>
</linearGradient>
<linearGradient id="paint55_linear_34_5260" x1="325.935" y1="36.9037" x2="250.724" y2="36.9037" gradientUnits="userSpaceOnUse">
<stop stop-color="#FF66A9" stop-opacity="0"/>
<stop offset="1" stop-color="#F53689"/>
</linearGradient>
<linearGradient id="paint56_linear_34_5260" x1="325.936" y1="34.9221" x2="250.726" y2="34.9221" gradientUnits="userSpaceOnUse">
<stop stop-color="#FF66A9" stop-opacity="0"/>
<stop offset="1" stop-color="#F53689"/>
</linearGradient>
<linearGradient id="paint57_linear_34_5260" x1="325.936" y1="34.8747" x2="250.724" y2="34.8747" gradientUnits="userSpaceOnUse">
<stop stop-color="#FF66A9" stop-opacity="0"/>
<stop offset="1" stop-color="#F53689"/>
</linearGradient>
<linearGradient id="paint58_linear_34_5260" x1="324.868" y1="104.447" x2="238.362" y2="104.447" gradientUnits="userSpaceOnUse">
<stop stop-color="#83A6FF" stop-opacity="0"/>
<stop offset="1" stop-color="#5A78FF"/>
</linearGradient>
<linearGradient id="paint59_linear_34_5260" x1="324.868" y1="104.447" x2="238.362" y2="104.447" gradientUnits="userSpaceOnUse">
<stop stop-color="#83A6FF" stop-opacity="0"/>
<stop offset="1" stop-color="#5A78FF"/>
</linearGradient>
<linearGradient id="paint60_linear_34_5260" x1="324.868" y1="104.447" x2="238.362" y2="104.447" gradientUnits="userSpaceOnUse">
<stop stop-color="#83A6FF" stop-opacity="0"/>
<stop offset="1" stop-color="#5A78FF"/>
</linearGradient>
<linearGradient id="paint61_linear_34_5260" x1="324.868" y1="104.447" x2="238.361" y2="104.447" gradientUnits="userSpaceOnUse">
<stop stop-color="#83A6FF" stop-opacity="0"/>
<stop offset="1" stop-color="#5A78FF"/>
</linearGradient>
<linearGradient id="paint62_linear_34_5260" x1="324.869" y1="104.447" x2="238.363" y2="104.447" gradientUnits="userSpaceOnUse">
<stop stop-color="#83A6FF" stop-opacity="0"/>
<stop offset="1" stop-color="#5A78FF"/>
</linearGradient>
<linearGradient id="paint63_linear_34_5260" x1="324.868" y1="104.447" x2="238.361" y2="104.447" gradientUnits="userSpaceOnUse">
<stop stop-color="#83A6FF" stop-opacity="0"/>
<stop offset="1" stop-color="#5A78FF"/>
</linearGradient>
<linearGradient id="paint64_linear_34_5260" x1="324.868" y1="104.447" x2="238.362" y2="104.447" gradientUnits="userSpaceOnUse">
<stop stop-color="#83A6FF" stop-opacity="0"/>
<stop offset="1" stop-color="#5A78FF"/>
</linearGradient>
<linearGradient id="paint65_linear_34_5260" x1="324.869" y1="104.447" x2="238.362" y2="104.447" gradientUnits="userSpaceOnUse">
<stop stop-color="#83A6FF" stop-opacity="0"/>
<stop offset="1" stop-color="#5A78FF"/>
</linearGradient>
<linearGradient id="paint66_linear_34_5260" x1="324.867" y1="104.447" x2="238.361" y2="104.447" gradientUnits="userSpaceOnUse">
<stop stop-color="#83A6FF" stop-opacity="0"/>
<stop offset="1" stop-color="#5A78FF"/>
</linearGradient>
<linearGradient id="paint67_linear_34_5260" x1="324.868" y1="104.447" x2="238.362" y2="104.447" gradientUnits="userSpaceOnUse">
<stop stop-color="#83A6FF" stop-opacity="0"/>
<stop offset="1" stop-color="#5A78FF"/>
</linearGradient>
<linearGradient id="paint68_linear_34_5260" x1="324.867" y1="124.972" x2="238.362" y2="124.972" gradientUnits="userSpaceOnUse">
<stop stop-color="#83A6FF" stop-opacity="0"/>
<stop offset="1" stop-color="#5A78FF"/>
</linearGradient>
<linearGradient id="paint69_linear_34_5260" x1="324.869" y1="129.518" x2="238.363" y2="129.518" gradientUnits="userSpaceOnUse">
<stop stop-color="#83A6FF" stop-opacity="0"/>
<stop offset="1" stop-color="#5A78FF"/>
</linearGradient>
<linearGradient id="paint70_linear_34_5260" x1="324.869" y1="135.688" x2="238.362" y2="135.688" gradientUnits="userSpaceOnUse">
<stop stop-color="#83A6FF" stop-opacity="0"/>
<stop offset="1" stop-color="#5A78FF"/>
</linearGradient>
<linearGradient id="paint71_linear_34_5260" x1="324.869" y1="122.911" x2="238.362" y2="122.911" gradientUnits="userSpaceOnUse">
<stop stop-color="#83A6FF" stop-opacity="0"/>
<stop offset="1" stop-color="#5A78FF"/>
</linearGradient>
<linearGradient id="paint72_linear_34_5260" x1="324.868" y1="148.971" x2="238.361" y2="148.971" gradientUnits="userSpaceOnUse">
<stop stop-color="#83A6FF" stop-opacity="0"/>
<stop offset="1" stop-color="#5A78FF"/>
</linearGradient>
<linearGradient id="paint73_linear_34_5260" x1="324.868" y1="142.329" x2="238.361" y2="142.329" gradientUnits="userSpaceOnUse">
<stop stop-color="#83A6FF" stop-opacity="0"/>
<stop offset="1" stop-color="#5A78FF"/>
</linearGradient>
<linearGradient id="paint74_linear_34_5260" x1="324.868" y1="155.618" x2="238.361" y2="155.618" gradientUnits="userSpaceOnUse">
<stop stop-color="#83A6FF" stop-opacity="0"/>
<stop offset="1" stop-color="#5A78FF"/>
</linearGradient>
<linearGradient id="paint75_linear_34_5260" x1="324.867" y1="122.965" x2="238.362" y2="122.965" gradientUnits="userSpaceOnUse">
<stop stop-color="#83A6FF" stop-opacity="0"/>
<stop offset="1" stop-color="#5A78FF"/>
</linearGradient>
<linearGradient id="paint76_linear_34_5260" x1="324.868" y1="168.418" x2="238.361" y2="168.418" gradientUnits="userSpaceOnUse">
<stop stop-color="#83A6FF" stop-opacity="0"/>
<stop offset="1" stop-color="#5A78FF"/>
</linearGradient>
<linearGradient id="paint77_linear_34_5260" x1="324.868" y1="162.258" x2="238.361" y2="162.258" gradientUnits="userSpaceOnUse">
<stop stop-color="#83A6FF" stop-opacity="0"/>
<stop offset="1" stop-color="#5A78FF"/>
</linearGradient>
<linearGradient id="paint78_linear_34_5260" x1="324.869" y1="174.975" x2="238.363" y2="174.975" gradientUnits="userSpaceOnUse">
<stop stop-color="#83A6FF" stop-opacity="0"/>
<stop offset="1" stop-color="#5A78FF"/>
</linearGradient>
<linearGradient id="paint79_linear_34_5260" x1="324.868" y1="174.975" x2="238.363" y2="174.975" gradientUnits="userSpaceOnUse">
<stop stop-color="#83A6FF" stop-opacity="0"/>
<stop offset="1" stop-color="#5A78FF"/>
</linearGradient>
<linearGradient id="paint80_linear_34_5260" x1="324.868" y1="174.975" x2="238.361" y2="174.975" gradientUnits="userSpaceOnUse">
<stop stop-color="#83A6FF" stop-opacity="0"/>
<stop offset="1" stop-color="#5A78FF"/>
</linearGradient>
<linearGradient id="paint81_linear_34_5260" x1="324.869" y1="174.928" x2="238.362" y2="174.928" gradientUnits="userSpaceOnUse">
<stop stop-color="#83A6FF" stop-opacity="0"/>
<stop offset="1" stop-color="#5A78FF"/>
</linearGradient>
<linearGradient id="paint82_linear_34_5260" x1="324.869" y1="172.945" x2="238.362" y2="172.945" gradientUnits="userSpaceOnUse">
<stop stop-color="#83A6FF" stop-opacity="0"/>
<stop offset="1" stop-color="#5A78FF"/>
</linearGradient>
<linearGradient id="paint83_linear_34_5260" x1="324.868" y1="174.975" x2="238.361" y2="174.975" gradientUnits="userSpaceOnUse">
<stop stop-color="#83A6FF" stop-opacity="0"/>
<stop offset="1" stop-color="#5A78FF"/>
</linearGradient>
<linearGradient id="paint84_linear_34_5260" x1="221.676" y1="34.9031" x2="236.206" y2="25.4572" gradientUnits="userSpaceOnUse">
<stop stop-color="#83A6FF"/>
<stop offset="1" stop-color="#5A78FF"/>
</linearGradient>
<linearGradient id="paint85_linear_34_5260" x1="231.089" y1="33.2242" x2="234.275" y2="22.9817" gradientUnits="userSpaceOnUse">
<stop stop-color="#83A6FF"/>
<stop offset="1" stop-color="#5A78FF"/>
</linearGradient>
<linearGradient id="paint86_linear_34_5260" x1="119.99" y1="31.1507" x2="114.904" y2="43.9703" gradientUnits="userSpaceOnUse">
<stop stop-color="#FF66A9"/>
<stop offset="1" stop-color="#F53689"/>
</linearGradient>
<linearGradient id="paint87_linear_34_5260" x1="114.643" y1="36.5719" x2="117.277" y2="44.7157" gradientUnits="userSpaceOnUse">
<stop stop-color="#FF66A9"/>
<stop offset="1" stop-color="#F53689"/>
</linearGradient>
<linearGradient id="paint88_linear_34_5260" x1="107.154" y1="52.0299" x2="252.002" y2="52.0299" gradientUnits="userSpaceOnUse">
<stop stop-color="#6F88FF"/>
<stop offset="1" stop-color="#6E88FF" stop-opacity="0"/>
</linearGradient>
<linearGradient id="paint89_linear_34_5260" x1="189.809" y1="112.648" x2="171.899" y2="94.6518" gradientUnits="userSpaceOnUse">
<stop offset="0.0113208" stop-color="#C2D1FF"/>
<stop offset="1" stop-color="white"/>
</linearGradient>
<linearGradient id="paint90_linear_34_5260" x1="243.042" y1="163.137" x2="231.748" y2="154.157" gradientUnits="userSpaceOnUse">
<stop stop-color="#FF66A9"/>
<stop offset="1" stop-color="#F53689"/>
</linearGradient>
<linearGradient id="paint91_linear_34_5260" x1="239.191" y1="156.194" x2="230.22" y2="156.412" gradientUnits="userSpaceOnUse">
<stop stop-color="#FF66A9"/>
<stop offset="1" stop-color="#F53689"/>
</linearGradient>
</defs>
</svg>
