<svg width="360" height="197" viewBox="0 0 360 197" fill="none" xmlns="http://www.w3.org/2000/svg">
<path d="M179.258 175.399C221.317 175.399 255.411 141.686 255.411 100.1C255.411 58.5131 221.317 24.8008 179.258 24.8008C137.2 24.8008 103.105 58.5131 103.105 100.1C103.105 141.686 137.2 175.399 179.258 175.399Z" fill="#EA4054"/>
<path d="M206.438 19.2205C207.126 18.5992 207.173 17.5446 206.545 16.8648C205.916 16.185 204.85 16.1377 204.163 16.7588C203.475 17.38 203.428 18.4346 204.056 19.1144C204.684 19.7941 205.751 19.8417 206.438 19.2205Z" fill="#2A2E37"/>
<path fill-rule="evenodd" clip-rule="evenodd" d="M175.63 174.952C175.734 173.641 176.213 172.389 177.37 171.257C178.502 170.151 179.634 169.045 180.765 167.572C183.45 164.62 186.434 165.461 189.981 166.461C190.422 166.585 190.871 166.712 191.329 166.833C196.63 168.053 198.321 163.731 200.88 157.197C201.417 155.827 201.992 154.359 202.646 152.824C204.936 148.346 201.547 146.366 197.9 144.235C197.343 143.909 196.782 143.581 196.233 143.239C193.014 141.353 193.09 138.392 193.183 134.817C193.198 134.201 193.215 133.567 193.215 132.917C192.862 129.123 195.728 127.426 198.493 125.79C201.639 123.927 204.653 122.142 202.646 117.433C202.154 116.279 201.701 115.17 201.271 114.116C198.397 107.082 196.528 102.509 190.951 103.792C190.457 103.923 189.975 104.06 189.503 104.194C186 105.186 183.047 106.022 180.388 103.423C179.651 102.612 178.89 101.912 178.174 101.251C175.958 99.2084 174.159 97.5495 174.729 94.2066C177.074 84.3858 176.445 84.1574 165.974 80.3579C164.652 79.8785 163.174 79.3422 161.526 78.7225C156.709 76.9573 154.989 79.8873 153.184 82.9608C151.596 85.6651 149.943 88.4804 146.058 88.3079C145.175 88.3079 144.321 88.3499 143.501 88.3902C140.117 88.5569 137.317 88.6948 135.495 85.7273C130.109 77.1733 129.529 77.4273 119.011 82.0349C117.743 82.5905 116.33 83.2094 114.747 83.8839C109.564 86.0544 110.92 90.3549 112.398 95.0438C112.427 95.1333 112.455 95.2228 112.483 95.3125C113.379 98.8132 111.44 100.698 109.096 102.976C108.478 103.577 107.832 104.205 107.202 104.898C106.085 106.145 104.8 106.667 103.436 106.798C106.925 143.9 137.637 173.192 175.63 174.952ZM136.25 155.775C147.19 159.83 159.639 154.669 163.789 143.976C167.939 133.285 162.657 121.119 151.717 117.064C140.777 113.008 128.328 118.17 124.178 128.861C120.028 139.553 125.31 151.718 136.25 155.775Z" fill="url(#paint0_linear_34_5231)"/>
<path d="M231.87 75.2149C231.574 70.8099 232.167 67.8733 229.204 67.5796C227.13 67.2859 225.65 67.5796 224.761 65.8176C223.872 64.0555 222.687 62.5872 223.872 61.1189C226.834 56.7137 225.946 57.0074 220.911 52.3088C217.653 49.3721 216.171 55.5391 212.913 54.0708C211.136 53.1899 209.358 53.1899 208.766 51.1341C207.581 46.1418 207.581 46.7291 200.472 47.0227C197.807 47.0227 197.807 49.3721 197.807 51.7214C197.51 53.7771 196.029 54.0708 193.956 54.9517C190.697 56.7137 188.624 50.8404 185.662 54.0708C184.181 55.5391 182.996 57.0074 181.811 58.7695C180.923 61.1189 182.996 61.7061 184.181 63.7618C184.181 63.7618 184.181 63.7618 184.181 64.0555C184.477 64.6429 184.181 65.2302 184.181 65.8176C184.181 66.1113 183.885 66.6985 183.885 66.9922C183.292 68.4605 183.292 69.6353 181.515 69.9288C176.479 70.8099 177.072 71.1036 177.368 78.1516C177.664 82.5567 182.996 79.3264 184.477 82.5567C185.07 83.7313 186.254 85.4934 185.662 86.668C185.366 87.8426 184.181 88.7237 183.885 89.8983C182.404 92.5415 185.07 94.0098 187.736 96.359C190.994 99.2957 192.474 93.1287 195.732 94.597C199.584 96.0653 199.287 95.1844 200.175 99.5894C200.769 102.526 204.323 101.645 208.173 101.351C212.616 101.058 209.358 95.7718 212.616 94.3033C213.209 94.0098 214.098 93.7161 214.69 93.4224C216.468 92.5415 217.653 93.7161 219.429 94.597C222.096 96.359 223.576 93.7161 226.539 90.192C228.315 88.1363 226.539 86.668 225.057 84.906C223.872 83.4376 224.761 81.9693 225.354 79.9136C226.539 76.9769 232.167 79.6199 231.87 75.2149ZM211.431 80.7947C207.878 84.6123 201.953 85.1997 197.807 81.6756C193.956 78.1516 193.364 72.2783 196.917 68.1668C200.472 64.3492 206.397 63.7618 210.543 67.2859C214.394 70.8099 214.986 76.6832 211.431 80.7947Z" fill="url(#paint1_linear_34_5231)"/>
<path d="M86.8462 98.6417C83.9537 100.043 82.751 103.491 84.1598 106.344C85.5687 109.196 89.0556 110.373 91.9481 108.971C94.8406 107.57 96.0433 104.122 94.6345 101.269C93.2257 98.4168 89.7387 97.2403 86.8462 98.6417Z" fill="#333849"/>
<path d="M200.072 182.308C197.956 182.373 196.287 184.118 196.345 186.208C196.401 188.297 198.164 189.94 200.28 189.877C202.396 189.813 204.065 188.067 204.007 185.978C203.949 183.888 202.188 182.246 200.072 182.308Z" fill="#333849"/>
<path d="M188.507 191.853C187.068 191.896 185.934 193.083 185.973 194.504C186.012 195.926 187.209 197.042 188.648 196.999C190.087 196.955 191.222 195.769 191.182 194.347C191.144 192.926 189.946 191.809 188.507 191.853Z" fill="#333849"/>
<path d="M79.0981 123.085C77.8801 123.675 77.3738 125.127 77.967 126.328C78.5601 127.529 80.0284 128.024 81.2462 127.434C82.4641 126.844 82.9705 125.392 82.3772 124.191C81.7842 122.99 80.3159 122.495 79.0981 123.085Z" fill="#333849"/>
<path d="M128.291 174.191C127.454 174.596 127.106 175.596 127.513 176.421C127.921 177.248 128.931 177.588 129.769 177.182C130.607 176.777 130.955 175.778 130.547 174.952C130.139 174.125 129.129 173.785 128.291 174.191Z" fill="#2A2E37"/>
<g filter="url(#filter0_d_34_5231)">
<path d="M189.106 21.5623L172.175 39.3002C166.917 44.7381 158.516 45.3733 153.276 40.6103C148.036 35.8475 147.953 27.691 153.211 22.2531L170.142 4.5151C175.4 -0.92285 183.8 -1.55792 189.04 3.20491C194.332 7.82318 194.364 16.1242 189.106 21.5623Z" fill="#5E6882"/>
</g>
<path d="M185.441 19.5031C188.659 16.0514 188.391 10.6054 184.844 7.33921C181.296 4.07281 175.811 4.22303 172.593 7.6746C169.375 11.1263 169.642 16.5723 173.19 19.8387C176.737 23.1049 182.222 22.9547 185.441 19.5031Z" fill="#2A2E37"/>
<g filter="url(#filter1_d_34_5231)">
<path d="M130.811 46.0257L125.847 50.612C125.256 51.1446 124.333 51.3292 123.539 51.0734L117.64 49.2677C116.846 49.0118 116.182 48.3155 116.093 47.5317L114.682 41.6773C114.479 40.8888 114.737 40.0078 115.328 39.475L120.292 34.8889C120.647 34.5692 120.669 33.9014 120.336 33.5533C120.225 33.4371 120 33.3164 119.771 33.3068C115.323 32.6762 110.923 34.0537 107.734 36.9304C103.715 40.6641 102.154 46.2835 103.701 51.4747L70.272 81.7383C67.4337 84.4067 67.1759 88.7427 69.945 91.6441C72.6033 94.4295 77.0663 94.6152 79.7866 92.0532L113.57 61.47C118.561 63.0149 123.988 61.7915 127.771 58.2709C131.078 55.2876 132.709 51.0086 132.391 46.7601C132.409 46.2037 131.848 45.8459 131.39 45.8269C131.162 45.8173 131.043 45.9239 130.811 46.0257ZM73.9681 87.799C72.9712 86.7544 73.0264 85.0849 74.0894 84.1261C75.1524 83.1672 76.7546 83.2338 77.7514 84.2783C78.7483 85.3229 78.6931 86.9924 77.6301 87.9512C76.5671 88.9101 74.965 88.8436 73.9681 87.799C73.9645 87.9104 73.9645 87.9104 73.9681 87.799Z" fill="#474E61"/>
</g>
<path opacity="0.4" d="M103.519 57.6992L78.8359 79.6969" stroke="#2A2E37" stroke-miterlimit="10"/>
<path opacity="0.4" d="M107.473 61.7637L82.6758 83.755" stroke="#2A2E37" stroke-miterlimit="10"/>
<path d="M269.581 49.9292C269.062 49.6041 268.285 49.6184 267.548 49.9111C266.272 50.7435 264.652 50.3551 263.854 49.2265C263.466 48.7317 263.358 48.0364 263.575 47.4188C263.793 46.8012 263.534 46.1367 262.865 45.8422L261.482 44.9755L259.274 47.8612L233.015 31.3911C232.67 31.1744 232.454 30.7879 232.411 30.5099L232.305 29.8146C232.218 29.2584 231.852 28.9025 231.356 28.7166L224.572 26.2207L221.062 30.8038L226.027 35.6762C226.394 36.0319 226.89 36.2179 227.495 36.0951L228.253 35.9416C228.706 35.8496 229.031 35.9273 229.377 36.144L255.635 52.614L253.425 55.4997L254.808 56.3666C255.325 56.6916 256.104 56.6773 256.688 56.4154C257.964 55.5829 259.586 55.9712 260.383 57.1C260.772 57.5947 260.878 58.29 260.661 58.9076C260.443 59.5252 260.854 60.159 261.371 60.4841L280.202 72.2949C283.138 74.137 287.528 73.2468 289.738 70.3611C289.738 70.3611 289.867 70.1913 289.846 70.0523C291.883 67.0583 291.153 63.3345 288.217 61.4926L269.581 49.9292Z" fill="#474E61"/>
<path opacity="0.4" d="M265.298 58.4707L279.465 67.7102" stroke="#2A2E37" stroke-miterlimit="10"/>
<path opacity="0.4" d="M267.716 55.0742L281.882 64.3136" stroke="#2A2E37" stroke-miterlimit="10"/>
<g filter="url(#filter2_d_34_5231)">
<path d="M253.519 100.324L220.314 120.569C218.508 121.67 217.961 123.968 219.08 125.742L239.685 158.37C240.805 160.144 243.144 160.682 244.948 159.582L278.155 139.336C279.959 138.236 280.506 135.937 279.387 134.164L258.784 101.536C257.664 99.7622 255.325 99.2239 253.519 100.324Z" fill="#5E6882"/>
</g>
<path d="M255.943 113.461L245.926 119.567C244.153 117.947 241.611 117.286 239.29 117.964C235.718 119.037 233.736 122.824 234.918 126.279L231.759 128.204C230.948 128.699 230.673 129.849 231.178 130.647C231.738 131.534 232.907 131.803 233.72 131.308L236.877 129.382C238.538 130.825 240.822 131.275 242.872 130.762C246.466 129.922 248.651 126.256 247.796 122.725L257.902 116.564C258.714 116.069 258.988 114.919 258.485 114.121C258.014 113.18 256.845 112.91 255.943 113.461ZM244.323 124.351C244.367 124.816 244.264 125.247 244.014 125.644C243.891 125.843 243.856 125.987 243.675 126.097C243.461 126.35 243.336 126.549 243.065 126.714C241.678 127.683 239.833 127.334 238.847 125.971C238.791 125.882 238.791 125.882 238.735 125.793C237.839 124.375 238.341 122.596 239.695 121.77C241.048 120.945 242.802 121.349 243.733 122.624C244.068 123.156 244.314 123.743 244.323 124.351ZM265.853 129.154L262.785 131.025C261.011 129.404 258.469 128.743 256.148 129.422C252.577 130.494 250.684 134.227 251.775 137.736L241.669 143.898C240.767 144.448 240.493 145.598 241.053 146.484C241.613 147.37 242.782 147.639 243.684 147.089L253.79 140.928C255.453 142.371 257.645 142.876 259.787 142.308C263.379 141.468 265.564 137.803 264.709 134.272L267.868 132.346C268.77 131.796 269.044 130.646 268.484 129.76C267.924 128.873 266.755 128.604 265.853 129.154ZM260.667 134.402C261.116 135.112 261.09 135.864 260.92 136.582C260.885 136.726 260.762 136.925 260.727 137.068C260.602 137.267 260.568 137.411 260.444 137.609C260.319 137.808 260.229 137.863 260.104 138.062C260.013 138.117 259.923 138.172 259.834 138.227C259.744 138.282 259.653 138.337 259.563 138.392C259.382 138.502 259.202 138.612 258.965 138.633C258.875 138.688 258.786 138.743 258.638 138.709C257.478 139.049 256.051 138.568 255.322 137.416C254.65 136.352 254.723 135.08 255.401 134.175C255.616 133.922 255.74 133.723 256.011 133.558C256.101 133.503 256.191 133.448 256.282 133.393C257.725 132.513 259.536 133.005 260.375 134.335C260.702 134.259 260.759 134.347 260.667 134.402Z" fill="#2A2E37"/>
<defs>
<filter id="filter0_d_34_5231" x="145.307" y="0" width="51.7227" height="51.8153" filterUnits="userSpaceOnUse" color-interpolation-filters="sRGB">
<feFlood flood-opacity="0" result="BackgroundImageFix"/>
<feColorMatrix in="SourceAlpha" type="matrix" values="0 0 0 0 0 0 0 0 0 0 0 0 0 0 0 0 0 0 127 0" result="hardAlpha"/>
<feOffset dy="4"/>
<feGaussianBlur stdDeviation="2"/>
<feComposite in2="hardAlpha" operator="out"/>
<feColorMatrix type="matrix" values="0 0 0 0 0 0 0 0 0 0 0 0 0 0 0 0 0 0 0.25 0"/>
<feBlend mode="normal" in2="BackgroundImageFix" result="effect1_dropShadow_34_5231"/>
<feBlend mode="normal" in="SourceGraphic" in2="effect1_dropShadow_34_5231" result="shape"/>
</filter>
<filter id="filter1_d_34_5231" x="46" y="22.1562" width="108.43" height="104.704" filterUnits="userSpaceOnUse" color-interpolation-filters="sRGB">
<feFlood flood-opacity="0" result="BackgroundImageFix"/>
<feColorMatrix in="SourceAlpha" type="matrix" values="0 0 0 0 0 0 0 0 0 0 0 0 0 0 0 0 0 0 127 0" result="hardAlpha"/>
<feOffset dy="11"/>
<feGaussianBlur stdDeviation="11"/>
<feColorMatrix type="matrix" values="0 0 0 0 0 0 0 0 0 0 0 0 0 0 0 0 0 0 0.27 0"/>
<feBlend mode="normal" in2="BackgroundImageFix" result="effect1_dropShadow_34_5231"/>
<feBlend mode="normal" in="SourceGraphic" in2="effect1_dropShadow_34_5231" result="shape"/>
</filter>
<filter id="filter2_d_34_5231" x="214.5" y="99.7538" width="69.4673" height="68.3983" filterUnits="userSpaceOnUse" color-interpolation-filters="sRGB">
<feFlood flood-opacity="0" result="BackgroundImageFix"/>
<feColorMatrix in="SourceAlpha" type="matrix" values="0 0 0 0 0 0 0 0 0 0 0 0 0 0 0 0 0 0 127 0" result="hardAlpha"/>
<feOffset dy="4"/>
<feGaussianBlur stdDeviation="2"/>
<feComposite in2="hardAlpha" operator="out"/>
<feColorMatrix type="matrix" values="0 0 0 0 0 0 0 0 0 0 0 0 0 0 0 0 0 0 0.25 0"/>
<feBlend mode="normal" in2="BackgroundImageFix" result="effect1_dropShadow_34_5231"/>
<feBlend mode="normal" in="SourceGraphic" in2="effect1_dropShadow_34_5231" result="shape"/>
</filter>
<linearGradient id="paint0_linear_34_5231" x1="153.413" y1="78.1895" x2="153.413" y2="174.952" gradientUnits="userSpaceOnUse">
<stop stop-color="#FEB0B9"/>
<stop offset="1" stop-color="white"/>
</linearGradient>
<linearGradient id="paint1_linear_34_5231" x1="204.531" y1="46.8359" x2="204.531" y2="101.706" gradientUnits="userSpaceOnUse">
<stop stop-color="#FEB0B9"/>
<stop offset="1" stop-color="white"/>
</linearGradient>
</defs>
</svg>
