<svg width="645" height="244" viewBox="0 0 645 244" fill="none" xmlns="http://www.w3.org/2000/svg">
<path d="M134.379 8C71.6269 8 71.6269 128.949 8.875 128.949V243.998H636.394V199.749C573.642 199.749 573.642 52.2497 510.89 52.2497C448.138 52.2497 448.138 193.849 385.386 193.849C322.634 193.849 322.634 199.749 259.883 199.749C197.131 199.749 197.131 8 134.379 8Z" fill="url(#paint0_linear_218_1123)"/>
<path d="M8.875 128.949C71.6269 128.949 71.6269 8 134.379 8C197.131 8 197.131 199.749 259.883 199.749C322.634 199.749 322.634 193.849 385.386 193.849C448.138 193.849 448.138 52.2497 510.89 52.2497C573.642 52.2497 573.642 199.749 636.394 199.749M636.394 199.749V199.749Z" stroke="#6FD195"/>
<circle opacity="0.25" cx="8.875" cy="128.949" r="8" fill="#6FD195"/>
<circle cx="8.875" cy="128.949" r="3.5" fill="#6FD195" stroke="white"/>
<circle opacity="0.25" cx="134.379" cy="8" r="8" fill="#6FD195"/>
<circle cx="134.379" cy="8" r="3.5" fill="#6FD195" stroke="white"/>
<circle opacity="0.25" cx="259.882" cy="199.748" r="8" fill="#6FD195"/>
<circle cx="259.882" cy="199.748" r="3.5" fill="#6FD195" stroke="white"/>
<circle opacity="0.25" cx="385.386" cy="193.85" r="8" fill="#6FD195"/>
<circle cx="385.386" cy="193.85" r="3.5" fill="#6FD195" stroke="white"/>
<circle opacity="0.25" cx="510.89" cy="52.25" r="8" fill="#6FD195"/>
<circle cx="510.89" cy="52.25" r="3.5" fill="#6FD195" stroke="white"/>
<circle opacity="0.25" cx="636.394" cy="199.748" r="8" fill="#6FD195"/>
<circle cx="636.394" cy="199.748" r="3.5" fill="#6FD195" stroke="white"/>
<path d="M134.379 55.2021C71.6269 55.2021 71.6269 78.8019 8.875 78.8019V244.001H636.394V134.852C573.642 134.852 573.642 37.5022 510.89 37.5022C448.138 37.5022 448.138 13.9023 385.386 13.9023C322.634 13.9023 322.634 19.8023 259.883 19.8023C197.131 19.8023 197.131 55.2021 134.379 55.2021Z" fill="url(#paint1_linear_218_1123)"/>
<path d="M8.875 78.8019C71.6269 78.8019 71.6269 55.2021 134.379 55.2021C197.131 55.2021 197.131 19.8023 259.883 19.8023C322.634 19.8023 322.634 13.9023 385.386 13.9023C448.138 13.9023 448.138 37.5022 510.89 37.5022C573.642 37.5022 573.642 134.852 636.394 134.852M636.394 134.852V134.852Z" stroke="#7086FD"/>
<circle opacity="0.25" cx="8.875" cy="78.8027" r="8" fill="#7086FD"/>
<circle cx="8.875" cy="78.8027" r="3.5" fill="#7086FD" stroke="white"/>
<circle opacity="0.25" cx="134.379" cy="55.2012" r="8" fill="#7086FD"/>
<circle cx="134.379" cy="55.2012" r="3.5" fill="#7086FD" stroke="white"/>
<circle opacity="0.25" cx="259.882" cy="19.8027" r="8" fill="#7086FD"/>
<circle cx="259.882" cy="19.8027" r="3.5" fill="#7086FD" stroke="white"/>
<circle opacity="0.25" cx="385.386" cy="13.9023" r="8" fill="#7086FD"/>
<circle cx="385.386" cy="13.9023" r="3.5" fill="#7086FD" stroke="white"/>
<circle opacity="0.25" cx="510.89" cy="37.502" r="8" fill="#7086FD"/>
<circle cx="510.89" cy="37.502" r="3.5" fill="#7086FD" stroke="white"/>
<circle opacity="0.25" cx="636.394" cy="134.852" r="8" fill="#7086FD"/>
<circle cx="636.394" cy="134.852" r="3.5" fill="#7086FD" stroke="white"/>
<defs>
<linearGradient id="paint0_linear_218_1123" x1="322.634" y1="8" x2="322.634" y2="243.998" gradientUnits="userSpaceOnUse">
<stop stop-color="#6FD195" stop-opacity="0.3"/>
<stop offset="1" stop-color="#6FD195" stop-opacity="0.05"/>
</linearGradient>
<linearGradient id="paint1_linear_218_1123" x1="322.634" y1="13.9023" x2="322.634" y2="244.001" gradientUnits="userSpaceOnUse">
<stop stop-color="#7086FD" stop-opacity="0.3"/>
<stop offset="1" stop-color="#7086FD" stop-opacity="0.05"/>
</linearGradient>
</defs>
</svg>
