<svg width="360" height="194" viewBox="0 0 360 194" fill="none" xmlns="http://www.w3.org/2000/svg">
<path d="M157.283 132.468L82.794 152.428C81.0856 152.885 79.3531 151.887 78.8958 150.18L49.8228 41.6782C49.3657 39.9722 50.3668 38.2412 52.0752 37.7834L126.564 17.8243C128.273 17.3664 130.005 18.3649 130.462 20.0709L159.535 128.573C159.992 130.28 158.991 132.011 157.283 132.468Z" fill="#474E61"/>
<path d="M120.171 82.8024C120.262 83.1434 120.308 83.3144 120.229 83.7011C120.195 84.2588 120.378 84.9408 120.344 85.4985C120.265 85.8852 120.31 86.0562 120.231 86.4429C120.197 87.0007 120.164 87.5584 119.959 88.1619L120.005 88.3319C119.88 88.5486 119.971 88.8896 119.846 89.1064C119.721 89.3221 119.641 89.7098 119.516 89.9256L126.047 93.113C126.126 92.7263 126.251 92.5095 126.331 92.1228C126.615 91.1325 126.899 90.1423 127.012 89.1978C127.091 88.8101 127.045 88.6401 127.125 88.2533C127.238 87.3079 127.351 86.3634 127.464 85.419C127.419 85.249 127.498 84.8612 127.452 84.6912C127.486 84.1335 127.349 83.6216 127.382 83.0638C127.337 82.8938 127.416 82.5061 127.37 82.3361C127.325 82.1652 127.233 81.8242 127.358 81.6074L127.313 81.4374C127.267 81.2665 127.176 80.9255 127.13 80.7545L120.125 82.6314L120.171 82.8024ZM108.827 99.9207C100.627 102.118 92.01 97.2959 89.816 89.1077C87.7589 81.4305 91.751 73.7775 98.8232 70.7862L96.949 63.7913C86.0726 67.6199 79.9193 79.5081 82.9821 90.9388C86.2277 103.052 98.7879 110.29 110.918 107.04C116.898 105.438 121.725 101.585 124.603 96.6088L118.072 93.4214C115.979 96.5426 112.757 98.8678 108.827 99.9207ZM100.878 62.7384L102.753 69.7333C109.815 68.7551 116.528 72.6244 119.165 79.0488L126.17 77.1719C122.482 66.8239 111.699 60.7532 100.878 62.7384Z" fill="#2C313D"/>
<path d="M126.34 77.1269L119.336 79.0037C116.653 72.4084 109.769 68.5848 102.923 69.6882L101.049 62.6934C111.699 60.7539 122.481 66.8246 126.34 77.1269Z" fill="#EA4054"/>
<path d="M127.346 80.8798C127.391 81.0508 127.483 81.3918 127.528 81.5618L127.574 81.7327C127.62 81.9037 127.711 82.2447 127.586 82.4605C127.632 82.6314 127.723 82.9724 127.598 83.1891C127.565 83.7468 127.702 84.2588 127.668 84.8165C127.714 84.9865 127.634 85.3733 127.68 85.5442C127.567 86.4887 127.624 87.3874 127.34 88.3776C127.261 88.7654 127.307 88.9354 127.227 89.3221C127.114 90.2666 126.83 91.2578 126.546 92.248C126.467 92.6348 126.342 92.8515 126.262 93.2383L119.515 89.9257C119.64 89.7099 119.72 89.3232 119.845 89.1064C119.97 88.8897 120.05 88.5029 120.004 88.332L119.958 88.162C119.992 87.6042 120.196 87.0008 120.23 86.443C120.31 86.0563 120.264 85.8853 120.343 85.4985C120.377 84.9408 120.365 84.2131 120.228 83.7012C120.136 83.3602 120.262 83.1434 120.17 82.8025L127.346 80.8798Z" fill="url(#paint0_linear_34_5049)"/>
<path d="M70.9635 51.5541L62.4212 53.843C61.9086 53.9803 61.2589 53.6059 61.1218 53.0941L60.8475 52.0705C60.7104 51.5586 61.0858 50.9095 61.5984 50.7722L70.1406 48.4833C70.6532 48.346 71.3028 48.7204 71.44 49.2322L71.7142 50.2558C71.8514 50.7677 71.476 51.4167 70.9635 51.5541Z" fill="#343A4E"/>
<path d="M129.734 35.8073L79.3353 49.3117C78.8227 49.449 78.173 49.0746 78.0358 48.5627L77.7616 47.5392C77.6244 47.0273 77.9999 46.3782 78.5124 46.2409L128.911 32.7365C129.424 32.5991 130.074 32.9734 130.212 33.4852L130.486 34.5088C130.623 35.0207 130.247 35.6698 129.734 35.8073Z" fill="#2C313D"/>
<path d="M73.6597 61.6205L65.1175 63.9094C64.6049 64.0467 63.9552 63.6723 63.8181 63.1605L63.5438 62.1369C63.4067 61.625 63.7821 60.976 64.2947 60.8386L72.8369 58.5497C73.3495 58.4124 73.9991 58.7868 74.1362 59.2986L74.4105 60.3222C74.5477 60.8341 74.1723 61.4831 73.6597 61.6205Z" fill="#343A4E"/>
<path d="M132.431 45.8718L82.0315 59.3762C81.519 59.5135 80.8693 59.1391 80.7321 58.6273L80.4579 57.6037C80.3207 57.0918 80.6962 56.4427 81.2087 56.3054L131.608 42.801C132.121 42.6636 132.771 43.0379 132.908 43.5497L133.182 44.5733C133.319 45.0852 132.943 45.7344 132.431 45.8718Z" fill="#2C313D"/>
<path d="M99.1389 121.17L93.3301 122.727L97.3985 137.91L103.207 136.353L99.1389 121.17Z" fill="url(#paint1_linear_34_5049)"/>
<path d="M108.999 115.6L103.19 117.156L108.036 135.24L113.845 133.684L108.999 115.6Z" fill="url(#paint2_linear_34_5049)"/>
<path d="M121.133 117.834L115.324 119.391L118.798 132.356L124.607 130.8L121.133 117.834Z" fill="url(#paint3_linear_34_5049)"/>
<path d="M132.869 119.262L127.061 120.818L129.392 129.518L135.201 127.962L132.869 119.262Z" fill="url(#paint4_linear_34_5049)"/>
<path d="M276.735 152.472L202.075 132.467C200.367 132.01 199.366 130.279 199.823 128.573L228.896 20.0709C229.353 18.3649 231.086 17.3662 232.794 17.824L307.283 37.7832C308.991 38.241 309.992 39.9721 309.535 41.6781L280.462 150.18C280.005 151.886 278.273 152.884 276.735 152.472Z" fill="#474E61"/>
<path d="M279.143 118.193L219.518 102.216C219.006 102.079 218.63 101.43 218.767 100.918L218.858 100.577C218.996 100.065 219.646 99.6902 220.158 99.8273L279.783 115.804C280.295 115.941 280.671 116.591 280.534 117.102L280.442 117.443C280.305 117.955 279.826 118.376 279.143 118.193Z" fill="#2C313D"/>
<path d="M277.178 125.53L217.552 109.553C217.04 109.416 216.664 108.766 216.801 108.255L216.893 107.914C217.03 107.402 217.68 107.028 218.192 107.165L277.817 123.142C278.329 123.279 278.705 123.927 278.568 124.439L278.477 124.781C278.34 125.292 277.861 125.713 277.178 125.53Z" fill="#2C313D"/>
<path d="M231.18 120.884L215.804 116.764C215.121 116.581 214.745 115.931 214.928 115.249C215.111 114.567 215.761 114.192 216.444 114.375L231.82 118.495C232.503 118.678 232.879 119.328 232.696 120.01C232.513 120.692 231.863 121.067 231.18 120.884Z" fill="#2C313D"/>
<path d="M237.259 98.1926L221.883 94.0724C221.2 93.8894 220.824 93.2401 221.007 92.5581C221.19 91.8752 221.84 91.5007 222.523 91.6837L237.9 95.8038C238.582 95.9868 238.958 96.6362 238.775 97.3191C238.592 98.0011 237.942 98.3756 237.259 98.1926Z" fill="#2C313D"/>
<path d="M293.006 52.7915C291.98 52.5166 290.818 52.7538 289.907 53.4238L282.425 49.225C282.129 48.9628 281.571 48.996 281.137 49.2456L264.246 58.9818C263.78 58.674 263.312 58.366 262.8 58.2288C262.288 58.0914 261.729 58.1245 261.171 58.1579L253.663 45.1751C253.925 44.8797 254.016 44.5385 254.154 44.0267C254.656 42.1501 253.484 40.3732 251.777 39.9156C250.068 39.4578 248.119 40.5812 247.662 42.2872C247.57 42.6284 247.433 43.1402 247.513 43.5272L236.901 49.6434C236.606 49.3815 236.093 49.244 235.751 49.1524C233.872 48.649 232.094 49.8181 231.636 51.5241C231.179 53.2301 232.305 55.1774 234.014 55.6352C235.723 56.0931 237.672 54.9698 238.129 53.2637C238.266 52.7519 238.186 52.3649 238.153 51.8073L248.764 45.691C249.23 45.9988 249.527 46.261 250.04 46.3984C250.551 46.5356 251.11 46.5025 251.498 46.4235L259.005 59.4061C258.743 59.7015 258.652 60.0427 258.56 60.3839C258.057 62.2606 259.229 64.0374 260.938 64.4952C262.817 64.9986 264.595 63.8294 265.052 62.1234C265.144 61.7822 265.235 61.4411 265.155 61.054L281.615 51.5677L288.458 55.4126C288.217 56.9938 289.218 58.7248 290.927 59.1827C292.806 59.6861 294.584 58.5169 295.041 56.811C295.886 55.0259 294.714 53.2491 293.006 52.7915ZM234.596 54.1457C233.742 53.9169 233.241 53.0512 233.47 52.1982C233.698 51.3452 234.565 50.846 235.419 51.0748C236.273 51.3036 236.774 52.1693 236.545 53.0223C236.362 53.7047 235.45 54.3745 234.596 54.1457ZM250.668 44.7382C249.813 44.5092 249.313 43.6439 249.541 42.7908C249.77 41.9378 250.636 41.4384 251.49 41.6675C252.344 41.8962 252.844 42.7617 252.616 43.6147C252.387 44.4677 251.692 45.0128 250.668 44.7382ZM261.69 63.0512C260.837 62.8224 260.337 61.957 260.565 61.104C260.794 60.251 261.659 59.7516 262.513 59.9804C263.368 60.2094 263.868 61.0748 263.64 61.9279C263.582 62.8267 262.716 63.326 261.69 63.0512ZM291.726 57.5683C290.871 57.3392 290.371 56.4739 290.6 55.6209C290.828 54.7679 291.694 54.2685 292.549 54.4975C293.403 54.7263 293.903 55.5917 293.674 56.4447C293.446 57.2977 292.58 57.7971 291.726 57.5683Z" fill="#EA4054"/>
<path d="M228.718 82.9206L225.3 82.0049C224.958 81.9133 224.709 81.4808 224.8 81.1395L229.28 64.4207C229.371 64.0794 229.804 63.8296 230.146 63.9213L233.563 64.837C233.904 64.9283 234.155 65.3611 234.063 65.7024L229.584 82.4212C229.492 82.7625 229.059 83.012 228.718 82.9206Z" fill="url(#paint5_linear_34_5049)"/>
<path d="M230.766 83.471L226.837 82.4181C226.495 82.3265 226.37 82.1101 226.461 81.7689L228.518 74.0918C228.61 73.7507 228.826 73.6259 229.168 73.7175L233.098 74.7704C233.44 74.862 233.565 75.0784 233.473 75.4196L231.416 83.0966C231.325 83.4378 230.937 83.5168 230.766 83.471Z" fill="#EA4054"/>
<path d="M237.601 85.3027L234.183 84.387C233.842 84.2956 233.592 83.8627 233.683 83.5216L236.792 71.9207C236.883 71.5795 237.317 71.3299 237.658 71.4213L241.075 72.337C241.416 72.4283 241.666 72.8612 241.575 73.2024L238.467 84.8032C238.375 85.1444 237.942 85.3941 237.601 85.3027Z" fill="url(#paint6_linear_34_5049)"/>
<path d="M246.484 87.6821L243.067 86.7666C242.725 86.675 242.475 86.2422 242.566 85.9011L244.532 78.5651C244.623 78.224 245.057 77.9744 245.399 78.0661L248.815 78.9815C249.157 79.0731 249.408 79.5059 249.316 79.8471L247.351 87.183C247.259 87.5242 246.826 87.7737 246.484 87.6821Z" fill="url(#paint7_linear_34_5049)"/>
<path d="M255.368 90.0632L251.951 89.1477C251.609 89.0561 251.36 88.6236 251.451 88.2823L255.154 74.4637C255.245 74.1225 255.678 73.8726 256.02 73.9642L259.436 74.8797C259.778 74.9713 260.029 75.4042 259.937 75.7453L256.235 89.564C256.143 89.9052 255.881 90.2006 255.368 90.0632Z" fill="url(#paint8_linear_34_5049)"/>
<path d="M264.423 92.489L261.007 91.5735C260.665 91.4819 260.415 91.049 260.506 90.7079L262.746 82.3484C262.837 82.0072 263.271 81.7576 263.613 81.8493L267.029 82.7647C267.371 82.8563 267.621 83.2889 267.529 83.6301L265.289 91.9895C265.198 92.3307 264.765 92.5806 264.423 92.489Z" fill="url(#paint9_linear_34_5049)"/>
<path d="M273.309 94.8691L269.891 93.9534C269.549 93.8618 269.3 93.4291 269.391 93.088L272.5 81.4871C272.591 81.146 273.024 80.8961 273.366 80.9877L276.783 81.9034C277.124 81.9947 277.374 82.4276 277.283 82.7688L274.175 94.3697C274.083 94.7108 273.65 94.9605 273.309 94.8691Z" fill="url(#paint10_linear_34_5049)"/>
<path d="M282.192 97.2504L278.774 96.3347C278.433 96.2431 278.183 95.8106 278.274 95.4694L280.24 88.1335C280.331 87.7923 280.764 87.5425 281.106 87.6342L284.523 88.5499C284.864 88.6412 285.115 89.074 285.023 89.4152L283.058 96.7511C282.966 97.0923 282.533 97.3418 282.192 97.2504Z" fill="url(#paint11_linear_34_5049)"/>
<path d="M239.65 85.8517L235.55 84.753C235.38 84.7075 235.255 84.4911 235.3 84.3204L236.535 79.7142C236.58 79.5436 236.797 79.4189 236.967 79.4644L241.067 80.5631C241.238 80.6089 241.364 80.8253 241.318 80.9959L240.084 85.6021C240.038 85.7728 239.821 85.8975 239.65 85.8517Z" fill="#EA4054"/>
<path d="M248.706 88.2789L244.435 87.1344C244.264 87.0886 244.139 86.8722 244.184 86.7016L244.779 84.4838C244.824 84.3132 245.041 84.1884 245.212 84.2342L249.483 85.3787C249.654 85.4245 249.78 85.6409 249.734 85.8116L249.14 88.0293C248.923 88.1541 248.877 88.3247 248.706 88.2789Z" fill="#EA4054"/>
<path d="M257.59 90.6588L253.49 89.5601C253.32 89.5145 253.195 89.2981 253.24 89.1275L254.109 85.8861C254.154 85.7155 254.371 85.5907 254.541 85.6363L258.642 86.735C258.812 86.7808 258.938 86.9972 258.892 87.1678L258.023 90.4092C257.978 90.5798 257.932 90.7504 257.59 90.6588Z" fill="#EA4054"/>
<path d="M266.475 93.0381L262.545 91.9853C262.375 91.9394 262.249 91.723 262.295 91.5525L263.895 85.5814C263.941 85.4108 264.157 85.286 264.328 85.3319L268.258 86.3847C268.429 86.4305 268.554 86.6469 268.508 86.8175L266.908 92.7886C267.033 93.005 266.817 93.1298 266.475 93.0381Z" fill="#EA4054"/>
<path d="M275.871 95.5557L271.429 94.3656C271.258 94.3198 271.258 94.3198 271.304 94.1493L271.578 93.1257C271.624 92.9551 271.624 92.9551 271.795 93.0009L276.236 94.1909C276.407 94.2367 276.407 94.2368 276.362 94.4073L276.133 95.2603C276.087 95.4309 276.042 95.6015 275.871 95.5557Z" fill="#EA4054"/>
<path d="M284.754 97.9377L280.312 96.7476C280.312 96.7476 280.141 96.7018 280.187 96.5309L280.324 96.0184C280.324 96.0184 280.37 95.8477 280.541 95.8935L284.982 97.0835C284.982 97.0835 285.153 97.1293 285.108 97.3001L284.754 97.9377Z" fill="#EA4054"/>
<path d="M225.609 173.882C212.742 174.245 197.157 173.882 186.283 173.7C175.41 173.882 159.824 174.245 146.957 173.882C159.643 166.615 164.173 152.991 164.898 144.09H207.668C208.574 152.991 212.924 166.615 225.609 173.882Z" fill="url(#paint12_linear_34_5049)"/>
<path d="M267.291 30.7337V142.635C267.291 145.359 265.117 147.358 262.58 147.358H110.712C107.993 147.358 106 145.178 106 142.635V30.7337C106 28.0089 108.175 26.0106 110.712 26.0106H262.58C265.117 25.829 267.291 28.0089 267.291 30.7337Z" fill="#353B4A"/>
<path d="M267.291 30.7337V127.012H106V30.7337C106 28.0089 108.175 26.0106 110.712 26.0106H262.58C265.117 25.829 267.291 28.0089 267.291 30.7337Z" fill="#262A31"/>
<path d="M261.13 32.0059H111.438V121.745H261.13V32.0059Z" fill="#474E61"/>
<path d="M120.318 42.1782C121.619 42.1782 122.674 41.1209 122.674 39.8166C122.674 38.5124 121.619 37.4551 120.318 37.4551C119.017 37.4551 117.962 38.5124 117.962 39.8166C117.962 41.1209 119.017 42.1782 120.318 42.1782Z" fill="#2A2E39"/>
<path d="M127.928 42.1782C129.229 42.1782 130.284 41.1209 130.284 39.8166C130.284 38.5124 129.229 37.4551 127.928 37.4551C126.627 37.4551 125.572 38.5124 125.572 39.8166C125.572 41.1209 126.627 42.1782 127.928 42.1782Z" fill="#2A2E39"/>
<path d="M135.541 42.1782C136.842 42.1782 137.896 41.1209 137.896 39.8166C137.896 38.5124 136.842 37.4551 135.541 37.4551C134.239 37.4551 133.185 38.5124 133.185 39.8166C133.185 41.1209 134.239 42.1782 135.541 42.1782Z" fill="#2A2E39"/>
<path d="M261.13 47.6289H143.696H119.774H111.438V121.745H143.696V48.7188H261.13V47.6289Z" fill="#2B2F3A"/>
<path d="M127.928 63.614C130.13 63.614 131.915 61.8247 131.915 59.6175C131.915 57.4103 130.13 55.6211 127.928 55.6211C125.727 55.6211 123.941 57.4103 123.941 59.6175C123.941 61.8247 125.727 63.614 127.928 63.614Z" fill="#474E61"/>
<path d="M138.802 69.6095H116.874C116.33 69.6095 115.968 69.2462 115.968 68.7012C115.968 68.1563 116.33 67.793 116.874 67.793H138.802C139.346 67.793 139.708 68.1563 139.708 68.7012C139.89 69.0646 139.346 69.6095 138.802 69.6095Z" fill="#474E61"/>
<path d="M138.802 75.2404H116.874C116.33 75.2404 115.968 74.8771 115.968 74.3321C115.968 73.7871 116.33 73.4238 116.874 73.4238H138.802C139.346 73.4238 139.708 73.7871 139.708 74.3321C139.89 74.6954 139.346 75.2404 138.802 75.2404Z" fill="#474E61"/>
<path d="M138.802 80.8713H116.874C116.33 80.8713 115.968 80.5079 115.968 79.963C115.968 79.418 116.33 79.0547 116.874 79.0547H138.802C139.346 79.0547 139.708 79.418 139.708 79.963C139.89 80.3263 139.346 80.8713 138.802 80.8713Z" fill="#474E61"/>
<path d="M138.802 86.5041H116.874C116.33 86.5041 115.968 86.1407 115.968 85.5958C115.968 85.0508 116.33 84.6875 116.874 84.6875H138.802C139.346 84.6875 139.708 85.0508 139.708 85.5958C139.89 85.9591 139.346 86.5041 138.802 86.5041Z" fill="#474E61"/>
<path d="M138.802 92.135H116.874C116.33 92.135 115.968 91.7717 115.968 91.2267C115.968 90.6818 116.33 90.3184 116.874 90.3184H138.802C139.346 90.3184 139.708 90.6818 139.708 91.2267C139.89 91.59 139.346 92.135 138.802 92.135Z" fill="#474E61"/>
<path d="M128.291 97.7646H116.693C116.33 97.7646 115.968 97.4006 115.968 97.0376V96.4926C115.968 96.1296 116.33 95.7656 116.693 95.7656H128.291C128.654 95.7656 129.016 96.1296 129.016 96.4926V97.0376C128.835 97.4006 128.654 97.7646 128.291 97.7646Z" fill="#474E61"/>
<path d="M186.283 141.727C188.485 141.727 190.27 139.937 190.27 137.73C190.27 135.523 188.485 133.734 186.283 133.734C184.081 133.734 182.296 135.523 182.296 137.73C182.296 139.937 184.081 141.727 186.283 141.727Z" fill="#262A31"/>
<path d="M161.999 89.2285H153.663V109.393H161.999V89.2285Z" fill="#2B2F3A"/>
<path d="M182.478 79.9629H174.141V109.392H182.478V79.9629Z" fill="#2B2F3A"/>
<path d="M202.956 89.2285H194.62V109.393H202.956V89.2285Z" fill="#2B2F3A"/>
<path d="M223.435 65.793H215.098V109.391H223.435V65.793Z" fill="#2B2F3A"/>
<path d="M243.913 79.4199H235.577V109.393H243.913V79.4199Z" fill="#2B2F3A"/>
<path d="M161.999 104.852H153.663V109.394H161.999V104.852Z" fill="#789AFF"/>
<path d="M182.478 102.852H174.141V109.392H182.478V102.852Z" fill="#789AFF"/>
<path d="M202.956 104.852H194.62V109.394H202.956V104.852Z" fill="#789AFF"/>
<path d="M223.435 99.582H215.098V109.391H223.435V99.582Z" fill="#789AFF"/>
<path d="M243.913 102.672H235.577V109.393H243.913V102.672Z" fill="#789AFF"/>
<g filter="url(#filter0_d_34_5049)">
<path d="M158.556 106.305C154.932 106.305 151.851 105.215 150.038 104.67C148.589 104.125 147.864 102.672 148.226 101.219C148.77 99.7652 150.22 99.0392 151.669 99.4022C156.563 101.037 162.362 102.309 167.436 96.6772L168.886 95.0422C175.411 87.9579 179.216 83.7797 191.177 90.3194C200.782 95.7692 204.226 93.7712 208.031 87.5946C209.481 85.0513 210.568 82.3265 211.656 79.7833C213.649 74.6969 215.643 69.4288 221.08 70.1554H221.442C226.698 70.7004 233.04 71.427 241.014 60.3459C242.102 58.711 243.189 57.621 244.095 56.7128C245.183 55.6228 246.995 55.8045 247.901 56.8944C248.988 57.9844 248.807 59.8009 247.72 60.7092C246.995 61.2542 246.27 62.3441 245.364 63.6157C235.759 77.0584 226.516 76.1501 220.898 75.6051H220.536C219.267 75.4235 218.18 77.785 216.73 81.7815C215.643 84.5064 214.555 87.5946 212.743 90.5011C206.944 100.129 199.876 101.4 188.64 95.2242C180.485 90.6827 179.398 91.9543 173.055 98.8572L171.424 100.674C167.255 105.215 162.543 106.305 158.556 106.305Z" fill="url(#paint13_linear_34_5049)"/>
</g>
<path d="M164.899 61.7971H153.844C152.938 61.7971 152.395 61.0705 152.395 60.3439C152.395 59.4356 153.119 58.8906 153.844 58.8906H164.899C165.805 58.8906 166.349 59.6172 166.349 60.3439C166.349 61.2522 165.624 61.7971 164.899 61.7971Z" fill="#2B2F3A"/>
<path d="M174.866 68.8832H153.844C152.938 68.8832 152.395 68.1565 152.395 67.4299C152.395 66.5216 153.119 65.9766 153.844 65.9766H174.685C175.591 65.9766 176.135 66.7033 176.135 67.4299C176.316 68.1565 175.591 68.8832 174.866 68.8832Z" fill="#2B2F3A"/>
<path d="M148.226 176.059H224.522C225.61 176.059 226.516 175.15 226.516 174.061C226.516 172.971 225.61 172.062 224.522 172.062H148.226C147.139 172.062 146.232 172.971 146.232 174.061C146.232 175.15 147.139 176.059 148.226 176.059Z" fill="#353B4A"/>
<defs>
<filter id="filter0_d_34_5049" x="140.134" y="52.9805" width="116.497" height="66.3247" filterUnits="userSpaceOnUse" color-interpolation-filters="sRGB">
<feFlood flood-opacity="0" result="BackgroundImageFix"/>
<feColorMatrix in="SourceAlpha" type="matrix" values="0 0 0 0 0 0 0 0 0 0 0 0 0 0 0 0 0 0 127 0" result="hardAlpha"/>
<feOffset dy="5"/>
<feGaussianBlur stdDeviation="4"/>
<feColorMatrix type="matrix" values="0 0 0 0 0.1125 0 0 0 0 0.295916 0 0 0 0 1 0 0 0 0.22 0"/>
<feBlend mode="normal" in2="BackgroundImageFix" result="effect1_dropShadow_34_5049"/>
<feBlend mode="normal" in="SourceGraphic" in2="effect1_dropShadow_34_5049" result="shape"/>
</filter>
<linearGradient id="paint0_linear_34_5049" x1="119.33" y1="89.0228" x2="128.778" y2="86.4913" gradientUnits="userSpaceOnUse">
<stop stop-color="#83A6FF"/>
<stop offset="1" stop-color="#5A78FF"/>
</linearGradient>
<linearGradient id="paint1_linear_34_5049" x1="95.3224" y1="130.414" x2="101.082" y2="128.871" gradientUnits="userSpaceOnUse">
<stop stop-color="#83A6FF"/>
<stop offset="1" stop-color="#5A78FF"/>
</linearGradient>
<linearGradient id="paint2_linear_34_5049" x1="105.649" y1="126.167" x2="111.409" y2="124.624" gradientUnits="userSpaceOnUse">
<stop stop-color="#83A6FF"/>
<stop offset="1" stop-color="#5A78FF"/>
</linearGradient>
<linearGradient id="paint3_linear_34_5049" x1="117.029" y1="125.854" x2="122.788" y2="124.31" gradientUnits="userSpaceOnUse">
<stop stop-color="#83A6FF"/>
<stop offset="1" stop-color="#5A78FF"/>
</linearGradient>
<linearGradient id="paint4_linear_34_5049" x1="128.292" y1="125.101" x2="134.052" y2="123.557" gradientUnits="userSpaceOnUse">
<stop stop-color="#83A6FF"/>
<stop offset="1" stop-color="#5A78FF"/>
</linearGradient>
<linearGradient id="paint5_linear_34_5049" x1="226.954" y1="72.7681" x2="231.77" y2="74.0586" gradientUnits="userSpaceOnUse">
<stop stop-color="#83A6FF"/>
<stop offset="1" stop-color="#5A78FF"/>
</linearGradient>
<linearGradient id="paint6_linear_34_5049" x1="235.191" y1="77.7131" x2="240.007" y2="79.0036" gradientUnits="userSpaceOnUse">
<stop stop-color="#83A6FF"/>
<stop offset="1" stop-color="#5A78FF"/>
</linearGradient>
<linearGradient id="paint7_linear_34_5049" x1="243.548" y1="82.2159" x2="248.364" y2="83.5063" gradientUnits="userSpaceOnUse">
<stop stop-color="#83A6FF"/>
<stop offset="1" stop-color="#5A78FF"/>
</linearGradient>
<linearGradient id="paint8_linear_34_5049" x1="253.351" y1="81.3208" x2="258.166" y2="82.611" gradientUnits="userSpaceOnUse">
<stop stop-color="#83A6FF"/>
<stop offset="1" stop-color="#5A78FF"/>
</linearGradient>
<linearGradient id="paint9_linear_34_5049" x1="261.536" y1="86.4604" x2="266.353" y2="87.7509" gradientUnits="userSpaceOnUse">
<stop stop-color="#83A6FF"/>
<stop offset="1" stop-color="#5A78FF"/>
</linearGradient>
<linearGradient id="paint10_linear_34_5049" x1="270.882" y1="87.2748" x2="275.698" y2="88.5653" gradientUnits="userSpaceOnUse">
<stop stop-color="#83A6FF"/>
<stop offset="1" stop-color="#5A78FF"/>
</linearGradient>
<linearGradient id="paint11_linear_34_5049" x1="279.237" y1="91.7793" x2="284.053" y2="93.0698" gradientUnits="userSpaceOnUse">
<stop stop-color="#83A6FF"/>
<stop offset="1" stop-color="#5A78FF"/>
</linearGradient>
<linearGradient id="paint12_linear_34_5049" x1="186.115" y1="173.266" x2="186.115" y2="146.502" gradientUnits="userSpaceOnUse">
<stop stop-color="#474755"/>
<stop offset="0.9913" stop-color="#2F3338"/>
</linearGradient>
<linearGradient id="paint13_linear_34_5049" x1="148.113" y1="81.335" x2="248.479" y2="81.335" gradientUnits="userSpaceOnUse">
<stop stop-color="#83A6FF"/>
<stop offset="1" stop-color="#5A78FF"/>
</linearGradient>
</defs>
</svg>
