<svg width="26" height="25" viewBox="0 0 26 25" fill="none" xmlns="http://www.w3.org/2000/svg">
<path d="M25.0723 12.6193C25.0723 13.8141 22.7261 14.6198 22.3762 15.697C22.0144 16.8134 23.4257 18.8441 22.7502 19.7734C22.0686 20.7118 19.6952 19.9937 18.7573 20.6756C17.8285 21.3515 17.7833 23.8348 16.6674 24.1968C15.5908 24.5469 14.101 22.5765 12.9068 22.5765C11.7125 22.5765 10.2227 24.5469 9.14612 24.1968C8.03029 23.8348 7.98506 21.3515 7.05621 20.6756C6.11831 19.9937 3.7449 20.7118 3.06334 19.7734C2.38781 18.8441 3.79919 16.8134 3.4373 15.697C3.08747 14.6198 0.741211 13.8111 0.741211 12.6193C0.741211 11.4274 3.08747 10.6187 3.4373 9.54155C3.79919 8.42513 2.38781 6.39445 3.06334 5.46511C3.7449 4.52671 6.11831 5.24484 7.05621 4.56292C7.98506 3.88703 8.03029 1.40375 9.14612 1.04166C10.2227 0.691651 11.7125 2.66198 12.9068 2.66198C14.101 2.66198 15.5908 0.691651 16.6674 1.04166C17.7833 1.40375 17.8285 3.88703 18.7573 4.56292C19.6952 5.24484 22.0686 4.52671 22.7502 5.46511C23.4257 6.39445 22.0144 8.42513 22.3762 9.54155C22.7231 10.6157 25.0723 11.4244 25.0723 12.6193Z" stroke="white" stroke-width="1.5" stroke-miterlimit="10"/>
</svg>
