<svg width="209" height="41" viewBox="0 0 209 41" fill="none" xmlns="http://www.w3.org/2000/svg">
<path d="M38.9463 39.4998C49.1608 39.4998 57.4413 31.2088 57.4413 20.9814C57.4413 10.7539 49.1608 2.46289 38.9463 2.46289C28.7317 2.46289 20.4512 10.7539 20.4512 20.9814C20.4512 31.2088 28.7317 39.4998 38.9463 39.4998Z" fill="#D8D8D8"/>
<path d="M26.2681 27.0697C33.5959 27.0697 39.5362 21.1219 39.5362 13.7849C39.5362 6.44784 33.5959 0.5 26.2681 0.5C18.9403 0.5 13 6.44784 13 13.7849C13 21.1219 18.9403 27.0697 26.2681 27.0697Z" fill="#D8D8D8"/>
<path d="M36.2689 9.99851C36.2205 9.94224 36.1643 9.8912 36.1016 9.84277C36.2793 10.0077 36.4244 10.221 36.5381 10.4801C36.4675 10.2851 36.3774 10.1255 36.2689 9.99851Z" fill="#21202A"/>
<path d="M49.4664 11.8741C47.5738 10.0877 45.042 9.19385 41.871 9.19385H35.1135V9.4111C35.5095 9.45428 35.8389 9.59694 36.099 9.84036C36.1003 9.84036 36.1003 9.84167 36.1016 9.84298C36.1644 9.8914 36.2206 9.94244 36.2689 9.99871C36.3774 10.1257 36.4676 10.2853 36.5382 10.4803C36.6767 10.8533 36.746 11.3519 36.746 11.9749V15.2899L30.8027 10.5889C30.3217 10.212 30.0682 9.93459 30.042 9.75791C30.0943 9.54066 30.2956 9.43204 30.6485 9.43204V9.23965H23.8936V9.43204C24.1576 9.48569 24.3889 9.56553 24.5876 9.67022H24.5889C24.9013 9.83251 25.1327 10.0589 25.2856 10.3481C25.466 10.7015 25.5562 11.2446 25.5562 11.9749V22.6423C25.5562 23.3255 25.4568 23.828 25.2594 24.1487C25.0098 24.5504 24.5549 24.8083 23.8936 24.9208V25.1616H28.8827V24.9208C27.756 24.9208 27.1926 24.1526 27.1926 22.6174V11.1923L28.037 11.8466L35.2769 17.4584C35.9291 17.9649 36.3081 18.2947 36.4114 18.4478C36.6336 18.7776 36.746 19.36 36.746 20.195V22.6423C36.746 24.04 36.7669 25.1616 36.7669 25.1616C36.7146 25.4456 36.6362 25.6851 36.533 25.8788C36.2715 26.3473 35.7984 26.6496 35.1135 26.7857V27.0697H43.3036C46.2589 27.0697 48.5737 26.2164 50.2507 24.5125C51.6741 23.0598 52.3851 21.3323 52.3851 19.3299C52.3851 16.1811 51.4127 13.6959 49.4664 11.8741ZM48.3045 22.6737C47.7189 23.7835 46.9124 24.5858 45.8851 25.0805C44.9113 25.549 43.6826 25.7833 42.1952 25.7833C41.4031 25.7833 40.8032 25.5987 40.398 25.2297C39.9928 24.8606 39.7902 24.2468 39.7902 23.3909V12.3178C39.7902 11.5077 40.0019 10.9619 40.4254 10.6832C40.7038 10.5026 41.2227 10.4123 41.9795 10.4123C44.3127 10.4123 46.1229 11.3454 47.4117 13.2103C48.5476 14.8515 49.1148 16.8878 49.1148 19.3221C49.1148 20.5287 48.8443 21.6464 48.3045 22.6737Z" fill="#21202A"/>
<path d="M36.2689 9.99851C36.2205 9.94224 36.1643 9.8912 36.1016 9.84277C36.2793 10.0077 36.4244 10.221 36.5381 10.4801C36.4675 10.2851 36.3774 10.1255 36.2689 9.99851Z" fill="#21202A"/>
<path d="M49.4664 11.8741C47.5738 10.0877 45.042 9.19385 41.871 9.19385H35.1135V9.4111C35.5095 9.45428 35.8389 9.59694 36.099 9.84036C36.1003 9.84036 36.1003 9.84167 36.1016 9.84298C36.1644 9.8914 36.2206 9.94244 36.2689 9.99871C36.3774 10.1257 36.4676 10.2853 36.5382 10.4803C36.6767 10.8533 36.746 11.3519 36.746 11.9749V15.2899L30.8027 10.5889C30.3217 10.212 30.0682 9.93459 30.042 9.75791C30.0943 9.54066 30.2956 9.43204 30.6485 9.43204V9.23965H23.8936V9.43204C24.1576 9.48569 24.3889 9.56553 24.5876 9.67022H24.5889C24.9013 9.83251 25.1327 10.0589 25.2856 10.3481C25.466 10.7015 25.5562 11.2446 25.5562 11.9749V22.6423C25.5562 23.3255 25.4568 23.828 25.2594 24.1487C25.0098 24.5504 24.5549 24.8083 23.8936 24.9208V25.1616H28.8827V24.9208C27.756 24.9208 27.1926 24.1526 27.1926 22.6174V11.1923L28.037 11.8466L35.2769 17.4584C35.9291 17.9649 36.3081 18.2947 36.4114 18.4478C36.6336 18.7776 36.746 19.36 36.746 20.195V22.6423C36.746 24.04 36.7669 25.1616 36.7669 25.1616C36.7146 25.4456 36.6362 25.6851 36.533 25.8788C36.2715 26.3473 35.7984 26.6496 35.1135 26.7857V27.0697H43.3036C46.2589 27.0697 48.5737 26.2164 50.2507 24.5125C51.6741 23.0598 52.3851 21.3323 52.3851 19.3299C52.3851 16.1811 51.4127 13.6959 49.4664 11.8741ZM48.3045 22.6737C47.7189 23.7835 46.9124 24.5858 45.8851 25.0805C44.9113 25.549 43.6826 25.7833 42.1952 25.7833C41.4031 25.7833 40.8032 25.5987 40.398 25.2297C39.9928 24.8606 39.7902 24.2468 39.7902 23.3909V12.3178C39.7902 11.5077 40.0019 10.9619 40.4254 10.6832C40.7038 10.5026 41.2227 10.4123 41.9795 10.4123C44.3127 10.4123 46.1229 11.3454 47.4117 13.2103C48.5476 14.8515 49.1148 16.8878 49.1148 19.3221C49.1148 20.5287 48.8443 21.6464 48.3045 22.6737Z" fill="#21202A"/>
<path d="M26.3513 8.7295C27.3424 8.7295 28.1459 7.92501 28.1459 6.93262C28.1459 5.94023 27.3424 5.13574 26.3513 5.13574C25.3601 5.13574 24.5566 5.94023 24.5566 6.93262C24.5566 7.92501 25.3601 8.7295 26.3513 8.7295Z" fill="#21202A"/>
<path d="M63.6855 11.3896H67.8779V11.5303C67.4443 11.6182 67.1514 11.7998 66.999 12.0752C66.8408 12.3682 66.7617 12.708 66.7617 13.0947V20.9961C66.7617 22.1445 67.1338 22.751 67.8779 22.8154V23H63.6855V22.8154C64.1953 22.7275 64.5264 22.4932 64.6787 22.1123C64.7783 21.8779 64.8281 21.4473 64.8281 20.8203V13.6748C64.8281 13.0479 64.7783 12.5938 64.6787 12.3125C64.5146 11.8555 64.1836 11.5947 63.6855 11.5303V11.3896ZM77.9678 15.8018V13.3848C77.9678 12.6934 77.8594 12.2129 77.6426 11.9434C77.4727 11.7383 77.1855 11.6006 76.7812 11.5303V11.3896H80.2178V11.5303C79.8428 11.6182 79.5908 11.7324 79.4619 11.873C79.2217 12.1309 79.1016 12.5996 79.1016 13.2793V21.1631C79.1016 22.1943 79.4736 22.748 80.2178 22.8242V23H76.7812V22.8242C77.5723 22.7363 77.9678 22.1826 77.9678 21.1631V19.3789C77.9678 18.7695 77.8916 18.3447 77.7393 18.1045C77.6689 17.9932 77.4111 17.7529 76.9658 17.3838L71.4551 12.8135V21.1455C71.4551 22.2646 71.8389 22.8242 72.6064 22.8242V23H69.2051V22.8242C69.6562 22.7422 69.9668 22.5547 70.1367 22.2617C70.2715 22.0273 70.3389 21.6611 70.3389 21.1631V13.3848C70.3389 12.8516 70.2773 12.4561 70.1543 12.1982C69.9844 11.8525 69.668 11.6299 69.2051 11.5303V11.3896H73.8105V11.5303C73.5703 11.5303 73.4326 11.6094 73.3975 11.7676C73.415 11.8965 73.5879 12.0986 73.916 12.374L77.9678 15.8018ZM83.9268 18.3682C84.2842 19.6924 84.8408 20.6885 85.5967 21.3564C86.3174 21.9951 87.1201 22.3145 88.0049 22.3145C89.1592 22.3145 90.0996 21.8779 90.8262 21.0049C91.5117 20.1846 91.8545 19.1855 91.8545 18.0078C91.8545 16.5664 91.4619 15.2598 90.6768 14.0879C89.792 12.7695 88.6641 12.1104 87.293 12.1104C86.209 12.1104 85.3125 12.5908 84.6035 13.5518C83.959 14.4248 83.6367 15.4268 83.6367 16.5576C83.6367 17.0498 83.7334 17.6533 83.9268 18.3682ZM87.7061 11.1348C89.7451 11.1348 91.333 11.7822 92.4697 13.0771C93.4658 14.208 93.9639 15.6055 93.9639 17.2695C93.9639 19.0215 93.3223 20.4717 92.0391 21.6201C90.7969 22.7334 89.291 23.29 87.5215 23.29C85.7285 23.29 84.2695 22.6719 83.1445 21.4355C82.1133 20.2988 81.5977 18.96 81.5977 17.4189C81.5977 15.749 82.1133 14.3135 83.1445 13.1123C84.2754 11.7939 85.7461 11.1348 87.5566 11.1348H87.7061ZM100.846 21.1631L103.676 13.1299C103.77 12.8662 103.816 12.6289 103.816 12.418C103.816 11.8262 103.553 11.5303 103.025 11.5303V11.3896H106.119V11.5303C105.785 11.6299 105.521 11.8115 105.328 12.0752C105.199 12.251 105.056 12.5498 104.897 12.9717L101.663 21.7168C101.599 21.8398 101.549 22.0273 101.514 22.2793C101.561 22.6367 101.748 22.8154 102.076 22.8154V23H98.7188V22.8154C99.0586 22.8154 99.2285 22.6367 99.2285 22.2793C99.2285 22.2031 99.2139 22.0947 99.1846 21.9541C99.1729 21.8662 99.1436 21.7344 99.0967 21.5586L96.1611 12.9717C96.0439 12.6201 95.9062 12.3213 95.748 12.0752C95.543 11.7471 95.2969 11.5654 95.0098 11.5303V11.3896H98.8066V11.5303C98.3145 11.6006 98.0684 11.8965 98.0684 12.418L98.165 13.0068L100.846 21.1631ZM110.338 16.9355C111.721 16.9355 112.91 17.4014 113.906 18.333L111.946 12.6992L110.338 16.9355ZM110.092 17.7969L108.976 20.8906C108.964 20.9199 108.935 21.0635 108.888 21.3213C108.864 21.4385 108.832 21.6084 108.791 21.8311C108.791 22.4873 109.116 22.8154 109.767 22.8154V23H106.181V22.8154C106.813 22.751 107.344 22.1445 107.771 20.9961L110.865 12.6992C110.936 12.5117 110.971 12.3389 110.971 12.1807C110.971 11.835 110.786 11.6182 110.417 11.5303V11.3896H114.311V11.5303C113.982 11.6182 113.801 11.835 113.766 12.1807L113.906 12.7344L117.009 21.7168C117.108 22.0039 117.217 22.2266 117.334 22.3848C117.545 22.6719 117.776 22.8154 118.028 22.8154V23H114.038V22.8154C114.36 22.7334 114.58 22.5928 114.697 22.3936C114.82 22.1943 114.882 21.9395 114.882 21.6289C114.882 20.7383 114.445 19.8975 113.572 19.1064C112.605 18.2334 111.445 17.7969 110.092 17.7969ZM127.459 16.9355C128.842 16.9355 130.031 17.4014 131.027 18.333L129.067 12.6992L127.459 16.9355ZM127.213 17.7969L126.097 20.8906C126.085 20.9199 126.056 21.0635 126.009 21.3213C125.985 21.4385 125.953 21.6084 125.912 21.8311C125.912 22.4873 126.237 22.8154 126.888 22.8154V23H123.302V22.8154C123.935 22.751 124.465 22.1445 124.893 20.9961L127.986 12.6992C128.057 12.5117 128.092 12.3389 128.092 12.1807C128.092 11.835 127.907 11.6182 127.538 11.5303V11.3896H131.432V11.5303C131.104 11.6182 130.922 11.835 130.887 12.1807L131.027 12.7344L134.13 21.7168C134.229 22.0039 134.338 22.2266 134.455 22.3848C134.666 22.6719 134.897 22.8154 135.149 22.8154V23H131.159V22.8154C131.481 22.7334 131.701 22.5928 131.818 22.3936C131.941 22.1943 132.003 21.9395 132.003 21.6289C132.003 20.7383 131.566 19.8975 130.693 19.1064C129.727 18.2334 128.566 17.7969 127.213 17.7969ZM138.278 16.2148C138.36 15.8516 138.653 15.4414 139.157 14.9844C139.796 14.3984 140.464 14.1055 141.161 14.1055C141.413 14.1055 141.642 14.1406 141.847 14.2109L141.469 15.9775C141.117 15.7373 140.719 15.6172 140.273 15.6172C139.559 15.6172 139.025 16.001 138.674 16.7686C138.41 17.3428 138.278 18.0342 138.278 18.8428V21.04C138.278 21.6436 138.366 22.0801 138.542 22.3496C138.724 22.6133 138.996 22.7686 139.359 22.8154V23H135.448V22.8154C136.151 22.8154 136.503 22.2764 136.503 21.1982V16.2148C136.503 15.166 136.151 14.6416 135.448 14.6416V14.5361L137.883 14.2812C138.146 14.7852 138.278 15.4297 138.278 16.2148ZM149.546 14.1055L150.073 16.8213L149.977 16.8564C149.783 16.2939 149.417 15.8398 148.878 15.4941C148.339 15.1426 147.741 14.9668 147.085 14.9668C146.124 14.9668 145.395 15.3564 144.896 16.1357C144.48 16.7979 144.272 17.6387 144.272 18.6582C144.272 19.6543 144.615 20.5127 145.301 21.2334C145.992 21.9541 146.833 22.3145 147.823 22.3145C149.054 22.3145 150.018 21.7139 150.715 20.5127L150.847 20.583L149.977 23.1143L149.546 23.0439C148.72 23.1377 148.113 23.1846 147.727 23.1846C145.91 23.1846 144.542 22.6543 143.622 21.5938C142.778 20.6211 142.356 19.6191 142.356 18.5879C142.356 17.2168 142.726 16.1328 143.464 15.3359C144.226 14.5156 145.289 14.1055 146.654 14.1055C147.17 14.1055 147.899 14.1758 148.843 14.3164C148.972 14.3047 149.206 14.2344 149.546 14.1055ZM154.468 16.1006C155.118 15.4385 155.771 14.9404 156.428 14.6064C157.09 14.2725 157.69 14.1055 158.229 14.1055C159.589 14.1055 160.269 14.958 160.269 16.6631V21.2686C160.269 22.2998 160.623 22.8154 161.332 22.8154V23H157.474V22.8154C158.13 22.8154 158.458 22.2646 158.458 21.1631V17.542C158.458 16.8916 158.411 16.4229 158.317 16.1357C158.147 15.6318 157.808 15.3799 157.298 15.3799C156.466 15.3799 155.777 15.7197 155.232 16.3994C154.723 17.0322 154.468 17.7734 154.468 18.623V21.1631C154.468 22.2119 154.811 22.7744 155.496 22.8506V23H151.646V22.8154C152.35 22.7393 152.701 22.1885 152.701 21.1631V13.042C152.701 12.0342 152.35 11.5303 151.646 11.5303V11.3896L154.468 10.8975V16.1006ZM163.143 11.9082C163.143 11.5332 163.245 11.2168 163.45 10.959C163.661 10.6953 163.948 10.5635 164.312 10.5635C164.669 10.5635 164.959 10.7012 165.182 10.9766C165.393 11.2285 165.498 11.5391 165.498 11.9082C165.498 12.3477 165.354 12.6729 165.067 12.8838C164.845 13.0479 164.593 13.1299 164.312 13.1299C163.966 13.1299 163.685 13.0127 163.468 12.7783C163.251 12.5439 163.143 12.2539 163.143 11.9082ZM165.208 14.29V21.1982C165.208 21.6611 165.29 22.0479 165.454 22.3584C165.618 22.6631 165.891 22.8154 166.271 22.8154V23H162.387V22.8154C162.773 22.7803 163.049 22.6367 163.213 22.3848C163.359 22.1562 163.433 21.6465 163.433 20.8555V16.6631C163.433 15.8076 163.33 15.2539 163.125 15.002C163.014 14.8613 162.768 14.7559 162.387 14.6855V14.5361L165.208 14.29ZM171.729 21.5586L174.041 15.3799L174.094 15.002C174.094 14.6445 173.9 14.4658 173.514 14.4658V14.29H176.071V14.4658C175.837 14.4658 175.638 14.5625 175.474 14.7559C175.339 14.9141 175.201 15.166 175.061 15.5117L172.705 21.3389C172.465 21.8018 172.345 22.1621 172.345 22.4199C172.368 22.5781 172.415 22.6836 172.485 22.7363C172.562 22.7891 172.658 22.8154 172.775 22.8154V23H169.875V22.8154C170.115 22.8154 170.235 22.707 170.235 22.4902C170.235 22.3496 170.206 22.1826 170.147 21.9893C170.142 21.96 170.124 21.9189 170.095 21.8662L167.713 15.2217C167.531 14.7178 167.262 14.4658 166.904 14.4658V14.29H170.341V14.4658C169.942 14.4658 169.714 14.6943 169.655 15.1514L169.77 15.5117L171.729 21.5586ZM178.778 18.2627L183.516 16.8916C183.059 15.6084 182.32 14.9668 181.301 14.9668C180.492 14.9668 179.856 15.3213 179.394 16.0303C178.983 16.6631 178.778 17.4072 178.778 18.2627ZM178.866 19.001C179.048 19.9268 179.44 20.6973 180.044 21.3125C180.7 21.9805 181.479 22.3145 182.382 22.3145C183.108 22.3145 183.753 22.1182 184.315 21.7256C184.878 21.3271 185.294 20.7852 185.563 20.0996L185.748 20.1699L184.808 23.1143C184.614 23.0146 184.482 22.9648 184.412 22.9648C183.492 23.1113 182.695 23.1846 182.021 23.1846C180.697 23.1846 179.558 22.8213 178.603 22.0947C177.524 21.2744 176.959 20.2432 176.906 19.001C176.854 17.6885 177.293 16.5312 178.225 15.5293C179.092 14.6035 180.176 14.1406 181.477 14.1406C182.484 14.1406 183.352 14.4014 184.078 14.9229C184.805 15.4443 185.303 16.1855 185.572 17.1465L178.866 19.001Z" fill="#D8D8D8"/>
<path d="M64.8477 27.5615H64.9878C65.0288 27.5615 65.0778 27.5661 65.1348 27.5752C65.4925 27.5752 65.701 27.5695 65.7603 27.5581C65.9972 27.508 66.1157 27.3735 66.1157 27.1548L66.1704 27.1274L66.4507 28.6587L66.3892 28.686C66.2866 28.3146 66.1248 28.0822 65.9038 27.9888C65.7375 27.9181 65.3854 27.8828 64.8477 27.8828V29.9609C64.8477 30.125 64.8784 30.2389 64.9399 30.3027C65.0516 30.4167 65.2795 30.4736 65.6235 30.4736C66.494 30.4736 67.1457 30.0373 67.5786 29.1646L67.6401 29.1782L67.0728 30.894C66.9953 30.8143 66.9076 30.7767 66.8096 30.7812L66.4507 30.7949H63.6514V30.7231C63.943 30.7231 64.0889 30.4691 64.0889 29.9609V27.1138C64.0889 26.8654 64.0661 26.6899 64.0205 26.5874C63.9567 26.4461 63.8337 26.3618 63.6514 26.3345V26.2798H66.584C66.6204 26.2798 66.6489 26.2843 66.6694 26.2935C66.7902 26.2729 66.8757 26.2399 66.9258 26.1943L67.2334 27.5752L67.1787 27.5889C67.0557 27.2676 66.8335 27.0203 66.5122 26.8472C66.1932 26.674 65.8366 26.5874 65.4424 26.5874C65.1758 26.5874 65.0037 26.641 64.9263 26.748C64.8739 26.8187 64.8477 26.9406 64.8477 27.1138V27.5615ZM67.8145 26.2798L68.9116 26.0884V30.1216C68.9116 30.5226 69.0495 30.7231 69.3252 30.7231V30.7949H67.8145V30.7231C68.0856 30.7231 68.2212 30.5226 68.2212 30.1216V26.9565C68.2212 26.5418 68.0856 26.3345 67.8145 26.3345V26.2798ZM70.5249 28.9526L72.3672 28.4194C72.1895 27.9204 71.9023 27.6709 71.5059 27.6709C71.1914 27.6709 70.9442 27.8088 70.7642 28.0845C70.6047 28.3306 70.5249 28.62 70.5249 28.9526ZM70.5591 29.2397C70.6297 29.5998 70.7824 29.8994 71.0171 30.1387C71.2723 30.3984 71.5754 30.5283 71.9263 30.5283C72.2088 30.5283 72.4595 30.452 72.6782 30.2993C72.897 30.1444 73.0588 29.9336 73.1636 29.667L73.2354 29.6943L72.8696 30.8394C72.7944 30.8006 72.7432 30.7812 72.7158 30.7812C72.3581 30.8382 72.0482 30.8667 71.7861 30.8667C71.2712 30.8667 70.828 30.7254 70.4565 30.4429C70.0373 30.1239 69.8174 29.7228 69.7969 29.2397C69.7764 28.7293 69.9473 28.2793 70.3096 27.8896C70.6468 27.5296 71.0684 27.3496 71.5742 27.3496C71.9661 27.3496 72.3034 27.451 72.5859 27.6538C72.8685 27.8566 73.0622 28.1449 73.167 28.5186L70.5591 29.2397ZM76.5337 27.3359L76.7388 28.3921L76.7012 28.4058C76.626 28.187 76.4836 28.0104 76.2739 27.876C76.0643 27.7393 75.8319 27.6709 75.5767 27.6709C75.203 27.6709 74.9193 27.8224 74.7256 28.1255C74.5638 28.383 74.4829 28.71 74.4829 29.1064C74.4829 29.4938 74.6162 29.8276 74.8828 30.1079C75.1517 30.3882 75.4787 30.5283 75.8638 30.5283C76.3423 30.5283 76.7171 30.2948 76.9883 29.8276L77.0396 29.855L76.7012 30.8394L76.5337 30.812C76.2124 30.8485 75.9766 30.8667 75.8262 30.8667C75.1198 30.8667 74.5877 30.6605 74.23 30.248C73.9019 29.8698 73.7378 29.4801 73.7378 29.0791C73.7378 28.5459 73.8813 28.1243 74.1685 27.8145C74.4647 27.4954 74.8783 27.3359 75.4092 27.3359C75.6097 27.3359 75.8934 27.3633 76.2603 27.418C76.3104 27.4134 76.4015 27.3861 76.5337 27.3359ZM78.2803 27.4761H78.9468C79.0767 27.4761 79.1815 27.4339 79.2612 27.3496L79.0562 27.8315C79.0288 27.8042 78.9935 27.7871 78.9502 27.7803C78.9092 27.7734 78.8704 27.77 78.834 27.77H78.2803V29.8687C78.2803 30.0692 78.3236 30.2207 78.4102 30.3232C78.499 30.4235 78.6095 30.4736 78.7417 30.4736C78.8488 30.4736 78.973 30.4429 79.1143 30.3813C79.2715 30.313 79.3695 30.2355 79.4082 30.1489L79.4492 30.1626L79.2134 30.7231C78.8898 30.8188 78.6141 30.8667 78.3862 30.8667C77.8416 30.8667 77.5693 30.5579 77.5693 29.9404V27.77H77.1387V27.7017C77.5055 27.6082 77.689 27.3086 77.689 26.8027C77.689 26.6774 77.6821 26.5749 77.6685 26.4951L78.2803 26.208V27.4761ZM80.7173 28.1562C80.7492 28.015 80.8631 27.8555 81.0591 27.6777C81.3075 27.4499 81.5672 27.3359 81.8384 27.3359C81.9364 27.3359 82.0252 27.3496 82.105 27.377L81.958 28.064C81.8213 27.9705 81.6663 27.9238 81.4932 27.9238C81.2152 27.9238 81.0078 28.0731 80.8711 28.3716C80.7686 28.5949 80.7173 28.8638 80.7173 29.1782V30.0327C80.7173 30.2674 80.7515 30.4372 80.8198 30.542C80.8905 30.6445 80.9964 30.7049 81.1377 30.7231V30.7949H79.6167V30.7231C79.8901 30.7231 80.0269 30.5135 80.0269 30.0942V28.1562C80.0269 27.7484 79.8901 27.5444 79.6167 27.5444V27.5034L80.5635 27.4043C80.666 27.6003 80.7173 27.8509 80.7173 28.1562ZM82.2622 29.1475C82.2622 28.6006 82.4422 28.1597 82.8022 27.8247C83.1532 27.4989 83.6043 27.3359 84.1558 27.3359C84.7049 27.3359 85.1436 27.4852 85.4717 27.7837C85.8158 28.0936 85.9878 28.5208 85.9878 29.0654C85.9878 29.6442 85.7827 30.0988 85.3726 30.4292C85.0125 30.7209 84.5876 30.8667 84.0977 30.8667C83.626 30.8667 83.2204 30.7357 82.8809 30.4736C82.4684 30.1569 82.2622 29.7148 82.2622 29.1475ZM85.2085 29.1475C85.2085 28.7441 85.1287 28.4115 84.9692 28.1494C84.7778 27.8304 84.493 27.6709 84.1147 27.6709C83.8185 27.6709 83.5758 27.7666 83.3867 27.958C83.1611 28.1859 83.0483 28.5174 83.0483 28.9526C83.0483 29.356 83.1281 29.7023 83.2876 29.9917C83.4836 30.3494 83.7684 30.5283 84.1421 30.5283C84.4953 30.5283 84.7676 30.3813 84.959 30.0874C85.1253 29.8322 85.2085 29.5189 85.2085 29.1475ZM89.8091 30.1216C89.8091 30.3403 89.825 30.4827 89.8569 30.5488C89.9139 30.665 90.0404 30.7231 90.2363 30.7231V30.7949H88.7358V30.7231C88.9933 30.6981 89.1221 30.4839 89.1221 30.0806V28.5596C89.1221 28.0742 88.9466 27.8315 88.5957 27.8315C88.2972 27.8315 88.0454 27.9637 87.8403 28.228C87.6489 28.4718 87.5532 28.7464 87.5532 29.0518V30.1216C87.5532 30.5226 87.6865 30.7231 87.9531 30.7231V30.7949H86.4561V30.7231C86.6338 30.7231 86.7523 30.6343 86.8115 30.4565C86.848 30.3472 86.8662 30.1774 86.8662 29.9473V28.3306C86.8662 28.007 86.8252 27.7917 86.7432 27.6846C86.7021 27.6299 86.6064 27.5889 86.4561 27.5615V27.5034L87.3857 27.4043C87.4427 27.484 87.4849 27.5911 87.5122 27.7256C87.5396 27.86 87.5532 27.999 87.5532 28.1426C87.8039 27.8623 88.042 27.6584 88.2676 27.5308C88.4954 27.4009 88.7176 27.3359 88.9341 27.3359C89.5174 27.3359 89.8091 27.6675 89.8091 28.3306V30.1216ZM90.9268 26.4814C90.9268 26.3356 90.9666 26.2126 91.0464 26.1123C91.1284 26.0098 91.2401 25.9585 91.3813 25.9585C91.5203 25.9585 91.6331 26.012 91.7197 26.1191C91.8018 26.2171 91.8428 26.3379 91.8428 26.4814C91.8428 26.6523 91.7869 26.7788 91.6753 26.8608C91.5887 26.9246 91.4907 26.9565 91.3813 26.9565C91.2469 26.9565 91.1375 26.911 91.0532 26.8198C90.9689 26.7287 90.9268 26.6159 90.9268 26.4814ZM91.73 27.4077V30.0942C91.73 30.2743 91.7619 30.4246 91.8257 30.5454C91.8895 30.6639 91.9954 30.7231 92.1436 30.7231V30.7949H90.6328V30.7231C90.7832 30.7095 90.8903 30.6536 90.9541 30.5557C91.0111 30.4668 91.0396 30.2686 91.0396 29.9609V28.3306C91.0396 27.9979 90.9997 27.7826 90.9199 27.6846C90.8766 27.6299 90.7809 27.5889 90.6328 27.5615V27.5034L91.73 27.4077ZM95.4077 27.3359L95.6128 28.3921L95.5752 28.4058C95.5 28.187 95.3576 28.0104 95.1479 27.876C94.9383 27.7393 94.7059 27.6709 94.4507 27.6709C94.077 27.6709 93.7933 27.8224 93.5996 28.1255C93.4378 28.383 93.3569 28.71 93.3569 29.1064C93.3569 29.4938 93.4902 29.8276 93.7568 30.1079C94.0257 30.3882 94.3527 30.5283 94.7378 30.5283C95.2163 30.5283 95.5911 30.2948 95.8623 29.8276L95.9136 29.855L95.5752 30.8394L95.4077 30.812C95.0864 30.8485 94.8506 30.8667 94.7002 30.8667C93.9938 30.8667 93.4618 30.6605 93.104 30.248C92.7759 29.8698 92.6118 29.4801 92.6118 29.0791C92.6118 28.5459 92.7554 28.1243 93.0425 27.8145C93.3387 27.4954 93.7523 27.3359 94.2832 27.3359C94.4837 27.3359 94.7674 27.3633 95.1343 27.418C95.1844 27.4134 95.2756 27.3861 95.4077 27.3359ZM98.4258 30.7231C98.599 30.689 98.7186 30.6126 98.7847 30.4941C98.8371 30.3962 98.8633 30.2515 98.8633 30.0601V27.0693C98.8633 26.6113 98.7174 26.3664 98.4258 26.3345V26.2798H100.135C100.937 26.2798 101.577 26.5054 102.056 26.9565C102.548 27.4168 102.794 28.0446 102.794 28.8398C102.794 29.3457 102.614 29.7821 102.254 30.1489C101.83 30.5796 101.244 30.7949 100.497 30.7949H98.4258V30.7231ZM99.6084 29.8687C99.6084 30.0851 99.6597 30.2401 99.7622 30.3335C99.8647 30.4269 100.016 30.4736 100.217 30.4736C100.593 30.4736 100.904 30.4144 101.15 30.2959C101.41 30.1706 101.614 29.9678 101.762 29.6875C101.898 29.4277 101.967 29.1452 101.967 28.8398C101.967 28.2246 101.823 27.7096 101.536 27.2949C101.21 26.8232 100.752 26.5874 100.162 26.5874C99.9707 26.5874 99.8397 26.6102 99.769 26.6558C99.6619 26.7264 99.6084 26.8643 99.6084 27.0693V29.8687ZM103.303 29.1475C103.303 28.6006 103.483 28.1597 103.843 27.8247C104.194 27.4989 104.645 27.3359 105.197 27.3359C105.746 27.3359 106.185 27.4852 106.513 27.7837C106.857 28.0936 107.029 28.5208 107.029 29.0654C107.029 29.6442 106.824 30.0988 106.414 30.4292C106.054 30.7209 105.629 30.8667 105.139 30.8667C104.667 30.8667 104.261 30.7357 103.922 30.4736C103.509 30.1569 103.303 29.7148 103.303 29.1475ZM106.25 29.1475C106.25 28.7441 106.17 28.4115 106.01 28.1494C105.819 27.8304 105.534 27.6709 105.156 27.6709C104.86 27.6709 104.617 27.7666 104.428 27.958C104.202 28.1859 104.089 28.5174 104.089 28.9526C104.089 29.356 104.169 29.7023 104.329 29.9917C104.525 30.3494 104.809 30.5283 105.183 30.5283C105.536 30.5283 105.809 30.3813 106 30.0874C106.166 29.8322 106.25 29.5189 106.25 29.1475ZM110.344 27.3359L110.549 28.3921L110.512 28.4058C110.437 28.187 110.294 28.0104 110.084 27.876C109.875 27.7393 109.642 27.6709 109.387 27.6709C109.014 27.6709 108.73 27.8224 108.536 28.1255C108.374 28.383 108.293 28.71 108.293 29.1064C108.293 29.4938 108.427 29.8276 108.693 30.1079C108.962 30.3882 109.289 30.5283 109.674 30.5283C110.153 30.5283 110.528 30.2948 110.799 29.8276L110.85 29.855L110.512 30.8394L110.344 30.812C110.023 30.8485 109.787 30.8667 109.637 30.8667C108.93 30.8667 108.398 30.6605 108.041 30.248C107.712 29.8698 107.548 29.4801 107.548 29.0791C107.548 28.5459 107.692 28.1243 107.979 27.8145C108.275 27.4954 108.689 27.3359 109.22 27.3359C109.42 27.3359 109.704 27.3633 110.071 27.418C110.121 27.4134 110.212 27.3861 110.344 27.3359ZM113.841 30.0942C113.385 30.55 112.935 30.8075 112.491 30.8667C111.878 30.8667 111.571 30.5534 111.571 29.9268V28.1973C111.571 27.7917 111.435 27.5741 111.161 27.5444V27.5034L112.258 27.4077V29.626C112.258 30.1341 112.425 30.3882 112.757 30.3882C113.083 30.3289 113.345 30.1831 113.543 29.9507C113.742 29.7183 113.841 29.4368 113.841 29.1064V28.3306C113.841 28.0207 113.806 27.811 113.735 27.7017C113.682 27.6219 113.584 27.5695 113.441 27.5444V27.5034L114.542 27.4077V30.1216C114.542 30.5226 114.679 30.7231 114.955 30.7231V30.7949H113.974L113.892 30.4634C113.858 30.3244 113.841 30.2013 113.841 30.0942ZM116.421 28.1426C116.686 27.8623 116.94 27.6584 117.184 27.5308C117.43 27.4009 117.663 27.3359 117.884 27.3359C118.112 27.3359 118.296 27.4009 118.435 27.5308C118.576 27.6584 118.656 27.8475 118.674 28.0981C119.232 27.59 119.721 27.3359 120.14 27.3359C120.391 27.3359 120.583 27.4248 120.718 27.6025C120.854 27.778 120.923 28.0207 120.923 28.3306V30.1216C120.923 30.2948 120.957 30.4383 121.025 30.5522C121.094 30.6662 121.202 30.7231 121.35 30.7231V30.7949H119.846V30.7231C120.106 30.6958 120.236 30.4816 120.236 30.0806V28.5596C120.236 28.0742 120.054 27.8315 119.689 27.8315C119.447 27.8315 119.222 27.9443 119.012 28.1699C118.782 28.416 118.667 28.71 118.667 29.0518V30.1216C118.667 30.3084 118.707 30.4554 118.787 30.5625C118.866 30.6696 118.971 30.7231 119.101 30.7231V30.7949H117.59V30.7231C117.846 30.7004 117.973 30.4862 117.973 30.0806V28.5596C117.973 28.0742 117.803 27.8315 117.464 27.8315C117.195 27.8315 116.953 27.9523 116.739 28.1938C116.527 28.4331 116.421 28.7191 116.421 29.0518V30.1216C116.421 30.5226 116.557 30.7231 116.828 30.7231V30.7949H115.321V30.7231C115.499 30.7231 115.617 30.6343 115.676 30.4565C115.713 30.3472 115.731 30.1774 115.731 29.9473V28.3306C115.731 28.0093 115.69 27.7939 115.608 27.6846C115.567 27.6299 115.471 27.5889 115.321 27.5615V27.5034L116.24 27.4043C116.295 27.4863 116.339 27.5991 116.374 27.7427C116.405 27.8771 116.421 28.0104 116.421 28.1426ZM122.526 28.9526L124.368 28.4194C124.19 27.9204 123.903 27.6709 123.507 27.6709C123.192 27.6709 122.945 27.8088 122.765 28.0845C122.606 28.3306 122.526 28.62 122.526 28.9526ZM122.56 29.2397C122.631 29.5998 122.783 29.8994 123.018 30.1387C123.273 30.3984 123.576 30.5283 123.927 30.5283C124.21 30.5283 124.46 30.452 124.679 30.2993C124.898 30.1444 125.06 29.9336 125.165 29.667L125.236 29.6943L124.871 30.8394C124.795 30.8006 124.744 30.7812 124.717 30.7812C124.359 30.8382 124.049 30.8667 123.787 30.8667C123.272 30.8667 122.829 30.7254 122.458 30.4429C122.038 30.1239 121.818 29.7228 121.798 29.2397C121.777 28.7293 121.948 28.2793 122.311 27.8896C122.648 27.5296 123.069 27.3496 123.575 27.3496C123.967 27.3496 124.304 27.451 124.587 27.6538C124.869 27.8566 125.063 28.1449 125.168 28.5186L122.56 29.2397ZM129.041 30.1216C129.041 30.3403 129.056 30.4827 129.088 30.5488C129.145 30.665 129.272 30.7231 129.468 30.7231V30.7949H127.967V30.7231C128.225 30.6981 128.354 30.4839 128.354 30.0806V28.5596C128.354 28.0742 128.178 27.8315 127.827 27.8315C127.529 27.8315 127.277 27.9637 127.072 28.228C126.88 28.4718 126.785 28.7464 126.785 29.0518V30.1216C126.785 30.5226 126.918 30.7231 127.185 30.7231V30.7949H125.688V30.7231C125.865 30.7231 125.984 30.6343 126.043 30.4565C126.079 30.3472 126.098 30.1774 126.098 29.9473V28.3306C126.098 28.007 126.057 27.7917 125.975 27.6846C125.934 27.6299 125.838 27.5889 125.688 27.5615V27.5034L126.617 27.4043C126.674 27.484 126.716 27.5911 126.744 27.7256C126.771 27.86 126.785 27.999 126.785 28.1426C127.035 27.8623 127.273 27.6584 127.499 27.5308C127.727 27.4009 127.949 27.3359 128.166 27.3359C128.749 27.3359 129.041 27.6675 129.041 28.3306V30.1216ZM130.821 27.4761H131.488C131.618 27.4761 131.722 27.4339 131.802 27.3496L131.597 27.8315C131.57 27.8042 131.535 27.7871 131.491 27.7803C131.45 27.7734 131.411 27.77 131.375 27.77H130.821V29.8687C130.821 30.0692 130.865 30.2207 130.951 30.3232C131.04 30.4235 131.151 30.4736 131.283 30.4736C131.39 30.4736 131.514 30.4429 131.655 30.3813C131.812 30.313 131.91 30.2355 131.949 30.1489L131.99 30.1626L131.754 30.7231C131.431 30.8188 131.155 30.8667 130.927 30.8667C130.383 30.8667 130.11 30.5579 130.11 29.9404V27.77H129.68V27.7017C130.047 27.6082 130.23 27.3086 130.23 26.8027C130.23 26.6774 130.223 26.5749 130.209 26.4951L130.821 26.208V27.4761ZM136.868 28.1699L137.729 26.7617C137.745 26.7367 137.763 26.7059 137.784 26.6694C137.811 26.6125 137.825 26.5544 137.825 26.4951C137.825 26.4017 137.784 26.3481 137.702 26.3345V26.2798H139.339V26.3345C139.045 26.3641 138.898 26.5771 138.898 26.9736V29.9473C138.898 30.2594 138.947 30.4736 139.045 30.5898C139.095 30.6468 139.193 30.6912 139.339 30.7231V30.7949H137.702V30.7231C137.891 30.6958 138.016 30.616 138.078 30.4839C138.119 30.3927 138.139 30.2367 138.139 30.0156V26.748L136.656 29.1919L135.292 26.748V29.9473C135.292 30.182 135.311 30.3483 135.35 30.4463C135.412 30.6012 135.537 30.6935 135.726 30.7231V30.7949H134.403V30.7231C134.583 30.6935 134.706 30.6115 134.772 30.4771C134.82 30.3791 134.844 30.2253 134.844 30.0156V27.0967C134.844 26.8757 134.823 26.7127 134.779 26.6079C134.713 26.453 134.588 26.3618 134.403 26.3345V26.2798H136.112V26.3345C136.046 26.3481 136.006 26.3926 135.993 26.4678C136.004 26.5339 136.025 26.5965 136.054 26.6558C136.072 26.6922 136.115 26.772 136.181 26.895L136.868 28.1699ZM142.2 28.8262C141.812 28.8968 141.476 29.0096 141.191 29.1646C140.788 29.3856 140.586 29.651 140.586 29.9609C140.605 30.1227 140.667 30.2469 140.774 30.3335C140.882 30.4201 141.017 30.4714 141.181 30.4873C141.728 30.4873 142.052 30.1785 142.152 29.561C142.184 29.3651 142.2 29.1201 142.2 28.8262ZM142.2 28.5459C142.2 28.2041 142.148 27.9831 142.046 27.8828C141.946 27.7803 141.73 27.729 141.4 27.729C141.133 27.729 140.879 27.8088 140.638 27.9683C140.396 28.1255 140.207 28.3511 140.07 28.645L140.173 27.5239C140.202 27.549 140.238 27.5695 140.279 27.5854C140.318 27.6082 140.353 27.623 140.385 27.6299C141.014 27.4339 141.477 27.3359 141.776 27.3359C142.266 27.3359 142.595 27.4521 142.764 27.6846C142.875 27.8395 142.931 28.0947 142.931 28.4502V29.9131C142.931 30.2298 142.989 30.4508 143.105 30.5762C143.167 30.6423 143.273 30.6912 143.423 30.7231V30.7949H142.483C142.401 30.6673 142.343 30.5534 142.309 30.4531C142.277 30.3529 142.261 30.2617 142.261 30.1797C142.14 30.4007 141.944 30.5716 141.673 30.6924C141.434 30.7995 141.177 30.853 140.901 30.853C140.687 30.853 140.485 30.8132 140.296 30.7334C140.107 30.6514 139.979 30.5454 139.913 30.4155C139.895 30.3813 139.875 30.3267 139.855 30.2515C139.837 30.174 139.824 30.1102 139.817 30.0601C139.817 29.7069 140.014 29.3981 140.409 29.1338C140.723 28.9219 141.32 28.7259 142.2 28.5459ZM146.978 30.1216C146.978 30.3403 146.994 30.4827 147.026 30.5488C147.083 30.665 147.209 30.7231 147.405 30.7231V30.7949H145.905V30.7231C146.162 30.6981 146.291 30.4839 146.291 30.0806V28.5596C146.291 28.0742 146.116 27.8315 145.765 27.8315C145.466 27.8315 145.214 27.9637 145.009 28.228C144.818 28.4718 144.722 28.7464 144.722 29.0518V30.1216C144.722 30.5226 144.855 30.7231 145.122 30.7231V30.7949H143.625V30.7231C143.803 30.7231 143.921 30.6343 143.98 30.4565C144.017 30.3472 144.035 30.1774 144.035 29.9473V28.3306C144.035 28.007 143.994 27.7917 143.912 27.6846C143.871 27.6299 143.775 27.5889 143.625 27.5615V27.5034L144.555 27.4043C144.612 27.484 144.654 27.5911 144.681 27.7256C144.708 27.86 144.722 27.999 144.722 28.1426C144.973 27.8623 145.211 27.6584 145.437 27.5308C145.664 27.4009 145.887 27.3359 146.103 27.3359C146.686 27.3359 146.978 27.6675 146.978 28.3306V30.1216ZM150.211 28.8262C149.824 28.8968 149.488 29.0096 149.203 29.1646C148.8 29.3856 148.598 29.651 148.598 29.9609C148.616 30.1227 148.679 30.2469 148.786 30.3335C148.893 30.4201 149.029 30.4714 149.193 30.4873C149.74 30.4873 150.063 30.1785 150.164 29.561C150.195 29.3651 150.211 29.1201 150.211 28.8262ZM150.211 28.5459C150.211 28.2041 150.16 27.9831 150.058 27.8828C149.957 27.7803 149.742 27.729 149.412 27.729C149.145 27.729 148.891 27.8088 148.649 27.9683C148.408 28.1255 148.219 28.3511 148.082 28.645L148.185 27.5239C148.214 27.549 148.25 27.5695 148.291 27.5854C148.329 27.6082 148.365 27.623 148.396 27.6299C149.025 27.4339 149.489 27.3359 149.788 27.3359C150.278 27.3359 150.607 27.4521 150.775 27.6846C150.887 27.8395 150.943 28.0947 150.943 28.4502V29.9131C150.943 30.2298 151.001 30.4508 151.117 30.5762C151.179 30.6423 151.285 30.6912 151.435 30.7231V30.7949H150.495C150.413 30.6673 150.355 30.5534 150.321 30.4531C150.289 30.3529 150.273 30.2617 150.273 30.1797C150.152 30.4007 149.956 30.5716 149.685 30.6924C149.446 30.7995 149.188 30.853 148.913 30.853C148.698 30.853 148.497 30.8132 148.308 30.7334C148.118 30.6514 147.991 30.5454 147.925 30.4155C147.907 30.3813 147.887 30.3267 147.867 30.2515C147.848 30.174 147.836 30.1102 147.829 30.0601C147.829 29.7069 148.026 29.3981 148.42 29.1338C148.735 28.9219 149.332 28.7259 150.211 28.5459ZM153.899 30.4429V28.0981C153.899 27.9637 153.877 27.8703 153.831 27.8179C153.754 27.729 153.591 27.6846 153.342 27.6846C152.982 27.6846 152.703 27.8133 152.505 28.0708C152.323 28.3055 152.231 28.6086 152.231 28.98C152.231 29.4106 152.35 29.7627 152.587 30.0361C152.838 30.3232 153.176 30.4668 153.602 30.4668C153.695 30.4668 153.795 30.4588 153.899 30.4429ZM151.483 31.6494L152.245 30.8804L152.272 30.9214C152.231 31.008 152.202 31.1174 152.184 31.2495C152.184 31.4979 152.307 31.687 152.553 31.8169C152.756 31.924 152.994 31.9775 153.267 31.9775C153.511 31.9775 153.742 31.9263 153.961 31.8237C154.234 31.6961 154.371 31.5241 154.371 31.3076C154.371 31.098 154.302 30.9556 154.163 30.8804C154.058 30.8234 153.891 30.7949 153.664 30.7949H153.482C153.068 30.7949 152.758 30.7459 152.553 30.6479C151.846 30.3107 151.493 29.7593 151.493 28.9937C151.493 28.4901 151.632 28.1004 151.91 27.8247C152.188 27.5467 152.58 27.4077 153.086 27.4077H155.003V27.4761C154.821 27.4761 154.701 27.5513 154.645 27.7017C154.613 27.786 154.597 27.9626 154.597 28.2314V30.1934C154.597 30.2959 154.678 30.436 154.839 30.6138C155.003 30.7892 155.085 30.9897 155.085 31.2153C155.085 31.5275 154.902 31.7896 154.535 32.0015C154.191 32.1997 153.778 32.2988 153.294 32.2988C152.511 32.2988 151.907 32.0824 151.483 31.6494ZM156.083 28.9526L157.926 28.4194C157.748 27.9204 157.461 27.6709 157.064 27.6709C156.75 27.6709 156.503 27.8088 156.323 28.0845C156.163 28.3306 156.083 28.62 156.083 28.9526ZM156.118 29.2397C156.188 29.5998 156.341 29.8994 156.576 30.1387C156.831 30.3984 157.134 30.5283 157.485 30.5283C157.767 30.5283 158.018 30.452 158.237 30.2993C158.456 30.1444 158.617 29.9336 158.722 29.667L158.794 29.6943L158.428 30.8394C158.353 30.8006 158.302 30.7812 158.274 30.7812C157.917 30.8382 157.607 30.8667 157.345 30.8667C156.83 30.8667 156.387 30.7254 156.015 30.4429C155.596 30.1239 155.376 29.7228 155.355 29.2397C155.335 28.7293 155.506 28.2793 155.868 27.8896C156.205 27.5296 156.627 27.3496 157.133 27.3496C157.525 27.3496 157.862 27.451 158.145 27.6538C158.427 27.8566 158.621 28.1449 158.726 28.5186L156.118 29.2397ZM160.301 28.1426C160.566 27.8623 160.82 27.6584 161.063 27.5308C161.31 27.4009 161.543 27.3359 161.764 27.3359C161.992 27.3359 162.175 27.4009 162.314 27.5308C162.456 27.6584 162.535 27.8475 162.554 28.0981C163.112 27.59 163.601 27.3359 164.02 27.3359C164.271 27.3359 164.463 27.4248 164.598 27.6025C164.734 27.778 164.803 28.0207 164.803 28.3306V30.1216C164.803 30.2948 164.837 30.4383 164.905 30.5522C164.974 30.6662 165.082 30.7231 165.23 30.7231V30.7949H163.726V30.7231C163.986 30.6958 164.116 30.4816 164.116 30.0806V28.5596C164.116 28.0742 163.933 27.8315 163.569 27.8315C163.327 27.8315 163.102 27.9443 162.892 28.1699C162.662 28.416 162.547 28.71 162.547 29.0518V30.1216C162.547 30.3084 162.587 30.4554 162.667 30.5625C162.746 30.6696 162.851 30.7231 162.981 30.7231V30.7949H161.47V30.7231C161.725 30.7004 161.853 30.4862 161.853 30.0806V28.5596C161.853 28.0742 161.683 27.8315 161.344 27.8315C161.075 27.8315 160.833 27.9523 160.619 28.1938C160.407 28.4331 160.301 28.7191 160.301 29.0518V30.1216C160.301 30.5226 160.437 30.7231 160.708 30.7231V30.7949H159.201V30.7231C159.378 30.7231 159.497 30.6343 159.556 30.4565C159.593 30.3472 159.611 30.1774 159.611 29.9473V28.3306C159.611 28.0093 159.57 27.7939 159.488 27.6846C159.447 27.6299 159.351 27.5889 159.201 27.5615V27.5034L160.12 27.4043C160.175 27.4863 160.219 27.5991 160.253 27.7427C160.285 27.8771 160.301 28.0104 160.301 28.1426ZM166.406 28.9526L168.248 28.4194C168.07 27.9204 167.783 27.6709 167.387 27.6709C167.072 27.6709 166.825 27.8088 166.645 28.0845C166.486 28.3306 166.406 28.62 166.406 28.9526ZM166.44 29.2397C166.511 29.5998 166.663 29.8994 166.898 30.1387C167.153 30.3984 167.456 30.5283 167.807 30.5283C168.09 30.5283 168.34 30.452 168.559 30.2993C168.778 30.1444 168.94 29.9336 169.044 29.667L169.116 29.6943L168.75 30.8394C168.675 30.8006 168.624 30.7812 168.597 30.7812C168.239 30.8382 167.929 30.8667 167.667 30.8667C167.152 30.8667 166.709 30.7254 166.337 30.4429C165.918 30.1239 165.698 29.7228 165.678 29.2397C165.657 28.7293 165.828 28.2793 166.19 27.8896C166.528 27.5296 166.949 27.3496 167.455 27.3496C167.847 27.3496 168.184 27.451 168.467 27.6538C168.749 27.8566 168.943 28.1449 169.048 28.5186L166.44 29.2397ZM172.92 30.1216C172.92 30.3403 172.936 30.4827 172.968 30.5488C173.025 30.665 173.152 30.7231 173.348 30.7231V30.7949H171.847V30.7231C172.105 30.6981 172.233 30.4839 172.233 30.0806V28.5596C172.233 28.0742 172.058 27.8315 171.707 27.8315C171.409 27.8315 171.157 27.9637 170.952 28.228C170.76 28.4718 170.665 28.7464 170.665 29.0518V30.1216C170.665 30.5226 170.798 30.7231 171.064 30.7231V30.7949H169.567V30.7231C169.745 30.7231 169.864 30.6343 169.923 30.4565C169.959 30.3472 169.978 30.1774 169.978 29.9473V28.3306C169.978 28.007 169.937 27.7917 169.854 27.6846C169.813 27.6299 169.718 27.5889 169.567 27.5615V27.5034L170.497 27.4043C170.554 27.484 170.596 27.5911 170.624 27.7256C170.651 27.86 170.665 27.999 170.665 28.1426C170.915 27.8623 171.153 27.6584 171.379 27.5308C171.607 27.4009 171.829 27.3359 172.045 27.3359C172.629 27.3359 172.92 27.6675 172.92 28.3306V30.1216ZM174.701 27.4761H175.368C175.498 27.4761 175.602 27.4339 175.682 27.3496L175.477 27.8315C175.45 27.8042 175.414 27.7871 175.371 27.7803C175.33 27.7734 175.291 27.77 175.255 27.77H174.701V29.8687C174.701 30.0692 174.744 30.2207 174.831 30.3232C174.92 30.4235 175.03 30.4736 175.163 30.4736C175.27 30.4736 175.394 30.4429 175.535 30.3813C175.692 30.313 175.79 30.2355 175.829 30.1489L175.87 30.1626L175.634 30.7231C175.311 30.8188 175.035 30.8667 174.807 30.8667C174.263 30.8667 173.99 30.5579 173.99 29.9404V27.77H173.56V27.7017C173.926 27.6082 174.11 27.3086 174.11 26.8027C174.11 26.6774 174.103 26.5749 174.089 26.4951L174.701 26.208V27.4761ZM181.271 26.208L181.537 27.5752L181.482 27.5889C181.362 27.2653 181.163 27.0112 180.888 26.8267C180.612 26.6398 180.301 26.5464 179.955 26.5464C179.451 26.5464 179.172 26.7401 179.117 27.1274C179.117 27.2733 179.231 27.3963 179.459 27.4966C179.527 27.5262 179.779 27.6082 180.214 27.7427C180.356 27.7837 180.569 27.8464 180.854 27.9307C181.063 27.9945 181.231 28.0594 181.356 28.1255C181.8 28.3602 182.022 28.7362 182.022 29.2534C182.022 29.7365 181.812 30.1353 181.39 30.4497C181.005 30.7368 180.566 30.8804 180.074 30.8804C179.771 30.8804 179.47 30.8234 179.172 30.7095C179.135 30.6958 179.105 30.6867 179.08 30.6821C179.018 30.6639 178.965 30.6548 178.919 30.6548C178.78 30.6548 178.682 30.6969 178.625 30.7812L178.229 29.0654L178.297 29.0518C178.381 29.3936 178.566 29.7057 178.851 29.9883C179.188 30.321 179.568 30.4873 179.992 30.4873C180.325 30.4873 180.617 30.4167 180.867 30.2754C181.173 30.1045 181.325 29.8618 181.325 29.5474C181.325 29.3286 181.269 29.1611 181.158 29.0449C181.067 28.9492 180.882 28.8444 180.604 28.7305C180.472 28.6758 180.157 28.5778 179.661 28.4365C179.289 28.3294 179.019 28.2166 178.851 28.0981C178.718 28.0047 178.618 27.8976 178.55 27.7769C178.47 27.6379 178.43 27.4909 178.43 27.3359L178.464 27.0557C178.535 26.7617 178.734 26.5361 179.062 26.3789C179.334 26.2467 179.639 26.1807 179.979 26.1807C180.131 26.1807 180.294 26.1989 180.467 26.2354C180.586 26.2604 180.761 26.298 180.994 26.3481C181.128 26.3345 181.22 26.2878 181.271 26.208ZM182.204 32.0151L182.621 31.0889L182.679 31.1162C182.67 31.1641 182.665 31.2301 182.665 31.3145C182.665 31.6198 182.79 31.7725 183.041 31.7725C183.242 31.7725 183.403 31.6745 183.526 31.4785C183.631 31.3122 183.684 31.1219 183.684 30.9077C183.684 30.7072 183.637 30.4873 183.543 30.248L182.617 27.8828C182.581 27.7894 182.532 27.7051 182.47 27.6299C182.386 27.5273 182.297 27.4761 182.204 27.4761V27.4077H183.571V27.4761C183.425 27.4761 183.345 27.5513 183.332 27.7017L183.39 27.8828L184.145 29.9404L184.887 27.9238C184.921 27.8304 184.938 27.7507 184.938 27.6846C184.938 27.5456 184.858 27.4761 184.699 27.4761V27.4077H185.748V27.4761C185.634 27.4897 185.54 27.5399 185.464 27.6265C185.389 27.7131 185.332 27.8076 185.293 27.9102L184.012 31.3076C183.889 31.6357 183.739 31.8739 183.564 32.022C183.379 32.1792 183.167 32.2578 182.928 32.2578C182.691 32.2578 182.45 32.1769 182.204 32.0151ZM188.496 27.4453L188.551 28.5049L188.496 28.5186C188.437 28.2588 188.294 28.0526 188.069 27.8999C187.857 27.7563 187.612 27.6846 187.334 27.6846C186.906 27.6846 186.679 27.8179 186.654 28.0845C186.654 28.3123 186.843 28.473 187.221 28.5664C187.697 28.6849 188.036 28.7954 188.236 28.8979C188.624 29.0985 188.817 29.3685 188.817 29.708C188.817 30.0771 188.652 30.3665 188.322 30.5762C188.032 30.7585 187.694 30.8496 187.307 30.8496C187.029 30.8496 186.739 30.812 186.438 30.7368C186.22 30.6821 186.1 30.6548 186.08 30.6548C186.011 30.6548 185.951 30.6867 185.898 30.7505L185.844 29.4004L185.898 29.3867C185.939 29.724 186.084 29.9985 186.333 30.2104C186.583 30.4224 186.879 30.5283 187.221 30.5283C187.438 30.5283 187.631 30.4816 187.802 30.3882C188.014 30.272 188.12 30.1136 188.12 29.9131C188.12 29.7855 188.077 29.6784 187.99 29.5918C187.904 29.5052 187.759 29.4368 187.556 29.3867C187.014 29.2523 186.631 29.1121 186.408 28.9663C186.116 28.7749 185.97 28.5186 185.97 28.1973C185.97 27.9033 186.117 27.68 186.411 27.5273C186.644 27.4089 186.923 27.3496 187.249 27.3496C187.367 27.3496 187.542 27.3758 187.775 27.4282C188.007 27.4784 188.183 27.5034 188.301 27.5034C188.374 27.492 188.439 27.4727 188.496 27.4453ZM190.185 27.4761H190.851C190.981 27.4761 191.086 27.4339 191.166 27.3496L190.96 27.8315C190.933 27.8042 190.898 27.7871 190.854 27.7803C190.813 27.7734 190.775 27.77 190.738 27.77H190.185V29.8687C190.185 30.0692 190.228 30.2207 190.314 30.3232C190.403 30.4235 190.514 30.4736 190.646 30.4736C190.753 30.4736 190.877 30.4429 191.019 30.3813C191.176 30.313 191.274 30.2355 191.312 30.1489L191.354 30.1626L191.118 30.7231C190.794 30.8188 190.518 30.8667 190.291 30.8667C189.746 30.8667 189.474 30.5579 189.474 29.9404V27.77H189.043V27.7017C189.41 27.6082 189.593 27.3086 189.593 26.8027C189.593 26.6774 189.586 26.5749 189.573 26.4951L190.185 26.208V27.4761ZM192.348 28.9526L194.19 28.4194C194.013 27.9204 193.726 27.6709 193.329 27.6709C193.015 27.6709 192.767 27.8088 192.587 28.0845C192.428 28.3306 192.348 28.62 192.348 28.9526ZM192.382 29.2397C192.453 29.5998 192.606 29.8994 192.84 30.1387C193.096 30.3984 193.399 30.5283 193.75 30.5283C194.032 30.5283 194.283 30.452 194.501 30.2993C194.72 30.1444 194.882 29.9336 194.987 29.667L195.059 29.6943L194.693 30.8394C194.618 30.8006 194.566 30.7812 194.539 30.7812C194.181 30.8382 193.871 30.8667 193.609 30.8667C193.094 30.8667 192.651 30.7254 192.28 30.4429C191.861 30.1239 191.641 29.7228 191.62 29.2397C191.6 28.7293 191.771 28.2793 192.133 27.8896C192.47 27.5296 192.892 27.3496 193.397 27.3496C193.789 27.3496 194.127 27.451 194.409 27.6538C194.692 27.8566 194.885 28.1449 194.99 28.5186L192.382 29.2397ZM196.566 28.1426C196.83 27.8623 197.084 27.6584 197.328 27.5308C197.574 27.4009 197.808 27.3359 198.029 27.3359C198.257 27.3359 198.44 27.4009 198.579 27.5308C198.72 27.6584 198.8 27.8475 198.818 28.0981C199.377 27.59 199.865 27.3359 200.285 27.3359C200.535 27.3359 200.728 27.4248 200.862 27.6025C200.999 27.778 201.067 28.0207 201.067 28.3306V30.1216C201.067 30.2948 201.102 30.4383 201.17 30.5522C201.238 30.6662 201.347 30.7231 201.495 30.7231V30.7949H199.991V30.7231C200.25 30.6958 200.38 30.4816 200.38 30.0806V28.5596C200.38 28.0742 200.198 27.8315 199.833 27.8315C199.592 27.8315 199.366 27.9443 199.157 28.1699C198.927 28.416 198.812 28.71 198.812 29.0518V30.1216C198.812 30.3084 198.851 30.4554 198.931 30.5625C199.011 30.6696 199.116 30.7231 199.246 30.7231V30.7949H197.735V30.7231C197.99 30.7004 198.118 30.4862 198.118 30.0806V28.5596C198.118 28.0742 197.948 27.8315 197.608 27.8315C197.34 27.8315 197.098 27.9523 196.884 28.1938C196.672 28.4331 196.566 28.7191 196.566 29.0518V30.1216C196.566 30.5226 196.701 30.7231 196.973 30.7231V30.7949H195.465V30.7231C195.643 30.7231 195.762 30.6343 195.821 30.4565C195.857 30.3472 195.875 30.1774 195.875 29.9473V28.3306C195.875 28.0093 195.834 27.7939 195.752 27.6846C195.711 27.6299 195.616 27.5889 195.465 27.5615V27.5034L196.385 27.4043C196.439 27.4863 196.484 27.5991 196.518 27.7427C196.55 27.8771 196.566 28.0104 196.566 28.1426Z" fill="#D8D8D8"/>
</svg>
