<svg width="190" height="40" viewBox="0 0 190 40" fill="none" xmlns="http://www.w3.org/2000/svg">
<path d="M33.5049 11.6561L43.7167 5.68598C47.4867 3.48189 52.3076 4.78967 54.4843 8.60701C56.6611 12.4243 55.3695 17.3056 51.5995 19.5097L41.3877 25.4799L33.5049 11.6561Z" fill="#D8D8D8"/>
<path d="M20.7322 24.7534L11.2454 19.2074C7.87579 17.2376 6.72127 12.8748 8.66672 9.46294C10.6122 6.05106 14.9209 4.88206 18.2904 6.85191L27.7773 12.3979L20.7322 24.7534Z" stroke="#D8D8D8" stroke-width="2"/>
<path d="M30.0849 20.1641C30.7876 20.1641 31.3573 19.5873 31.3573 18.8758C31.3573 18.1642 30.7876 17.5874 30.0849 17.5874C29.3822 17.5874 28.8125 18.1642 28.8125 18.8758C28.8125 19.5873 29.3822 20.1641 30.0849 20.1641Z" fill="#D8D8D8"/>
<path d="M26.9032 24.0288C27.606 24.0288 28.1756 23.452 28.1756 22.7405C28.1756 22.029 27.606 21.4521 26.9032 21.4521C26.2005 21.4521 25.6309 22.029 25.6309 22.7405C25.6309 23.452 26.2005 24.0288 26.9032 24.0288Z" fill="#D8D8D8"/>
<path d="M26.2665 31.1148C26.9692 31.1148 27.5389 30.538 27.5389 29.8264C27.5389 29.1149 26.9692 28.5381 26.2665 28.5381C25.5638 28.5381 24.9941 29.1149 24.9941 29.8264C24.9941 30.538 25.5638 31.1148 26.2665 31.1148Z" fill="#D8D8D8"/>
<path d="M28.1747 36.9136C28.8774 36.9136 29.4471 36.3368 29.4471 35.6253C29.4471 34.9137 28.8774 34.3369 28.1747 34.3369C27.472 34.3369 26.9023 34.9137 26.9023 35.6253C26.9023 36.3368 27.472 36.9136 28.1747 36.9136Z" fill="#D8D8D8"/>
<path d="M32.6288 35.6255C33.3315 35.6255 33.9012 35.0487 33.9012 34.3372C33.9012 33.6256 33.3315 33.0488 32.6288 33.0488C31.9261 33.0488 31.3564 33.6256 31.3564 34.3372C31.3564 35.0487 31.9261 35.6255 32.6288 35.6255Z" fill="#D8D8D8"/>
<path d="M34.8561 31.759C35.7345 31.759 36.4466 31.0379 36.4466 30.1485C36.4466 29.2591 35.7345 28.5381 34.8561 28.5381C33.9777 28.5381 33.2656 29.2591 33.2656 30.1485C33.2656 31.0379 33.9777 31.759 34.8561 31.759Z" fill="#D8D8D8"/>
<path d="M30.403 27.2516C31.2814 27.2516 31.9935 26.5306 31.9935 25.6412C31.9935 24.7518 31.2814 24.0308 30.403 24.0308C29.5246 24.0308 28.8125 24.7518 28.8125 25.6412C28.8125 26.5306 29.5246 27.2516 30.403 27.2516Z" fill="#D8D8D8"/>
<path d="M35.1737 24.0288C35.8765 24.0288 36.4461 23.452 36.4461 22.7405C36.4461 22.029 35.8765 21.4521 35.1737 21.4521C34.471 21.4521 33.9014 22.029 33.9014 22.7405C33.9014 23.452 34.471 24.0288 35.1737 24.0288Z" fill="#D8D8D8"/>
<path d="M29.7668 31.7587C30.2938 31.7587 30.7211 31.3261 30.7211 30.7924C30.7211 30.2588 30.2938 29.8262 29.7668 29.8262C29.2397 29.8262 28.8125 30.2588 28.8125 30.7924C28.8125 31.3261 29.2397 31.7587 29.7668 31.7587Z" fill="#D8D8D8"/>
<path d="M43.4443 6.58796C44.7167 5.72906 48.025 4.46218 51.0787 6.26587C49.1701 6.15853 44.9712 6.07266 43.4443 6.58796Z" fill="#D8D8D8"/>
<path d="M80.7994 32.2172C80.4868 31.2902 80.163 30.3746 79.8281 29.4702C79.4932 28.5658 79.1694 27.6389 78.8568 26.6893H69.0769C68.7644 27.6389 68.4406 28.5772 68.1056 29.5041C67.7931 30.4085 67.4804 31.3128 67.1678 32.2172H62.7803C63.6511 29.7076 64.4773 27.3902 65.2587 25.265C66.0402 23.1397 66.7994 21.1276 67.5363 19.2285C68.2955 17.3293 69.0434 15.5207 69.7803 13.8024C70.5171 12.0841 71.2763 10.3884 72.0578 8.71542H76.0434C76.8249 10.3884 77.5841 12.0841 78.3209 13.8024C79.0578 15.5207 79.7946 17.3293 80.5315 19.2285C81.2907 21.1276 82.061 23.1397 82.8425 25.265C83.6463 27.3902 84.4836 29.7076 85.3544 32.2172H80.7994ZM73.9669 13.2598C73.4533 14.458 72.8616 15.9163 72.1918 17.6345C71.5443 19.3528 70.8632 21.2181 70.1487 23.2302H77.7851C77.0706 21.2181 76.3784 19.3415 75.7085 17.6006C75.0386 15.8598 74.4581 14.4128 73.9669 13.2598ZM102.958 28.5206V32.2172H88.2884V8.71542H92.5085V28.5206H102.958ZM122.437 32.2172C122.124 31.2902 121.8 30.3746 121.466 29.4702C121.131 28.5658 120.807 27.6389 120.494 26.6893H110.714C110.401 27.6389 110.078 28.5772 109.743 29.5041C109.43 30.4085 109.118 31.3128 108.805 32.2172H104.418C105.289 29.7076 106.114 27.3902 106.896 25.265C107.677 23.1397 108.437 21.1276 109.174 19.2285C109.932 17.3293 110.681 15.5207 111.418 13.8024C112.155 12.0841 112.913 10.3884 113.695 8.71542H117.681C118.462 10.3884 119.222 12.0841 119.958 13.8024C120.695 15.5207 121.432 17.3293 122.169 19.2285C122.928 21.1276 123.698 23.1397 124.48 25.265C125.284 27.3902 126.121 29.7076 126.992 32.2172H122.437ZM115.604 13.2598C115.09 14.458 114.499 15.9163 113.829 17.6345C113.181 19.3528 112.5 21.2181 111.786 23.2302H119.423C118.707 21.2181 118.016 19.3415 117.346 17.6006C116.676 15.8598 116.095 14.4128 115.604 13.2598ZM136.322 8.47803C139.671 8.47803 142.229 9.09974 143.992 10.3432C145.779 11.5868 146.671 13.4859 146.671 16.0406C146.671 19.2285 145.12 21.3876 142.016 22.518C142.44 23.038 142.92 23.6711 143.456 24.4172C143.992 25.1632 144.54 25.9772 145.097 26.8589C145.656 27.718 146.192 28.6111 146.705 29.538C147.219 30.4424 147.676 31.3354 148.078 32.2172H143.356C142.932 31.4032 142.474 30.5893 141.982 29.7754C141.492 28.9389 140.989 28.1363 140.475 27.3676C139.985 26.5763 139.493 25.8415 139.002 25.1632C138.511 24.4623 138.053 23.8406 137.628 23.298C137.316 23.3207 137.048 23.3319 136.825 23.3319C136.602 23.3319 136.389 23.3319 136.188 23.3319H134.145V32.2172H129.925V9.05455C130.952 8.82843 132.047 8.68151 133.207 8.61368C134.369 8.52322 135.407 8.47803 136.322 8.47803ZM136.624 12.1745C135.731 12.1745 134.905 12.2085 134.145 12.2763V19.8728H135.987C137.015 19.8728 137.919 19.8163 138.7 19.7032C139.482 19.5902 140.129 19.3868 140.643 19.0928C141.179 18.7989 141.581 18.4033 141.848 17.9059C142.116 17.4084 142.25 16.7754 142.25 16.0067C142.25 15.2833 142.116 14.6728 141.848 14.1754C141.581 13.678 141.19 13.2824 140.676 12.9885C140.186 12.6945 139.594 12.491 138.901 12.378C138.209 12.2424 137.45 12.1745 136.624 12.1745ZM156.406 8.71542C156.898 9.57452 157.444 10.6258 158.047 11.8693C158.65 13.1128 159.265 14.4241 159.889 15.8032C160.515 17.1598 161.129 18.5502 161.731 19.9745C162.357 21.3763 162.926 22.6763 163.44 23.8745C163.954 22.6763 164.511 21.3763 165.114 19.9745C165.717 18.5502 166.332 17.1598 166.956 15.8032C167.582 14.4241 168.196 13.1128 168.798 11.8693C169.401 10.6258 169.949 9.57452 170.44 8.71542H174.258C174.459 10.4337 174.649 12.265 174.827 14.2093C175.006 16.1311 175.162 18.1093 175.296 20.1441C175.453 22.1563 175.587 24.191 175.698 26.2485C175.832 28.2832 175.944 30.2728 176.033 32.2172H171.88C171.791 29.4815 171.679 26.6667 171.545 23.7728C171.434 20.8789 171.255 18.0754 171.009 15.3624C170.764 15.8823 170.473 16.5041 170.138 17.2276C169.803 17.951 169.447 18.7424 169.066 19.6015C168.687 20.4381 168.296 21.3084 167.894 22.2128C167.515 23.1172 167.136 23.9989 166.755 24.858C166.399 25.6946 166.064 26.4859 165.751 27.2319C165.438 27.9554 165.17 28.5772 164.947 29.0972H161.798C161.576 28.5772 161.308 27.9441 160.995 27.198C160.682 26.4519 160.337 25.6607 159.956 24.8241C159.6 23.965 159.22 23.0833 158.818 22.1789C158.438 21.2745 158.059 20.4041 157.679 19.5676C157.3 18.731 156.942 17.951 156.607 17.2276C156.272 16.4815 155.982 15.8598 155.736 15.3624C155.491 18.0754 155.301 20.8789 155.167 23.7728C155.056 26.6667 154.955 29.4815 154.865 32.2172H150.712C150.802 30.2728 150.902 28.2606 151.014 26.1806C151.148 24.1007 151.282 22.0432 151.416 20.0085C151.572 17.951 151.74 15.9615 151.918 14.0398C152.097 12.118 152.286 10.3432 152.487 8.71542H156.406Z" fill="#D8D8D8"/>
</svg>
