<svg width="64" height="64" viewBox="0 0 64 64" fill="none" xmlns="http://www.w3.org/2000/svg">
<rect width="64" height="64" rx="32" transform="matrix(-1 0 0 1 64 0)" fill="#17171D"/>
<path d="M30.7072 41.7071C30.8946 41.5196 30.9999 41.2652 30.9999 41C30.9999 40.7348 30.8946 40.4805 30.7072 40.2929L23.4142 33H43C43.2652 33 43.5196 32.8947 43.7071 32.7071C43.8946 32.5196 44 32.2652 44 32C44 31.7348 43.8946 31.4805 43.7071 31.2929C43.5196 31.1054 43.2652 31 43 31H23.4142L30.7072 23.7071C30.8 23.6143 30.8737 23.504 30.9239 23.3827C30.9742 23.2613 31 23.1313 31 23C31 22.8687 30.9741 22.7386 30.9239 22.6173C30.8736 22.496 30.8 22.3857 30.7071 22.2929C30.6142 22.2 30.504 22.1264 30.3827 22.0761C30.2613 22.0259 30.1313 22 30 22C29.8686 22 29.7386 22.0259 29.6173 22.0761C29.4959 22.1264 29.3857 22.2001 29.2928 22.2929L20.2928 31.2929C20.2896 31.2962 20.2869 31.2998 20.2837 31.3031C20.2639 31.3233 20.2448 31.3441 20.2268 31.366C20.2168 31.3782 20.208 31.3911 20.1986 31.4037C20.1885 31.4173 20.178 31.4306 20.1685 31.4447C20.1588 31.4592 20.1503 31.4743 20.1414 31.4893C20.1336 31.5023 20.1254 31.5151 20.1182 31.5286C20.1102 31.5436 20.1033 31.5591 20.0961 31.5744C20.0893 31.5887 20.0822 31.6027 20.0762 31.6173C20.0701 31.6321 20.0651 31.6472 20.0597 31.6623C20.0541 31.678 20.048 31.6936 20.0431 31.7097C20.0386 31.7247 20.0353 31.7399 20.0315 31.755C20.0273 31.7715 20.0227 31.7879 20.0194 31.8047C20.0159 31.8221 20.0139 31.8397 20.0113 31.8572C20.0092 31.872 20.0064 31.8864 20.005 31.9013C20.0017 31.9342 20 31.9671 20 32C20 32.033 20.0017 32.0659 20.005 32.0987C20.0064 32.1136 20.0092 32.1281 20.0113 32.1428C20.0138 32.1604 20.0159 32.1779 20.0194 32.1954C20.0227 32.2122 20.0273 32.2285 20.0315 32.245C20.0353 32.2602 20.0386 32.2754 20.0431 32.2903C20.048 32.3064 20.0541 32.322 20.0597 32.3378C20.0651 32.3528 20.0701 32.3679 20.0762 32.3827C20.0822 32.3973 20.0894 32.4113 20.0961 32.4256C20.1033 32.4409 20.1102 32.4564 20.1182 32.4715C20.1254 32.4849 20.1336 32.4977 20.1414 32.5108C20.1503 32.5257 20.1588 32.5409 20.1685 32.5554C20.178 32.5695 20.1885 32.5828 20.1986 32.5963C20.208 32.6089 20.2168 32.6219 20.2268 32.6341C20.2451 32.6563 20.2646 32.6775 20.2847 32.6981C20.2876 32.701 20.2899 32.7042 20.2928 32.7071L29.2928 41.7071C29.3857 41.8 29.496 41.8736 29.6173 41.9239C29.7386 41.9742 29.8687 42 30 42C30.1313 42 30.2614 41.9742 30.3827 41.9239C30.504 41.8736 30.6143 41.8 30.7072 41.7071Z" fill="#EA4054"/>
</svg>
