<svg width="21" height="25" viewBox="0 0 21 25" fill="none" xmlns="http://www.w3.org/2000/svg">
<path d="M17.5947 3.80942L17.5947 3.80958L17.6034 3.81304C17.7907 3.88764 18.1715 4.03931 18.5727 4.17241C18.9621 4.3016 19.4111 4.42757 19.7195 4.42757C20.3093 4.42757 20.8076 4.95971 20.7447 5.64675L20.7445 5.64872C20.5965 7.41905 20.0758 10.6089 18.8061 14.6967L18.8061 14.6967C17.2618 19.6741 12.7625 22.6918 11.0521 23.6538L11.052 23.6537L11.0464 23.6571C10.7583 23.8293 10.3281 23.8405 9.94248 23.6506C8.22775 22.6851 3.73678 19.6685 2.19416 14.6967L2.19414 14.6967C0.92692 10.6168 0.479117 7.42707 0.254926 5.64279C0.194563 4.95763 0.692147 4.42757 1.28075 4.42757C1.5892 4.42757 2.03813 4.3016 2.42754 4.17241C2.82874 4.03931 3.20959 3.88764 3.39688 3.81304L3.39694 3.81321L3.4055 3.80942C4.14834 3.48086 5.0721 2.91446 6.01738 2.33486C6.38282 2.1108 6.75147 1.88476 7.11412 1.66973C7.77234 1.27946 8.41564 0.921873 9.00257 0.662239C9.59483 0.40025 10.1038 0.25 10.5 0.25C10.8962 0.25 11.4053 0.400254 11.9976 0.662242C12.5845 0.921875 13.2279 1.27946 13.8861 1.66973C14.2488 1.8848 14.6175 2.11087 14.983 2.33497C15.9283 2.91453 16.852 3.48088 17.5947 3.80942Z" fill="#6AA765" stroke="#41EA41" stroke-width="0.5"/>
<path d="M12.3612 10.7003V8.98447C12.3612 8.16388 11.6865 7.34329 10.937 7.19409C10.3375 7.11951 9.73776 7.26871 9.36286 7.71629C9.06312 8.01468 8.83824 8.4623 8.83824 8.98447V10.7749C8.38847 11.0733 7.93901 11.5209 7.63897 11.9684C7.33923 12.4161 7.18921 12.9382 7.18921 13.5351C7.11435 15.4001 8.61336 16.9665 10.4873 17.0412C12.436 17.1159 14.0102 15.5493 14.0102 13.6842C14.0102 12.4161 13.3356 11.297 12.3612 10.7003ZM11.0119 13.9826V14.8779C11.0119 15.027 10.937 15.1018 10.787 15.1018H10.4124C10.2624 15.1018 10.1875 15.027 10.1875 14.8779V14.2809V13.9081C9.81262 13.8334 9.6629 13.4603 9.73776 13.0875C9.81262 12.789 10.0375 12.4906 10.4124 12.4161C10.937 12.2669 11.4616 12.7145 11.4616 13.2367C11.3868 13.5351 11.2368 13.8334 11.0119 13.9826ZM11.6117 10.4019C11.3119 10.3273 10.937 10.2527 10.5624 10.2527C10.2624 10.2527 9.88778 10.3273 9.58774 10.4019V9.05908C9.58774 8.76069 9.73776 8.53688 9.88778 8.38769C10.1127 8.16388 10.5624 8.01468 11.0119 8.16388C11.3868 8.31308 11.6117 8.68608 11.6117 9.13367V10.4019Z" fill="url(#paint0_linear_34_5595)"/>
<defs>
<linearGradient id="paint0_linear_34_5595" x1="13.9377" y1="15.7624" x2="7.60735" y2="9.40184" gradientUnits="userSpaceOnUse">
<stop offset="0.0113208" stop-color="#C2D1FF"/>
<stop offset="1" stop-color="white"/>
</linearGradient>
</defs>
</svg>
