<svg width="82" height="44" viewBox="0 0 82 44" fill="none" xmlns="http://www.w3.org/2000/svg">
<path d="M66.752 3.99634C66.752 3.99634 66.1557 9.70252 64.4238 12.1119C64.4238 12.1119 67.5982 14.7147 67.5982 15.6975C67.5982 15.6975 67.1554 16.2763 67.7331 16.3147L71.1004 15.6591L71.2352 15.6393C71.2352 15.6393 71.7098 15.177 70.9338 15.0035C70.9338 15.0035 71.3317 11.9966 72.5823 10.4921C72.5823 10.4921 70.1774 8.87229 67.2519 3.99524L68.5025 10.7227C68.5025 10.7227 69.6951 10.916 69.0988 12.0526C69.0988 12.0526 68.5025 12.8433 67.8098 11.8209C67.8098 11.8209 67.6563 11.1466 68.2143 10.7996L66.752 3.99414V3.99634Z" fill="#EA4054"/>
<path d="M71.1258 14.6958L67.4323 15.5087C67.1981 15.5603 67.05 15.7922 67.1014 16.0268L67.1257 16.1373C67.1771 16.3719 67.4086 16.5203 67.6428 16.4687L71.3363 15.6558C71.5705 15.6043 71.7186 15.3723 71.6672 15.1377L71.6429 15.0273C71.5915 14.7927 71.36 14.6443 71.1258 14.6958Z" fill="#EA4054"/>
<path d="M72.2544 16.5064L67.6497 17.5198C67.4605 17.5615 67.3408 17.7489 67.3824 17.9384L67.4021 18.0285C67.4437 18.2181 67.6308 18.338 67.82 18.2964L72.4247 17.2829C72.6139 17.2413 72.7336 17.0539 72.692 16.8643L72.6722 16.7742C72.6307 16.5846 72.4436 16.4647 72.2544 16.5064Z" fill="#EA4054"/>
<path d="M71.5586 15.7102L67.6873 16.5623C67.4981 16.6039 67.3784 16.7914 67.42 16.9809L67.4397 17.071C67.4813 17.2606 67.6684 17.3805 67.8576 17.3389L71.7289 16.4868C71.9181 16.4452 72.0378 16.2577 71.9962 16.0682L71.9765 15.9781C71.9349 15.7885 71.7478 15.6686 71.5586 15.7102Z" fill="#EA4054"/>
<path d="M72.5429 17.4201L67.9725 18.4261C67.7833 18.4677 67.6636 18.6551 67.7051 18.8447L67.7249 18.9348C67.7665 19.1244 67.9535 19.2443 68.1428 19.2026L72.7132 18.1967C72.9024 18.1551 73.0221 17.9676 72.9805 17.7781L72.9607 17.688C72.9192 17.4984 72.7321 17.3785 72.5429 17.4201Z" fill="#EA4054"/>
<path d="M69.9845 17.984L67.9194 18.4508C67.9194 18.4508 67.7374 18.5375 67.7046 18.7495C67.7046 18.7495 67.7013 18.8714 67.7342 18.9988L67.8295 19.6116L67.9512 20.4165L68.1003 21.4378L68.2526 22.5327L68.4061 23.7122L68.5574 25.0146C68.5574 25.0146 68.7295 26.6509 68.7064 26.7915C68.7064 26.7915 68.7722 27.5548 68.6933 27.8469C68.6933 27.8469 68.6144 28.3509 68.1068 28.7737C68.1068 28.7737 65.5123 31.6389 65.2306 32.0595C64.8404 32.6405 63.2312 34.3383 62.6229 36.2524C62.6229 36.2524 61.9071 38.1281 62.0397 39.9632C62.0397 39.9632 61.8962 43.3269 65.4794 43.976C65.4794 43.976 68.5815 44.5119 71.5728 40.5331C74.5653 36.5544 74.7111 32.367 74.7111 32.367C74.7111 32.367 75.0673 28.8956 74.9906 28.0588C74.9138 27.222 75.5353 26.8069 75.5353 26.8069C75.5353 26.8069 78.45 23.9736 78.6977 23.3619C78.6977 23.3619 79.8377 21.6674 80.2849 20.5318C80.2849 20.5318 81.803 17.6227 81.6178 13.8252C81.4325 10.0277 79.9385 7.65229 79.9385 7.65229C79.9385 7.65229 77.4042 2.3766 71.8282 0.70845C66.2511 -0.959698 62.3226 0.841331 62.3226 0.841331C62.3226 0.841331 57.0699 2.42821 54.3975 7.65449L54.004 8.4957C53.7968 8.93827 53.8374 9.4665 54.1388 9.84977C54.3186 10.0782 54.5937 10.2682 55.0135 10.2989C55.6394 10.344 56.228 9.98704 56.5087 9.42477C57.1762 8.09157 59.0659 4.97601 62.6909 3.60437C62.6909 3.60437 68.7382 0.788618 74.095 5.05178C79.4518 9.31495 78.8424 14.4424 78.8424 14.4424C78.8424 14.4424 78.9323 19.1459 76.0461 22.211C76.0461 22.211 74.8459 23.6529 74.4041 23.8319L69.6699 31.8684C69.6699 31.8684 69.3531 36.93 68.348 38.7782C68.348 38.7782 67.6509 41.7906 65.5912 41.505C63.5316 41.2195 64.9281 37.7789 64.9281 37.7789C64.9281 37.7789 66.5164 34.112 69.1295 32.2868L69.5044 32.0112L74.3723 23.643L73.8385 21.9189L73.2466 19.4413L72.9704 17.7326C72.9704 17.7326 72.9419 17.3647 72.4662 17.436L69.9845 17.9829V17.984Z" fill="#EA4054"/>
<path d="M74.372 23.645C74.372 23.645 74.3292 23.6813 74.4037 23.8339L74.3599 24.6905L73.8623 26.1269L72.9382 27.6885L69.6695 31.8715L69.5029 32.0132L69.561 31.1874L70.4752 28.5946L70.9334 26.5607L73.3613 23.6977L74.372 23.645Z" fill="#EA4054"/>
<path d="M0 41V37.4576H4.76146C5.42922 37.4576 5.86472 37.3112 6.03892 36.9892C6.15505 36.8136 6.24215 36.5501 6.24215 36.2573V35.2619H5.45825C2.23556 35.2619 0 33.1248 0 29.9337V27.2989C0 24.1664 2.23556 22 5.45825 22H9.72614V31.7781H9.90034V35.2619H9.72614V35.8182C9.72614 39.1556 7.83898 41 4.44209 41H0ZM6.24215 25.4838H5.34212C4.09369 25.4838 3.45496 26.1864 3.45496 27.621V29.6117C3.45496 31.0462 4.09369 31.7781 5.34212 31.7781H6.24215V25.4838Z" fill="white"/>
<path d="M20.9586 31.7781V27.621C20.9586 26.1864 20.3489 25.4838 19.1295 25.4838H13.9906V22H19.0134C22.2361 22 24.4716 24.1664 24.4716 27.2989V35.2619H9.72274V31.7781H20.9586ZM16.3714 37.4576H19.8554V41H16.3714V37.4576Z" fill="white"/>
<path d="M27.0769 41V37.4576H31.8384C32.5061 37.4576 32.9416 37.3112 33.1158 36.9892C33.232 36.8136 33.3191 36.5501 33.3191 36.2573V35.2619H32.5352C29.3125 35.2619 27.0769 33.1248 27.0769 29.9337V27.2989C27.0769 24.1664 29.3125 22 32.5352 22H36.8031V35.8182C36.8031 39.1556 34.9159 41 31.519 41H27.0769ZM33.3191 25.4838H32.419C31.1706 25.4838 30.5319 26.1864 30.5319 27.621V29.6117C30.5319 31.0462 31.1706 31.7781 32.419 31.7781H33.3191V25.4838Z" fill="white"/>
<path d="M38.8297 37.5747H39.2652C40.9782 37.5747 41.8201 36.755 41.8201 35.1741V22H45.2751V31.7781H45.4493V35.2619H45.2751C45.1009 39.7411 42.4589 41 39.2943 41H38.8297V37.5747Z" fill="white"/>
<path d="M49.545 37.4576H53V41H49.545V37.4576ZM45.2771 31.7781H49.545V22H53V35.2619H45.2771V31.7781Z" fill="white"/>
</svg>
