<svg width="84" height="44" viewBox="0 0 84 44" fill="none" xmlns="http://www.w3.org/2000/svg">
<g clip-path="url(#clip0_124_713)">
<path d="M38.8624 37.109C38.9259 37.1793 38.9424 37.2792 38.904 37.366C38.8656 37.4527 38.7801 37.5088 38.6859 37.5088H35.3416C35.2078 37.5088 35.0796 37.4516 34.9897 37.3528L28.5828 30.3123C28.5192 30.242 28.5028 30.1421 28.5412 30.0554C28.5795 29.9686 28.665 29.9126 28.7593 29.9137H35.3262C35.5915 29.9038 36.1275 29.8774 36.1275 29.1285C36.1275 28.9736 36.1089 28.6969 35.985 28.5761C35.8403 28.4729 35.6704 28.4114 35.4939 28.3982H27.5842C27.3212 28.3982 27.1074 28.184 27.1074 27.9205V25.8449C27.1074 25.5813 27.3212 25.3672 27.5842 25.3672H35.4479C35.723 25.3672 37.0757 25.4078 38.0962 26.405C38.5785 26.875 39.1517 27.7294 39.1517 29.1274C39.1517 30.6583 38.4469 31.8553 37.1677 32.4966C36.6569 32.7239 36.1122 32.8634 35.5553 32.9106C35.4654 32.9194 35.3887 32.9787 35.3569 33.0633C35.3251 33.1478 35.3427 33.2423 35.403 33.3093L38.8613 37.1112L38.8624 37.109Z" fill="white"/>
<path d="M50.0153 31.4266H53.0406C53.0406 34.7058 50.4373 37.3909 47.1653 37.4853C43.8934 37.5809 41.1399 35.0506 40.9503 31.7769C40.7606 28.5032 43.2039 25.6721 46.4649 25.3866C46.5986 25.3734 46.7324 25.4173 46.8321 25.5085C46.9319 25.5985 46.99 25.727 46.99 25.8621V27.9508C46.99 28.1881 46.8168 28.389 46.5822 28.422C45.4422 28.5779 44.4897 29.3675 44.1225 30.4591C43.7553 31.5507 44.037 32.7565 44.8503 33.5725C45.6636 34.3873 46.8672 34.6707 47.9568 34.3039C49.1954 33.8953 50.0274 32.7302 50.0142 31.4244L50.0153 31.4266Z" fill="white"/>
<path d="M57.85 29.953V32.8884C57.9081 34.2524 58.8475 34.4566 59.4044 34.4566H63.4096C63.6727 34.4566 63.8864 34.2425 63.8864 33.9789V30.3879C63.8864 30.1243 64.1002 29.9101 64.3633 29.9101H66.435C66.561 29.9101 66.6827 29.9607 66.7715 30.0496C66.8614 30.1397 66.9107 30.2605 66.9107 30.3868V37.0088C66.9107 37.2724 66.6969 37.4865 66.4339 37.4865H59.4033C56.0896 37.4865 54.8488 34.7641 54.8247 32.9335V29.9519C54.8247 26.7078 57.53 25.4317 59.3484 25.3647H59.4033H66.4339C66.6969 25.3647 66.9096 25.5789 66.9096 25.8425V27.918C66.9096 28.0443 66.8592 28.1662 66.7704 28.2552C66.6805 28.3452 66.5599 28.3946 66.4339 28.3946H59.4471C59.1183 28.4287 58.8004 28.5264 58.5088 28.6824C58.1822 28.8669 57.8489 29.1612 57.8489 29.9519L57.85 29.953Z" fill="white"/>
<path d="M80.9762 31.4266H84.0016C84.0016 34.7058 81.3982 37.3909 78.1263 37.4853C74.8543 37.5798 72.1008 35.0506 71.9112 31.7769C71.7216 28.5032 74.1649 25.6721 77.4259 25.3866C77.5596 25.3734 77.6933 25.4173 77.7931 25.5085C77.8928 25.5985 77.9509 25.727 77.9509 25.8621V27.9508C77.9509 28.1881 77.7777 28.389 77.5431 28.422C76.4032 28.5779 75.4506 29.3675 75.0834 30.4591C74.7162 31.5507 74.9979 32.7565 75.8113 33.5725C76.6246 34.3873 77.8281 34.6707 78.9177 34.3039C80.1563 33.8953 80.9883 32.7302 80.9751 31.4244L80.9762 31.4266Z" fill="white"/>
<path d="M12.877 3.99536C12.877 3.99536 12.2807 9.70154 10.5488 12.111C10.5488 12.111 13.7232 14.7137 13.7232 15.6966C13.7232 15.6966 13.2804 16.2753 13.8581 16.3137L17.2254 15.6581L17.3602 15.6383C17.3602 15.6383 17.8348 15.176 17.0588 15.0025C17.0588 15.0025 17.4567 11.9957 18.7073 10.4911C18.7073 10.4911 16.3024 8.87131 13.3769 3.99426L14.6275 10.7218C14.6275 10.7218 15.8201 10.915 15.2238 12.0517C15.2238 12.0517 14.6275 12.8424 13.9348 11.8199C13.9348 11.8199 13.7813 11.1457 14.3393 10.7986L12.877 3.99316V3.99536Z" fill="#EA4054"/>
<path d="M17.2508 14.6948L13.5573 15.5078C13.3231 15.5593 13.175 15.7912 13.2264 16.0258L13.2507 16.1363C13.3021 16.3709 13.5336 16.5193 13.7678 16.4678L17.4613 15.6548C17.6955 15.6033 17.8436 15.3713 17.7922 15.1368L17.7679 15.0263C17.7165 14.7917 17.485 14.6433 17.2508 14.6948Z" fill="#EA4054"/>
<path d="M18.3794 16.5054L13.7747 17.5188C13.5855 17.5605 13.4658 17.7479 13.5074 17.9375L13.5271 18.0276C13.5687 18.2171 13.7558 18.3371 13.945 18.2954L18.5497 17.282C18.7389 17.2403 18.8586 17.0529 18.817 16.8633L18.7972 16.7732C18.7557 16.5836 18.5686 16.4637 18.3794 16.5054Z" fill="#EA4054"/>
<path d="M17.6836 15.7093L13.8123 16.5613C13.6231 16.603 13.5034 16.7904 13.545 16.98L13.5647 17.0701C13.6063 17.2596 13.7934 17.3795 13.9826 17.3379L17.8539 16.4858C18.0431 16.4442 18.1628 16.2568 18.1212 16.0672L18.1015 15.9771C18.0599 15.7875 17.8728 15.6676 17.6836 15.7093Z" fill="#EA4054"/>
<path d="M18.6679 17.4192L14.0975 18.4251C13.9083 18.4667 13.7886 18.6542 13.8301 18.8437L13.8499 18.9338C13.8915 19.1234 14.0785 19.2433 14.2678 19.2017L18.8382 18.1957C19.0274 18.1541 19.1471 17.9667 19.1055 17.7771L19.0857 17.687C19.0442 17.4974 18.8571 17.3775 18.6679 17.4192Z" fill="#EA4054"/>
<path d="M16.1095 17.9831L14.0444 18.4498C14.0444 18.4498 13.8624 18.5366 13.8296 18.7485C13.8296 18.7485 13.8263 18.8704 13.8592 18.9978L13.9545 19.6106L14.0762 20.4156L14.2253 21.4369L14.3776 22.5318L14.5311 23.7112L14.6824 25.0137C14.6824 25.0137 14.8545 26.65 14.8314 26.7905C14.8314 26.7905 14.8972 27.5538 14.8183 27.8459C14.8183 27.8459 14.7394 28.35 14.2318 28.7728C14.2318 28.7728 11.6373 31.6379 11.3556 32.0585C10.9654 32.6395 9.35625 34.3373 8.74789 36.2514C8.74789 36.2514 8.03212 38.1271 8.16475 39.9622C8.16475 39.9622 8.02116 43.326 11.6044 43.975C11.6044 43.975 14.7065 44.5109 17.6978 40.5322C20.6903 36.5534 20.8361 32.366 20.8361 32.366C20.8361 32.366 21.1923 28.8947 21.1156 28.0578C21.0388 27.221 21.6603 26.8059 21.6603 26.8059C21.6603 26.8059 24.575 23.9726 24.8227 23.3609C24.8227 23.3609 25.9627 21.6664 26.4099 20.5309C26.4099 20.5309 27.928 17.6218 27.7428 13.8242C27.5575 10.0267 26.0635 7.65132 26.0635 7.65132C26.0635 7.65132 23.5292 2.37562 17.9532 0.707473C12.3761 -0.960674 8.44755 0.840354 8.44755 0.840354C8.44755 0.840354 3.19488 2.42724 0.522505 7.65351L0.128993 8.49472C-0.0781761 8.93729 -0.0376191 9.46552 0.263818 9.84879C0.443583 10.0772 0.718713 10.2672 1.13853 10.2979C1.76442 10.343 2.35305 9.98606 2.63366 9.42379C3.3012 8.09059 5.19094 4.97503 8.81585 3.6034C8.81585 3.6034 14.8632 0.787641 20.22 5.05081C25.5768 9.31397 24.9674 14.4414 24.9674 14.4414C24.9674 14.4414 25.0573 19.145 22.1711 22.21C22.1711 22.21 20.9709 23.6519 20.5291 23.8309L15.7949 31.8675C15.7949 31.8675 15.4781 36.929 14.473 38.7773C14.473 38.7773 13.7759 41.7896 11.7162 41.5041C9.65659 41.2185 11.0531 37.7779 11.0531 37.7779C11.0531 37.7779 12.6414 34.1111 15.2545 32.2859L15.6294 32.0102L20.4973 23.642L19.9635 21.9179L19.3716 19.4404L19.0954 17.7316C19.0954 17.7316 19.0669 17.3637 18.5912 17.4351L16.1095 17.982V17.9831Z" fill="#EA4054"/>
<path d="M20.497 23.644C20.497 23.644 20.4542 23.6803 20.5287 23.8329L20.4849 24.6895L19.9873 26.1259L19.0632 27.6876L15.7945 31.8706L15.6279 32.0122L15.686 31.1864L16.6002 28.5936L17.0584 26.5597L19.4863 23.6968L20.497 23.644Z" fill="#EA4054"/>
</g>
<defs>
<clipPath id="clip0_124_713">
<rect width="84" height="44" fill="white"/>
</clipPath>
</defs>
</svg>
