<svg width="111" height="58" viewBox="0 0 111 58" fill="none" xmlns="http://www.w3.org/2000/svg">
<g clip-path="url(#clip0_1689_6585)">
<path d="M51.3438 48.9163C51.4278 49.009 51.4495 49.1407 51.3988 49.2551C51.3481 49.3694 51.2351 49.4433 51.1106 49.4433H46.6922C46.5155 49.4433 46.3461 49.368 46.2273 49.2377L37.7627 39.9571C37.6787 39.8644 37.657 39.7327 37.7077 39.6183C37.7584 39.504 37.8713 39.4301 37.9959 39.4316H46.6719C47.0224 39.4186 47.7305 39.3838 47.7305 38.3965C47.7305 38.1924 47.7059 37.8276 47.5423 37.6684C47.3511 37.5323 47.1267 37.4513 46.8935 37.4339H36.4434C36.0959 37.4339 35.8135 37.1516 35.8135 36.8042V34.0682C35.8135 33.7208 36.0959 33.4385 36.4434 33.4385H46.8327C47.1962 33.4385 48.9832 33.492 50.3315 34.8065C50.9687 35.426 51.7261 36.5523 51.7261 38.3951C51.7261 40.4131 50.7949 41.991 49.1049 42.8364C48.43 43.136 47.7103 43.3199 46.9746 43.3821C46.8558 43.3937 46.7545 43.4719 46.7125 43.5833C46.6705 43.6948 46.6937 43.8193 46.7733 43.9076L51.3423 48.9192L51.3438 48.9163Z" fill="white"/>
<path d="M66.079 41.4263H70.0759C70.0759 45.7489 66.6365 49.2883 62.3137 49.4128C57.9909 49.5387 54.353 46.2034 54.1025 41.8881C53.852 37.5728 57.08 33.8408 61.3883 33.4645C61.565 33.4471 61.7417 33.505 61.8734 33.6251C62.0052 33.7438 62.082 33.9132 62.082 34.0913V36.8446C62.082 37.1573 61.8532 37.4222 61.5433 37.4657C60.0372 37.6712 58.7787 38.712 58.2935 40.151C57.8084 41.5899 58.1806 43.1794 59.2551 44.2549C60.3297 45.3291 61.9198 45.7026 63.3593 45.2191C64.9957 44.6805 66.0949 43.1446 66.0775 41.4234L66.079 41.4263Z" fill="white"/>
<path d="M76.4296 39.4837V43.3531C76.5063 45.1511 77.7474 45.4203 78.4831 45.4203H83.7748C84.1223 45.4203 84.4047 45.138 84.4047 44.7906V40.0569C84.4047 39.7095 84.6871 39.4272 85.0347 39.4272H87.7717C87.9383 39.4272 88.099 39.4938 88.2163 39.6111C88.3351 39.7298 88.4002 39.889 88.4002 40.0555V48.7846C88.4002 49.132 88.1178 49.4143 87.7703 49.4143H78.4817C74.1038 49.4143 72.4645 45.8257 72.4326 43.4125V39.4822C72.4326 35.206 76.0067 33.5239 78.4093 33.4355H78.4817H87.7703C88.1178 33.4355 88.3988 33.7178 88.3988 34.0653V36.8012C88.3988 36.9677 88.3322 37.1284 88.2149 37.2457C88.0961 37.3644 87.9368 37.4295 87.7703 37.4295H78.5396C78.1051 37.4744 77.6852 37.6032 77.3 37.8088C76.8684 38.052 76.4281 38.4399 76.4281 39.4822L76.4296 39.4837Z" fill="white"/>
<path d="M106.983 41.4263H110.98C110.98 45.7489 107.541 49.2883 103.218 49.4128C98.8952 49.5373 95.2573 46.2034 95.0068 41.8881C94.7563 37.5728 97.9843 33.8408 102.293 33.4645C102.469 33.4471 102.646 33.505 102.778 33.6251C102.91 33.7438 102.986 33.9132 102.986 34.0913V36.8446C102.986 37.1573 102.757 37.4222 102.448 37.4657C100.941 37.6712 99.683 38.712 99.1978 40.151C98.7127 41.5899 99.0849 43.1794 100.159 44.2549C101.234 45.3291 102.824 45.7026 104.264 45.2191C105.9 44.6805 106.999 43.1446 106.982 41.4234L106.983 41.4263Z" fill="white"/>
<path d="M17.0125 5.26657C17.0125 5.26657 16.2246 12.7884 13.9365 15.9644C13.9365 15.9644 18.1305 19.3953 18.1305 20.6909C18.1305 20.6909 17.5454 21.4538 18.3086 21.5044L22.7574 20.6402L22.9355 20.6141C22.9355 20.6141 23.5626 20.0047 22.5373 19.776C22.5373 19.776 23.063 15.8124 24.7153 13.8292C24.7153 13.8292 21.538 11.694 17.6728 5.26512L19.3252 14.1332C19.3252 14.1332 20.9008 14.388 20.113 15.8862C20.113 15.8862 19.3252 16.9285 18.4099 15.5808C18.4099 15.5808 18.2072 14.692 18.9443 14.2345L17.0125 5.26367V5.26657Z" fill="#ED5C6D"/>
<path d="M22.7915 19.3703L17.9117 20.4419C17.6023 20.5099 17.4067 20.8156 17.4746 21.1248L17.5066 21.2705C17.5746 21.5797 17.8804 21.7753 18.1898 21.7074L23.0696 20.6358C23.379 20.5679 23.5747 20.2621 23.5067 19.9529L23.4747 19.8073C23.4068 19.498 23.1009 19.3024 22.7915 19.3703Z" fill="#ED5C6D"/>
<path d="M24.2823 21.7566L18.1987 23.0925C17.9487 23.1474 17.7906 23.3945 17.8455 23.6443L17.8716 23.7631C17.9265 24.013 18.1737 24.1711 18.4237 24.1162L24.5072 22.7802C24.7572 22.7253 24.9153 22.4783 24.8604 22.2284L24.8343 22.1096C24.7794 21.8598 24.5323 21.7017 24.2823 21.7566Z" fill="#ED5C6D"/>
<path d="M23.3632 20.7076L18.2485 21.8308C17.9985 21.8857 17.8404 22.1327 17.8953 22.3826L17.9214 22.5014C17.9763 22.7513 18.2235 22.9093 18.4735 22.8544L23.5881 21.7313C23.8381 21.6764 23.9963 21.4293 23.9413 21.1794L23.9152 21.0607C23.8603 20.8108 23.6132 20.6527 23.3632 20.7076Z" fill="#ED5C6D"/>
<path d="M24.6638 22.9613L18.6255 24.2873C18.3755 24.3422 18.2174 24.5893 18.2723 24.8392L18.2984 24.9579C18.3533 25.2078 18.6005 25.3659 18.8504 25.311L24.8887 23.985C25.1387 23.9301 25.2968 23.683 25.2419 23.4332L25.2158 23.3144C25.1609 23.0645 24.9137 22.9065 24.6638 22.9613Z" fill="#ED5C6D"/>
<path d="M21.2834 23.7048L18.5551 24.32C18.5551 24.32 18.3147 24.4344 18.2712 24.7138C18.2712 24.7138 18.2669 24.8744 18.3103 25.0424L18.4363 25.8501L18.5971 26.9112L18.794 28.2575L18.9953 29.7008L19.1981 31.2555L19.3979 32.9724C19.3979 32.9724 19.6253 35.1293 19.5949 35.3146C19.5949 35.3146 19.6817 36.3207 19.5775 36.7058C19.5775 36.7058 19.4732 37.3702 18.8027 37.9276C18.8027 37.9276 15.3749 41.7044 15.0027 42.2588C14.4871 43.0246 12.3612 45.2626 11.5575 47.7858C11.5575 47.7858 10.6118 50.2583 10.787 52.6773C10.787 52.6773 10.5973 57.1113 15.3314 57.9668C15.3314 57.9668 19.4298 58.6733 23.3818 53.4286C27.3354 48.1839 27.528 42.6641 27.528 42.6641C27.528 42.6641 27.9986 38.0882 27.8973 36.9852C27.7959 35.8821 28.617 35.3349 28.617 35.3349C28.617 35.3349 32.4677 31.6 32.795 30.7937C32.795 30.7937 34.3011 28.5601 34.892 27.0632C34.892 27.0632 36.8977 23.2285 36.653 18.2227C36.4082 13.2168 34.4344 10.0856 34.4344 10.0856C34.4344 10.0856 31.0862 3.13132 23.7193 0.932401C16.3509 -1.26652 11.1607 1.10756 11.1607 1.10756C11.1607 1.10756 4.22098 3.19936 0.690318 10.0885L0.170422 11.1974C-0.103284 11.7808 -0.0497013 12.4771 0.348548 12.9823C0.58605 13.2834 0.949543 13.5339 1.5042 13.5744C2.33111 13.6337 3.10878 13.1633 3.47951 12.4221C4.36145 10.6647 6.85812 6.55782 11.6472 4.74975C11.6472 4.74975 19.6369 1.03808 26.7141 6.6577C33.7914 12.2773 32.9862 19.0362 32.9862 19.0362C32.9862 19.0362 33.1049 25.2363 29.2919 29.2766C29.2919 29.2766 27.7061 31.1773 27.1225 31.4133L20.8678 42.0069C20.8678 42.0069 20.4493 48.679 19.1213 51.1153C19.1213 51.1153 18.2003 55.0861 15.4791 54.7097C12.758 54.3333 14.603 49.798 14.603 49.798C14.603 49.798 16.7014 44.9644 20.1539 42.5585L20.6491 42.1951L27.0805 31.1643L26.3752 28.8916L25.5932 25.6258L25.2283 23.3733C25.2283 23.3733 25.1906 22.8883 24.5621 22.9824L21.2834 23.7033V23.7048Z" fill="#ED5C6D"/>
<path d="M27.0803 31.167C27.0803 31.167 27.0238 31.2148 27.1223 31.416L27.0643 32.5451L26.4069 34.4386L25.1861 36.4971L20.8676 42.011L20.6475 42.1978L20.7242 41.1092L21.932 37.6914L22.5373 35.0104L25.7451 31.2365L27.0803 31.167Z" fill="#ED5C6D"/>
</g>
<defs>
<clipPath id="clip0_1689_6585">
<rect width="110.978" height="58" fill="white"/>
</clipPath>
</defs>
</svg>
