<svg width="29" height="40" viewBox="0 0 29 40" fill="none" xmlns="http://www.w3.org/2000/svg">
<path d="M27.3828 14.8262C27.3828 7.43826 21.2024 1.50936 13.7845 2.03211C7.55502 2.46883 2.49742 7.55075 2.03585 13.8469C1.62993 19.392 4.71032 24.2556 9.29326 26.4359C9.9807 26.7634 10.4194 27.4615 10.4194 28.2291V31.2697V33.5658C10.4194 35.7825 12.0267 37.7279 14.2068 37.9728C16.7831 38.2606 18.9665 36.2292 18.9665 33.6816V28.2291C18.9665 27.4615 19.4085 26.7634 20.0959 26.4359C24.4006 24.3813 27.3828 19.9578 27.3828 14.8262Z" stroke="#EA4054" stroke-width="2.5" stroke-miterlimit="10"/>
<path d="M18.9632 31.0947H10.416" stroke="#EA4054" stroke-width="2.5" stroke-miterlimit="10"/>
<path d="M14.6922 15.6494C12.2076 15.6494 10.1846 17.6941 10.1846 20.2053V22.8587C11.5038 23.6528 13.0456 24.1127 14.6922 24.1127C16.3388 24.1127 17.8806 23.6561 19.1999 22.8587V20.2053C19.1999 17.6941 17.1768 15.6494 14.6922 15.6494Z" fill="#FCACB4"/>
<path d="M7.96156 20.2052C7.96156 16.4533 10.9798 13.4028 14.6919 13.4028C18.4041 13.4028 21.4223 16.4533 21.4223 20.2052V20.9562C22.7252 19.4012 23.5108 17.3929 23.5108 15.1993C23.5108 10.2762 19.5629 6.28613 14.6919 6.28613C9.82092 6.28613 5.87305 10.2762 5.87305 15.1993C5.87305 17.3962 6.65869 19.4045 7.96156 20.9562V20.2052Z" fill="#FCACB4"/>
</svg>
