<svg width="36" height="38" viewBox="0 0 36 38" fill="none" xmlns="http://www.w3.org/2000/svg">
<path d="M30.9677 26.9344L24.9307 32.953C24.1573 33.7236 23.1153 34.1538 22.0232 34.1538H6.11778C3.84405 34.1538 2 32.3077 2 30.0315V6.12228C2 3.84606 3.84405 2 6.11778 2H28.0602C30.3339 2 32.178 3.84606 32.178 6.12228V24.013C32.1816 25.1099 31.7447 26.1601 30.9677 26.9344Z" stroke="#EA4054" stroke-width="2.5" stroke-miterlimit="10"/>
<path d="M34.6272 30.7811L28.5902 36.7996C27.8168 37.5703 26.7748 38.0005 25.6827 38.0005H9.78087C7.50714 38.0005 5.66309 36.1544 5.66309 33.8782V9.96896C5.66309 7.69274 7.50714 5.84668 9.78087 5.84668H31.7233C33.997 5.84668 35.8411 7.69274 35.8411 9.96896V27.8597C35.8411 28.9566 35.4042 30.0068 34.6272 30.7811Z" fill="#FCACB4"/>
<path d="M11.543 15.5922C11.543 15.1448 11.9056 14.7822 12.3529 14.7822H29.6315C30.0788 14.7822 30.4414 15.1448 30.4414 15.5922C30.4414 16.0395 30.0788 16.4021 29.6315 16.4021H12.3529C11.9056 16.4021 11.543 16.0395 11.543 15.5922Z" fill="#EA4054"/>
<path d="M11.543 19.3724C11.543 18.9251 11.9056 18.5625 12.3529 18.5625H29.6315C30.0788 18.5625 30.4414 18.9251 30.4414 19.3724C30.4414 19.8197 30.0788 20.1824 29.6315 20.1824H12.3529C11.9056 20.1824 11.543 19.8197 11.543 19.3724Z" fill="#EA4054"/>
<path d="M11.543 23.1508C11.543 22.7034 11.9056 22.3408 12.3529 22.3408H29.6315C30.0788 22.3408 30.4414 22.7034 30.4414 23.1508C30.4414 23.5981 30.0788 23.9607 29.6315 23.9607H12.3529C11.9056 23.9607 11.543 23.5981 11.543 23.1508Z" fill="#EA4054"/>
<path d="M11.543 26.931C11.543 26.4837 11.9056 26.1211 12.3529 26.1211H20.9922C21.4395 26.1211 21.8021 26.4837 21.8021 26.931C21.8021 27.3783 21.4395 27.741 20.9922 27.741H12.3529C11.9056 27.741 11.543 27.3783 11.543 26.931Z" fill="#EA4054"/>
</svg>
