<svg width="229" height="184" viewBox="0 0 229 184" fill="none" xmlns="http://www.w3.org/2000/svg">
<path d="M119.065 180.568C168.809 180.568 209.134 140.146 209.134 90.2839C209.134 40.4215 168.809 0 119.065 0C69.3216 0 28.9961 40.4215 28.9961 90.2839C28.9961 140.146 69.3216 180.568 119.065 180.568Z" fill="#333849"/>
<path d="M157.485 180.933C144.618 181.296 129.033 180.933 118.159 180.751C107.286 180.933 91.7 181.296 78.833 180.933C91.5188 173.666 96.0494 160.042 96.7743 151.141H139.544C140.45 160.042 144.8 173.666 157.485 180.933Z" fill="url(#paint0_linear_1_2839)"/>
<path d="M199.167 37.7845V149.686C199.167 152.41 196.993 154.409 194.456 154.409H42.5879C39.8695 154.409 37.876 152.229 37.876 149.686V37.7845C37.876 35.0597 40.0507 33.0614 42.5879 33.0614H194.456C196.993 32.8798 199.167 35.0597 199.167 37.7845Z" fill="#353B4A"/>
<path d="M199.167 37.7845V134.063H37.876V37.7845C37.876 35.0597 40.0507 33.0614 42.5879 33.0614H194.456C196.993 32.8798 199.167 35.0597 199.167 37.7845Z" fill="#262A31"/>
<path d="M193.006 39.0566H43.3135V128.796H193.006V39.0566Z" fill="#474E61"/>
<path d="M52.1939 49.229C53.495 49.229 54.5498 48.1717 54.5498 46.8674C54.5498 45.5632 53.495 44.5059 52.1939 44.5059C50.8927 44.5059 49.8379 45.5632 49.8379 46.8674C49.8379 48.1717 50.8927 49.229 52.1939 49.229Z" fill="#2A2E39"/>
<path d="M59.8041 49.229C61.1053 49.229 62.1601 48.1717 62.1601 46.8674C62.1601 45.5632 61.1053 44.5059 59.8041 44.5059C58.503 44.5059 57.4482 45.5632 57.4482 46.8674C57.4482 48.1717 58.503 49.229 59.8041 49.229Z" fill="#2A2E39"/>
<path d="M67.4165 49.229C68.7176 49.229 69.7724 48.1717 69.7724 46.8674C69.7724 45.5632 68.7176 44.5059 67.4165 44.5059C66.1153 44.5059 65.0605 45.5632 65.0605 46.8674C65.0605 48.1717 66.1153 49.229 67.4165 49.229Z" fill="#2A2E39"/>
<path d="M193.006 54.6797H75.5717H51.6499H43.3135V128.796H75.5717V55.7696H193.006V54.6797Z" fill="#2B2F3A"/>
<path d="M59.8044 70.6648C62.0063 70.6648 63.7914 68.8755 63.7914 66.6683C63.7914 64.4611 62.0063 62.6719 59.8044 62.6719C57.6025 62.6719 55.8174 64.4611 55.8174 66.6683C55.8174 68.8755 57.6025 70.6648 59.8044 70.6648Z" fill="#474E61"/>
<path d="M70.6782 76.6602H48.75C48.2063 76.6602 47.8438 76.297 47.8438 75.752C47.8438 75.2071 48.2063 74.8438 48.75 74.8438H70.6782C71.2219 74.8438 71.5843 75.2071 71.5843 75.752C71.7656 76.1154 71.2219 76.6602 70.6782 76.6602Z" fill="#474E61"/>
<path d="M70.6782 82.2912H48.75C48.2063 82.2912 47.8438 81.9279 47.8438 81.3829C47.8438 80.8379 48.2063 80.4746 48.75 80.4746H70.6782C71.2219 80.4746 71.5843 80.8379 71.5843 81.3829C71.7656 81.7462 71.2219 82.2912 70.6782 82.2912Z" fill="#474E61"/>
<path d="M70.6782 87.9221H48.75C48.2063 87.9221 47.8438 87.5587 47.8438 87.0138C47.8438 86.4688 48.2063 86.1055 48.75 86.1055H70.6782C71.2219 86.1055 71.5843 86.4688 71.5843 87.0138C71.7656 87.3771 71.2219 87.9221 70.6782 87.9221Z" fill="#474E61"/>
<path d="M70.6782 93.5549H48.75C48.2063 93.5549 47.8438 93.1915 47.8438 92.6466C47.8438 92.1016 48.2063 91.7383 48.75 91.7383H70.6782C71.2219 91.7383 71.5843 92.1016 71.5843 92.6466C71.7656 93.0099 71.2219 93.5549 70.6782 93.5549Z" fill="#474E61"/>
<path d="M70.6782 99.1857H48.75C48.2063 99.1857 47.8438 98.8224 47.8438 98.2774C47.8438 97.7325 48.2063 97.3691 48.75 97.3691H70.6782C71.2219 97.3691 71.5843 97.7325 71.5843 98.2774C71.7656 98.6407 71.2219 99.1857 70.6782 99.1857Z" fill="#474E61"/>
<path d="M60.1671 104.815H48.5686C48.2062 104.815 47.8438 104.451 47.8438 104.088V103.543C47.8438 103.18 48.2062 102.816 48.5686 102.816H60.1671C60.5296 102.816 60.892 103.18 60.892 103.543V104.088C60.7108 104.451 60.5296 104.815 60.1671 104.815Z" fill="#474E61"/>
<path d="M118.159 148.778C120.361 148.778 122.146 146.988 122.146 144.781C122.146 142.574 120.361 140.785 118.159 140.785C115.957 140.785 114.172 142.574 114.172 144.781C114.172 146.988 115.957 148.778 118.159 148.778Z" fill="#262A31"/>
<path d="M228.889 31.6077C228.889 33.4242 228.708 35.0592 228.345 36.8757C228.345 37.0574 228.345 37.0574 228.345 37.239C226.533 44.8687 220.915 51.2267 213.847 53.9515C213.485 54.1332 213.304 54.1332 212.941 54.3149C210.585 55.2231 208.048 55.5865 205.33 55.5865C192.281 55.5865 181.589 44.8687 181.589 31.7893C181.589 18.71 192.281 7.99219 205.33 7.99219C218.378 7.99219 228.889 18.5283 228.889 31.6077Z" fill="#EA4054"/>
<path d="M228.345 36.8764C228.345 37.0581 228.345 37.0581 228.345 37.2398C226.533 44.8694 220.915 51.2274 213.847 53.9523C213.484 54.1339 213.303 54.1339 212.941 54.3156L197.899 39.238L200.074 31.6084L199.892 28.7018L203.879 22.3438L207.685 20.5273L215.478 23.7971L228.345 36.8764Z" fill="#EA4054"/>
<path d="M93.8755 96.2793H85.5391V116.443H93.8755V96.2793Z" fill="#2B2F3A"/>
<path d="M114.354 87.0137H106.017V116.442H114.354V87.0137Z" fill="#2B2F3A"/>
<path d="M134.832 96.2793H126.496V116.443H134.832V96.2793Z" fill="#2B2F3A"/>
<path d="M155.311 72.8438H146.974V116.442H155.311V72.8438Z" fill="#2B2F3A"/>
<path d="M175.789 86.4707H167.453V116.444H175.789V86.4707Z" fill="#2B2F3A"/>
<path d="M93.8755 111.902H85.5391V116.444H93.8755V111.902Z" fill="#789AFF"/>
<path d="M114.354 109.902H106.017V116.442H114.354V109.902Z" fill="#789AFF"/>
<path d="M134.832 111.902H126.496V116.444H134.832V111.902Z" fill="#789AFF"/>
<path d="M155.311 106.633H146.974V116.442H155.311V106.633Z" fill="#789AFF"/>
<path d="M175.789 109.723H167.453V116.444H175.789V109.723Z" fill="#789AFF"/>
<g filter="url(#filter0_d_1_2839)">
<path d="M90.432 113.356C86.8075 113.356 83.7267 112.266 81.9144 111.721C80.4646 111.176 79.7397 109.723 80.1021 108.27C80.6458 106.816 82.0956 106.09 83.5454 106.453C88.4385 108.088 94.2378 109.36 99.3121 103.728L100.762 102.093C107.287 95.0087 111.092 90.8305 123.053 97.3702C132.658 102.82 136.102 100.822 139.907 94.6454C141.357 92.1021 142.444 89.3773 143.532 86.8341C145.525 81.7477 147.519 76.4796 152.956 77.2062H153.318C158.574 77.7512 164.916 78.4778 172.89 67.3967C173.978 65.7618 175.065 64.6718 175.971 63.7636C177.059 62.6736 178.871 62.8553 179.777 63.9452C180.864 65.0352 180.683 66.8517 179.596 67.76C178.871 68.305 178.146 69.3949 177.24 70.6665C167.635 84.1092 158.392 83.2009 152.774 82.6559H152.412C151.143 82.4743 150.056 84.8358 148.606 88.8323C147.519 91.5572 146.431 94.6454 144.619 97.5519C138.82 107.18 131.752 108.451 120.516 102.275C112.361 97.7335 111.274 99.0051 104.931 105.908L103.3 107.725C99.1309 112.266 94.419 113.356 90.432 113.356Z" fill="url(#paint1_linear_1_2839)"/>
</g>
<path d="M96.7751 68.8479H85.7203C84.8141 68.8479 84.2705 68.1213 84.2705 67.3947C84.2705 66.4864 84.9954 65.9414 85.7203 65.9414H96.7751C97.6812 65.9414 98.2249 66.668 98.2249 67.3947C98.2249 68.303 97.5 68.8479 96.7751 68.8479Z" fill="#2B2F3A"/>
<path d="M106.742 75.9339H85.7203C84.8141 75.9339 84.2705 75.2072 84.2705 74.4806C84.2705 73.5723 84.9954 73.0273 85.7203 73.0273H106.561C107.467 73.0273 108.011 73.754 108.011 74.4806C108.192 75.2072 107.467 75.9339 106.742 75.9339Z" fill="#2B2F3A"/>
<path d="M53.0992 123.165C53.0992 125.89 52.7368 128.433 52.0119 130.794C49.2935 140.059 41.682 147.143 32.077 149.323C30.2648 149.687 28.4525 149.868 26.459 149.868C11.9609 149.868 0 137.879 0 123.165C0 108.45 11.9609 96.4609 26.6402 96.4609C41.3195 96.4609 53.0992 108.45 53.0992 123.165Z" fill="url(#paint2_linear_1_2839)"/>
<path d="M52.0115 130.795C49.2931 140.059 41.6816 147.144 32.0766 149.324L15.7663 132.974L17.941 130.976L15.585 128.615L19.2095 125.89L33.3452 116.08L34.9762 114.082L52.0115 130.795Z" fill="url(#paint3_linear_1_2839)"/>
<path d="M31.9931 122.426H34.5302C35.0739 122.426 35.4364 122.79 35.4364 123.335V132.417C35.4364 132.962 35.0739 133.326 34.5302 133.326H31.9931C31.4494 133.326 31.0869 132.962 31.0869 132.417V123.335C31.0869 122.79 31.4494 122.426 31.9931 122.426Z" fill="url(#paint4_linear_1_2839)"/>
<path d="M24.3807 126.969H26.9179C27.4616 126.969 27.824 127.332 27.824 127.877V132.418C27.824 132.963 27.4616 133.327 26.9179 133.327H24.3807C23.8371 133.327 23.4746 132.963 23.4746 132.418V127.877C23.4746 127.332 23.8371 126.969 24.3807 126.969Z" fill="url(#paint5_linear_1_2839)"/>
<path d="M16.7688 130.604H19.306C19.8496 130.604 20.2121 130.967 20.2121 131.512V132.421C20.2121 132.966 19.8496 133.329 19.306 133.329H16.7688C16.2251 133.329 15.8627 132.966 15.8627 132.421V131.512C15.6814 130.967 16.2251 130.604 16.7688 130.604Z" fill="url(#paint6_linear_1_2839)"/>
<path d="M34.7103 113.527C35.0728 113.527 35.4353 113.891 35.4353 114.254V118.977C35.4353 119.159 35.254 119.34 35.0728 119.34H33.623C33.4418 119.34 33.2605 119.159 33.2605 118.977V117.161C28.3674 121.884 22.5682 125.698 16.2253 128.423C16.0441 128.423 16.0441 128.423 15.8628 128.423L15.6816 128.242V126.607C15.6816 126.425 15.8628 126.243 16.0441 126.243C21.8433 123.7 27.2801 120.067 31.8107 115.526H29.8172C29.636 115.526 29.4548 115.344 29.4548 115.162V113.709C29.4548 113.527 29.636 113.346 29.8172 113.346L34.7103 113.527Z" fill="url(#paint7_linear_1_2839)"/>
<path d="M214.306 32.4287H205.969C205.607 32.4287 205.244 32.0654 205.244 31.7021V23.3458C205.244 22.6192 204.701 22.2559 204.157 22.0742H203.976C198.358 22.8008 194.552 28.0689 195.277 33.7003C196.002 39.3317 201.257 43.1465 206.875 42.4199C211.406 41.8749 215.031 38.2417 215.574 33.7003C215.574 33.1553 215.031 32.4287 214.306 32.4287Z" fill="url(#paint8_linear_1_2839)"/>
<path d="M207.419 21.1655V29.3401C207.419 29.8851 207.782 30.2484 208.325 30.2484H216.48C217.024 30.2484 217.387 29.8851 217.387 29.3401C217.024 24.7986 213.037 20.4389 208.325 20.2572C207.782 20.0755 207.419 20.4389 207.419 21.1655Z" fill="white"/>
<path d="M80.1019 183.11H156.398C157.486 183.11 158.392 182.201 158.392 181.112C158.392 180.022 157.486 179.113 156.398 179.113H80.1019C79.0146 179.113 78.1084 180.022 78.1084 181.112C78.1084 182.201 79.0146 183.11 80.1019 183.11Z" fill="#353B4A"/>
<defs>
<filter id="filter0_d_1_2839" x="72.0098" y="60.0312" width="116.497" height="66.3247" filterUnits="userSpaceOnUse" color-interpolation-filters="sRGB">
<feFlood flood-opacity="0" result="BackgroundImageFix"/>
<feColorMatrix in="SourceAlpha" type="matrix" values="0 0 0 0 0 0 0 0 0 0 0 0 0 0 0 0 0 0 127 0" result="hardAlpha"/>
<feOffset dy="5"/>
<feGaussianBlur stdDeviation="4"/>
<feColorMatrix type="matrix" values="0 0 0 0 0.1125 0 0 0 0 0.295916 0 0 0 0 1 0 0 0 0.22 0"/>
<feBlend mode="normal" in2="BackgroundImageFix" result="effect1_dropShadow_1_2839"/>
<feBlend mode="normal" in="SourceGraphic" in2="effect1_dropShadow_1_2839" result="shape"/>
</filter>
<linearGradient id="paint0_linear_1_2839" x1="117.991" y1="180.317" x2="117.991" y2="153.553" gradientUnits="userSpaceOnUse">
<stop stop-color="#474755"/>
<stop offset="0.9913" stop-color="#2F3338"/>
</linearGradient>
<linearGradient id="paint1_linear_1_2839" x1="79.9885" y1="88.3858" x2="180.355" y2="88.3858" gradientUnits="userSpaceOnUse">
<stop stop-color="#83A6FF"/>
<stop offset="1" stop-color="#5A78FF"/>
</linearGradient>
<linearGradient id="paint2_linear_1_2839" x1="0" y1="123.194" x2="53.1717" y2="123.194" gradientUnits="userSpaceOnUse">
<stop stop-color="#83A6FF"/>
<stop offset="1" stop-color="#5A78FF"/>
</linearGradient>
<linearGradient id="paint3_linear_1_2839" x1="26.6389" y1="124.501" x2="42.7877" y2="140.611" gradientUnits="userSpaceOnUse">
<stop stop-color="#4F6AFF"/>
<stop offset="1" stop-color="#657EFF" stop-opacity="0"/>
</linearGradient>
<linearGradient id="paint4_linear_1_2839" x1="36.2829" y1="130.905" x2="25.919" y2="120.566" gradientUnits="userSpaceOnUse">
<stop offset="0.0113208" stop-color="#C2D1FF"/>
<stop offset="1" stop-color="white"/>
</linearGradient>
<linearGradient id="paint5_linear_1_2839" x1="31.3438" y1="135.857" x2="20.9799" y2="125.517" gradientUnits="userSpaceOnUse">
<stop offset="0.0113208" stop-color="#C2D1FF"/>
<stop offset="1" stop-color="white"/>
</linearGradient>
<linearGradient id="paint6_linear_1_2839" x1="26.6025" y1="140.611" x2="16.2386" y2="130.272" gradientUnits="userSpaceOnUse">
<stop offset="0.0113208" stop-color="#C2D1FF"/>
<stop offset="1" stop-color="white"/>
</linearGradient>
<linearGradient id="paint7_linear_1_2839" x1="35.7468" y1="131.444" x2="25.3831" y2="121.105" gradientUnits="userSpaceOnUse">
<stop offset="0.0113208" stop-color="#C2D1FF"/>
<stop offset="1" stop-color="white"/>
</linearGradient>
<linearGradient id="paint8_linear_1_2839" x1="211.555" y1="41.0823" x2="197.688" y2="27.2481" gradientUnits="userSpaceOnUse">
<stop offset="0.0113208" stop-color="#FFC9E3"/>
<stop offset="1" stop-color="white"/>
</linearGradient>
</defs>
</svg>
