<svg width="281" height="285" viewBox="0 0 281 285" fill="none" xmlns="http://www.w3.org/2000/svg">
<path d="M149.675 42H153.675V39H149.675V42Z" fill="#363C4D"/>
<path d="M149.675 36H153.675V32H149.675V36Z" fill="#2A2E38"/>
<path d="M149.675 29H153.675V26H149.675V29Z" fill="#363C4D"/>
<path d="M149.675 23H153.675V19H149.675V23Z" fill="#2A2E38"/>
<path d="M142.675 42H146.675V39H142.675V42Z" fill="#363C4D"/>
<path d="M142.675 36H146.675V32H142.675V36Z" fill="#363C4D"/>
<path d="M142.675 29H146.675V26H142.675V29Z" fill="#363C4D"/>
<path d="M142.675 23H146.675V19H142.675V23Z" fill="#363C4D"/>
<path d="M142.675 16H146.675V13H142.675V16Z" fill="#363C4D"/>
<path d="M146.675 7H143.675V10H146.675V7Z" fill="url(#paint0_linear_1_2437)"/>
<path d="M136.675 42H139.675V39H136.675V42Z" fill="#363C4D"/>
<path d="M136.675 36H139.675V32H136.675V36Z" fill="#363C4D"/>
<path d="M136.675 29H139.675V26H136.675V29Z" fill="#2A2E38"/>
<path d="M136.675 23H139.675V19H136.675V23Z" fill="#363C4D"/>
<path d="M136.675 16H139.675V13H136.675V16Z" fill="#2A2E38"/>
<path d="M136.675 10H139.675V7H136.675V10Z" fill="#363C4D"/>
<path d="M136.675 3H139.675V0H136.675V3Z" fill="#2A2E38"/>
<path d="M129.675 42H132.675V39H129.675V42Z" fill="#363C4D"/>
<path d="M129.675 36H132.675V32H129.675V36Z" fill="#363C4D"/>
<path d="M129.675 29H132.675V26H129.675V29Z" fill="#2A2E38"/>
<path d="M129.675 23H132.675V19H129.675V23Z" fill="#363C4D"/>
<path d="M129.675 16H132.675V13H129.675V16Z" fill="#363C4D"/>
<path d="M122.675 42H126.675V39H122.675V42Z" fill="#363C4D"/>
<path d="M122.675 36H126.675V32H122.675V36Z" fill="#363C4D"/>
<path d="M122.675 29H126.675V26H122.675V29Z" fill="#363C4D"/>
<path d="M126.675 19H122.675V23H126.675V19Z" fill="url(#paint1_linear_1_2437)"/>
<path d="M115.675 42H119.675V39H115.675V42Z" fill="#363C4D"/>
<path d="M115.675 36H119.675V32H115.675V36Z" fill="#363C4D"/>
<path d="M115.675 29H119.675V26H115.675V29Z" fill="#363C4D"/>
<path d="M115.675 23H119.675V19H115.675V23Z" fill="#2A2E38"/>
<path d="M115.675 16H119.675V13H115.675V16Z" fill="#363C4D"/>
<path d="M115.675 10H119.675V7H115.675V10Z" fill="#EA4054"/>
<path d="M109.675 42H112.675V39H109.675V42Z" fill="#363C4D"/>
<path d="M109.675 36H112.675V32H109.675V36Z" fill="#363C4D"/>
<path d="M109.675 29H112.675V26H109.675V29Z" fill="#2A2E38"/>
<path d="M102.675 55H106.675V51H102.675V55Z" fill="#363C4D"/>
<path d="M102.675 48H106.675V45H102.675V48Z" fill="#363C4D"/>
<path d="M102.675 42H106.675V39H102.675V42Z" fill="#2A2E38"/>
<path d="M102.675 36H106.675V32H102.675V36Z" fill="#363C4D"/>
<path d="M102.675 29H106.675V26H102.675V29Z" fill="#363C4D"/>
<path d="M102.675 23H106.675V19H102.675V23Z" fill="#363C4D"/>
<path d="M102.675 16H106.675V13H102.675V16Z" fill="#2A2E38"/>
<path d="M95.6748 55H99.6748V51H95.6748V55Z" fill="#363C4D"/>
<path d="M95.6748 48H99.6748V45H95.6748V48Z" fill="#363C4D"/>
<path d="M95.6748 42H99.6748V39H95.6748V42Z" fill="#363C4D"/>
<path d="M95.6748 36H99.6748V32H95.6748V36Z" fill="#363C4D"/>
<path d="M95.6748 29H99.6748V26H95.6748V29Z" fill="#363C4D"/>
<path d="M95.6748 23H99.6748V19H95.6748V23Z" fill="#2A2E38"/>
<path d="M95.6748 16H99.6748V13H95.6748V16Z" fill="#363C4D"/>
<path d="M95.6748 10H99.6748V7H95.6748V10Z" fill="#363C4D"/>
<path d="M95.6748 3H99.6748V0H95.6748V3Z" fill="#2A2E38"/>
<path d="M89.6748 55H92.6748V51H89.6748V55Z" fill="#363C4D"/>
<path d="M89.6748 48H92.6748V45H89.6748V48Z" fill="#363C4D"/>
<path d="M89.6748 42H92.6748V39H89.6748V42Z" fill="#363C4D"/>
<path d="M89.6748 36H92.6748V32H89.6748V36Z" fill="#2A2E38"/>
<path d="M89.6748 29H92.6748V26H89.6748V29Z" fill="#EA4054"/>
<path d="M89.6748 23H92.6748V19H89.6748V23Z" fill="#363C4D"/>
<path d="M89.6748 16H92.6748V13H89.6748V16Z" fill="#2A2E38"/>
<path d="M89.6748 10H92.6748V7H89.6748V10Z" fill="#363C4D"/>
<path d="M89.6748 3H92.6748V0H89.6748V3Z" fill="#2A2E38"/>
<path d="M82.6748 68H85.6748V64H82.6748V68Z" fill="#363C4D"/>
<path d="M82.6748 61H85.6748V58H82.6748V61Z" fill="#363C4D"/>
<path d="M82.6748 55H85.6748V51H82.6748V55Z" fill="#363C4D"/>
<path d="M82.6748 48H85.6748V45H82.6748V48Z" fill="#2A2E38"/>
<path d="M82.6748 42H85.6748V39H82.6748V42Z" fill="#363C4D"/>
<path d="M82.6748 36H85.6748V32H82.6748V36Z" fill="#363C4D"/>
<path d="M82.6748 29H85.6748V26H82.6748V29Z" fill="#2A2E38"/>
<path d="M82.6748 23H85.6748V19H82.6748V23Z" fill="#363C4D"/>
<path d="M82.6748 16H85.6748V13H82.6748V16Z" fill="#363C4D"/>
<path d="M75.6748 68H79.6748V64H75.6748V68Z" fill="#363C4D"/>
<path d="M75.6748 61H79.6748V58H75.6748V61Z" fill="#363C4D"/>
<path d="M75.6748 55H79.6748V51H75.6748V55Z" fill="#363C4D"/>
<path d="M75.6748 48H79.6748V45H75.6748V48Z" fill="#363C4D"/>
<path d="M75.6748 42H79.6748V39H75.6748V42Z" fill="#363C4D"/>
<path d="M75.6748 36H79.6748V32H75.6748V36Z" fill="#363C4D"/>
<path d="M75.6748 29H79.6748V26H75.6748V29Z" fill="#2A2E38"/>
<path d="M75.6748 23H79.6748V19H75.6748V23Z" fill="#363C4D"/>
<path d="M68.6748 74H72.6748V71H68.6748V74Z" fill="#363C4D"/>
<path d="M68.6748 68H72.6748V64H68.6748V68Z" fill="#363C4D"/>
<path d="M68.6748 61H72.6748V58H68.6748V61Z" fill="#363C4D"/>
<path d="M68.6748 55H72.6748V51H68.6748V55Z" fill="#EA4054"/>
<path d="M68.6748 48H72.6748V45H68.6748V48Z" fill="#363C4D"/>
<path d="M68.6748 42H72.6748V39H68.6748V42Z" fill="#2A2E38"/>
<path d="M68.6748 36H72.6748V32H68.6748V36Z" fill="#363C4D"/>
<path d="M68.6748 29H72.6748V26H68.6748V29Z" fill="#363C4D"/>
<path d="M62.6748 74H65.6748V71H62.6748V74Z" fill="#363C4D"/>
<path d="M62.6748 68H65.6748V64H62.6748V68Z" fill="#363C4D"/>
<path d="M62.6748 61H65.6748V58H62.6748V61Z" fill="#363C4D"/>
<path d="M62.6748 55H65.6748V51H62.6748V55Z" fill="#363C4D"/>
<path d="M62.6748 48H65.6748V45H62.6748V48Z" fill="#363C4D"/>
<path d="M62.6748 42H65.6748V39H62.6748V42Z" fill="#363C4D"/>
<path d="M62.6748 36H65.6748V32H62.6748V36Z" fill="#2A2E38"/>
<path d="M62.6748 29H65.6748V26H62.6748V29Z" fill="#EA4054"/>
<path d="M62.6748 23H65.6748V19H62.6748V23Z" fill="#2A2E38"/>
<path d="M62.6748 16H65.6748V13H62.6748V16Z" fill="#363C4D"/>
<path d="M55.6748 74H58.6748V71H55.6748V74Z" fill="#363C4D"/>
<path d="M55.6748 68H58.6748V64H55.6748V68Z" fill="#363C4D"/>
<path d="M55.6748 61H58.6748V58H55.6748V61Z" fill="#363C4D"/>
<path d="M68.6748 80H72.6748V77H68.6748V80Z" fill="#363C4D"/>
<path d="M62.6748 93H65.6748V90H62.6748V93Z" fill="#363C4D"/>
<path d="M62.6748 87H65.6748V84H62.6748V87Z" fill="#363C4D"/>
<path d="M62.6748 80H65.6748V77H62.6748V80Z" fill="#363C4D"/>
<path d="M55.6748 93H58.6748V90H55.6748V93Z" fill="#363C4D"/>
<path d="M55.6748 87H58.6748V84H55.6748V87Z" fill="#363C4D"/>
<path d="M55.6748 80H58.6748V77H55.6748V80Z" fill="#363C4D"/>
<path d="M55.6748 55H58.6748V51H55.6748V55Z" fill="#363C4D"/>
<path d="M55.6748 48H58.6748V45H55.6748V48Z" fill="#363C4D"/>
<path d="M55.6748 42H58.6748V39H55.6748V42Z" fill="#2A2E38"/>
<path d="M55.6748 36H58.6748V32H55.6748V36Z" fill="#363C4D"/>
<path d="M132.675 205H129.675V209H132.675V205Z" fill="#363C4D"/>
<path d="M132.675 212H129.675V215H132.675V212Z" fill="#2A2E38"/>
<path d="M139.675 205H136.675V209H139.675V205Z" fill="#363C4D"/>
<path d="M139.675 212H136.675V215H139.675V212Z" fill="#363C4D"/>
<path d="M139.675 218H136.675V221H139.675V218Z" fill="#363C4D"/>
<path d="M139.675 224H136.675V228H139.675V224Z" fill="#363C4D"/>
<path d="M146.675 205H142.675V209H146.675V205Z" fill="#2A2E38"/>
<path d="M146.675 212H142.675V215H146.675V212Z" fill="#363C4D"/>
<path d="M146.675 218H142.675V221H146.675V218Z" fill="#2A2E38"/>
<path d="M146.675 224H142.675V228H146.675V224Z" fill="#363C4D"/>
<path d="M146.675 231H142.675V234H146.675V231Z" fill="#2A2E38"/>
<path d="M153.675 205H149.675V209H153.675V205Z" fill="#2A2E38"/>
<path d="M153.675 212H149.675V215H153.675V212Z" fill="#363C4D"/>
<path d="M153.675 218H149.675V221H153.675V218Z" fill="#363C4D"/>
<path d="M159.675 205H156.675V209H159.675V205Z" fill="#363C4D"/>
<path d="M159.675 212H156.675V215H159.675V212Z" fill="#2A2E38"/>
<path d="M166.675 205H163.675V209H166.675V205Z" fill="#363C4D"/>
<path d="M166.675 212H163.675V215H166.675V212Z" fill="#2A2E38"/>
<path d="M166.675 218H163.675V221H166.675V218Z" fill="url(#paint2_linear_1_2437)"/>
<path d="M166.675 224H163.675V228H166.675V224Z" fill="#363C4D"/>
<path d="M173.675 199H169.675V202H173.675V199Z" fill="#363C4D"/>
<path d="M173.675 205H169.675V209H173.675V205Z" fill="#2A2E38"/>
<path d="M179.675 199H176.675V202H179.675V199Z" fill="#363C4D"/>
<path d="M179.675 205H176.675V209H179.675V205Z" fill="#363C4D"/>
<path d="M179.675 212H176.675V215H179.675V212Z" fill="#363C4D"/>
<path d="M179.675 218H176.675V221H179.675V218Z" fill="#2A2E38"/>
<path d="M186.675 186H183.675V189H186.675V186Z" fill="#363C4D"/>
<path d="M186.675 192H183.675V196H186.675V192Z" fill="#363C4D"/>
<path d="M186.675 199H183.675V202H186.675V199Z" fill="#363C4D"/>
<path d="M186.675 205H183.675V209H186.675V205Z" fill="#363C4D"/>
<path d="M186.675 212H183.675V215H186.675V212Z" fill="#2A2E38"/>
<path d="M186.675 218H183.675V221H186.675V218Z" fill="#363C4D"/>
<path d="M186.675 224H183.675V228H186.675V224Z" fill="#363C4D"/>
<path d="M186.675 231H183.675V234H186.675V231Z" fill="#2A2E38"/>
<path d="M193.675 186H189.675V189H193.675V186Z" fill="#363C4D"/>
<path d="M193.675 192H189.675V196H193.675V192Z" fill="#363C4D"/>
<path d="M193.675 199H189.675V202H193.675V199Z" fill="#2A2E38"/>
<path d="M193.675 205H189.675V209H193.675V205Z" fill="#EA4054"/>
<path d="M193.675 212H189.675V215H193.675V212Z" fill="#363C4D"/>
<path d="M193.675 218H189.675V221H193.675V218Z" fill="#2A2E38"/>
<path d="M193.675 224H189.675V228H193.675V224Z" fill="#363C4D"/>
<path d="M193.675 231H189.675V234H193.675V231Z" fill="#2A2E38"/>
<path d="M200.675 186H196.675V189H200.675V186Z" fill="#2A2E38"/>
<path d="M200.675 192H196.675V196H200.675V192Z" fill="#363C4D"/>
<path d="M200.675 199H196.675V202H200.675V199Z" fill="#363C4D"/>
<path d="M200.675 205H196.675V209H200.675V205Z" fill="#2A2E38"/>
<path d="M200.675 212H196.675V215H200.675V212Z" fill="#363C4D"/>
<path d="M200.675 218H196.675V221H200.675V218Z" fill="#363C4D"/>
<path d="M206.675 167H203.675V170H206.675V167Z" fill="#363C4D"/>
<path d="M206.675 173H203.675V176H206.675V173Z" fill="#363C4D"/>
<path d="M206.675 180H203.675V183H206.675V180Z" fill="#363C4D"/>
<path d="M206.675 186H203.675V189H206.675V186Z" fill="#363C4D"/>
<path d="M206.675 192H203.675V196H206.675V192Z" fill="#363C4D"/>
<path d="M206.675 199H203.675V202H206.675V199Z" fill="#363C4D"/>
<path d="M206.675 205H203.675V209H206.675V205Z" fill="#2A2E38"/>
<path d="M206.675 212H203.675V215H206.675V212Z" fill="#363C4D"/>
<path d="M213.675 167H210.675V170H213.675V167Z" fill="#363C4D"/>
<path d="M213.675 173H210.675V176H213.675V173Z" fill="#363C4D"/>
<path d="M213.675 180H210.675V183H213.675V180Z" fill="#363C4D"/>
<path d="M213.675 186H210.675V189H213.675V186Z" fill="#363C4D"/>
<path d="M213.675 192H210.675V196H213.675V192Z" fill="#2A2E38"/>
<path d="M213.675 199H210.675V202H213.675V199Z" fill="#363C4D"/>
<path d="M213.675 205H210.675V209H213.675V205Z" fill="#363C4D"/>
<path d="M220.675 160H216.675V164H220.675V160Z" fill="#363C4D"/>
<path d="M220.675 167H216.675V170H220.675V167Z" fill="#363C4D"/>
<path d="M220.675 173H216.675V176H220.675V173Z" fill="#363C4D"/>
<path d="M220.675 180H216.675V183H220.675V180Z" fill="#363C4D"/>
<path d="M220.675 186H216.675V189H220.675V186Z" fill="#363C4D"/>
<path d="M220.675 192H216.675V196H220.675V192Z" fill="#363C4D"/>
<path d="M220.675 199H216.675V202H220.675V199Z" fill="#2A2E38"/>
<path d="M220.675 205H216.675V209H220.675V205Z" fill="#363C4D"/>
<path d="M220.675 212H216.675V215H220.675V212Z" fill="#2A2E38"/>
<path d="M220.675 218H216.675V221H220.675V218Z" fill="#EA4054"/>
<path d="M226.675 160H223.675V164H226.675V160Z" fill="#363C4D"/>
<path d="M226.675 167H223.675V170H226.675V167Z" fill="#363C4D"/>
<path d="M226.675 173H223.675V176H226.675V173Z" fill="#363C4D"/>
<path d="M220.675 154H216.675V157H220.675V154Z" fill="#363C4D"/>
<path d="M226.675 141H223.675V144H226.675V141Z" fill="#363C4D"/>
<path d="M226.675 148H223.675V151H226.675V148Z" fill="#363C4D"/>
<path d="M226.675 154H223.675V157H226.675V154Z" fill="#363C4D"/>
<path d="M226.675 180H223.675V183H226.675V180Z" fill="#EA4054"/>
<path d="M226.675 186H223.675V189H226.675V186Z" fill="#363C4D"/>
<path d="M226.675 192H223.675V196H226.675V192Z" fill="#2A2E38"/>
<path d="M226.675 199H223.675V202H226.675V199Z" fill="#363C4D"/>
<g filter="url(#filter0_d_1_2437)">
<path d="M140.838 206.826C189.349 206.826 228.675 167.836 228.675 119.74C228.675 71.6439 189.349 32.6543 140.838 32.6543C92.3261 32.6543 53 71.6439 53 119.74C53 167.836 92.3261 206.826 140.838 206.826Z" fill="#464D5F"/>
</g>
<path d="M220.675 119.5C220.675 152.235 200.722 180.481 172.111 192.64C162.511 196.756 151.781 199 140.674 199C129.569 199 118.84 196.756 109.24 192.64C80.816 180.481 60.6748 152.235 60.6748 119.5C60.6748 86.7646 80.816 58.5189 109.24 46.36C118.84 42.2447 129.569 40 140.674 40C151.781 40 162.511 42.2447 172.111 46.36C200.722 58.5189 220.675 86.7646 220.675 119.5Z" fill="#313644"/>
<path d="M167.572 45C169.01 46.7848 170.447 48.3912 172.063 50.1761C186.973 65.1691 196.675 90.6928 196.675 119.965C196.675 149.058 186.794 174.76 172.063 189.754C170.088 191.717 168.291 193.859 166.675 196" stroke="#464D5F" stroke-width="9.07407" stroke-miterlimit="10" stroke-linecap="round" stroke-linejoin="round"/>
<path d="M112.675 192C111.121 189.802 109.222 187.773 107.324 185.915C92.9962 171.883 83.6748 147.541 83.6748 119.817C83.6748 92.2619 93.1689 67.919 107.324 53.7189C108.532 52.5357 109.74 51.3524 110.776 50" stroke="#464D5F" stroke-width="8.57661" stroke-miterlimit="10" stroke-linecap="round" stroke-linejoin="round"/>
<path d="M140.675 40V200" stroke="#464D5F" stroke-width="9.4658" stroke-miterlimit="10" stroke-linecap="round" stroke-linejoin="round"/>
<path d="M214.675 90H66.6748" stroke="#464D5F" stroke-width="9.4658" stroke-miterlimit="10" stroke-linecap="round" stroke-linejoin="round"/>
<path d="M214.675 150H66.6748" stroke="#464D5F" stroke-width="9.4658" stroke-miterlimit="10" stroke-linecap="round" stroke-linejoin="round"/>
<path d="M86.1749 135C91.4215 135 95.6748 130.97 95.6748 126C95.6748 121.029 91.4215 117 86.1749 117C80.9281 117 76.6748 121.029 76.6748 126C76.6748 130.97 80.9281 135 86.1749 135Z" stroke="#EA4054" stroke-width="5.20619" stroke-miterlimit="10" stroke-linecap="round" stroke-linejoin="round"/>
<path d="M161.675 78C166.645 78 170.675 73.9706 170.675 69C170.675 64.0295 166.645 60 161.675 60C156.704 60 152.675 64.0295 152.675 69C152.675 73.9706 156.704 78 161.675 78Z" stroke="#EA4054" stroke-width="5.20619" stroke-miterlimit="10" stroke-linecap="round" stroke-linejoin="round"/>
<path d="M175.175 170C180.421 170 184.675 165.971 184.675 161.001C184.675 156.03 180.421 152 175.175 152C169.928 152 165.675 156.03 165.675 161.001C165.675 165.971 169.928 170 175.175 170Z" stroke="#EA4054" stroke-width="5.20619" stroke-miterlimit="10" stroke-linecap="round" stroke-linejoin="round"/>
<path d="M160.719 201C160.336 201 159.954 200.814 159.571 200.63C158.615 200.073 158.424 198.775 158.998 197.848C159.762 196.922 160.336 195.808 161.102 194.881C161.676 193.955 163.015 193.583 163.971 194.326C164.927 194.881 165.309 196.179 164.545 197.106C163.78 198.22 163.206 199.332 162.441 200.259C162.059 200.814 161.294 201 160.719 201ZM167.414 189.875C167.032 189.875 166.841 189.875 166.458 189.689C165.501 189.134 164.927 188.021 165.501 186.909C166.076 185.797 166.458 184.683 167.032 183.571C167.414 182.458 168.753 182.088 169.709 182.458C170.856 182.829 171.24 184.127 170.856 185.054C170.283 186.167 169.9 187.465 169.327 188.577C168.944 189.505 168.179 189.875 167.414 189.875ZM172.196 177.823C172.005 177.823 171.814 177.823 171.623 177.638C170.474 177.266 169.9 176.154 170.283 175.042C170.665 173.929 171.049 172.817 171.431 171.519C171.814 170.406 172.961 169.85 174.109 170.035C175.256 170.406 175.83 171.519 175.639 172.631C175.256 173.929 174.874 175.042 174.491 176.34C173.917 177.266 173.153 177.823 172.196 177.823Z" fill="#EA4054"/>
<path d="M177.472 148C177.289 148 177.289 148 177.472 148C176.188 148 175.455 146.887 175.455 145.774C175.455 144.476 175.638 143.363 175.638 142.064C175.638 140.951 176.555 140.024 177.656 140.024C178.756 140.024 179.675 140.951 179.675 142.064C179.675 143.363 179.491 144.661 179.491 145.774C179.307 147.259 178.39 148 177.472 148ZM177.656 135.016C176.555 135.016 175.638 134.088 175.638 132.976C175.638 131.677 175.638 130.564 175.455 129.265C175.455 128.153 176.188 127.224 177.289 127.038C178.39 127.038 179.307 127.781 179.491 128.894C179.491 130.193 179.675 131.491 179.675 132.604C179.675 134.088 178.756 135.016 177.656 135.016ZM176.922 122.216C175.821 122.216 175.088 121.474 174.904 120.361C174.721 119.062 174.721 117.949 174.537 116.651C174.353 115.538 175.088 114.425 176.188 114.425C177.289 114.239 178.39 114.981 178.39 116.094C178.573 117.393 178.756 118.506 178.756 119.804C178.94 120.917 178.023 121.845 176.922 122.03C176.922 122.216 176.922 122.216 176.922 122.216ZM174.904 109.231C173.986 109.231 173.069 108.489 172.885 107.561C172.702 106.448 172.335 105.15 172.152 104.037C171.968 102.924 172.518 101.811 173.619 101.625C174.721 101.44 175.821 101.996 176.005 103.109C176.188 104.408 176.555 105.521 176.739 106.819C176.922 107.932 176.188 109.045 175.088 109.231C175.271 109.231 175.088 109.231 174.904 109.231ZM171.968 96.6168C171.051 96.6168 170.317 96.0602 169.95 95.1328C169.583 94.0198 169.215 92.7212 168.848 91.6082C168.482 90.4952 169.032 89.3822 170.134 89.0112C171.234 88.6402 172.335 89.1968 172.702 90.3098C173.069 91.4228 173.436 92.7212 173.802 93.8342C174.169 94.9472 173.436 96.0602 172.335 96.4312C172.335 96.6168 172.152 96.6168 171.968 96.6168ZM167.931 84.3737C167.198 84.3737 166.28 83.8172 166.097 83.0752C165.73 81.9622 165.18 80.8491 164.813 79.7361C164.445 78.6231 164.813 77.5101 165.914 77.1391C167.014 76.7681 168.115 77.1391 168.482 78.2521C169.032 79.3651 169.399 80.4781 169.95 81.7767C170.317 82.8897 169.767 84.0027 168.848 84.3737C168.482 84.3737 168.115 84.3737 167.931 84.3737Z" fill="#EA4054"/>
<path d="M153.858 58C153.296 58 152.546 57.63 152.172 57.0749C151.422 56.1498 150.672 55.0397 149.923 54.1147C149.172 53.1896 149.359 51.8946 150.298 51.3395C151.235 50.5995 152.546 50.7846 153.109 51.7096C153.858 52.6347 154.608 53.7447 155.359 54.6697C155.921 55.5948 155.733 56.8899 154.796 57.4449C154.608 57.8149 154.233 58 153.858 58ZM145.612 47.8244C145.049 47.8244 144.486 47.6393 144.111 47.2693C143.362 46.3443 142.425 45.6043 141.488 44.6792C140.738 43.9392 140.738 42.6442 141.488 41.719C142.237 40.979 143.549 40.979 144.486 41.719C145.424 42.6442 146.361 43.5691 147.111 44.4942C147.86 45.2343 147.86 46.5293 147.111 47.4544C146.549 47.6393 145.986 47.8244 145.612 47.8244ZM135.865 39.1289C135.49 39.1289 134.928 38.944 134.552 38.7589C133.615 38.0189 132.49 37.2788 131.553 36.7239C130.616 36.1688 130.429 34.8738 130.991 33.9486C131.553 33.0237 132.865 32.6536 133.802 33.3937C134.928 34.1337 135.865 34.8738 136.989 35.6138C137.926 36.3538 138.113 37.6488 137.364 38.3889C136.989 38.944 136.427 39.1289 135.865 39.1289Z" fill="#EA4054"/>
<path d="M77.626 120C77.0672 120 76.5085 119.812 76.136 119.436C75.2047 118.495 74.4597 117.555 73.5285 116.614C72.7834 115.674 72.7834 114.545 73.7147 113.605C74.6459 112.852 75.7634 112.852 76.6947 113.793C77.4398 114.733 78.3711 115.674 79.116 116.426C79.8611 117.179 79.8611 118.495 79.116 119.436C78.7435 119.812 78.1847 120 77.626 120ZM69.2446 109.843C68.6858 109.843 67.9409 109.467 67.5684 109.09C66.8233 107.962 66.0784 107.021 65.3333 105.893C64.7745 104.952 64.9609 103.636 65.8921 103.071C66.8233 102.507 68.1271 102.695 68.6859 103.636C69.4309 104.576 69.9897 105.705 70.7346 106.645C71.4797 107.586 71.2934 108.902 70.3622 109.467C70.1759 109.843 69.6171 109.843 69.2446 109.843ZM62.3532 98.7452C61.6083 98.7452 60.8632 98.369 60.4908 97.6166C59.9321 96.488 59.3732 95.3594 58.8145 94.0428C58.442 92.9143 58.8145 91.7857 59.9321 91.2213C61.0495 90.6571 62.167 91.2214 62.7258 92.3499C63.2845 93.4785 63.657 94.6071 64.2158 95.5476C64.7745 96.488 64.4021 97.8048 63.2845 98.369C62.9121 98.7452 62.7258 98.7452 62.3532 98.7452Z" fill="#EA4054"/>
<path d="M164.416 162H164.228C162.911 161.813 161.782 161.625 160.464 161.438C159.335 161.251 158.583 160.129 158.771 159.007C158.959 157.884 160.088 157.137 161.218 157.324C162.535 157.51 163.664 157.697 164.792 157.884C165.922 158.072 166.675 159.007 166.675 160.129C166.299 161.252 165.357 162 164.416 162ZM151.433 159.756C151.245 159.756 151.057 159.756 151.057 159.756C149.739 159.568 148.61 159.194 147.293 158.819C146.164 158.633 145.6 157.51 145.788 156.388C145.976 155.265 147.105 154.705 148.234 154.892C149.362 155.265 150.681 155.453 151.809 155.827C152.938 156.014 153.691 157.137 153.314 158.259C153.314 159.194 152.374 159.756 151.433 159.756ZM138.637 156.388C138.449 156.388 138.261 156.388 138.073 156.202C136.944 155.827 135.627 155.453 134.497 155.078C133.368 154.705 132.804 153.583 133.18 152.461C133.556 151.337 134.685 150.777 135.815 151.151C136.944 151.524 138.073 151.899 139.389 152.273C140.518 152.647 141.084 153.769 140.708 154.892C140.33 155.827 139.578 156.388 138.637 156.388ZM126.406 151.899C126.218 151.899 125.842 151.899 125.654 151.712C124.524 151.151 123.207 150.777 122.078 150.215C120.95 149.842 120.573 148.532 120.95 147.596C121.326 146.474 122.643 146.101 123.583 146.474C124.712 147.036 125.842 147.41 126.971 147.97C128.1 148.345 128.476 149.654 128.1 150.589C127.911 151.524 127.159 151.899 126.406 151.899ZM114.363 146.474C113.987 146.474 113.798 146.474 113.422 146.287C112.293 145.726 111.164 145.164 110.035 144.604C109.094 144.042 108.718 142.733 109.283 141.798C109.847 140.863 111.164 140.488 112.105 141.05C113.234 141.61 114.363 142.172 115.303 142.733C116.245 143.294 116.81 144.417 116.245 145.539C115.869 146.101 115.115 146.474 114.363 146.474ZM102.885 140.114C102.508 140.114 102.132 139.928 101.756 139.741C100.627 138.992 99.686 138.431 98.5568 137.682C97.616 137.122 97.4278 135.812 97.9923 134.877C98.5568 133.941 99.8741 133.755 100.815 134.315C101.756 135.063 102.885 135.625 104.014 136.373C104.955 136.934 105.331 138.244 104.578 139.179C104.202 139.74 103.637 140.114 102.885 140.114Z" fill="#EA4054"/>
<path d="M191.714 162C190.615 162 189.882 161.288 189.698 160.22C189.515 159.152 190.431 158.261 191.531 158.083C192.815 157.906 193.915 157.728 195.015 157.728C196.115 157.55 197.216 158.261 197.216 159.329C197.399 160.399 196.666 161.467 195.565 161.467C194.282 161.644 193.182 161.822 191.899 162C191.899 162 191.899 162 191.714 162ZM204.365 159.686C203.449 159.686 202.716 159.152 202.349 158.261C201.983 157.193 202.716 156.125 203.815 155.947C204.915 155.592 206.198 155.414 207.299 155.057C208.399 154.701 209.499 155.236 209.865 156.304C210.232 157.372 209.682 158.44 208.582 158.796C207.483 159.152 206.198 159.508 204.915 159.864C204.732 159.686 204.549 159.686 204.365 159.686ZM216.466 155.592C215.732 155.592 214.999 155.236 214.632 154.523C214.082 153.455 214.632 152.387 215.549 151.853C216.65 151.319 217.749 150.785 218.666 150.251C219.582 149.717 220.865 150.072 221.416 150.962C221.966 151.853 221.6 153.1 220.682 153.633C219.582 154.168 218.483 154.701 217.383 155.236C217.016 155.592 216.833 155.592 216.466 155.592Z" fill="#EA4054"/>
<path d="M171.784 68.8159C170.842 68.8159 169.899 68.2632 169.711 67.3422C169.522 66.2369 170.088 65.1316 171.219 64.9474C172.539 64.5789 173.67 64.3948 174.99 64.2105C176.121 64.0264 177.253 64.7632 177.442 65.8685C177.63 66.9737 176.875 68.079 175.744 68.2632C174.613 68.4474 173.293 68.8159 172.162 69C172.162 68.6316 171.973 68.8159 171.784 68.8159ZM184.795 66.6053C183.664 66.6053 182.91 65.8685 182.721 64.7632C182.533 63.658 183.475 62.7368 184.606 62.5527C185.926 62.3684 187.247 62.3684 188.378 62.1843C189.509 62.1843 190.451 62.9211 190.64 64.0264C190.64 65.1316 189.886 66.0526 188.755 66.2369C187.624 66.2369 186.303 66.4211 184.983 66.6053C184.983 66.6053 184.983 66.6053 184.795 66.6053ZM201.764 66.2369C200.445 66.0526 199.125 66.0526 197.994 66.0526C196.862 66.0526 195.919 65.1316 195.919 64.0264C195.919 62.9211 196.862 62 197.994 62C199.314 62 200.633 62.1843 201.764 62.1843C202.897 62.3684 203.839 63.2895 203.651 64.3948C203.839 65.5001 202.897 66.2369 201.764 66.2369Z" fill="#EA4054"/>
<path d="M92.7555 119C92.3788 119 91.8138 118.813 91.4372 118.626C90.4954 117.879 90.4954 116.571 91.0604 115.824C91.8138 114.889 92.7555 113.955 93.509 112.834C94.2624 111.9 95.5809 111.9 96.5227 112.647C97.4645 113.395 97.4644 114.703 96.711 115.637C95.9576 116.571 95.2041 117.505 94.2624 118.439C94.0741 118.813 93.3206 119 92.7555 119ZM101.608 109.284C101.043 109.284 100.478 109.097 100.101 108.724C99.3479 107.976 99.3479 106.668 100.101 105.734C101.043 104.8 101.796 103.866 102.738 103.118C103.492 102.371 104.81 102.371 105.752 103.118C106.505 103.866 106.505 105.174 105.752 106.108C104.81 107.042 104.057 107.789 103.115 108.724C102.55 109.097 102.173 109.284 101.608 109.284ZM111.214 100.316C110.649 100.316 110.084 100.129 109.707 99.5683C108.954 98.6342 109.142 97.3262 109.896 96.5788C110.837 95.8315 111.779 94.8973 112.909 94.15C113.851 93.4026 115.169 93.5894 115.735 94.5236C116.488 95.4578 116.3 96.7658 115.359 97.3262C114.416 98.0736 113.474 98.8209 112.533 99.7552C112.156 100.129 111.591 100.316 111.214 100.316ZM121.574 92.2815C121.009 92.2815 120.254 91.9079 119.878 91.3473C119.125 90.4131 119.501 89.1052 120.444 88.5447C121.197 87.9841 122.139 87.4237 122.892 86.8631L123.457 86.4894C124.398 85.9289 125.718 86.1157 126.283 87.05C126.848 87.9841 126.659 89.2921 125.718 89.8525L125.152 90.2262C124.398 90.7868 123.457 91.3473 122.704 91.9079C122.327 92.0946 121.95 92.2815 121.574 92.2815ZM132.498 84.9946C131.745 84.9946 131.18 84.621 130.803 84.0605C130.237 83.1262 130.615 81.8184 131.557 81.2578C132.686 80.5104 133.816 79.95 134.946 79.3894C135.889 78.8289 137.207 79.2026 137.772 80.1368C138.337 81.071 137.96 82.3789 137.019 82.9394C135.889 83.4999 134.946 84.2473 133.816 84.8079C133.251 84.9946 132.875 84.9946 132.498 84.9946ZM144.176 78.8289C143.422 78.8289 142.669 78.4552 142.293 77.7079C141.728 76.7736 142.293 75.4658 143.234 74.9052C144.364 74.3447 145.495 73.7841 146.625 73.2237C147.755 72.6631 148.884 73.2237 149.449 74.1578C150.014 75.2789 149.449 76.3999 148.508 76.9605C147.378 77.521 146.248 78.0816 145.117 78.4552C144.741 78.8289 144.364 78.8289 144.176 78.8289Z" fill="#EA4054"/>
<path d="M70.7126 171C69.6011 171 68.6748 170.065 68.6748 168.942C68.6748 167.633 68.6748 166.323 68.86 165.013C68.86 163.891 69.9716 162.955 71.0831 163.141C72.1946 163.141 73.1209 164.265 72.9357 165.388C72.9357 166.51 72.7503 167.82 72.7503 168.942C72.7503 170.065 71.8241 171 70.7126 171ZM72.1946 158.091C72.0094 158.091 71.824 158.091 71.824 158.091C70.7126 157.904 69.9716 156.781 70.342 155.657C70.7126 154.349 70.8979 153.225 71.2683 151.915C71.6388 150.793 72.7503 150.232 73.8619 150.42C74.9734 150.793 75.5292 151.915 75.344 153.039C74.9734 154.162 74.7881 155.471 74.4177 156.594C74.0471 157.342 73.1209 158.091 72.1946 158.091ZM76.0849 145.555C75.8997 145.555 75.5292 145.555 75.344 145.368C74.2323 144.993 73.8619 143.684 74.2323 142.748C74.7881 141.626 75.1586 140.504 75.7144 139.194C76.2701 138.071 77.3817 137.697 78.4932 138.257C79.6047 138.819 79.9752 139.942 79.4195 141.064C78.8637 142.187 78.4932 143.309 77.9375 144.432C77.7521 145.181 77.0112 145.555 76.0849 145.555Z" fill="#EA4054"/>
<path d="M123.675 177.456V202.731C123.675 205.54 122.182 207.974 119.754 209.472L99.9627 220.894L98.0956 222.017C95.6683 223.328 92.8678 223.328 90.4406 222.017L68.5957 209.285C66.1685 207.974 64.6748 205.353 64.6748 202.544V177.456C64.6748 174.647 66.1685 172.213 68.5957 170.715L90.4406 157.983C92.8678 156.672 95.6683 156.672 98.0956 157.983L119.94 170.715C122.182 172.213 123.675 174.647 123.675 177.456Z" fill="url(#paint3_linear_1_2437)"/>
<path d="M123.675 194.712V202.786C123.675 205.602 122.168 208.043 119.719 209.546L99.7556 221L82.0515 203.349L81.6748 199.406L83.3698 192.458V188.328L81.8631 178.939L86.3833 178.564L97.3072 179.126L104.464 178.751L106.913 178L123.675 194.712Z" fill="url(#paint4_linear_1_2437)"/>
<path d="M106.43 192.106C106.242 191.537 105.866 190.969 105.49 190.399C106.242 189.262 106.806 187.934 107.37 186.607C108.687 182.814 108.499 179.591 106.618 177.694C104.737 175.799 101.54 175.419 97.7789 176.936C96.4625 177.504 95.146 178.074 94.0176 178.832C88.9398 175.799 84.0501 175.229 81.4172 177.884C78.7843 180.539 79.3484 185.469 82.3575 190.589C82.1694 190.969 81.7933 191.537 81.6052 191.917C79.1603 196.657 78.9723 201.019 81.4172 203.294C82.5455 204.432 84.2381 205 85.9308 205C88.1875 204.811 90.6324 204.242 92.7011 203.104C93.8296 202.535 94.7698 201.967 95.8983 201.207C97.5909 200.07 99.2834 198.554 100.788 197.037C101.54 196.277 102.292 195.329 103.045 194.571C103.421 194.192 103.609 193.812 103.985 193.434C104.173 194.002 104.549 194.571 104.737 195.14V195.329C105.114 196.467 105.302 197.415 105.49 198.554C105.49 199.312 105.302 200.26 104.737 200.829C103.797 201.777 101.728 201.777 99.2834 200.829C99.2834 200.829 99.0954 200.829 99.0954 200.639C98.5312 201.019 97.967 201.587 97.4028 201.967C97.0267 202.346 96.4625 202.535 96.0863 202.915C96.8385 203.294 97.5909 203.674 98.3432 203.862C99.6596 204.432 101.164 204.622 102.669 204.811C103.609 204.811 104.361 204.622 105.114 204.432C105.866 204.242 106.43 203.674 106.994 203.104C108.875 201.207 109.251 197.984 107.746 194.192C107.182 193.622 106.806 192.864 106.43 192.106ZM98.9074 179.969C101.352 179.022 103.421 179.022 104.361 179.969C105.302 180.919 105.302 183.004 104.361 185.469C104.173 186.037 103.797 186.797 103.609 187.365C102.669 186.037 101.54 184.9 100.412 183.762C99.6596 183.004 98.9074 182.245 98.1551 181.677C97.7789 181.297 97.2147 180.919 96.8385 180.729C97.5909 180.539 98.1551 180.349 98.9074 179.969ZM83.4859 201.019C82.5455 200.07 82.5455 197.795 83.6739 194.95C83.8621 194.571 84.0501 194.002 84.2381 193.622C84.6143 194.002 84.9904 194.571 85.3666 194.95C85.9308 195.709 86.683 196.467 87.4353 197.226C88.5637 198.364 89.692 199.312 91.0086 200.26C90.4444 200.449 90.0682 200.829 89.504 201.019C86.8711 201.967 84.6143 201.967 83.4859 201.019ZM98.1551 194.761C96.8387 196.089 95.3341 197.226 93.8296 198.364C91.1966 196.467 88.9398 194.382 87.0591 191.917C86.683 191.537 86.3069 190.969 86.1188 190.589C87.2472 189.072 88.3757 187.555 89.692 186.227C90.6324 185.279 91.5727 184.331 92.7011 183.572C91.7608 183.004 90.8205 182.435 89.692 181.866C88.9398 182.435 88.1875 183.194 87.4353 183.952C86.3068 185.089 85.3666 186.227 84.4262 187.555C82.7336 184.142 82.5455 181.297 83.6739 180.159C84.2381 179.591 84.9904 179.401 85.9308 179.401C88.9398 179.401 93.8296 181.677 98.3432 186.227C99.6596 187.555 100.788 189.072 101.916 190.589C101.728 190.969 101.352 191.347 101.164 191.727C100.036 192.864 99.2834 193.812 98.1551 194.761Z" fill="url(#paint5_linear_1_2437)"/>
<path d="M94.6748 193C96.3317 193 97.6748 191.657 97.6748 190C97.6748 188.343 96.3317 187 94.6748 187C93.018 187 91.6748 188.343 91.6748 190C91.6748 191.657 93.018 193 94.6748 193Z" fill="url(#paint6_linear_1_2437)"/>
<defs>
<filter id="filter0_d_1_2437" x="0.938202" y="6.6234" width="279.798" height="278.295" filterUnits="userSpaceOnUse" color-interpolation-filters="sRGB">
<feFlood flood-opacity="0" result="BackgroundImageFix"/>
<feColorMatrix in="SourceAlpha" type="matrix" values="0 0 0 0 0 0 0 0 0 0 0 0 0 0 0 0 0 0 127 0" result="hardAlpha"/>
<feOffset dy="26.0309"/>
<feGaussianBlur stdDeviation="26.0309"/>
<feColorMatrix type="matrix" values="0 0 0 0 0 0 0 0 0 0 0 0 0 0 0 0 0 0 0.18 0"/>
<feBlend mode="normal" in2="BackgroundImageFix" result="effect1_dropShadow_1_2437"/>
<feBlend mode="normal" in="SourceGraphic" in2="effect1_dropShadow_1_2437" result="shape"/>
</filter>
<linearGradient id="paint0_linear_1_2437" x1="143.606" y1="8.52467" x2="146.526" y2="8.52467" gradientUnits="userSpaceOnUse">
<stop stop-color="#83A6FF"/>
<stop offset="1" stop-color="#5A78FF"/>
</linearGradient>
<linearGradient id="paint1_linear_1_2437" x1="122.761" y1="20.9812" x2="126.657" y2="20.9812" gradientUnits="userSpaceOnUse">
<stop stop-color="#83A6FF"/>
<stop offset="1" stop-color="#5A78FF"/>
</linearGradient>
<linearGradient id="paint2_linear_1_2437" x1="163.702" y1="219.445" x2="166.624" y2="219.445" gradientUnits="userSpaceOnUse">
<stop stop-color="#83A6FF"/>
<stop offset="1" stop-color="#5A78FF"/>
</linearGradient>
<linearGradient id="paint3_linear_1_2437" x1="94.1508" y1="221.479" x2="94.1508" y2="159.004" gradientUnits="userSpaceOnUse">
<stop stop-color="#83A6FF"/>
<stop offset="1" stop-color="#5A78FF"/>
</linearGradient>
<linearGradient id="paint4_linear_1_2437" x1="83.7518" y1="180.021" x2="111.113" y2="207.466" gradientUnits="userSpaceOnUse">
<stop stop-color="#4F6AFF"/>
<stop offset="1" stop-color="#657EFF" stop-opacity="0"/>
</linearGradient>
<linearGradient id="paint5_linear_1_2437" x1="106.19" y1="202.907" x2="84.5036" y2="181.398" gradientUnits="userSpaceOnUse">
<stop offset="0.0113208" stop-color="#C2D1FF"/>
<stop offset="1" stop-color="white"/>
</linearGradient>
<linearGradient id="paint6_linear_1_2437" x1="106.743" y1="202.058" x2="85.302" y2="180.614" gradientUnits="userSpaceOnUse">
<stop offset="0.0113208" stop-color="#C2D1FF"/>
<stop offset="1" stop-color="white"/>
</linearGradient>
</defs>
</svg>
