<svg width="252" height="212" viewBox="0 0 252 212" fill="none" xmlns="http://www.w3.org/2000/svg">
<path d="M193.536 16.7785C197.248 16.7785 200.257 13.7737 200.257 10.067C200.257 6.36032 197.248 3.35547 193.536 3.35547C189.824 3.35547 186.814 6.36032 186.814 10.067C186.814 13.7737 189.824 16.7785 193.536 16.7785Z" fill="#333849"/>
<path d="M128.623 180.858C177.172 180.858 216.528 141.558 216.528 93.0785C216.528 44.5991 177.172 5.29883 128.623 5.29883C80.0744 5.29883 40.7178 44.5991 40.7178 93.0785C40.7178 141.558 80.0744 180.858 128.623 180.858Z" fill="#333849"/>
<path d="M31.1669 27.7294C33.609 27.7294 35.5887 25.7525 35.5887 23.3139C35.5887 20.8753 33.609 18.8984 31.1669 18.8984C28.7248 18.8984 26.7451 20.8753 26.7451 23.3139C26.7451 25.7525 28.7248 27.7294 31.1669 27.7294Z" fill="#333849"/>
<path d="M35.9424 48.923C37.603 48.923 38.9492 47.5787 38.9492 45.9205C38.9492 44.2622 37.603 42.918 35.9424 42.918C34.2817 42.918 32.9355 44.2622 32.9355 45.9205C32.9355 47.5787 34.2817 48.923 35.9424 48.923Z" fill="#E58B0A"/>
<path d="M173.549 5.65181C175.112 5.65181 176.379 4.38661 176.379 2.82591C176.379 1.2652 175.112 0 173.549 0C171.986 0 170.719 1.2652 170.719 2.82591C170.719 4.38661 171.986 5.65181 173.549 5.65181Z" fill="#333849"/>
<path d="M189.998 169.203C191.561 169.203 192.828 167.937 192.828 166.377C192.828 164.816 191.561 163.551 189.998 163.551C188.435 163.551 187.168 164.816 187.168 166.377C187.168 167.937 188.435 169.203 189.998 169.203Z" fill="#EA4054"/>
<path d="M76.4461 43.0953C78.0091 43.0953 79.2761 41.8301 79.2761 40.2694C79.2761 38.7086 78.0091 37.4434 76.4461 37.4434C74.8832 37.4434 73.6162 38.7086 73.6162 40.2694C73.6162 41.8301 74.8832 43.0953 76.4461 43.0953Z" fill="url(#paint0_linear_1_2890)"/>
<g filter="url(#filter0_d_1_2890)">
<path d="M102.8 178.915H25.6837C23.915 178.915 22.5 177.502 22.5 175.735V63.4057C22.5 61.6395 23.915 60.2266 25.6837 60.2266H102.8C104.569 60.2266 105.984 61.6395 105.984 63.4057V175.735C105.984 177.502 104.569 178.915 102.8 178.915Z" fill="#474E61"/>
</g>
<path d="M79.8068 121.336C79.8068 121.689 79.8068 121.866 79.63 122.219C79.4531 122.749 79.4531 123.455 79.2762 123.985C79.0993 124.338 79.0993 124.515 78.9225 124.868C78.7456 125.398 78.5687 125.928 78.215 126.458V126.634C78.0381 126.811 78.0381 127.164 77.8612 127.341C77.6844 127.517 77.5075 127.871 77.3306 128.047L82.8137 132.816C82.9905 132.463 83.1674 132.286 83.3443 131.933C83.8749 131.05 84.4055 130.167 84.7593 129.284C84.9361 128.93 84.9361 128.754 85.113 128.401C85.4668 127.517 85.8205 126.634 86.1742 125.751C86.1742 125.575 86.3511 125.221 86.3511 125.045C86.528 124.515 86.528 123.985 86.7049 123.455C86.7049 123.279 86.8817 122.925 86.8817 122.749C86.8817 122.572 86.8817 122.219 87.0586 122.042V121.866C87.0586 121.689 87.0586 121.336 87.0586 121.159H79.8068V121.336ZM64.419 134.935C55.9291 134.935 48.8542 128.047 48.8542 119.57C48.8542 111.622 54.691 105.263 62.2965 104.204V96.9629C50.7998 97.846 41.7793 107.736 41.7793 119.57C41.7793 132.11 52.0379 142.353 64.5958 142.353C70.7864 142.353 76.4463 139.881 80.5143 135.819L75.0313 131.05C72.2013 133.523 68.487 134.935 64.419 134.935ZM66.3646 96.9629V104.204C73.4394 105.087 78.9225 110.562 79.8068 117.45H87.0586C86.1742 106.5 77.3306 97.846 66.3646 96.9629Z" fill="#2C313D"/>
<path d="M87.235 117.45H79.9833C79.0989 110.385 73.439 104.91 66.541 104.204V96.9629C77.3302 97.846 86.1738 106.5 87.235 117.45Z" fill="#EA4054"/>
<path d="M87.2349 121.336C87.2349 121.513 87.2349 121.866 87.2349 122.042V122.219C87.2349 122.396 87.2349 122.749 87.058 122.925C87.058 123.102 87.058 123.455 86.8812 123.632C86.7043 124.162 86.7043 124.692 86.5274 125.222C86.5274 125.398 86.3505 125.751 86.3505 125.928C85.9968 126.811 85.8199 127.694 85.2893 128.577C85.1124 128.931 85.1124 129.107 84.9356 129.46C84.5818 130.343 84.0512 131.227 83.5206 132.11C83.3437 132.463 83.1668 132.64 82.99 132.993L77.3301 128.047C77.5069 127.871 77.6838 127.518 77.8607 127.341C78.0376 127.164 78.2144 126.811 78.2144 126.634V126.458C78.3913 125.928 78.745 125.398 78.9219 124.868C79.0988 124.515 79.0988 124.338 79.2757 123.985C79.4525 123.455 79.6294 122.749 79.6294 122.219C79.6294 121.866 79.8063 121.689 79.8063 121.336H87.2349Z" fill="url(#paint1_linear_1_2890)"/>
<path d="M40.3639 78.4174H31.5203C30.9896 78.4174 30.459 77.8876 30.459 77.3577V76.298C30.459 75.7681 30.9896 75.2383 31.5203 75.2383H40.3639C40.8945 75.2383 41.4251 75.7681 41.4251 76.298V77.3577C41.4251 77.8876 40.8945 78.4174 40.3639 78.4174Z" fill="#343A4E"/>
<path d="M101.208 78.4174H49.031C48.5004 78.4174 47.9697 77.8876 47.9697 77.3577V76.298C47.9697 75.7681 48.5004 75.2383 49.031 75.2383H101.208C101.739 75.2383 102.27 75.7681 102.27 76.298V77.3577C102.27 77.8876 101.739 78.4174 101.208 78.4174Z" fill="#2C313D"/>
<path d="M40.3639 88.8373H31.5203C30.9896 88.8373 30.459 88.3075 30.459 87.7776V86.7179C30.459 86.188 30.9896 85.6582 31.5203 85.6582H40.3639C40.8945 85.6582 41.4251 86.188 41.4251 86.7179V87.7776C41.4251 88.3075 40.8945 88.8373 40.3639 88.8373Z" fill="#343A4E"/>
<path d="M101.208 88.8373H49.031C48.5004 88.8373 47.9697 88.3075 47.9697 87.7776V86.7179C47.9697 86.188 48.5004 85.6582 49.031 85.6582H101.208C101.739 85.6582 102.27 86.188 102.27 86.7179V87.7776C102.27 88.3075 101.739 88.8373 101.208 88.8373Z" fill="#2C313D"/>
<path d="M49.5616 152.953H43.5479V168.672H49.5616V152.953Z" fill="url(#paint2_linear_1_2890)"/>
<path d="M60.5274 150.125H54.5137V168.847H60.5274V150.125Z" fill="url(#paint3_linear_1_2890)"/>
<path d="M71.67 155.424H65.6562V168.847H71.67V155.424Z" fill="url(#paint4_linear_1_2890)"/>
<path d="M82.6367 159.84H76.623V168.847H82.6367V159.84Z" fill="url(#paint5_linear_1_2890)"/>
<g filter="url(#filter1_d_1_2890)">
<path d="M226.788 142.004H149.495C147.726 142.004 146.311 140.591 146.311 138.824V26.6714C146.311 24.9052 147.726 23.4922 149.495 23.4922H226.611C228.38 23.4922 229.795 24.9052 229.795 26.6714V139.001C229.795 140.591 228.38 142.004 226.788 142.004Z" fill="#474E61"/>
</g>
<path d="M224.312 84.7773H162.229V92.0187H224.312V84.7773Z" fill="#2C313D"/>
<path d="M198.311 87.25H181.331V89.3694H198.311V87.25Z" fill="#464D5F"/>
<path d="M219.889 87.25H213.875V89.3694H219.889V87.25Z" fill="#E58B0A"/>
<path d="M224.312 100.143H162.229V107.384H224.312V100.143Z" fill="#2C313D"/>
<path d="M193.181 102.793H181.331V104.912H193.181V102.793Z" fill="#464D5F"/>
<path d="M219.889 102.793H209.453V104.912H219.889V102.793Z" fill="#EA4054"/>
<path d="M224.312 115.686H162.229V122.927H224.312V115.686Z" fill="#2C313D"/>
<path d="M200.964 118.16H181.331V120.279H200.964V118.16Z" fill="#464D5F"/>
<path d="M219.889 118.16H216.528V120.279H219.889V118.16Z" fill="url(#paint6_linear_1_2890)"/>
<path d="M219.889 32.8516H200.61H200.433H200.256H180.447H180.27H180.093H161.521C159.399 32.8516 157.807 34.6177 157.807 36.7372V70.4714C157.807 72.5908 159.576 74.357 161.521 74.357H219.889C222.012 74.357 223.603 72.5908 223.603 70.4714V36.7372C223.603 34.6177 221.835 32.8516 219.889 32.8516ZM181.508 62.7002V55.1056H199.372V62.7002H181.508ZM199.372 64.9962V71.8844H181.508V64.9962H199.372ZM199.372 45.3915V52.9861H181.508V45.3915H199.372ZM181.508 42.9188V35.3242H199.372V43.0955H181.508V42.9188ZM221.304 52.8095H201.671V45.2149H221.304V52.8095ZM179.032 52.8095H159.929V45.2149H179.032V52.8095ZM159.929 55.1056H179.032V62.7002H159.929V55.1056ZM201.671 55.1056H221.304V62.7002H201.671V55.1056ZM221.304 36.7372V42.9188H201.671V35.3242H219.889C220.597 35.3242 221.304 35.8541 221.304 36.7372ZM161.521 35.3242H179.209V43.0955H159.929V36.9138C159.929 35.8541 160.637 35.3242 161.521 35.3242ZM159.929 70.4714V64.9962H179.032V71.8844H161.344C160.637 72.061 159.929 71.3545 159.929 70.4714ZM219.889 72.061H201.671V65.1728H221.304V70.648C221.304 71.3545 220.597 72.061 219.889 72.061Z" fill="#2C313D"/>
<g filter="url(#filter2_d_1_2890)">
<path d="M169.835 153.129H92.5421C90.7734 153.129 89.3584 151.716 89.3584 149.95V37.6206C89.3584 35.8544 90.7734 34.4414 92.5421 34.4414H169.658C171.427 34.4414 172.842 35.8544 172.842 37.6206V149.95C172.842 151.716 171.427 153.129 169.835 153.129Z" fill="#474E61"/>
</g>
<path d="M163.29 119.395H101.561C101.031 119.395 100.5 118.865 100.5 118.335V117.982C100.5 117.452 101.031 116.922 101.561 116.922H163.29C163.82 116.922 164.351 117.452 164.351 117.982V118.335C164.351 118.865 163.997 119.395 163.29 119.395Z" fill="#2C313D"/>
<path d="M163.29 126.99H101.561C101.031 126.99 100.5 126.46 100.5 125.931V125.577C100.5 125.047 101.031 124.518 101.561 124.518H163.29C163.82 124.518 164.351 125.047 164.351 125.577V125.931C164.351 126.46 163.997 126.99 163.29 126.99Z" fill="#2C313D"/>
<path d="M117.657 134.407H101.738C101.031 134.407 100.5 133.877 100.5 133.17C100.5 132.464 101.031 131.934 101.738 131.934H117.657C118.364 131.934 118.895 132.464 118.895 133.17C118.895 133.877 118.364 134.407 117.657 134.407Z" fill="#2C313D"/>
<path d="M117.657 110.916H101.738C101.031 110.916 100.5 110.386 100.5 109.68C100.5 108.973 101.031 108.443 101.738 108.443H117.657C118.364 108.443 118.895 108.973 118.895 109.68C118.895 110.386 118.364 110.916 117.657 110.916Z" fill="#2C313D"/>
<path d="M159.753 52.6334C158.691 52.6334 157.63 53.1632 156.923 54.0463L148.61 51.9269C148.256 51.7503 147.725 51.9269 147.371 52.2802L133.575 66.0564C133.045 65.8798 132.514 65.7032 131.984 65.7032C131.453 65.7032 130.922 65.8798 130.392 66.0564L119.779 55.4593C119.956 55.1061 119.956 54.7528 119.956 54.223C119.956 52.2802 118.364 50.8672 116.596 50.8672C114.827 50.8672 113.235 52.4568 113.235 54.223C113.235 54.5762 113.235 55.1061 113.412 55.4593L104.745 64.1136C104.392 63.937 103.861 63.937 103.507 63.937C101.562 63.937 100.146 65.5266 100.146 67.2928C100.146 69.059 101.738 70.6485 103.507 70.6485C105.276 70.6485 106.868 69.059 106.868 67.2928C106.868 66.7629 106.691 66.4097 106.514 65.8798L115.181 57.2255C115.711 57.4021 116.065 57.5787 116.596 57.5787C117.126 57.5787 117.657 57.4021 118.011 57.2255L128.623 67.8226C128.446 68.1759 128.446 68.5291 128.446 68.8823C128.446 70.8252 130.038 72.2381 131.807 72.2381C133.752 72.2381 135.167 70.6485 135.167 68.8823C135.167 68.5291 135.167 68.1759 134.99 67.8226L148.433 54.3996L156.038 56.3424C156.215 57.932 157.63 59.3449 159.399 59.3449C161.344 59.3449 162.759 57.7553 162.759 55.9892C163.113 54.0463 161.521 52.6334 159.753 52.6334ZM103.684 69.059C102.8 69.059 102.092 68.3525 102.092 67.4694C102.092 66.5863 102.8 65.8798 103.684 65.8798C104.568 65.8798 105.276 66.5863 105.276 67.4694C105.276 68.1759 104.568 69.059 103.684 69.059ZM116.773 55.8125C115.888 55.8125 115.181 55.1061 115.181 54.223C115.181 53.3399 115.888 52.6334 116.773 52.6334C117.657 52.6334 118.364 53.3399 118.364 54.223C118.364 55.1061 117.834 55.8125 116.773 55.8125ZM132.16 70.6485C131.276 70.6485 130.569 69.9421 130.569 69.059C130.569 68.1759 131.276 67.4694 132.16 67.4694C133.045 67.4694 133.752 68.1759 133.752 69.059C133.929 69.9421 133.222 70.6485 132.16 70.6485ZM159.753 57.5787C158.868 57.5787 158.161 56.8723 158.161 55.9892C158.161 55.1061 158.868 54.3996 159.753 54.3996C160.637 54.3996 161.344 55.1061 161.344 55.9892C161.344 56.8723 160.637 57.5787 159.753 57.5787Z" fill="#EA4054"/>
<path d="M105.453 98.3759H101.915C101.561 98.3759 101.208 98.0227 101.208 97.6694V80.3608C101.208 80.0075 101.561 79.6543 101.915 79.6543H105.453C105.806 79.6543 106.16 80.0075 106.16 80.3608V97.6694C106.16 98.0227 105.806 98.3759 105.453 98.3759Z" fill="url(#paint7_linear_1_2890)"/>
<path d="M107.575 98.3766H103.507C103.153 98.3766 102.976 98.2 102.976 97.8468V89.8989C102.976 89.5457 103.153 89.3691 103.507 89.3691H107.575C107.929 89.3691 108.106 89.5457 108.106 89.8989V97.8468C108.106 98.2 107.752 98.3766 107.575 98.3766Z" fill="#EA4054"/>
<path d="M114.65 98.3762H111.112C110.759 98.3762 110.405 98.0229 110.405 97.6697V85.6596C110.405 85.3064 110.759 84.9531 111.112 84.9531H114.65C115.003 84.9531 115.357 85.3064 115.357 85.6596V97.6697C115.357 98.0229 115.003 98.3762 114.65 98.3762Z" fill="url(#paint8_linear_1_2890)"/>
<path d="M123.847 98.3766H120.31C119.956 98.3766 119.602 98.0234 119.602 97.6702V90.0755C119.602 89.7223 119.956 89.3691 120.31 89.3691H123.847C124.201 89.3691 124.555 89.7223 124.555 90.0755V97.6702C124.555 98.0234 124.201 98.3766 123.847 98.3766Z" fill="url(#paint9_linear_1_2890)"/>
<path d="M133.044 98.3773H129.507C129.153 98.3773 128.8 98.0241 128.8 97.6708V83.3647C128.8 83.0115 129.153 82.6582 129.507 82.6582H133.044C133.398 82.6582 133.752 83.0115 133.752 83.3647V97.6708C133.752 98.0241 133.575 98.3773 133.044 98.3773Z" fill="url(#paint10_linear_1_2890)"/>
<path d="M142.419 98.3759H138.882C138.528 98.3759 138.174 98.0226 138.174 97.6694V89.0151C138.174 88.6618 138.528 88.3086 138.882 88.3086H142.419C142.773 88.3086 143.126 88.6618 143.126 89.0151V97.6694C143.126 98.0226 142.773 98.3759 142.419 98.3759Z" fill="url(#paint11_linear_1_2890)"/>
<path d="M151.617 98.3762H148.079C147.725 98.3762 147.372 98.0229 147.372 97.6697V85.6596C147.372 85.3064 147.725 84.9531 148.079 84.9531H151.617C151.97 84.9531 152.324 85.3064 152.324 85.6596V97.6697C152.324 98.0229 151.97 98.3762 151.617 98.3762Z" fill="url(#paint12_linear_1_2890)"/>
<path d="M160.814 98.3766H157.276C156.922 98.3766 156.569 98.0234 156.569 97.6702V90.0755C156.569 89.7223 156.922 89.3691 157.276 89.3691H160.814C161.167 89.3691 161.521 89.7223 161.521 90.0755V97.6702C161.521 98.0234 161.167 98.3766 160.814 98.3766Z" fill="url(#paint13_linear_1_2890)"/>
<path d="M116.772 98.3756H112.527C112.351 98.3756 112.174 98.199 112.174 98.0223V93.2536C112.174 93.077 112.351 92.9004 112.527 92.9004H116.772C116.949 92.9004 117.126 93.077 117.126 93.2536V98.0223C117.126 98.199 116.949 98.3756 116.772 98.3756Z" fill="#EA4054"/>
<path d="M126.147 98.3775H121.725C121.548 98.3775 121.371 98.2009 121.371 98.0243V95.7283C121.371 95.5516 121.548 95.375 121.725 95.375H126.147C126.324 95.375 126.501 95.5516 126.501 95.7283V98.0243C126.324 98.2009 126.324 98.3775 126.147 98.3775Z" fill="#EA4054"/>
<path d="M135.344 98.3767H131.099C130.923 98.3767 130.746 98.2001 130.746 98.0235V94.6677C130.746 94.4911 130.923 94.3145 131.099 94.3145H135.344C135.521 94.3145 135.698 94.4911 135.698 94.6677V98.0235C135.698 98.2001 135.698 98.3767 135.344 98.3767Z" fill="#EA4054"/>
<path d="M144.542 98.3764H140.474C140.297 98.3764 140.12 98.1998 140.12 98.0232V91.8415C140.12 91.6649 140.297 91.4883 140.474 91.4883H144.542C144.719 91.4883 144.896 91.6649 144.896 91.8415V98.0232C145.073 98.1998 144.896 98.3764 144.542 98.3764Z" fill="#EA4054"/>
<path d="M154.269 98.3758H149.671C149.494 98.3758 149.494 98.3758 149.494 98.1992V97.1395C149.494 96.9629 149.494 96.9629 149.671 96.9629H154.269C154.446 96.9629 154.446 96.9629 154.446 97.1395V98.0226C154.446 98.1992 154.446 98.3758 154.269 98.3758Z" fill="#EA4054"/>
<path d="M163.466 98.3765H158.868C158.868 98.3765 158.691 98.3765 158.691 98.1996V97.669C158.691 97.669 158.691 97.4922 158.868 97.4922H163.466C163.466 97.4922 163.643 97.4922 163.643 97.669L163.466 98.3765Z" fill="#EA4054"/>
<path d="M130.746 162.312C144.617 162.312 155.862 151.083 155.862 137.232C155.862 123.381 144.617 112.152 130.746 112.152C116.875 112.152 105.63 123.381 105.63 137.232C105.63 151.083 116.875 162.312 130.746 162.312Z" fill="#474E61"/>
<path d="M154.27 133.172H107.752V140.061H154.27V133.172Z" fill="#2C313D"/>
<path d="M154.27 119.57H107.752V126.458H154.27V119.57Z" fill="#2C313D"/>
<path d="M168.419 167.791L163.112 173.09L147.725 157.901L153.031 152.602L168.419 167.791Z" fill="#526DFF"/>
<path d="M110.228 115.157C98.7313 126.637 98.7313 145.182 110.228 156.663C121.725 168.143 140.296 168.143 151.793 156.663C163.29 145.182 163.29 126.637 151.793 115.157C140.296 103.677 121.725 103.677 110.228 115.157ZM147.017 151.894C138.174 160.725 123.847 160.725 114.827 151.894C105.983 143.063 105.983 128.757 114.827 119.749C123.67 110.918 137.997 110.918 147.017 119.749C155.861 128.757 155.861 143.063 147.017 151.894Z" fill="url(#paint14_linear_1_2890)"/>
<path d="M176.732 181.39C174.433 183.686 170.542 183.686 168.066 181.39L152.501 166.024C151.617 165.141 151.617 163.551 152.501 162.491L157.63 157.369C158.515 156.486 160.106 156.486 160.991 157.369L176.732 172.735C179.209 175.208 179.209 179.093 176.732 181.39Z" fill="url(#paint15_linear_1_2890)"/>
<defs>
<filter id="filter0_d_1_2890" x="0.5" y="49.2266" width="127.484" height="162.688" filterUnits="userSpaceOnUse" color-interpolation-filters="sRGB">
<feFlood flood-opacity="0" result="BackgroundImageFix"/>
<feColorMatrix in="SourceAlpha" type="matrix" values="0 0 0 0 0 0 0 0 0 0 0 0 0 0 0 0 0 0 127 0" result="hardAlpha"/>
<feOffset dy="11"/>
<feGaussianBlur stdDeviation="11"/>
<feColorMatrix type="matrix" values="0 0 0 0 0 0 0 0 0 0 0 0 0 0 0 0 0 0 0.18 0"/>
<feBlend mode="normal" in2="BackgroundImageFix" result="effect1_dropShadow_1_2890"/>
<feBlend mode="normal" in="SourceGraphic" in2="effect1_dropShadow_1_2890" result="shape"/>
</filter>
<filter id="filter1_d_1_2890" x="124.311" y="12.4922" width="127.484" height="162.512" filterUnits="userSpaceOnUse" color-interpolation-filters="sRGB">
<feFlood flood-opacity="0" result="BackgroundImageFix"/>
<feColorMatrix in="SourceAlpha" type="matrix" values="0 0 0 0 0 0 0 0 0 0 0 0 0 0 0 0 0 0 127 0" result="hardAlpha"/>
<feOffset dy="11"/>
<feGaussianBlur stdDeviation="11"/>
<feColorMatrix type="matrix" values="0 0 0 0 0 0 0 0 0 0 0 0 0 0 0 0 0 0 0.18 0"/>
<feBlend mode="normal" in2="BackgroundImageFix" result="effect1_dropShadow_1_2890"/>
<feBlend mode="normal" in="SourceGraphic" in2="effect1_dropShadow_1_2890" result="shape"/>
</filter>
<filter id="filter2_d_1_2890" x="67.3584" y="23.4414" width="127.484" height="162.688" filterUnits="userSpaceOnUse" color-interpolation-filters="sRGB">
<feFlood flood-opacity="0" result="BackgroundImageFix"/>
<feColorMatrix in="SourceAlpha" type="matrix" values="0 0 0 0 0 0 0 0 0 0 0 0 0 0 0 0 0 0 127 0" result="hardAlpha"/>
<feOffset dy="11"/>
<feGaussianBlur stdDeviation="11"/>
<feColorMatrix type="matrix" values="0 0 0 0 0 0 0 0 0 0 0 0 0 0 0 0 0 0 0.18 0"/>
<feBlend mode="normal" in2="BackgroundImageFix" result="effect1_dropShadow_1_2890"/>
<feBlend mode="normal" in="SourceGraphic" in2="effect1_dropShadow_1_2890" result="shape"/>
</filter>
<linearGradient id="paint0_linear_1_2890" x1="73.6712" y1="40.3192" x2="79.1616" y2="40.3192" gradientUnits="userSpaceOnUse">
<stop stop-color="#83A6FF"/>
<stop offset="1" stop-color="#5A78FF"/>
</linearGradient>
<linearGradient id="paint1_linear_1_2890" x1="77.3853" y1="127.127" x2="87.1659" y2="127.127" gradientUnits="userSpaceOnUse">
<stop stop-color="#83A6FF"/>
<stop offset="1" stop-color="#5A78FF"/>
</linearGradient>
<linearGradient id="paint2_linear_1_2890" x1="43.4827" y1="160.894" x2="49.4456" y2="160.894" gradientUnits="userSpaceOnUse">
<stop stop-color="#83A6FF"/>
<stop offset="1" stop-color="#5A78FF"/>
</linearGradient>
<linearGradient id="paint3_linear_1_2890" x1="54.5564" y1="159.465" x2="60.5191" y2="159.465" gradientUnits="userSpaceOnUse">
<stop stop-color="#83A6FF"/>
<stop offset="1" stop-color="#5A78FF"/>
</linearGradient>
<linearGradient id="paint4_linear_1_2890" x1="65.6297" y1="162.108" x2="71.5927" y2="162.108" gradientUnits="userSpaceOnUse">
<stop stop-color="#83A6FF"/>
<stop offset="1" stop-color="#5A78FF"/>
</linearGradient>
<linearGradient id="paint5_linear_1_2890" x1="76.7042" y1="164.295" x2="82.6671" y2="164.295" gradientUnits="userSpaceOnUse">
<stop stop-color="#83A6FF"/>
<stop offset="1" stop-color="#5A78FF"/>
</linearGradient>
<linearGradient id="paint6_linear_1_2890" x1="216.587" y1="119.239" x2="220.032" y2="119.239" gradientUnits="userSpaceOnUse">
<stop stop-color="#83A6FF"/>
<stop offset="1" stop-color="#5A78FF"/>
</linearGradient>
<linearGradient id="paint7_linear_1_2890" x1="101.122" y1="89.0257" x2="106.108" y2="89.0257" gradientUnits="userSpaceOnUse">
<stop stop-color="#83A6FF"/>
<stop offset="1" stop-color="#5A78FF"/>
</linearGradient>
<linearGradient id="paint8_linear_1_2890" x1="110.358" y1="91.6689" x2="115.344" y2="91.6689" gradientUnits="userSpaceOnUse">
<stop stop-color="#83A6FF"/>
<stop offset="1" stop-color="#5A78FF"/>
</linearGradient>
<linearGradient id="paint9_linear_1_2890" x1="119.596" y1="93.8566" x2="124.582" y2="93.8566" gradientUnits="userSpaceOnUse">
<stop stop-color="#83A6FF"/>
<stop offset="1" stop-color="#5A78FF"/>
</linearGradient>
<linearGradient id="paint10_linear_1_2890" x1="128.833" y1="90.4549" x2="133.818" y2="90.4549" gradientUnits="userSpaceOnUse">
<stop stop-color="#83A6FF"/>
<stop offset="1" stop-color="#5A78FF"/>
</linearGradient>
<linearGradient id="paint11_linear_1_2890" x1="138.07" y1="93.3" x2="143.056" y2="93.3" gradientUnits="userSpaceOnUse">
<stop stop-color="#83A6FF"/>
<stop offset="1" stop-color="#5A78FF"/>
</linearGradient>
<linearGradient id="paint12_linear_1_2890" x1="147.307" y1="91.6689" x2="152.293" y2="91.6689" gradientUnits="userSpaceOnUse">
<stop stop-color="#83A6FF"/>
<stop offset="1" stop-color="#5A78FF"/>
</linearGradient>
<linearGradient id="paint13_linear_1_2890" x1="156.544" y1="93.8566" x2="161.53" y2="93.8566" gradientUnits="userSpaceOnUse">
<stop stop-color="#83A6FF"/>
<stop offset="1" stop-color="#5A78FF"/>
</linearGradient>
<linearGradient id="paint14_linear_1_2890" x1="101.634" y1="135.889" x2="160.338" y2="135.889" gradientUnits="userSpaceOnUse">
<stop stop-color="#83A6FF"/>
<stop offset="1" stop-color="#5A78FF"/>
</linearGradient>
<linearGradient id="paint15_linear_1_2890" x1="151.83" y1="169.946" x2="178.578" y2="169.946" gradientUnits="userSpaceOnUse">
<stop stop-color="#83A6FF"/>
<stop offset="1" stop-color="#5A78FF"/>
</linearGradient>
</defs>
</svg>
