<svg width="266" height="222" viewBox="0 0 266 222" fill="none" xmlns="http://www.w3.org/2000/svg">
<path d="M37.0038 46.474C40.9226 46.474 44.0994 43.2986 44.0994 39.3815C44.0994 35.4644 40.9226 32.2891 37.0038 32.2891C33.0849 32.2891 29.9082 35.4644 29.9082 39.3815C29.9082 43.2986 33.0849 46.474 37.0038 46.474Z" fill="#333849"/>
<path d="M231.2 68.1244C235.118 68.1244 238.296 64.949 238.296 61.0319C238.296 57.1148 235.118 53.9395 231.2 53.9395C227.281 53.9395 224.104 57.1148 224.104 61.0319C224.104 64.949 227.281 68.1244 231.2 68.1244Z" fill="#EAEEF9"/>
<path d="M51.3819 22.3982C52.9289 22.3982 54.1829 21.1448 54.1829 19.5985C54.1829 18.0523 52.9289 16.7988 51.3819 16.7988C49.8351 16.7988 48.5811 18.0523 48.5811 19.5985C48.5811 21.1448 49.8351 22.3982 51.3819 22.3982Z" fill="#333849"/>
<path d="M222.984 38.0743C224.634 38.0743 225.972 36.7372 225.972 35.0879C225.972 33.4386 224.634 32.1016 222.984 32.1016C221.334 32.1016 219.996 33.4386 219.996 35.0879C219.996 36.7372 221.334 38.0743 222.984 38.0743Z" fill="#333849"/>
<path d="M132.608 205.307C189.328 205.307 235.308 159.348 235.308 102.654C235.308 45.9597 189.328 0 132.608 0C75.8884 0 29.9081 45.9597 29.9081 102.654C29.9081 159.348 75.8884 205.307 132.608 205.307Z" fill="#333849"/>
<g filter="url(#filter0_d_1_2376)">
<path d="M161.364 161.446L72.1086 197.468C70.6147 198.029 68.9342 197.282 68.374 195.975L17.0241 68.4979C16.464 67.0047 17.2108 65.325 18.5179 64.7651L107.773 28.7428C109.267 28.1828 110.948 28.9295 111.508 30.236L162.858 157.526C163.605 159.207 162.858 160.887 161.364 161.446Z" fill="#474E61"/>
</g>
<path d="M121.964 86.0426L47.2736 116.092C46.5266 116.466 45.7797 116.092 45.4063 115.346C45.0328 114.599 45.4063 113.852 46.1532 113.479L120.657 83.4296C121.404 83.0564 122.151 83.4296 122.525 84.1762C122.898 84.9227 122.525 85.6694 121.964 86.0426Z" fill="#2C313D"/>
<path d="M124.765 93.322L50.2608 123.372C49.5139 123.745 48.7671 123.372 48.3936 122.625C48.0201 121.879 48.3936 121.132 49.1405 120.758L123.645 90.709C124.391 90.3356 125.139 90.709 125.511 91.4555C125.885 92.2021 125.511 92.9487 124.765 93.322Z" fill="#2C313D"/>
<path d="M127.753 100.415L53.2491 130.651C52.5022 131.024 51.7554 130.651 51.3818 129.904C51.0084 129.158 51.3818 128.411 52.1288 128.037L126.633 97.9882C127.38 97.615 128.127 97.9882 128.5 98.7347C128.873 99.2947 128.5 100.228 127.753 100.415Z" fill="#2C313D"/>
<path d="M84.2454 126.544L56.2364 137.93C55.4895 138.303 54.7426 137.93 54.3691 137.183C53.9957 136.437 54.3691 135.69 55.1161 135.316L83.1251 123.932C83.872 123.558 84.619 123.932 84.9924 124.678C85.1791 125.425 84.9924 126.172 84.2454 126.544Z" fill="#2C313D"/>
<path opacity="0.3" d="M137.462 118.891L139.889 125.05C140.263 126.17 139.889 127.477 138.769 127.85L65.0119 157.713C63.8915 158.086 62.5844 157.713 62.211 156.593L59.7836 150.247C59.4102 149.127 59.7836 147.821 60.9039 147.448L134.661 117.771C135.781 117.398 136.902 117.957 137.462 118.891Z" fill="url(#paint0_linear_1_2376)"/>
<path opacity="0.3" d="M143.251 133.077L145.679 139.236C146.053 140.356 145.679 141.662 144.559 142.035L70.8012 171.899C69.6809 172.272 68.3738 171.899 68.0003 170.779L65.3862 164.433C65.0126 163.313 65.3862 162.006 66.5065 161.633L140.263 131.957C141.384 131.583 142.691 132.144 143.251 133.077Z" fill="url(#paint1_linear_1_2376)"/>
<path opacity="0.3" d="M148.852 147.261L151.28 153.419C151.654 154.54 151.28 155.846 150.16 156.219L76.4025 186.083C75.2822 186.455 73.9751 186.083 73.6017 184.963L71.1742 178.803C70.8008 177.684 71.1742 176.376 72.2946 176.003L146.052 146.327C147.172 145.767 148.48 146.327 148.852 147.261Z" fill="url(#paint2_linear_1_2376)"/>
<path d="M68.5598 144.461L72.6677 154.727L65.0119 157.713C63.8915 158.086 62.5844 157.713 62.211 156.594L59.7836 150.248C59.4102 149.127 59.7836 147.821 60.9039 147.448L68.5598 144.461Z" fill="url(#paint3_linear_1_2376)"/>
<path d="M66.6929 161.632L89.1001 152.486L93.208 162.752L70.8008 171.898C69.6805 172.271 68.3734 171.898 67.9999 170.778L65.3858 164.432C65.0122 163.499 65.5724 162.193 66.6929 161.632Z" fill="url(#paint4_linear_1_2376)"/>
<path d="M72.2946 175.818L75.4689 174.512L79.5769 184.778L76.4025 186.084C75.2822 186.457 73.9751 186.084 73.6017 184.964L71.1742 178.805C70.8008 177.685 71.1742 176.379 72.2946 175.818Z" fill="url(#paint5_linear_1_2376)"/>
<path d="M73.4156 79.6956C73.2288 69.4303 64.8261 61.0312 54.3694 61.0312H54.1826C43.7259 61.0312 35.3232 69.6168 35.3232 80.0689C35.5099 90.5209 44.0993 98.9199 54.5561 98.9199C60.3446 98.9199 65.3863 96.3069 68.9341 92.3874C71.9217 89.0278 73.6022 84.735 73.6022 79.8823C73.4156 79.8823 73.4156 79.8823 73.4156 79.6956ZM54.5561 92.9473C47.4605 92.9473 41.6719 87.1613 41.6719 80.0689C41.6719 72.9764 47.4605 67.1905 54.5561 67.1905H54.7428C61.8384 67.1905 67.4402 72.7899 67.627 79.6956C67.627 79.8823 67.627 79.8823 67.627 80.0689C67.627 83.2419 66.5066 86.2281 64.4526 88.4679C61.8384 91.2675 58.4774 92.9473 54.5561 92.9473Z" fill="#2C313D"/>
<path d="M73.4153 79.6956H67.2533C67.2533 72.7899 61.4648 67.1905 54.5559 67.1905H54.3691V61.0312H54.5559C64.8259 61.0312 73.2285 69.4303 73.4153 79.6956Z" fill="#E58B0A"/>
<g filter="url(#filter1_d_1_2376)">
<path d="M197.776 190.376L107.587 156.78C106.093 156.22 105.346 154.54 105.907 153.048L153.709 24.4498C154.269 22.9567 155.949 22.2101 157.443 22.77L247.633 56.1792C249.126 56.7391 249.873 58.4189 249.313 59.9121L201.511 188.697C200.951 190.189 199.27 190.936 197.776 190.376Z" fill="#474E61"/>
</g>
<path opacity="0.4" d="M185.825 80.6296L178.543 77.83L184.517 61.2188L191.8 63.8317L185.825 80.6296Z" fill="#E58B0A"/>
<path d="M195.722 84.1753L188.253 81.3756L197.402 55.9922L204.684 58.7917L195.722 84.1753Z" fill="#E58B0A"/>
<path d="M215.329 91.0808L208.047 88.4677L219.997 55.0586L227.466 57.6716L215.329 91.0808Z" fill="#E58B0A"/>
<path opacity="0.4" d="M224.665 94.4401L217.382 91.8271L220.557 82.6816L228.026 85.4813L224.665 94.4401Z" fill="#E58B0A"/>
<path d="M219.435 108.066L143.998 80.0699C143.25 79.8833 142.878 78.95 143.064 78.2035C143.25 77.4569 144.184 77.0836 144.932 77.2702L220.369 105.267C221.117 105.453 221.489 106.387 221.303 107.133C220.929 107.88 220.183 108.253 219.435 108.066Z" fill="#2C313D"/>
<path d="M216.636 115.344L141.197 87.3471C140.451 87.1606 140.077 86.2273 140.263 85.4808C140.451 84.7342 141.384 84.3609 142.131 84.5476L217.568 112.545C218.316 112.731 218.689 113.664 218.502 114.41C218.316 115.157 217.382 115.716 216.636 115.344Z" fill="#2C313D"/>
<path d="M214.021 122.623L138.583 94.6265C137.836 94.4399 137.463 93.5066 137.649 92.7601C137.836 92.0135 138.77 91.6403 139.517 91.8268L214.954 119.823C215.701 120.01 216.075 120.943 215.888 121.69C215.515 122.623 214.768 122.996 214.021 122.623Z" fill="#2C313D"/>
<path d="M164.352 112.543L135.969 102.091C135.223 101.905 134.849 100.971 135.036 100.225C135.223 99.4784 136.157 99.1051 136.903 99.2917L165.286 109.744C166.033 109.93 166.406 110.864 166.219 111.61C165.846 112.357 165.099 112.731 164.352 112.543Z" fill="#2C313D"/>
<path opacity="0.3" d="M208.793 142.781L206.553 149.127C206.179 150.247 204.872 150.807 203.751 150.433L187.693 144.461L129.06 122.624C127.94 122.251 127.38 120.944 127.754 119.824L129.994 113.478C130.368 112.358 131.674 111.798 132.796 112.172L191.054 133.823L207.299 139.795C208.607 140.541 209.167 141.661 208.793 142.781Z" fill="#EA4054"/>
<path opacity="0.3" d="M203.378 157.153L201.138 163.499C200.764 164.619 199.457 165.179 198.337 164.806L192.922 162.752L123.833 137.183C122.713 136.81 122.152 135.502 122.525 134.383L124.767 128.037C125.139 126.917 126.447 126.358 127.567 126.73L196.843 152.488L202.072 154.54C203.192 154.914 203.752 156.034 203.378 157.153Z" fill="#EA4054"/>
<path opacity="0.3" d="M198.148 171.525L195.908 177.871C195.534 178.99 194.228 179.55 193.107 179.177L165.472 168.911L118.603 151.554C117.483 151.18 116.923 149.874 117.295 148.754L119.537 142.408C119.909 141.288 121.217 140.728 122.337 141.102L170.326 158.832L196.842 168.725C197.962 169.098 198.522 170.404 198.148 171.525Z" fill="#EA4054"/>
<path d="M122.337 141.101L170.326 158.833L165.472 168.724L118.603 151.367C117.483 150.993 116.923 149.687 117.295 148.567L119.537 142.221C119.909 141.288 121.217 140.729 122.337 141.101Z" fill="#EA4054"/>
<path d="M127.754 120.012L129.994 113.666C130.368 112.546 131.674 111.986 132.796 112.36L191.054 134.01L187.319 144.275L129.06 122.624C127.94 122.251 127.38 121.131 127.754 120.012Z" fill="#EA4054"/>
<path d="M196.843 152.488L192.922 162.752L123.833 137.183C122.713 136.81 122.152 135.502 122.525 134.383L124.767 128.037C125.139 126.917 126.447 126.358 127.567 126.73L196.843 152.488Z" fill="#EA4054"/>
<path d="M146.799 117.584L143.065 127.85L129.06 122.624C127.94 122.251 127.38 120.944 127.754 119.824L129.994 113.478C130.368 112.358 131.674 111.798 132.796 112.172L146.799 117.584Z" fill="#2C313D"/>
<path d="M127.567 126.73L141.572 131.956L137.838 142.222L123.833 136.996C122.713 136.623 122.152 135.316 122.525 134.196L124.767 127.85C125.327 126.917 126.447 126.357 127.567 126.73Z" fill="#2C313D"/>
<path d="M122.337 141.101L136.342 146.328L132.608 156.593L118.603 151.367C117.483 150.993 116.923 149.687 117.295 148.567L119.537 142.221C119.909 141.288 121.217 140.729 122.337 141.101Z" fill="#2C313D"/>
<g filter="url(#filter2_d_1_2376)">
<path d="M181.717 159.205H85.5518C84.0581 159.205 82.751 157.899 82.751 156.405V19.036C82.751 17.5429 84.0581 16.2363 85.5518 16.2363H181.717C183.21 16.2363 184.517 17.5429 184.517 19.036V156.219C184.704 157.899 183.397 159.205 181.717 159.205Z" fill="#474E61"/>
</g>
<path d="M173.313 69.0568H93.0202C92.2733 69.0568 91.5264 68.4972 91.5264 67.5646C91.5264 66.8184 92.0865 66.0723 93.0202 66.0723H173.313C174.06 66.0723 174.807 66.6319 174.807 67.5646C174.807 68.3107 174.06 69.0568 173.313 69.0568Z" fill="#2C313D"/>
<path d="M173.313 77.1017H93.0202C92.2734 77.1017 91.5264 76.5421 91.5264 75.6094C91.5264 74.8634 92.0866 74.1172 93.0202 74.1172H173.313C174.059 74.1172 174.807 74.6768 174.807 75.6094C174.807 76.5421 174.059 77.1017 173.313 77.1017Z" fill="#2C313D"/>
<path d="M173.313 85.1467H93.0202C92.2733 85.1467 91.5264 84.5871 91.5264 83.6543C91.5264 82.9083 92.0865 82.1621 93.0202 82.1621H173.313C174.06 82.1621 174.807 82.7217 174.807 83.6543C174.807 84.5871 174.06 85.1467 173.313 85.1467Z" fill="#2C313D"/>
<path d="M129.431 121.877C129.245 111.612 120.841 103.213 110.385 103.213H110.198C99.7417 103.213 91.339 111.798 91.339 122.25C91.339 132.702 99.9284 141.288 110.385 141.288C116.174 141.288 121.215 138.675 124.763 134.755C127.751 131.396 129.431 127.103 129.431 122.25C129.431 122.064 129.431 121.877 129.431 121.877ZM110.385 134.942C103.289 134.942 97.501 129.156 97.501 122.064C97.501 114.971 103.289 109.185 110.385 109.185H110.572C117.667 109.185 123.269 114.785 123.457 121.691C123.457 121.877 123.457 121.877 123.457 122.064C123.457 125.237 122.335 128.223 120.281 130.463C117.667 133.263 114.306 134.942 110.385 134.942Z" fill="#2C313D"/>
<path d="M129.432 121.877H123.27C123.084 114.971 117.481 109.372 110.386 109.372H110.199V103.213H110.386C120.843 103.213 129.246 111.425 129.432 121.877Z" fill="#EA4054"/>
<path d="M129.433 122.066C129.433 126.919 127.751 131.211 124.765 134.571L120.096 130.651C122.15 128.411 123.271 125.425 123.271 122.252C123.271 122.066 123.271 122.066 123.271 121.879H129.433V122.066Z" fill="#E58B0A"/>
<path d="M173.125 113.85H146.051C145.303 113.85 144.557 113.291 144.557 112.358C144.557 111.611 145.117 110.865 146.051 110.865H173.125C173.873 110.865 174.619 111.425 174.619 112.358C174.433 113.103 173.873 113.85 173.125 113.85Z" fill="#2C313D"/>
<path d="M173.125 122.617H146.051C145.303 122.617 144.557 122.058 144.557 121.125C144.557 120.38 145.117 119.633 146.051 119.633H173.125C173.873 119.633 174.619 120.192 174.619 121.125C174.433 121.872 173.873 122.617 173.125 122.617Z" fill="#2C313D"/>
<path d="M173.125 131.387H146.051C145.303 131.387 144.557 130.828 144.557 129.895C144.557 129.148 145.117 128.402 146.051 128.402H173.125C173.873 128.402 174.619 128.962 174.619 129.895C174.433 130.64 173.873 131.387 173.125 131.387Z" fill="#2C313D"/>
<path d="M139.515 114.411C140.65 114.411 141.569 113.492 141.569 112.357C141.569 111.224 140.65 110.305 139.515 110.305C138.38 110.305 137.461 111.224 137.461 112.357C137.461 113.492 138.38 114.411 139.515 114.411Z" fill="#2C313D"/>
<path d="M139.515 122.856C140.65 122.856 141.569 121.936 141.569 120.803C141.569 119.668 140.65 118.75 139.515 118.75C138.38 118.75 137.461 119.668 137.461 120.803C137.461 121.936 138.38 122.856 139.515 122.856Z" fill="#EA4054"/>
<path d="M139.515 131.299C140.65 131.299 141.569 130.38 141.569 129.246C141.569 128.113 140.65 127.193 139.515 127.193C138.38 127.193 137.461 128.113 137.461 129.246C137.461 130.38 138.38 131.299 139.515 131.299Z" fill="url(#paint6_linear_1_2376)"/>
<path d="M92.0879 58.794H174.621V25.3848L161.551 31.9174L154.642 36.7701L142.317 36.5834L131.487 42.1828L122.151 43.4892L118.79 47.2222L109.08 53.3813L99.557 55.0611L92.0879 58.794Z" fill="#EA4054"/>
<path d="M92.0879 58.7917H174.621V33.4082L161.551 38.2609L154.642 41.9938L142.317 41.8071L131.487 46.1L122.151 47.2197L118.79 49.8328L109.08 54.6856L99.557 55.992L92.0879 58.7917Z" fill="#2C313D"/>
<path d="M92.0879 58.7934H174.621V44.4219L161.551 47.2214L154.642 49.2746H142.317L131.487 51.5143L122.151 52.2608L118.79 53.7539L109.08 56.367L99.557 57.1136L92.0879 58.7934Z" fill="#1B2532"/>
<defs>
<filter id="filter0_d_1_2376" x="2.64968" y="21.4616" width="174.687" height="197.475" filterUnits="userSpaceOnUse" color-interpolation-filters="sRGB">
<feFlood flood-opacity="0" result="BackgroundImageFix"/>
<feColorMatrix in="SourceAlpha" type="matrix" values="0 0 0 0 0 0 0 0 0 0 0 0 0 0 0 0 0 0 127 0" result="hardAlpha"/>
<feOffset dy="7.09313"/>
<feGaussianBlur stdDeviation="7.09313"/>
<feColorMatrix type="matrix" values="0 0 0 0 0 0 0 0 0 0 0 0 0 0 0 0 0 0 0.18 0"/>
<feBlend mode="normal" in2="BackgroundImageFix" result="effect1_dropShadow_1_2376"/>
<feBlend mode="normal" in="SourceGraphic" in2="effect1_dropShadow_1_2376" result="shape"/>
</filter>
<filter id="filter1_d_1_2376" x="91.5344" y="15.491" width="172.151" height="196.35" filterUnits="userSpaceOnUse" color-interpolation-filters="sRGB">
<feFlood flood-opacity="0" result="BackgroundImageFix"/>
<feColorMatrix in="SourceAlpha" type="matrix" values="0 0 0 0 0 0 0 0 0 0 0 0 0 0 0 0 0 0 127 0" result="hardAlpha"/>
<feOffset dy="7.09313"/>
<feGaussianBlur stdDeviation="7.09313"/>
<feColorMatrix type="matrix" values="0 0 0 0 0 0 0 0 0 0 0 0 0 0 0 0 0 0 0.18 0"/>
<feBlend mode="normal" in2="BackgroundImageFix" result="effect1_dropShadow_1_2376"/>
<feBlend mode="normal" in="SourceGraphic" in2="effect1_dropShadow_1_2376" result="shape"/>
</filter>
<filter id="filter2_d_1_2376" x="68.5647" y="9.1432" width="130.156" height="171.341" filterUnits="userSpaceOnUse" color-interpolation-filters="sRGB">
<feFlood flood-opacity="0" result="BackgroundImageFix"/>
<feColorMatrix in="SourceAlpha" type="matrix" values="0 0 0 0 0 0 0 0 0 0 0 0 0 0 0 0 0 0 127 0" result="hardAlpha"/>
<feOffset dy="7.09313"/>
<feGaussianBlur stdDeviation="7.09313"/>
<feColorMatrix type="matrix" values="0 0 0 0 0 0 0 0 0 0 0 0 0 0 0 0 0 0 0.18 0"/>
<feBlend mode="normal" in2="BackgroundImageFix" result="effect1_dropShadow_1_2376"/>
<feBlend mode="normal" in="SourceGraphic" in2="effect1_dropShadow_1_2376" result="shape"/>
</filter>
<linearGradient id="paint0_linear_1_2376" x1="59.5551" y1="137.755" x2="140.092" y2="137.755" gradientUnits="userSpaceOnUse">
<stop stop-color="#83A6FF"/>
<stop offset="1" stop-color="#5A78FF"/>
</linearGradient>
<linearGradient id="paint1_linear_1_2376" x1="65.2829" y1="151.937" x2="145.82" y2="151.937" gradientUnits="userSpaceOnUse">
<stop stop-color="#83A6FF"/>
<stop offset="1" stop-color="#5A78FF"/>
</linearGradient>
<linearGradient id="paint2_linear_1_2376" x1="71.0093" y1="166.116" x2="151.547" y2="166.116" gradientUnits="userSpaceOnUse">
<stop stop-color="#83A6FF"/>
<stop offset="1" stop-color="#5A78FF"/>
</linearGradient>
<linearGradient id="paint3_linear_1_2376" x1="59.5551" y1="151.184" x2="72.6934" y2="151.184" gradientUnits="userSpaceOnUse">
<stop stop-color="#83A6FF"/>
<stop offset="1" stop-color="#5A78FF"/>
</linearGradient>
<linearGradient id="paint4_linear_1_2376" x1="65.2825" y1="162.325" x2="93.0764" y2="162.325" gradientUnits="userSpaceOnUse">
<stop stop-color="#83A6FF"/>
<stop offset="1" stop-color="#5A78FF"/>
</linearGradient>
<linearGradient id="paint5_linear_1_2376" x1="71.0093" y1="180.451" x2="79.6129" y2="180.451" gradientUnits="userSpaceOnUse">
<stop stop-color="#83A6FF"/>
<stop offset="1" stop-color="#5A78FF"/>
</linearGradient>
<linearGradient id="paint6_linear_1_2376" x1="137.591" y1="129.253" x2="141.567" y2="129.253" gradientUnits="userSpaceOnUse">
<stop stop-color="#83A6FF"/>
<stop offset="1" stop-color="#5A78FF"/>
</linearGradient>
</defs>
</svg>
