<svg width="34" height="38" viewBox="0 0 34 38" fill="none" xmlns="http://www.w3.org/2000/svg">
<path d="M30.0121 35.9996C31.7203 35.9996 32.9657 34.3987 32.5601 32.7441C31.096 26.7825 25.6959 22.3555 19.2595 22.3555C12.8231 22.3555 7.41988 26.7825 5.95894 32.7472C5.5533 34.4018 6.79875 35.9996 8.50687 35.9996H30.0121Z" stroke="#EA4054" stroke-width="2.5" stroke-miterlimit="10"/>
<path d="M19.2596 19.3749C23.3569 19.3749 26.6784 16.0653 26.6784 11.9828C26.6784 7.90034 23.3569 4.59082 19.2596 4.59082C15.1623 4.59082 11.8408 7.90034 11.8408 11.9828C11.8408 16.0653 15.1623 19.3749 19.2596 19.3749Z" stroke="#EA4054" stroke-width="2.5" stroke-miterlimit="10"/>
<path d="M3.55357 31.7051C4.77683 26.7223 7.92688 22.81 13.4569 20.9912C7.22651 21.1996 1.50635 25.1624 0.077107 30.982C-0.328533 32.6366 0.916909 34.2343 2.62503 34.2343H4.01308C3.53139 33.527 3.32857 32.6239 3.55357 31.7051Z" fill="#FCACB4"/>
<path d="M9.61904 10.5118C9.61904 5.93951 13.3395 2.23245 17.9283 2.23245C19.5509 2.23245 21.0657 2.69662 22.3428 3.49866C20.9326 1.39252 18.5241 0 15.7892 0C11.4476 0 7.92676 3.50813 7.92676 7.83725C7.92676 9.91813 8.74438 11.8095 10.0722 13.2147C9.78066 12.3653 9.61904 11.4591 9.61904 10.5118Z" fill="#FCACB4"/>
</svg>
