<svg width="56" height="56" viewBox="0 0 56 56" fill="none" xmlns="http://www.w3.org/2000/svg">
<path opacity="0.2" d="M19.2501 35C25.5324 35 30.6251 29.9072 30.6251 23.625C30.6251 17.3428 25.5324 12.25 19.2501 12.25C12.9679 12.25 7.87512 17.3428 7.87512 23.625C7.87512 29.9072 12.9679 35 19.2501 35Z" fill="#0F9918"/>
<path d="M19.2501 35C25.5324 35 30.6251 29.9072 30.6251 23.625C30.6251 17.3428 25.5324 12.25 19.2501 12.25C12.9679 12.25 7.87512 17.3428 7.87512 23.625C7.87512 29.9072 12.9679 35 19.2501 35Z" stroke="#0F9918" stroke-width="3" stroke-miterlimit="10"/>
<path d="M33.9964 12.6737C35.5609 12.2329 37.2018 12.1325 38.8084 12.3792C40.415 12.6259 41.9501 13.2141 43.3103 14.1041C44.6705 14.994 45.8241 16.1651 46.6936 17.5385C47.563 18.9119 48.1281 20.4556 48.3507 22.0658C48.5733 23.6759 48.4482 25.3151 47.984 26.8728C47.5198 28.4306 46.7271 29.8708 45.6594 31.0964C44.5917 32.322 43.2737 33.3046 41.7943 33.9779C40.3149 34.6513 38.7083 34.9998 37.0829 35" stroke="#0F9918" stroke-width="3" stroke-linecap="round" stroke-linejoin="round"/>
<path d="M3.4989 43.1805C5.27544 40.6535 7.63392 38.5911 10.3752 37.1673C13.1165 35.7435 16.1601 35.0001 19.2491 35C22.3381 34.9999 25.3817 35.743 28.1231 37.1666C30.8645 38.5902 33.2232 40.6525 34.9999 43.1793" stroke="#0F9918" stroke-width="3" stroke-linecap="round" stroke-linejoin="round"/>
<path d="M37.0829 35C40.1722 34.9978 43.2165 35.74 45.9581 37.1637C48.6997 38.5875 51.0579 40.6509 52.833 43.1793" stroke="#0F9918" stroke-width="3" stroke-linecap="round" stroke-linejoin="round"/>
</svg>
