<svg width="168" height="46" viewBox="0 0 168 46" fill="none" xmlns="http://www.w3.org/2000/svg">
<path d="M59.6009 17.7872C59.5439 17.3056 59.3126 16.9316 58.9071 16.6655C58.5016 16.3993 58.0042 16.2662 57.4149 16.2662C56.9841 16.2662 56.6071 16.3359 56.2839 16.4753C55.9639 16.6148 55.7137 16.8065 55.5331 17.0505C55.3557 17.2945 55.267 17.5717 55.267 17.8823C55.267 18.1421 55.3287 18.3655 55.4523 18.5525C55.579 18.7362 55.7406 18.8899 55.937 19.0135C56.1334 19.1339 56.3394 19.2337 56.5548 19.313C56.7702 19.389 56.9682 19.4508 57.1488 19.4983L58.1372 19.7645C58.3907 19.8311 58.6726 19.923 58.9831 20.0402C59.2968 20.1574 59.5961 20.3175 59.8813 20.5203C60.1696 20.7199 60.4072 20.9766 60.5941 21.2903C60.781 21.604 60.8745 21.989 60.8745 22.4453C60.8745 22.9713 60.7366 23.4466 60.461 23.8712C60.1886 24.2958 59.7894 24.6333 59.2635 24.8837C58.7408 25.134 58.1056 25.2591 57.3579 25.2591C56.6609 25.2591 56.0574 25.1467 55.5473 24.9217C55.0404 24.6967 54.6413 24.383 54.3498 23.9806C54.0615 23.5781 53.8983 23.1107 53.8603 22.5784H55.0769C55.1086 22.946 55.2321 23.2502 55.4475 23.491C55.6661 23.7286 55.9418 23.9061 56.2744 24.0233C56.6102 24.1374 56.9714 24.1944 57.3579 24.1944C57.8078 24.1944 58.2117 24.1216 58.5697 23.9758C58.9277 23.8269 59.2112 23.6209 59.4203 23.3579C59.6294 23.0917 59.734 22.7812 59.734 22.4263C59.734 22.1031 59.6437 21.8401 59.4631 21.6373C59.2825 21.4345 59.0449 21.2697 58.7503 21.1429C58.4556 21.0162 58.1372 20.9053 57.7951 20.8102L56.5976 20.468C55.8372 20.2493 55.2353 19.9372 54.7917 19.5316C54.3482 19.126 54.1265 18.5952 54.1265 17.9393C54.1265 17.3943 54.2738 16.919 54.5684 16.5134C54.8662 16.1046 55.2654 15.7877 55.7659 15.5627C56.2697 15.3346 56.832 15.2205 57.4529 15.2205C58.0802 15.2205 58.6378 15.333 59.1257 15.558C59.6136 15.7798 60.0001 16.084 60.2852 16.4706C60.5735 16.8572 60.7256 17.296 60.7414 17.7872H59.6009Z" fill="white"/>
<path d="M63.2113 25.088H61.9758L65.5494 15.3536H66.7659L70.3395 25.088H69.1039L66.1956 16.8936H66.1196L63.2113 25.088ZM63.6675 21.2855H68.6477V22.3312H63.6675V21.2855Z" fill="white"/>
<path d="M71.3398 15.3536L74.2291 23.548H74.3431L77.2324 15.3536H78.468L74.8944 25.088H73.6778L70.1043 15.3536H71.3398Z" fill="white"/>
<path d="M87.7382 20.2208C87.7382 21.2475 87.5528 22.1347 87.1822 22.8826C86.8115 23.6304 86.303 24.2071 85.6567 24.6127C85.0105 25.0183 84.2723 25.2211 83.4423 25.2211C82.6122 25.2211 81.8741 25.0183 81.2278 24.6127C80.5815 24.2071 80.073 23.6304 79.7023 22.8826C79.3317 22.1347 79.1463 21.2475 79.1463 20.2208C79.1463 19.1941 79.3317 18.3069 79.7023 17.5591C80.073 16.8112 80.5815 16.2345 81.2278 15.8289C81.8741 15.4233 82.6122 15.2205 83.4423 15.2205C84.2723 15.2205 85.0105 15.4233 85.6567 15.8289C86.303 16.2345 86.8115 16.8112 87.1822 17.5591C87.5528 18.3069 87.7382 19.1941 87.7382 20.2208ZM86.5977 20.2208C86.5977 19.3779 86.4567 18.6665 86.1747 18.0867C85.8959 17.5068 85.5173 17.0679 85.039 16.77C84.5638 16.4722 84.0315 16.3232 83.4423 16.3232C82.853 16.3232 82.3192 16.4722 81.8408 16.77C81.3656 17.0679 80.987 17.5068 80.705 18.0867C80.4262 18.6665 80.2868 19.3779 80.2868 20.2208C80.2868 21.0637 80.4262 21.7751 80.705 22.355C80.987 22.9349 81.3656 23.3737 81.8408 23.6716C82.3192 23.9695 82.853 24.1184 83.4423 24.1184C84.0315 24.1184 84.5638 23.9695 85.039 23.6716C85.5173 23.3737 85.8959 22.9349 86.1747 22.355C86.4567 21.7751 86.5977 21.0637 86.5977 20.2208Z" fill="white"/>
<path d="M89.7198 25.088V15.3536H93.0083C93.7686 15.3536 94.3927 15.4835 94.8806 15.7434C95.3685 16 95.7296 16.3533 95.9641 16.8033C96.1985 17.2533 96.3157 17.765 96.3157 18.3386C96.3157 18.9121 96.1985 19.4207 95.9641 19.8643C95.7296 20.308 95.3701 20.6565 94.8853 20.91C94.4006 21.1604 93.7813 21.2855 93.0273 21.2855H90.3661V20.2208H92.9893C93.5088 20.2208 93.927 20.1448 94.2438 19.9927C94.5638 19.8406 94.7951 19.6251 94.9376 19.3462C95.0834 19.0642 95.1562 18.7283 95.1562 18.3386C95.1562 17.9488 95.0834 17.6082 94.9376 17.3166C94.7919 17.0251 94.559 16.8001 94.2391 16.6417C93.9191 16.4801 93.4961 16.3993 92.9702 16.3993H90.8983V25.088H89.7198ZM94.3008 20.7151L96.6959 25.088H95.3273L92.9702 20.7151H94.3008Z" fill="white"/>
<path d="M97.1165 15.3536H98.4661L101.165 19.8976H101.279L103.979 15.3536H105.328L101.812 21.0764V25.088H100.633V21.0764L97.1165 15.3536Z" fill="white"/>
<path d="M110.616 25.088V15.3536H111.795V20.1828H111.909L116.281 15.3536H117.82L113.733 19.7455L117.82 25.088H116.395L113.011 20.563L111.795 21.9319V25.088H110.616Z" fill="white"/>
<path d="M120.524 15.3536V25.088H119.346V15.3536H120.524Z" fill="white"/>
<path d="M122.355 16.3993V15.3536H129.654V16.3993H126.594V25.088H125.415V16.3993H122.355Z" fill="white"/>
<path d="M138.899 18.3956H137.721C137.651 18.0565 137.529 17.7587 137.355 17.502C137.184 17.2453 136.975 17.0299 136.728 16.8556C136.484 16.6781 136.213 16.545 135.915 16.4563C135.617 16.3676 135.307 16.3232 134.984 16.3232C134.394 16.3232 133.861 16.4722 133.382 16.77C132.907 17.0679 132.528 17.5068 132.246 18.0867C131.968 18.6665 131.828 19.3779 131.828 20.2208C131.828 21.0637 131.968 21.7751 132.246 22.355C132.528 22.9349 132.907 23.3737 133.382 23.6716C133.861 23.9695 134.394 24.1184 134.984 24.1184C135.307 24.1184 135.617 24.074 135.915 23.9853C136.213 23.8966 136.484 23.7651 136.728 23.5908C136.975 23.4133 137.184 23.1963 137.355 22.9396C137.529 22.6798 137.651 22.3819 137.721 22.046H138.899C138.811 22.5435 138.649 22.9887 138.415 23.3817C138.18 23.7746 137.889 24.1089 137.54 24.3846C137.192 24.6571 136.801 24.8646 136.367 25.0072C135.936 25.1498 135.475 25.2211 134.984 25.2211C134.154 25.2211 133.415 25.0183 132.769 24.6127C132.123 24.2071 131.614 23.6304 131.244 22.8826C130.873 22.1347 130.688 21.2475 130.688 20.2208C130.688 19.1941 130.873 18.3069 131.244 17.5591C131.614 16.8112 132.123 16.2345 132.769 15.8289C133.415 15.4233 134.154 15.2205 134.984 15.2205C135.475 15.2205 135.936 15.2918 136.367 15.4344C136.801 15.577 137.192 15.7861 137.54 16.0618C137.889 16.3343 138.18 16.667 138.415 17.06C138.649 17.4497 138.811 17.8949 138.899 18.3956Z" fill="white"/>
<path d="M140.804 25.088V15.3536H141.982V19.6885H147.172V15.3536H148.35V25.088H147.172V20.7342H141.982V25.088H140.804Z" fill="white"/>
<path d="M150.71 25.088V15.3536H156.583V16.3993H151.888V19.6885H156.279V20.7342H151.888V24.0423H156.659V25.088H150.71Z" fill="white"/>
<path d="M166.425 15.3536V25.088H165.284L159.981 17.445H159.886V25.088H158.707V15.3536H159.848L165.17 23.0157H165.265V15.3536H166.425Z" fill="white"/>
<path d="M168 29.4643H53.8487V30.2486H168V29.4643Z" fill="white"/>
<path d="M64.8191 34.2137H64.0938C64.051 34.0051 63.9759 33.8218 63.8687 33.6638C63.7634 33.5059 63.6347 33.3733 63.4827 33.266C63.3325 33.1568 63.1658 33.0749 62.9826 33.0203C62.7993 32.9657 62.6083 32.9384 62.4094 32.9384C62.0468 32.9384 61.7183 33.0301 61.4239 33.2134C61.1315 33.3967 60.8985 33.6667 60.725 34.0236C60.5534 34.3804 60.4676 34.8182 60.4676 35.3369C60.4676 35.8556 60.5534 36.2934 60.725 36.6502C60.8985 37.0071 61.1315 37.2772 61.4239 37.4605C61.7183 37.6438 62.0468 37.7354 62.4094 37.7354C62.6083 37.7354 62.7993 37.7081 62.9826 37.6535C63.1658 37.5989 63.3325 37.518 63.4827 37.4108C63.6347 37.3016 63.7634 37.168 63.8687 37.01C63.9759 36.8501 64.051 36.6668 64.0938 36.4601H64.8191C64.7645 36.7663 64.6651 37.0403 64.5208 37.2821C64.3765 37.5239 64.1972 37.7296 63.9827 37.8992C63.7683 38.0669 63.5275 38.1947 63.2604 38.2824C62.9953 38.3702 62.7116 38.414 62.4094 38.414C61.8986 38.414 61.4444 38.2892 61.0466 38.0396C60.6489 37.79 60.336 37.4351 60.1079 36.9749C59.8798 36.5147 59.7658 35.9687 59.7658 35.3369C59.7658 34.7051 59.8798 34.1591 60.1079 33.6989C60.336 33.2387 60.6489 32.8838 61.0466 32.6342C61.4444 32.3846 61.8986 32.2598 62.4094 32.2598C62.7116 32.2598 62.9953 32.3037 63.2604 32.3914C63.5275 32.4792 63.7683 32.6079 63.9827 32.7775C64.1972 32.9452 64.3765 33.15 64.5208 33.3918C64.6651 33.6316 64.7645 33.9056 64.8191 34.2137Z" fill="white"/>
<path d="M70.5802 32.3417H71.3055V36.308C71.3055 36.7175 71.209 37.0832 71.0159 37.4049C70.8249 37.7247 70.5549 37.9772 70.2059 38.1625C69.8569 38.3458 69.4475 38.4374 68.9777 38.4374C68.5078 38.4374 68.0984 38.3458 67.7494 38.1625C67.4004 37.9772 67.1294 37.7247 66.9364 37.4049C66.7454 37.0832 66.6498 36.7175 66.6498 36.308V32.3417H67.3751V36.2495C67.3751 36.542 67.4394 36.8023 67.5681 37.0305C67.6968 37.2567 67.88 37.4351 68.1179 37.5658C68.3577 37.6945 68.6443 37.7588 68.9777 37.7588C69.311 37.7588 69.5976 37.6945 69.8374 37.5658C70.0772 37.4351 70.2605 37.2567 70.3872 37.0305C70.5159 36.8023 70.5802 36.542 70.5802 36.2495V32.3417Z" fill="white"/>
<path d="M73.4126 38.3321V32.3417H74.1378V37.6886H76.9218V38.3321H73.4126Z" fill="white"/>
<path d="M79.4288 32.3417V38.3321H78.7036V32.3417H79.4288Z" fill="white"/>
<path d="M86.291 32.3417V38.3321H85.5891L82.3255 33.6287H82.267V38.3321H81.5418V32.3417H82.2436L85.5189 37.0568H85.5774V32.3417H86.291Z" fill="white"/>
<path d="M88.6466 38.3321H87.8863L90.0854 32.3417H90.8341L93.0332 38.3321H92.2729L90.4832 33.2894H90.4364L88.6466 38.3321ZM88.9274 35.9921H91.9921V36.6356H88.9274V35.9921Z" fill="white"/>
<path d="M94.6249 38.3321V32.3417H96.6486C97.1165 32.3417 97.5005 32.4217 97.8008 32.5816C98.101 32.7395 98.3232 32.9569 98.4675 33.2338C98.6118 33.5107 98.6839 33.8257 98.6839 34.1786C98.6839 34.5316 98.6118 34.8445 98.4675 35.1175C98.3232 35.3905 98.102 35.605 97.8037 35.761C97.5054 35.9151 97.1243 35.9921 96.6603 35.9921H95.0226V35.3369H96.6369C96.9566 35.3369 97.2139 35.2901 97.4089 35.1965C97.6058 35.1029 97.7481 34.9703 97.8359 34.7987C97.9255 34.6252 97.9704 34.4185 97.9704 34.1786C97.9704 33.9388 97.9255 33.7291 97.8359 33.5497C97.7462 33.3703 97.6029 33.2319 97.406 33.1344C97.2091 33.0349 96.9488 32.9852 96.6252 32.9852H95.3501V38.3321H94.6249ZM97.444 35.6411L98.9179 38.3321H98.0757L96.6252 35.6411H97.444Z" fill="white"/>
<path d="M99.8355 32.3417H100.666L102.327 35.138H102.397L104.058 32.3417H104.889L102.725 35.8634V38.3321H102V35.8634L99.8355 32.3417Z" fill="white"/>
<path d="M112.736 33.8393C112.701 33.5429 112.558 33.3128 112.309 33.149C112.059 32.9852 111.753 32.9033 111.391 32.9033C111.125 32.9033 110.893 32.9462 110.695 33.032C110.498 33.1178 110.344 33.2358 110.233 33.3859C110.123 33.5361 110.069 33.7067 110.069 33.8978C110.069 34.0577 110.107 34.1952 110.183 34.3102C110.261 34.4233 110.36 34.5179 110.481 34.594C110.602 34.6681 110.729 34.7295 110.861 34.7782C110.994 34.825 111.116 34.8631 111.227 34.8923L111.835 35.0561C111.991 35.0971 112.165 35.1536 112.356 35.2258C112.549 35.2979 112.733 35.3964 112.908 35.5212C113.086 35.644 113.232 35.802 113.347 35.995C113.462 36.1881 113.52 36.425 113.52 36.7058C113.52 37.0295 113.435 37.322 113.265 37.5833C113.097 37.8446 112.852 38.0523 112.528 38.2064C112.207 38.3604 111.816 38.4374 111.356 38.4374C110.927 38.4374 110.555 38.3682 110.241 38.2298C109.929 38.0913 109.684 37.8983 109.504 37.6506C109.327 37.403 109.227 37.1153 109.203 36.7877H109.952C109.971 37.0139 110.047 37.2011 110.18 37.3493C110.314 37.4956 110.484 37.6048 110.689 37.6769C110.895 37.7471 111.118 37.7822 111.356 37.7822C111.632 37.7822 111.881 37.7374 112.101 37.6477C112.322 37.556 112.496 37.4293 112.625 37.2674C112.753 37.1036 112.818 36.9125 112.818 36.6941C112.818 36.4952 112.762 36.3334 112.651 36.2086C112.54 36.0838 112.394 35.9824 112.212 35.9044C112.031 35.8264 111.835 35.7581 111.625 35.6996L110.888 35.489C110.42 35.3545 110.049 35.1624 109.776 34.9128C109.503 34.6632 109.367 34.3366 109.367 33.9329C109.367 33.5975 109.458 33.305 109.639 33.0554C109.822 32.8039 110.068 32.6089 110.376 32.4704C110.686 32.33 111.032 32.2598 111.414 32.2598C111.8 32.2598 112.143 32.329 112.443 32.4675C112.744 32.604 112.981 32.7912 113.157 33.0291C113.334 33.267 113.428 33.5371 113.438 33.8393H112.736Z" fill="white"/>
<path d="M120.424 35.3369C120.424 35.9687 120.31 36.5147 120.082 36.9749C119.854 37.4351 119.541 37.79 119.143 38.0396C118.746 38.2892 118.291 38.414 117.78 38.414C117.27 38.414 116.815 38.2892 116.418 38.0396C116.02 37.79 115.707 37.4351 115.479 36.9749C115.251 36.5147 115.137 35.9687 115.137 35.3369C115.137 34.7051 115.251 34.1591 115.479 33.6989C115.707 33.2387 116.02 32.8838 116.418 32.6342C116.815 32.3846 117.27 32.2598 117.78 32.2598C118.291 32.2598 118.746 32.3846 119.143 32.6342C119.541 32.8838 119.854 33.2387 120.082 33.6989C120.31 34.1591 120.424 34.7051 120.424 35.3369ZM119.722 35.3369C119.722 34.8182 119.636 34.3804 119.462 34.0236C119.29 33.6667 119.057 33.3967 118.763 33.2134C118.471 33.0301 118.143 32.9384 117.78 32.9384C117.418 32.9384 117.089 33.0301 116.795 33.2134C116.503 33.3967 116.27 33.6667 116.096 34.0236C115.924 34.3804 115.839 34.8182 115.839 35.3369C115.839 35.8556 115.924 36.2934 116.096 36.6502C116.27 37.0071 116.503 37.2772 116.795 37.4605C117.089 37.6438 117.418 37.7354 117.78 37.7354C118.143 37.7354 118.471 37.6438 118.763 37.4605C119.057 37.2772 119.29 37.0071 119.462 36.6502C119.636 36.2934 119.722 35.8556 119.722 35.3369Z" fill="white"/>
<path d="M122.302 38.3321V32.3417H123.028V37.6886H125.812V38.3321H122.302Z" fill="white"/>
<path d="M131.524 32.3417H132.249V36.308C132.249 36.7175 132.153 37.0832 131.96 37.4049C131.768 37.7247 131.498 37.9772 131.149 38.1625C130.8 38.3458 130.391 38.4374 129.921 38.4374C129.451 38.4374 129.042 38.3458 128.693 38.1625C128.344 37.9772 128.073 37.7247 127.88 37.4049C127.689 37.0832 127.593 36.7175 127.593 36.308V32.3417H128.319V36.2495C128.319 36.542 128.383 36.8023 128.512 37.0305C128.64 37.2567 128.824 37.4351 129.061 37.5658C129.301 37.6945 129.588 37.7588 129.921 37.7588C130.255 37.7588 130.541 37.6945 130.781 37.5658C131.021 37.4351 131.204 37.2567 131.331 37.0305C131.459 36.8023 131.524 36.542 131.524 36.2495V32.3417Z" fill="white"/>
<path d="M134.029 32.9852V32.3417H138.52V32.9852H136.637V38.3321H135.912V32.9852H134.029Z" fill="white"/>
<path d="M141.024 32.3417V38.3321H140.299V32.3417H141.024Z" fill="white"/>
<path d="M148.19 35.3369C148.19 35.9687 148.076 36.5147 147.848 36.9749C147.62 37.4351 147.307 37.79 146.909 38.0396C146.511 38.2892 146.057 38.414 145.546 38.414C145.036 38.414 144.581 38.2892 144.184 38.0396C143.786 37.79 143.473 37.4351 143.245 36.9749C143.017 36.5147 142.903 35.9687 142.903 35.3369C142.903 34.7051 143.017 34.1591 143.245 33.6989C143.473 33.2387 143.786 32.8838 144.184 32.6342C144.581 32.3846 145.036 32.2598 145.546 32.2598C146.057 32.2598 146.511 32.3846 146.909 32.6342C147.307 32.8838 147.62 33.2387 147.848 33.6989C148.076 34.1591 148.19 34.7051 148.19 35.3369ZM147.488 35.3369C147.488 34.8182 147.401 34.3804 147.228 34.0236C147.056 33.6667 146.823 33.3967 146.529 33.2134C146.237 33.0301 145.909 32.9384 145.546 32.9384C145.184 32.9384 144.855 33.0301 144.561 33.2134C144.268 33.3967 144.036 33.6667 143.862 34.0236C143.69 34.3804 143.605 34.8182 143.605 35.3369C143.605 35.8556 143.69 36.2934 143.862 36.6502C144.036 37.0071 144.268 37.2772 144.561 37.4605C144.855 37.6438 145.184 37.7354 145.546 37.7354C145.909 37.7354 146.237 37.6438 146.529 37.4605C146.823 37.2772 147.056 37.0071 147.228 36.6502C147.401 36.2934 147.488 35.8556 147.488 35.3369Z" fill="white"/>
<path d="M154.818 32.3417V38.3321H154.116L150.852 33.6287H150.794V38.3321H150.068V32.3417H150.77L154.045 37.0568H154.104V32.3417H154.818Z" fill="white"/>
<path d="M160.203 33.8393C160.168 33.5429 160.025 33.3128 159.776 33.149C159.526 32.9852 159.22 32.9033 158.858 32.9033C158.592 32.9033 158.361 32.9462 158.162 33.032C157.965 33.1178 157.811 33.2358 157.7 33.3859C157.59 33.5361 157.536 33.7067 157.536 33.8978C157.536 34.0577 157.574 34.1952 157.65 34.3102C157.728 34.4233 157.827 34.5179 157.948 34.594C158.069 34.6681 158.196 34.7295 158.328 34.7782C158.461 34.825 158.583 34.8631 158.694 34.8923L159.302 35.0561C159.458 35.0971 159.632 35.1536 159.823 35.2258C160.016 35.2979 160.2 35.3964 160.375 35.5212C160.553 35.644 160.699 35.802 160.814 35.995C160.929 36.1881 160.987 36.425 160.987 36.7058C160.987 37.0295 160.902 37.322 160.732 37.5833C160.565 37.8446 160.319 38.0523 159.995 38.2064C159.674 38.3604 159.283 38.4374 158.823 38.4374C158.394 38.4374 158.022 38.3682 157.708 38.2298C157.396 38.0913 157.151 37.8983 156.971 37.6506C156.794 37.403 156.694 37.1153 156.67 36.7877H157.419C157.438 37.0139 157.514 37.2011 157.647 37.3493C157.781 37.4956 157.951 37.6048 158.156 37.6769C158.362 37.7471 158.585 37.7822 158.823 37.7822C159.099 37.7822 159.348 37.7374 159.568 37.6477C159.789 37.556 159.963 37.4293 160.092 37.2674C160.22 37.1036 160.285 36.9125 160.285 36.6941C160.285 36.4952 160.229 36.3334 160.118 36.2086C160.007 36.0838 159.861 35.9824 159.679 35.9044C159.498 35.8264 159.302 35.7581 159.092 35.6996L158.355 35.489C157.887 35.3545 157.516 35.1624 157.243 34.9128C156.97 34.6632 156.834 34.3366 156.834 33.9329C156.834 33.5975 156.925 33.305 157.106 33.0554C157.289 32.8039 157.535 32.6089 157.843 32.4704C158.153 32.33 158.499 32.2598 158.881 32.2598C159.267 32.2598 159.61 32.329 159.91 32.4675C160.211 32.604 160.449 32.7912 160.624 33.0291C160.801 33.267 160.895 33.5371 160.905 33.8393H160.203Z" fill="white"/>
<path d="M50.476 45.9262H40.1712L32.4301 25.3829L29.6031 29.4172V45.9273C28.2639 44.3296 27.1284 42.5711 26.1662 40.7235C25.6289 39.6947 25.1454 38.6377 24.71 37.5667C22.8593 33.0116 21.8818 28.1913 21.3715 24.0796C21.2872 23.4074 21.2169 22.7529 21.1572 22.1229C20.6831 17.1584 20.8786 13.6356 20.8786 13.6356H26.165V0.0722656H29.6019V17.7508L40.0588 0.0722656H50.1657L38.1578 17.2065L50.4748 45.9262H50.476Z" fill="white"/>
<path d="M25.1608 12.9492L19.8186 12.9598C19.8186 12.9598 19.7518 18.5968 19.9487 19.7106L15.4689 15.6326C15.4689 15.6326 15.9611 13.3863 15.0565 12.4887C14.3229 11.7603 11.0243 9.30829 11.0243 9.30829L9.269 8.0688C9.269 8.0688 4.48459 4.35032 8.696 8.71615L10.8099 10.8004C10.8099 10.8004 14.1073 14.4648 10.5404 11.0342L7.88277 8.41891C7.75739 8.29555 7.62615 8.18041 7.48905 8.07115C6.84809 7.56125 5.16188 6.27829 7.36016 8.69853L10.5498 11.9153C10.5498 11.9153 13.1207 14.6363 10.2275 12.1668L6.85863 9.04042C6.85863 9.04042 4.51974 6.95737 5.98448 8.92763C6.23993 9.27187 6.52584 9.59261 6.8352 9.88985L9.60999 12.5615C9.60999 12.5615 12.5125 15.6432 9.31353 12.7859L6.51764 10.072C6.24696 9.80879 5.96221 9.55971 5.66224 9.33061C4.99666 8.82189 4.15766 8.32022 5.60482 10.3257C7.88395 13.4838 9.98731 15.6702 9.98731 15.6702L11.0079 16.6712C11.6524 17.3033 12.6109 17.4913 13.4429 17.1424C13.4558 17.1365 13.4687 17.1318 13.4816 17.1259L20.3283 23.7017C20.3283 23.7017 20.8674 31.4605 23.9632 38.6942C21.6337 43.6428 16.1861 46.8256 10.1619 45.7012C5.17594 44.7695 1.22936 40.8619 0.252089 35.871C-0.641986 31.309 0.920008 27.0653 3.84948 24.2327L6.82231 27.5294C5.62708 29.6113 6.91722 32.0327 6.91722 32.0327C6.91722 32.0327 9.52211 36.0332 14.7776 37.5675C20.0342 39.1008 18.8882 34.836 18.8882 34.836C18.8882 34.836 18.4582 30.308 14.8737 27.2897C11.2892 24.2715 8.56593 26.0679 8.56593 26.0679L6.29617 23.912C5.30484 23.0015 5.65052 23.3245 5.33296 23.0015C3.64793 21.2908 1.82814 19.6813 0.915322 17.4231C0.331771 15.9792 0.00835601 14.4025 0.000153492 12.7507C-0.0338284 5.82126 5.57904 0.12312 12.4867 0.0726008C19.4776 0.0220812 25.1608 5.6885 25.1608 12.6861C25.1608 12.7342 25.1608 12.8999 25.1608 12.9481V12.9492Z" fill="white"/>
</svg>
