<svg width="185" height="30" viewBox="0 0 185 30" fill="none" xmlns="http://www.w3.org/2000/svg">
<path d="M62.0552 23.7127C61.0332 23.7127 60.1224 23.5328 59.3228 23.1731C58.5233 22.8063 57.8906 22.2668 57.4247 21.5544C56.9659 20.8349 56.7364 19.9391 56.7364 18.867C56.7364 17.9642 56.8998 17.2059 57.2266 16.5923C57.5534 15.9787 57.9983 15.4849 58.5615 15.1111C59.1247 14.7373 59.7643 14.4551 60.4804 14.2647C61.2035 14.0742 61.9613 13.9402 62.7539 13.8626C63.6856 13.7639 64.4365 13.6722 65.0066 13.5876C65.5767 13.4959 65.9904 13.3619 66.2477 13.1855C66.5049 13.0092 66.6335 12.7482 66.6335 12.4026V12.3391C66.6335 11.669 66.425 11.1506 66.0078 10.7838C65.5976 10.4171 65.0136 10.2337 64.2557 10.2337C63.4562 10.2337 62.82 10.4135 62.3472 10.7733C61.8744 11.1259 61.5616 11.5703 61.4086 12.1063L57.2996 11.7678C57.5082 10.7803 57.9184 9.92685 58.5302 9.20741C59.142 8.48091 59.9312 7.92369 60.8976 7.53575C61.871 7.14076 62.9973 6.94327 64.2766 6.94327C65.1665 6.94327 66.0182 7.04907 66.8317 7.26067C67.6521 7.47227 68.3787 7.80026 69.0113 8.24462C69.651 8.68898 70.1551 9.26031 70.5235 9.95859C70.892 10.6498 71.0763 11.4786 71.0763 12.4449V23.4059H66.863V21.1523H66.7378C66.4806 21.6602 66.1364 22.1081 65.7054 22.496C65.2743 22.8769 64.7563 23.1766 64.1514 23.3953C63.5466 23.6069 62.8478 23.7127 62.0552 23.7127ZM63.3275 20.6022C63.9811 20.6022 64.5582 20.4717 65.0588 20.2107C65.5593 19.9427 65.9522 19.5829 66.2372 19.1315C66.5223 18.6801 66.6648 18.1687 66.6648 17.5974V15.8729C66.5258 15.9646 66.3346 16.0492 66.0912 16.1268C65.8548 16.1973 65.5872 16.2643 65.2882 16.3278C64.9892 16.3842 64.6903 16.4371 64.3913 16.4865C64.0923 16.5288 63.8212 16.5676 63.5778 16.6029C63.0564 16.6805 62.601 16.8039 62.2116 16.9732C61.8223 17.1425 61.5199 17.3717 61.3043 17.6609C61.0888 17.943 60.981 18.2957 60.981 18.7189C60.981 19.3325 61.2 19.8016 61.6381 20.126C62.083 20.4435 62.6462 20.6022 63.3275 20.6022Z" fill="#D8D8D8"/>
<path d="M78.9658 1.73787V23.4059H74.5231V1.73787H78.9658Z" fill="#D8D8D8"/>
<path d="M82.5247 7.15487H86.9674V24.21C86.9674 25.4655 86.7241 26.4811 86.2374 27.257C85.7507 28.0329 85.052 28.6007 84.1412 28.9604C83.2373 29.3201 82.1562 29.5 80.8978 29.5C80.7448 29.5 80.5988 29.4965 80.4598 29.4894C80.3138 29.4894 80.1608 29.4859 80.0009 29.4788V25.9557C80.1191 25.9627 80.2234 25.9663 80.3138 25.9663C80.3972 25.9733 80.4876 25.9768 80.5849 25.9768C81.301 25.9768 81.8016 25.8217 82.0867 25.5113C82.3787 25.208 82.5247 24.7495 82.5247 24.1359V7.15487ZM84.7356 5.06001C84.0821 5.06001 83.5189 4.83783 83.0461 4.39347C82.5734 3.94205 82.337 3.40247 82.337 2.77472C82.337 2.15402 82.5734 1.62149 83.0461 1.17713C83.5189 0.725709 84.0821 0.5 84.7356 0.5C85.4031 0.5 85.9697 0.725709 86.4356 1.17713C86.9083 1.62149 87.1447 2.15402 87.1447 2.77472C87.1447 3.40247 86.9083 3.94205 86.4356 4.39347C85.9697 4.83783 85.4031 5.06001 84.7356 5.06001Z" fill="#D8D8D8"/>
<path d="M95.0942 23.7127C94.0722 23.7127 93.1614 23.5328 92.3618 23.1731C91.5623 22.8063 90.9296 22.2668 90.4638 21.5544C90.0049 20.8349 89.7754 19.9391 89.7754 18.867C89.7754 17.9642 89.9388 17.2059 90.2656 16.5923C90.5924 15.9787 91.0373 15.4849 91.6005 15.1111C92.1637 14.7373 92.8033 14.4551 93.5194 14.2647C94.2425 14.0742 95.0004 13.9402 95.793 13.8626C96.7246 13.7639 97.4755 13.6722 98.0456 13.5876C98.6157 13.4959 99.0294 13.3619 99.2867 13.1855C99.5439 13.0092 99.6725 12.7482 99.6725 12.4026V12.3391C99.6725 11.669 99.464 11.1506 99.0468 10.7838C98.6366 10.4171 98.0526 10.2337 97.2947 10.2337C96.4952 10.2337 95.859 10.4135 95.3862 10.7733C94.9135 11.1259 94.6006 11.5703 94.4476 12.1063L90.3386 11.7678C90.5472 10.7803 90.9574 9.92685 91.5692 9.20741C92.1811 8.48091 92.9702 7.92369 93.9366 7.53575C94.91 7.14076 96.0363 6.94327 97.3156 6.94327C98.2055 6.94327 99.0572 7.04907 99.8707 7.26067C100.691 7.47227 101.418 7.80026 102.05 8.24462C102.69 8.68898 103.194 9.26031 103.563 9.95859C103.931 10.6498 104.115 11.4786 104.115 12.4449V23.4059H99.902V21.1523H99.7768C99.5196 21.6602 99.1754 22.1081 98.7444 22.496C98.3133 22.8769 97.7953 23.1766 97.1904 23.3953C96.5856 23.6069 95.8868 23.7127 95.0942 23.7127ZM96.3666 20.6022C97.0201 20.6022 97.5972 20.4717 98.0978 20.2107C98.5984 19.9427 98.9912 19.5829 99.2762 19.1315C99.5613 18.6801 99.7038 18.1687 99.7038 17.5974V15.8729C99.5648 15.9646 99.3736 16.0492 99.1302 16.1268C98.8938 16.1973 98.6262 16.2643 98.3272 16.3278C98.0282 16.3842 97.7293 16.4371 97.4303 16.4865C97.1313 16.5288 96.8602 16.5676 96.6169 16.6029C96.0954 16.6805 95.64 16.8039 95.2506 16.9732C94.8613 17.1425 94.5589 17.3717 94.3433 17.6609C94.1278 17.943 94.02 18.2957 94.02 18.7189C94.02 19.3325 94.239 19.8016 94.6771 20.126C95.122 20.4435 95.6852 20.6022 96.3666 20.6022Z" fill="#D8D8D8"/>
<path d="M107.562 23.4059V7.15487H111.796V10.0221H111.984C112.318 9.06987 112.874 8.31868 113.653 7.76851C114.431 7.21835 115.363 6.94327 116.448 6.94327C117.546 6.94327 118.481 7.22188 119.253 7.77909C120.025 8.32926 120.539 9.07692 120.796 10.0221H120.963C121.29 9.09103 121.881 8.34689 122.736 7.78968C123.598 7.22541 124.617 6.94327 125.792 6.94327C127.287 6.94327 128.5 7.42643 129.432 8.39274C130.37 9.352 130.84 10.7133 130.84 12.4767V23.4059H126.407V13.3654C126.407 12.4625 126.171 11.7854 125.698 11.334C125.225 10.8826 124.634 10.6569 123.925 10.6569C123.119 10.6569 122.489 10.9179 122.037 11.4398C121.586 11.9547 121.36 12.6354 121.36 13.4818V23.4059H117.052V13.2702C117.052 12.4731 116.826 11.8383 116.375 11.3657C115.93 10.8932 115.342 10.6569 114.612 10.6569C114.118 10.6569 113.673 10.7838 113.277 11.0378C112.888 11.2846 112.578 11.6338 112.349 12.0852C112.12 12.5296 112.005 13.0515 112.005 13.651V23.4059H107.562Z" fill="#D8D8D8"/>
<path d="M141.649 23.7233C140.001 23.7233 138.583 23.3847 137.394 22.7076C136.212 22.0234 135.301 21.0571 134.662 19.8086C134.022 18.5531 133.702 17.0684 133.702 15.3544C133.702 13.6828 134.022 12.2157 134.662 10.9531C135.301 9.69056 136.202 8.70662 137.363 8.00128C138.531 7.29594 139.901 6.94327 141.472 6.94327C142.529 6.94327 143.512 7.11608 144.423 7.46169C145.341 7.80026 146.141 8.31163 146.822 8.9958C147.51 9.67998 148.046 10.5405 148.428 11.5773C148.81 12.6071 149.002 13.8133 149.002 15.1957V16.4336H135.475V13.6405H144.82C144.82 12.9915 144.681 12.4167 144.402 11.9159C144.124 11.4151 143.738 11.0237 143.245 10.7415C142.758 10.4523 142.191 10.3077 141.545 10.3077C140.87 10.3077 140.273 10.4664 139.751 10.7838C139.237 11.0942 138.833 11.5139 138.541 12.0429C138.249 12.5648 138.1 13.1467 138.093 13.7886V16.4442C138.093 17.2483 138.239 17.943 138.531 18.5285C138.83 19.1139 139.251 19.5653 139.793 19.8827C140.335 20.2001 140.978 20.3588 141.722 20.3588C142.216 20.3588 142.668 20.2883 143.078 20.1472C143.488 20.0061 143.839 19.7945 144.131 19.5124C144.423 19.2303 144.646 18.8847 144.799 18.4756L148.908 18.7506C148.699 19.7522 148.272 20.6268 147.625 21.3745C146.985 22.1151 146.158 22.6935 145.143 23.1096C144.135 23.5187 142.97 23.7233 141.649 23.7233Z" fill="#D8D8D8"/>
<path d="M162.173 16.4865V7.15487H166.616V23.4059H162.351V20.454H162.184C161.822 21.4062 161.221 22.1715 160.38 22.7499C159.545 23.3283 158.527 23.6175 157.324 23.6175C156.253 23.6175 155.311 23.3706 154.498 22.8769C153.684 22.3831 153.048 21.6813 152.589 20.7714C152.137 19.8615 151.908 18.7718 151.901 17.5022V7.15487H156.344V16.6981C156.351 17.6574 156.604 18.4156 157.105 18.9728C157.606 19.53 158.276 19.8086 159.118 19.8086C159.653 19.8086 160.154 19.6852 160.619 19.4383C161.085 19.1844 161.461 18.8106 161.746 18.3169C162.038 17.8231 162.18 17.213 162.173 16.4865Z" fill="#D8D8D8"/>
<path d="M174.613 14.0108V23.4059H170.17V1.73787H174.487V10.0221H174.675C175.037 9.06281 175.621 8.31163 176.427 7.76851C177.234 7.21835 178.245 6.94327 179.462 6.94327C180.574 6.94327 181.544 7.19014 182.372 7.68387C183.206 8.17056 183.853 8.87237 184.312 9.78931C184.777 10.6992 185.007 11.7889 185 13.0586V23.4059H180.557V13.8626C180.564 12.8611 180.314 12.0817 179.806 11.5244C179.306 10.9672 178.603 10.6886 177.7 10.6886C177.095 10.6886 176.559 10.8191 176.094 11.0801C175.635 11.3411 175.273 11.7219 175.009 12.2227C174.752 12.7165 174.62 13.3125 174.613 14.0108Z" fill="#D8D8D8"/>
<path d="M14.0374 11.7889L9.97011 12.0429C9.90058 11.6902 9.7511 11.3728 9.52166 11.0907C9.29222 10.8015 8.98978 10.5722 8.61434 10.403C8.24585 10.2266 7.80435 10.1385 7.28986 10.1385C6.60154 10.1385 6.021 10.2866 5.54822 10.5828C5.07544 10.872 4.83905 11.2599 4.83905 11.7466C4.83905 12.1346 4.99201 12.4625 5.29792 12.7306C5.60384 12.9986 6.12876 13.2137 6.8727 13.376L9.77195 13.9684C11.3293 14.2929 12.4904 14.8148 13.2552 15.5343C14.02 16.2537 14.4024 17.1989 14.4024 18.3698C14.4024 19.4348 14.093 20.3694 13.4742 21.1735C12.8624 21.9776 12.0211 22.6053 10.9504 23.0567C9.88667 23.5011 8.65953 23.7233 7.269 23.7233C5.14844 23.7233 3.45895 23.2754 2.20051 22.3796C0.949037 21.4768 0.215532 20.2495 0 18.6977L4.36974 18.465C4.50184 19.1209 4.82167 19.6217 5.32921 19.9673C5.83675 20.3059 6.48683 20.4752 7.27943 20.4752C8.05813 20.4752 8.68386 20.3235 9.15664 20.0202C9.63638 19.7099 9.87972 19.3114 9.88667 18.8247C9.87972 18.4156 9.70938 18.0806 9.37565 17.8196C9.04193 17.5516 8.52743 17.347 7.83216 17.2059L5.05806 16.6452C3.49371 16.3278 2.32914 15.7776 1.56435 14.9947C0.806508 14.2118 0.427588 13.2137 0.427588 12.0005C0.427588 10.9566 0.705694 10.0573 1.26191 9.30263C1.82507 8.54792 2.6142 7.96601 3.62929 7.55691C4.65133 7.14782 5.84718 6.94327 7.21685 6.94327C9.24008 6.94327 10.8322 7.37705 11.9933 8.24462C13.1614 9.11219 13.8427 10.2936 14.0374 11.7889Z" fill="#D8D8D8"/>
<path d="M27.4725 16.4865V7.15487H31.9153V23.4059H27.6498V20.454H27.483C27.1214 21.4062 26.52 22.1715 25.6788 22.7499C24.8444 23.3283 23.8259 23.6175 22.6231 23.6175C21.5524 23.6175 20.6103 23.3706 19.7968 22.8769C18.9834 22.3831 18.3472 21.6813 17.8883 20.7714C17.4364 19.8615 17.2069 18.7718 17.2 17.5022V7.15487H21.6427V16.6981C21.6497 17.6574 21.9035 18.4156 22.4041 18.9728C22.9046 19.53 23.5756 19.8086 24.4168 19.8086C24.9522 19.8086 25.4528 19.6852 25.9186 19.4383C26.3844 19.1844 26.7599 18.8106 27.045 18.3169C27.337 17.8231 27.4795 17.213 27.4725 16.4865Z" fill="#D8D8D8"/>
<path d="M46.0544 29.5V20.8032H45.9188C45.7102 21.2546 45.4147 21.7025 45.0323 22.1468C44.6569 22.5842 44.1667 22.9474 43.5618 23.2366C42.9639 23.5258 42.2339 23.6704 41.3718 23.6704C40.155 23.6704 39.0531 23.353 38.0658 22.7182C37.0855 22.0763 36.3068 21.1347 35.7297 19.8933C35.1596 18.6448 34.8745 17.1143 34.8745 15.3015C34.8745 13.4394 35.17 11.8912 35.761 10.6569C36.3519 9.41548 37.1376 8.48796 38.1179 7.87432C39.1052 7.25362 40.1863 6.94327 41.3613 6.94327C42.2582 6.94327 43.0056 7.09844 43.6036 7.40879C44.2084 7.71209 44.6951 8.09297 45.0636 8.55144C45.4391 9.00286 45.7241 9.44722 45.9188 9.88453H46.1065V7.15487H50.4867V29.5H46.0544ZM42.7797 20.0837C43.4958 20.0837 44.1007 19.8862 44.5943 19.4912C45.0949 19.0892 45.4773 18.5285 45.7415 17.809C46.0127 17.0896 46.1482 16.2467 46.1482 15.2804C46.1482 14.3141 46.0161 13.4747 45.7519 12.7623C45.4877 12.0499 45.1053 11.4998 44.6047 11.1118C44.1042 10.7239 43.4958 10.5299 42.7797 10.5299C42.0496 10.5299 41.4343 10.7309 40.9337 11.133C40.4332 11.535 40.0542 12.0922 39.797 12.8046C39.5397 13.517 39.4111 14.3423 39.4111 15.2804C39.4111 16.2255 39.5397 17.0614 39.797 17.7879C40.0612 18.5073 40.4401 19.0716 40.9337 19.4807C41.4343 19.8827 42.0496 20.0837 42.7797 20.0837Z" fill="#D8D8D8"/>
</svg>
