<svg width="175" height="34" viewBox="0 0 175 34" fill="none" xmlns="http://www.w3.org/2000/svg">
<path d="M46.3 11.5827C47.7735 11.5827 48.7982 12.8262 48.2858 13.9967L43.7157 24.4966L42.6684 26.9105C42.3601 27.6166 41.5667 28.0848 40.6826 28.0848H20.9243C19.7545 28.0848 18.807 27.2827 18.807 26.2926C18.807 25.3025 19.7545 24.5004 20.9243 24.5004H37.7266C38.6152 24.5004 39.4086 24.0322 39.7124 23.3261L42.2105 17.5849C42.7183 16.4144 41.6982 15.171 40.2247 15.171H23.4405C22.2708 15.171 21.3232 14.3689 21.3232 13.3788C21.3232 12.3887 22.2708 11.5866 23.4405 11.5866H46.2955L46.3 11.5827Z" fill="#D8D8D8"/>
<path d="M35.6169 33.3602C37.0242 33.3602 38.1649 32.3946 38.1649 31.2034C38.1649 30.0122 37.0242 29.0466 35.6169 29.0466C34.2097 29.0466 33.0689 30.0122 33.0689 31.2034C33.0689 32.3946 34.2097 33.3602 35.6169 33.3602Z" fill="#D8D8D8"/>
<path d="M25.2353 33.3602C26.6425 33.3602 27.7833 32.3945 27.7833 31.2034C27.7833 30.0122 26.6425 29.0466 25.2353 29.0466C23.828 29.0466 22.6873 30.0122 22.6873 31.2034C22.6873 32.3945 23.828 33.3602 25.2353 33.3602Z" fill="#D8D8D8"/>
<path d="M0 2.28069C0 3.26314 0.9385 4.05754 2.09916 4.05754H7.43092C8.50997 4.05754 9.4122 4.74832 9.52101 5.65785C9.7477 7.56902 10.1285 10.7351 10.3462 12.5427C10.6681 15.2444 13.5788 21.3502 21.4313 21.7685C21.4812 21.7685 21.5311 21.7685 21.5764 21.7685H34.2303C35.391 21.7685 36.3295 20.9741 36.3295 19.9916V19.9532C36.3295 18.9708 35.391 18.1764 34.2303 18.1764H21.5946C21.5946 18.1764 15.7142 18.0651 14.413 10.5509C14.4039 10.501 14.3994 10.4511 14.3949 10.4012L13.7601 2.16172C13.6876 1.22532 12.7718 0.5 11.6655 0.5H2.09916C0.9385 0.503838 0 1.29824 0 2.28069Z" fill="#D8D8D8"/>
<path d="M59.8977 28V9.025H63.8822V24.425H72.1278V28H59.8977Z" fill="#D8D8D8"/>
<path d="M74.7247 11.115V7.43H78.6539V11.115H74.7247ZM74.7801 28V13.48H78.5985V28H74.7801Z" fill="#D8D8D8"/>
<path d="M82.5893 28V7.65H86.4077V13.48H90.6689C93.6573 13.48 95.1515 14.965 95.1515 17.935V23.545C95.1515 26.515 93.6573 28 90.6689 28H82.5893ZM86.4077 24.7H90.4476C91.0378 24.7 91.333 24.4067 91.333 23.82V17.66C91.333 17.0733 91.0378 16.78 90.4476 16.78H86.4077V24.7Z" fill="#D8D8D8"/>
<path d="M97.4161 14.0575L97.8035 13.48H101.096L104.472 24.7H104.749L108.124 13.48H111.417L111.804 14.0575L105.689 33.5H102.397L102.009 32.9225L103.669 28H101.816L97.4161 14.0575Z" fill="#D8D8D8"/>
<path d="M117.723 28C114.735 28 113.241 26.5425 113.241 23.6275C113.241 20.7125 114.735 19.255 117.723 19.255H121.542V17.66C121.542 17.0733 121.246 16.78 120.656 16.78H114.79V14.7175L116.45 13.48H120.877C123.866 13.48 125.36 14.965 125.36 17.935V28H117.723ZM117.059 23.82C117.059 24.4067 117.354 24.7 117.944 24.7H121.542V22.225H117.944C117.354 22.225 117.059 22.5183 117.059 23.105V23.82Z" fill="#D8D8D8"/>
<path d="M128.398 28V24.92L137.585 12.6H128.675V9.025H142.621V12.105L133.434 24.425H142.897V28H128.398Z" fill="#D8D8D8"/>
<path d="M145.841 23.545V17.935C145.841 14.965 147.336 13.48 150.324 13.48H154.198C157.186 13.48 158.68 14.965 158.68 17.935V23.545C158.68 26.515 157.186 28 154.198 28H150.324C147.336 28 145.841 26.515 145.841 23.545ZM149.66 23.82C149.66 24.4067 149.955 24.7 150.545 24.7H153.976C154.567 24.7 154.862 24.4067 154.862 23.82V17.66C154.862 17.0733 154.567 16.78 153.976 16.78H150.545C149.955 16.78 149.66 17.0733 149.66 17.66V23.82Z" fill="#D8D8D8"/>
<path d="M162.438 28V13.48H170.517C173.506 13.48 175 14.965 175 17.935V28H171.182V17.66C171.182 17.0733 170.886 16.78 170.296 16.78H166.256V28H162.438Z" fill="#D8D8D8"/>
</svg>
